%TF.GenerationSoftware,KiCad,Pcbnew,(6.0.0)*%
%TF.CreationDate,2022-03-17T14:09:45-06:00*%
%TF.ProjectId,sensor-board,73656e73-6f72-42d6-926f-6172642e6b69,rev?*%
%TF.SameCoordinates,Original*%
%TF.FileFunction,Soldermask,Top*%
%TF.FilePolarity,Negative*%
%FSLAX46Y46*%
G04 Gerber Fmt 4.6, Leading zero omitted, Abs format (unit mm)*
G04 Created by KiCad (PCBNEW (6.0.0)) date 2022-03-17 14:09:45*
%MOMM*%
%LPD*%
G01*
G04 APERTURE LIST*
G04 Aperture macros list*
%AMRoundRect*
0 Rectangle with rounded corners*
0 $1 Rounding radius*
0 $2 $3 $4 $5 $6 $7 $8 $9 X,Y pos of 4 corners*
0 Add a 4 corners polygon primitive as box body*
4,1,4,$2,$3,$4,$5,$6,$7,$8,$9,$2,$3,0*
0 Add four circle primitives for the rounded corners*
1,1,$1+$1,$2,$3*
1,1,$1+$1,$4,$5*
1,1,$1+$1,$6,$7*
1,1,$1+$1,$8,$9*
0 Add four rect primitives between the rounded corners*
20,1,$1+$1,$2,$3,$4,$5,0*
20,1,$1+$1,$4,$5,$6,$7,0*
20,1,$1+$1,$6,$7,$8,$9,0*
20,1,$1+$1,$8,$9,$2,$3,0*%
G04 Aperture macros list end*
%ADD10RoundRect,0.250000X0.262500X0.450000X-0.262500X0.450000X-0.262500X-0.450000X0.262500X-0.450000X0*%
%ADD11O,1.700000X3.000000*%
%ADD12RoundRect,0.250000X0.325000X0.450000X-0.325000X0.450000X-0.325000X-0.450000X0.325000X-0.450000X0*%
%ADD13R,1.700000X1.700000*%
%ADD14O,1.700000X1.700000*%
G04 APERTURE END LIST*
D10*
%TO.C,R2*%
X131415000Y-57395000D03*
X129590000Y-57395000D03*
%TD*%
D11*
%TO.C,U2*%
X124220000Y-77755000D03*
X126760000Y-77755000D03*
X129300000Y-77755000D03*
X131840000Y-77755000D03*
X134380000Y-77755000D03*
X136920000Y-77755000D03*
X139460000Y-77755000D03*
X142000000Y-77755000D03*
X144540000Y-77755000D03*
X147080000Y-77755000D03*
X149620000Y-77755000D03*
X152160000Y-77755000D03*
X154700000Y-77755000D03*
X157240000Y-77755000D03*
X159780000Y-77755000D03*
X159780000Y-61245000D03*
X157240000Y-61245000D03*
X154700000Y-61245000D03*
X152160000Y-61245000D03*
X149620000Y-61245000D03*
X147080000Y-61245000D03*
X144540000Y-61245000D03*
X142000000Y-61245000D03*
X139460000Y-61245000D03*
X136920000Y-61245000D03*
X134380000Y-61245000D03*
X131840000Y-61245000D03*
X129300000Y-61245000D03*
X126760000Y-61245000D03*
X124220000Y-61245000D03*
%TD*%
D12*
%TO.C,D1*%
X127440000Y-57320000D03*
X125390000Y-57320000D03*
%TD*%
D13*
%TO.C,J2*%
X157525000Y-57950000D03*
D14*
X154985000Y-57950000D03*
X152445000Y-57950000D03*
X149905000Y-57950000D03*
%TD*%
D13*
%TO.C,J1*%
X137515000Y-57790000D03*
D14*
X140055000Y-57790000D03*
%TD*%
M02*
