M48
; DRILL file {KiCad (6.0.0)} date Thu Mar 17 14:09:46 2022
; FORMAT={-:-/ absolute / inch / decimal}
; #@! TF.CreationDate,2022-03-17T14:09:46-06:00
; #@! TF.GenerationSoftware,Kicad,Pcbnew,(6.0.0)
; #@! TF.FileFunction,Plated,1,2,PTH
FMAT,2
INCH
; #@! TA.AperFunction,Plated,PTH,ViaDrill
T1C0.0157
; #@! TA.AperFunction,Plated,PTH,ComponentDrill
T2C0.0394
%
G90
G05
T1
X4.9366Y-2.324
X4.9409Y-2.498
X4.9606Y-2.5984
X4.9606Y-2.6378
X4.9606Y-2.6772
X4.9874Y-2.9642
X5.0Y-2.5984
X5.0Y-2.6378
X5.0Y-2.6772
X5.0394Y-2.5984
X5.0394Y-2.6378
X5.0394Y-2.6772
X5.1181Y-2.874
X5.1181Y-2.9134
X5.1181Y-2.9528
X5.1575Y-2.874
X5.1575Y-2.9134
X5.1575Y-2.9528
X5.1969Y-2.874
X5.1969Y-2.9134
X5.1969Y-2.9528
X5.2067Y-2.7323
X5.2445Y-2.2622
X5.3393Y-2.8529
X5.3597Y-2.5751
X5.4105Y-2.8521
X5.4835Y-2.8307
X5.6374Y-2.5012
X5.6957Y-2.9165
X5.7945Y-2.935
X5.8661Y-2.5591
X5.8661Y-2.5984
X5.9055Y-2.5591
X5.9055Y-2.5984
X5.9264Y-2.9008
X5.9559Y-2.7262
X6.0043Y-2.5087
X6.0429Y-2.4819
X6.063Y-2.9134
X6.063Y-2.9528
X6.0888Y-2.5085
X6.1024Y-2.9134
X6.1024Y-2.9528
X6.2598Y-2.5591
X6.2598Y-2.5984
X6.2598Y-2.6378
X6.2598Y-2.6772
X6.2598Y-2.7165
X6.2598Y-2.7559
X6.2728Y-2.935
T2
X5.414Y-2.2752
X5.514Y-2.2752
X5.9018Y-2.2815
X6.0018Y-2.2815
X6.1018Y-2.2815
X6.2018Y-2.2815
T0
M30
