%TF.GenerationSoftware,KiCad,Pcbnew,(6.0.0)*%
%TF.CreationDate,2022-03-17T14:09:45-06:00*%
%TF.ProjectId,sensor-board,73656e73-6f72-42d6-926f-6172642e6b69,rev?*%
%TF.SameCoordinates,Original*%
%TF.FileFunction,Legend,Bot*%
%TF.FilePolarity,Positive*%
%FSLAX46Y46*%
G04 Gerber Fmt 4.6, Leading zero omitted, Abs format (unit mm)*
G04 Created by KiCad (PCBNEW (6.0.0)) date 2022-03-17 14:09:45*
%MOMM*%
%LPD*%
G01*
G04 APERTURE LIST*
%ADD10C,0.150000*%
%ADD11C,0.120000*%
%ADD12C,0.250000*%
G04 APERTURE END LIST*
D10*
X142770952Y-57641428D02*
X142009047Y-57641428D01*
X142390000Y-58022380D02*
X142390000Y-57260476D01*
X134759047Y-57838571D02*
X135520952Y-57838571D01*
%TO.C,R4*%
X156465380Y-71175333D02*
X155989190Y-70842000D01*
X156465380Y-70603904D02*
X155465380Y-70603904D01*
X155465380Y-70984857D01*
X155513000Y-71080095D01*
X155560619Y-71127714D01*
X155655857Y-71175333D01*
X155798714Y-71175333D01*
X155893952Y-71127714D01*
X155941571Y-71080095D01*
X155989190Y-70984857D01*
X155989190Y-70603904D01*
X155798714Y-72032476D02*
X156465380Y-72032476D01*
X155417761Y-71794380D02*
X156132047Y-71556285D01*
X156132047Y-72175333D01*
%TO.C,C5*%
X134863666Y-72499642D02*
X134911285Y-72547261D01*
X135054142Y-72594880D01*
X135149380Y-72594880D01*
X135292238Y-72547261D01*
X135387476Y-72452023D01*
X135435095Y-72356785D01*
X135482714Y-72166309D01*
X135482714Y-72023452D01*
X135435095Y-71832976D01*
X135387476Y-71737738D01*
X135292238Y-71642500D01*
X135149380Y-71594880D01*
X135054142Y-71594880D01*
X134911285Y-71642500D01*
X134863666Y-71690119D01*
X133958904Y-71594880D02*
X134435095Y-71594880D01*
X134482714Y-72071071D01*
X134435095Y-72023452D01*
X134339857Y-71975833D01*
X134101761Y-71975833D01*
X134006523Y-72023452D01*
X133958904Y-72071071D01*
X133911285Y-72166309D01*
X133911285Y-72404404D01*
X133958904Y-72499642D01*
X134006523Y-72547261D01*
X134101761Y-72594880D01*
X134339857Y-72594880D01*
X134435095Y-72547261D01*
X134482714Y-72499642D01*
%TO.C,U3*%
X135538904Y-64454880D02*
X135538904Y-65264404D01*
X135491285Y-65359642D01*
X135443666Y-65407261D01*
X135348428Y-65454880D01*
X135157952Y-65454880D01*
X135062714Y-65407261D01*
X135015095Y-65359642D01*
X134967476Y-65264404D01*
X134967476Y-64454880D01*
X134586523Y-64454880D02*
X133967476Y-64454880D01*
X134300809Y-64835833D01*
X134157952Y-64835833D01*
X134062714Y-64883452D01*
X134015095Y-64931071D01*
X133967476Y-65026309D01*
X133967476Y-65264404D01*
X134015095Y-65359642D01*
X134062714Y-65407261D01*
X134157952Y-65454880D01*
X134443666Y-65454880D01*
X134538904Y-65407261D01*
X134586523Y-65359642D01*
%TO.C,C2*%
X137873666Y-64339642D02*
X137921285Y-64387261D01*
X138064142Y-64434880D01*
X138159380Y-64434880D01*
X138302238Y-64387261D01*
X138397476Y-64292023D01*
X138445095Y-64196785D01*
X138492714Y-64006309D01*
X138492714Y-63863452D01*
X138445095Y-63672976D01*
X138397476Y-63577738D01*
X138302238Y-63482500D01*
X138159380Y-63434880D01*
X138064142Y-63434880D01*
X137921285Y-63482500D01*
X137873666Y-63530119D01*
X137492714Y-63530119D02*
X137445095Y-63482500D01*
X137349857Y-63434880D01*
X137111761Y-63434880D01*
X137016523Y-63482500D01*
X136968904Y-63530119D01*
X136921285Y-63625357D01*
X136921285Y-63720595D01*
X136968904Y-63863452D01*
X137540333Y-64434880D01*
X136921285Y-64434880D01*
%TO.C,C4*%
X138806666Y-63087142D02*
X138854285Y-63134761D01*
X138997142Y-63182380D01*
X139092380Y-63182380D01*
X139235238Y-63134761D01*
X139330476Y-63039523D01*
X139378095Y-62944285D01*
X139425714Y-62753809D01*
X139425714Y-62610952D01*
X139378095Y-62420476D01*
X139330476Y-62325238D01*
X139235238Y-62230000D01*
X139092380Y-62182380D01*
X138997142Y-62182380D01*
X138854285Y-62230000D01*
X138806666Y-62277619D01*
X137949523Y-62515714D02*
X137949523Y-63182380D01*
X138187619Y-62134761D02*
X138425714Y-62849047D01*
X137806666Y-62849047D01*
%TO.C,C6*%
X156460142Y-69055333D02*
X156507761Y-69007714D01*
X156555380Y-68864857D01*
X156555380Y-68769619D01*
X156507761Y-68626761D01*
X156412523Y-68531523D01*
X156317285Y-68483904D01*
X156126809Y-68436285D01*
X155983952Y-68436285D01*
X155793476Y-68483904D01*
X155698238Y-68531523D01*
X155603000Y-68626761D01*
X155555380Y-68769619D01*
X155555380Y-68864857D01*
X155603000Y-69007714D01*
X155650619Y-69055333D01*
X155555380Y-69912476D02*
X155555380Y-69722000D01*
X155603000Y-69626761D01*
X155650619Y-69579142D01*
X155793476Y-69483904D01*
X155983952Y-69436285D01*
X156364904Y-69436285D01*
X156460142Y-69483904D01*
X156507761Y-69531523D01*
X156555380Y-69626761D01*
X156555380Y-69817238D01*
X156507761Y-69912476D01*
X156460142Y-69960095D01*
X156364904Y-70007714D01*
X156126809Y-70007714D01*
X156031571Y-69960095D01*
X155983952Y-69912476D01*
X155936333Y-69817238D01*
X155936333Y-69626761D01*
X155983952Y-69531523D01*
X156031571Y-69483904D01*
X156126809Y-69436285D01*
%TO.C,Q1*%
X140592238Y-63990119D02*
X140687476Y-63942500D01*
X140782714Y-63847261D01*
X140925571Y-63704404D01*
X141020809Y-63656785D01*
X141116047Y-63656785D01*
X141068428Y-63894880D02*
X141163666Y-63847261D01*
X141258904Y-63752023D01*
X141306523Y-63561547D01*
X141306523Y-63228214D01*
X141258904Y-63037738D01*
X141163666Y-62942500D01*
X141068428Y-62894880D01*
X140877952Y-62894880D01*
X140782714Y-62942500D01*
X140687476Y-63037738D01*
X140639857Y-63228214D01*
X140639857Y-63561547D01*
X140687476Y-63752023D01*
X140782714Y-63847261D01*
X140877952Y-63894880D01*
X141068428Y-63894880D01*
X139687476Y-63894880D02*
X140258904Y-63894880D01*
X139973190Y-63894880D02*
X139973190Y-62894880D01*
X140068428Y-63037738D01*
X140163666Y-63132976D01*
X140258904Y-63180595D01*
%TO.C,C1*%
X137543666Y-72499642D02*
X137591285Y-72547261D01*
X137734142Y-72594880D01*
X137829380Y-72594880D01*
X137972238Y-72547261D01*
X138067476Y-72452023D01*
X138115095Y-72356785D01*
X138162714Y-72166309D01*
X138162714Y-72023452D01*
X138115095Y-71832976D01*
X138067476Y-71737738D01*
X137972238Y-71642500D01*
X137829380Y-71594880D01*
X137734142Y-71594880D01*
X137591285Y-71642500D01*
X137543666Y-71690119D01*
X136591285Y-72594880D02*
X137162714Y-72594880D01*
X136877000Y-72594880D02*
X136877000Y-71594880D01*
X136972238Y-71737738D01*
X137067476Y-71832976D01*
X137162714Y-71880595D01*
%TO.C,U4*%
X155155380Y-64440095D02*
X155964904Y-64440095D01*
X156060142Y-64487714D01*
X156107761Y-64535333D01*
X156155380Y-64630571D01*
X156155380Y-64821047D01*
X156107761Y-64916285D01*
X156060142Y-64963904D01*
X155964904Y-65011523D01*
X155155380Y-65011523D01*
X155488714Y-65916285D02*
X156155380Y-65916285D01*
X155107761Y-65678190D02*
X155822047Y-65440095D01*
X155822047Y-66059142D01*
%TO.C,C3*%
X143622142Y-63470833D02*
X143669761Y-63423214D01*
X143717380Y-63280357D01*
X143717380Y-63185119D01*
X143669761Y-63042261D01*
X143574523Y-62947023D01*
X143479285Y-62899404D01*
X143288809Y-62851785D01*
X143145952Y-62851785D01*
X142955476Y-62899404D01*
X142860238Y-62947023D01*
X142765000Y-63042261D01*
X142717380Y-63185119D01*
X142717380Y-63280357D01*
X142765000Y-63423214D01*
X142812619Y-63470833D01*
X142717380Y-63804166D02*
X142717380Y-64423214D01*
X143098333Y-64089880D01*
X143098333Y-64232738D01*
X143145952Y-64327976D01*
X143193571Y-64375595D01*
X143288809Y-64423214D01*
X143526904Y-64423214D01*
X143622142Y-64375595D01*
X143669761Y-64327976D01*
X143717380Y-64232738D01*
X143717380Y-63947023D01*
X143669761Y-63851785D01*
X143622142Y-63804166D01*
%TO.C,R1*%
X145577380Y-69583333D02*
X145101190Y-69250000D01*
X145577380Y-69011904D02*
X144577380Y-69011904D01*
X144577380Y-69392857D01*
X144625000Y-69488095D01*
X144672619Y-69535714D01*
X144767857Y-69583333D01*
X144910714Y-69583333D01*
X145005952Y-69535714D01*
X145053571Y-69488095D01*
X145101190Y-69392857D01*
X145101190Y-69011904D01*
X145577380Y-70535714D02*
X145577380Y-69964285D01*
X145577380Y-70250000D02*
X144577380Y-70250000D01*
X144720238Y-70154761D01*
X144815476Y-70059523D01*
X144863095Y-69964285D01*
%TO.C,R3*%
X145592380Y-63445833D02*
X145116190Y-63112500D01*
X145592380Y-62874404D02*
X144592380Y-62874404D01*
X144592380Y-63255357D01*
X144640000Y-63350595D01*
X144687619Y-63398214D01*
X144782857Y-63445833D01*
X144925714Y-63445833D01*
X145020952Y-63398214D01*
X145068571Y-63350595D01*
X145116190Y-63255357D01*
X145116190Y-62874404D01*
X144592380Y-63779166D02*
X144592380Y-64398214D01*
X144973333Y-64064880D01*
X144973333Y-64207738D01*
X145020952Y-64302976D01*
X145068571Y-64350595D01*
X145163809Y-64398214D01*
X145401904Y-64398214D01*
X145497142Y-64350595D01*
X145544761Y-64302976D01*
X145592380Y-64207738D01*
X145592380Y-63922023D01*
X145544761Y-63826785D01*
X145497142Y-63779166D01*
%TO.C,U1*%
X141226904Y-71572380D02*
X141226904Y-72381904D01*
X141179285Y-72477142D01*
X141131666Y-72524761D01*
X141036428Y-72572380D01*
X140845952Y-72572380D01*
X140750714Y-72524761D01*
X140703095Y-72477142D01*
X140655476Y-72381904D01*
X140655476Y-71572380D01*
X139655476Y-72572380D02*
X140226904Y-72572380D01*
X139941190Y-72572380D02*
X139941190Y-71572380D01*
X140036428Y-71715238D01*
X140131666Y-71810476D01*
X140226904Y-71858095D01*
D11*
%TO.C,R4*%
X153362936Y-70590000D02*
X153817064Y-70590000D01*
X153362936Y-72060000D02*
X153817064Y-72060000D01*
%TO.C,C5*%
X134435748Y-71197500D02*
X134958252Y-71197500D01*
X134435748Y-69727500D02*
X134958252Y-69727500D01*
%TO.C,U3*%
X133137000Y-67522500D02*
X133137000Y-66872500D01*
X136257000Y-67522500D02*
X136257000Y-69197500D01*
X133137000Y-67522500D02*
X133137000Y-68172500D01*
X136257000Y-67522500D02*
X136257000Y-66872500D01*
%TO.C,C2*%
X138470000Y-66571252D02*
X138470000Y-66048748D01*
X137000000Y-66571252D02*
X137000000Y-66048748D01*
%TO.C,C4*%
X138886252Y-60265000D02*
X138363748Y-60265000D01*
X138886252Y-61735000D02*
X138363748Y-61735000D01*
%TO.C,C6*%
X153353748Y-68565000D02*
X153876252Y-68565000D01*
X153353748Y-70035000D02*
X153876252Y-70035000D01*
%TO.C,Q1*%
X142015000Y-66090000D02*
X142015000Y-67765000D01*
X142015000Y-66090000D02*
X142015000Y-65440000D01*
X138895000Y-66090000D02*
X138895000Y-66740000D01*
X138895000Y-66090000D02*
X138895000Y-65440000D01*
%TO.C,C1*%
X136690000Y-69458748D02*
X136690000Y-69981252D01*
X138160000Y-69458748D02*
X138160000Y-69981252D01*
D12*
%TO.C,U4*%
X152025000Y-64725000D02*
G75*
G03*
X152025000Y-64725000I-125000J0D01*
G01*
D11*
%TO.C,C3*%
X142455000Y-66026248D02*
X142455000Y-66548752D01*
X143925000Y-66026248D02*
X143925000Y-66548752D01*
%TO.C,R1*%
X144210000Y-69977064D02*
X144210000Y-69522936D01*
X142740000Y-69977064D02*
X142740000Y-69522936D01*
%TO.C,R3*%
X144405000Y-66047936D02*
X144405000Y-66502064D01*
X145875000Y-66047936D02*
X145875000Y-66502064D01*
%TO.C,U1*%
X140465000Y-68160000D02*
X139665000Y-68160000D01*
X140465000Y-71280000D02*
X138665000Y-71280000D01*
X140465000Y-71280000D02*
X141265000Y-71280000D01*
X140465000Y-68160000D02*
X141265000Y-68160000D01*
%TD*%
M02*
