%TF.GenerationSoftware,KiCad,Pcbnew,(6.0.0)*%
%TF.CreationDate,2022-03-17T14:10:59-06:00*%
%TF.ProjectId,sensor-co2,73656e73-6f72-42d6-936f-322e6b696361,rev?*%
%TF.SameCoordinates,Original*%
%TF.FileFunction,Copper,L1,Top*%
%TF.FilePolarity,Positive*%
%FSLAX46Y46*%
G04 Gerber Fmt 4.6, Leading zero omitted, Abs format (unit mm)*
G04 Created by KiCad (PCBNEW (6.0.0)) date 2022-03-17 14:10:59*
%MOMM*%
%LPD*%
G01*
G04 APERTURE LIST*
G04 Aperture macros list*
%AMRoundRect*
0 Rectangle with rounded corners*
0 $1 Rounding radius*
0 $2 $3 $4 $5 $6 $7 $8 $9 X,Y pos of 4 corners*
0 Add a 4 corners polygon primitive as box body*
4,1,4,$2,$3,$4,$5,$6,$7,$8,$9,$2,$3,0*
0 Add four circle primitives for the rounded corners*
1,1,$1+$1,$2,$3*
1,1,$1+$1,$4,$5*
1,1,$1+$1,$6,$7*
1,1,$1+$1,$8,$9*
0 Add four rect primitives between the rounded corners*
20,1,$1+$1,$2,$3,$4,$5,0*
20,1,$1+$1,$4,$5,$6,$7,0*
20,1,$1+$1,$6,$7,$8,$9,0*
20,1,$1+$1,$8,$9,$2,$3,0*%
G04 Aperture macros list end*
%TA.AperFunction,SMDPad,CuDef*%
%ADD10R,1.500000X0.800000*%
%TD*%
%TA.AperFunction,SMDPad,CuDef*%
%ADD11R,0.800000X1.500000*%
%TD*%
%TA.AperFunction,SMDPad,CuDef*%
%ADD12R,4.800000X4.800000*%
%TD*%
%TA.AperFunction,SMDPad,CuDef*%
%ADD13RoundRect,0.250000X0.250000X0.475000X-0.250000X0.475000X-0.250000X-0.475000X0.250000X-0.475000X0*%
%TD*%
%TA.AperFunction,ComponentPad*%
%ADD14R,1.700000X1.700000*%
%TD*%
%TA.AperFunction,ComponentPad*%
%ADD15O,1.700000X1.700000*%
%TD*%
%TA.AperFunction,ViaPad*%
%ADD16C,0.800000*%
%TD*%
%TA.AperFunction,Conductor*%
%ADD17C,0.300000*%
%TD*%
%TA.AperFunction,Conductor*%
%ADD18C,0.500000*%
%TD*%
G04 APERTURE END LIST*
D10*
%TO.P,U1,1*%
%TO.N,N/C*%
X133230000Y-83330000D03*
%TO.P,U1,2*%
X133230000Y-84580000D03*
%TO.P,U1,3*%
X133230000Y-85830000D03*
%TO.P,U1,4*%
X133230000Y-87080000D03*
%TO.P,U1,5*%
X133230000Y-88330000D03*
D11*
%TO.P,U1,6,GND*%
%TO.N,GND*%
X134730000Y-89830000D03*
%TO.P,U1,7,VDD*%
%TO.N,+3V3*%
X135980000Y-89830000D03*
%TO.P,U1,8*%
%TO.N,N/C*%
X137230000Y-89830000D03*
%TO.P,U1,9,SCL*%
%TO.N,/SCL*%
X138480000Y-89830000D03*
%TO.P,U1,10,SDA*%
%TO.N,/SDA*%
X139730000Y-89830000D03*
D10*
%TO.P,U1,11*%
%TO.N,N/C*%
X141230000Y-88330000D03*
%TO.P,U1,12*%
X141230000Y-87080000D03*
%TO.P,U1,13*%
X141230000Y-85830000D03*
%TO.P,U1,14*%
X141230000Y-84580000D03*
%TO.P,U1,15*%
X141230000Y-83330000D03*
D11*
%TO.P,U1,16*%
X139730000Y-81830000D03*
%TO.P,U1,17*%
X138480000Y-81830000D03*
%TO.P,U1,18*%
X137230000Y-81830000D03*
%TO.P,U1,19,VDDH*%
%TO.N,+3V3*%
X135980000Y-81830000D03*
%TO.P,U1,20,GND_2*%
%TO.N,GND*%
X134730000Y-81830000D03*
D12*
%TO.P,U1,21,GND_3*%
X137230000Y-85830000D03*
%TD*%
D13*
%TO.P,C3,1*%
%TO.N,+3V3*%
X136200000Y-79050000D03*
%TO.P,C3,2*%
%TO.N,GND*%
X134300000Y-79050000D03*
%TD*%
%TO.P,C1,1*%
%TO.N,+3V3*%
X136770000Y-92840000D03*
%TO.P,C1,2*%
%TO.N,GND*%
X134870000Y-92840000D03*
%TD*%
D14*
%TO.P,J2,1,Pin_1*%
%TO.N,+3V3*%
X145280000Y-82200000D03*
D15*
%TO.P,J2,2,Pin_2*%
%TO.N,/SDA*%
X145280000Y-84740000D03*
%TO.P,J2,3,Pin_3*%
%TO.N,/SCL*%
X145280000Y-87280000D03*
%TO.P,J2,4,Pin_4*%
%TO.N,GND*%
X145280000Y-89820000D03*
%TD*%
D16*
%TO.N,GND*%
X135790000Y-94300000D03*
X137960000Y-77520000D03*
X133520000Y-92460000D03*
%TO.N,+3V3*%
X137960000Y-92890000D03*
%TD*%
D17*
%TO.N,GND*%
X134870000Y-93380000D02*
X135790000Y-94300000D01*
X138430000Y-95190000D02*
X138730000Y-95490000D01*
X137770000Y-94780000D02*
X138020000Y-94780000D01*
X134730000Y-92700000D02*
X134730000Y-89830000D01*
X134870000Y-92840000D02*
X133900000Y-92840000D01*
X138020000Y-94780000D02*
X138430000Y-95190000D01*
X134730000Y-88330000D02*
X134730000Y-89830000D01*
X133900000Y-92840000D02*
X133520000Y-92460000D01*
X138940000Y-95490000D02*
X139210000Y-95490000D01*
X136720000Y-94770000D02*
X136730000Y-94780000D01*
X134730000Y-83330000D02*
X134730000Y-81830000D01*
D18*
X134300000Y-80030000D02*
X134730000Y-80460000D01*
D17*
X135790000Y-94300000D02*
X136250000Y-94300000D01*
X137870000Y-77610000D02*
X137960000Y-77520000D01*
X136730000Y-94780000D02*
X137770000Y-94780000D01*
X134870000Y-92840000D02*
X134730000Y-92700000D01*
X136250000Y-94300000D02*
X136720000Y-94770000D01*
X137230000Y-85830000D02*
X134730000Y-83330000D01*
X135770000Y-77610000D02*
X137870000Y-77610000D01*
X138730000Y-95490000D02*
X138940000Y-95490000D01*
X137230000Y-85830000D02*
X134730000Y-88330000D01*
X142180000Y-95070000D02*
X144370000Y-92880000D01*
X141070000Y-95740000D02*
X141510000Y-95740000D01*
X134300000Y-79050000D02*
X134630000Y-78720000D01*
X134870000Y-92840000D02*
X134870000Y-93380000D01*
D18*
X134730000Y-80460000D02*
X134730000Y-81830000D01*
D17*
X139210000Y-95490000D02*
X139330000Y-95610000D01*
X134630000Y-78720000D02*
X134630000Y-78280000D01*
X139330000Y-95610000D02*
X139460000Y-95740000D01*
D18*
X134300000Y-79050000D02*
X134300000Y-80030000D01*
D17*
X141510000Y-95740000D02*
X142180000Y-95070000D01*
X134630000Y-78280000D02*
X135300000Y-77610000D01*
X144370000Y-92880000D02*
X144400000Y-92880000D01*
X135300000Y-77610000D02*
X135770000Y-77610000D01*
X139460000Y-95740000D02*
X141070000Y-95740000D01*
D18*
%TO.N,+3V3*%
X145280000Y-80600000D02*
X144730000Y-80050000D01*
X135980000Y-80430000D02*
X135980000Y-81830000D01*
X136770000Y-92840000D02*
X137910000Y-92840000D01*
X135980000Y-92050000D02*
X135980000Y-89830000D01*
X136770000Y-92840000D02*
X135980000Y-92050000D01*
X137910000Y-92840000D02*
X137960000Y-92890000D01*
X136200000Y-80210000D02*
X135980000Y-80430000D01*
X138340000Y-80050000D02*
X137340000Y-79050000D01*
X137340000Y-79050000D02*
X136200000Y-79050000D01*
X144730000Y-80050000D02*
X138340000Y-80050000D01*
X145280000Y-82200000D02*
X145280000Y-80600000D01*
X136200000Y-79050000D02*
X136200000Y-80210000D01*
D17*
%TO.N,/SDA*%
X142600000Y-89350000D02*
X142600000Y-85330000D01*
X142120000Y-89830000D02*
X142600000Y-89350000D01*
X143250000Y-84740000D02*
X145280000Y-84740000D01*
X143220000Y-84710000D02*
X143250000Y-84740000D01*
X139730000Y-89830000D02*
X142120000Y-89830000D01*
X142600000Y-85330000D02*
X143220000Y-84710000D01*
%TO.N,/SCL*%
X138770000Y-90990000D02*
X138480000Y-90700000D01*
X143840000Y-87280000D02*
X143220000Y-87900000D01*
X145280000Y-87280000D02*
X143840000Y-87280000D01*
X143220000Y-87900000D02*
X143220000Y-90000000D01*
X138480000Y-90700000D02*
X138480000Y-89830000D01*
X143220000Y-90000000D02*
X142230000Y-90990000D01*
X142230000Y-90990000D02*
X138770000Y-90990000D01*
%TD*%
%TA.AperFunction,Conductor*%
%TO.N,GND*%
G36*
X134496121Y-78816002D02*
G01*
X134542614Y-78869658D01*
X134554000Y-78922000D01*
X134554000Y-80264884D01*
X134558475Y-80280123D01*
X134559865Y-80281328D01*
X134567548Y-80282999D01*
X134597095Y-80282999D01*
X134603614Y-80282662D01*
X134699206Y-80272743D01*
X134712600Y-80269851D01*
X134866784Y-80218412D01*
X134879962Y-80212239D01*
X135017807Y-80126937D01*
X135029208Y-80117901D01*
X135143739Y-80003171D01*
X135152751Y-79991760D01*
X135234336Y-79859404D01*
X135287108Y-79811911D01*
X135357180Y-79800487D01*
X135422304Y-79828761D01*
X135441559Y-79848817D01*
X135496444Y-79920346D01*
X135522044Y-79986567D01*
X135507779Y-80056115D01*
X135496442Y-80073756D01*
X135495131Y-80075464D01*
X135495128Y-80075468D01*
X135495127Y-80075467D01*
X135460494Y-80120603D01*
X135460492Y-80120606D01*
X135455464Y-80127159D01*
X135394956Y-80273238D01*
X135374318Y-80430000D01*
X135375396Y-80438188D01*
X135375396Y-80446446D01*
X135373667Y-80446446D01*
X135364255Y-80506803D01*
X135317126Y-80559901D01*
X135248772Y-80579091D01*
X135236665Y-80578363D01*
X135181488Y-80572369D01*
X135174672Y-80572000D01*
X135002115Y-80572000D01*
X134986876Y-80576475D01*
X134985671Y-80577865D01*
X134984000Y-80585548D01*
X134984000Y-81958000D01*
X134963998Y-82026121D01*
X134910342Y-82072614D01*
X134858000Y-82084000D01*
X133840116Y-82084000D01*
X133824877Y-82088475D01*
X133823672Y-82089865D01*
X133822001Y-82097548D01*
X133822001Y-82453500D01*
X133801999Y-82521621D01*
X133748343Y-82568114D01*
X133696001Y-82579500D01*
X132446782Y-82579500D01*
X132442232Y-82580170D01*
X132442229Y-82580170D01*
X132387574Y-82588216D01*
X132387573Y-82588216D01*
X132377888Y-82589642D01*
X132329869Y-82613218D01*
X132282493Y-82636478D01*
X132282491Y-82636479D01*
X132273145Y-82641068D01*
X132190707Y-82723650D01*
X132139464Y-82828482D01*
X132129500Y-82896782D01*
X132129500Y-83763218D01*
X132130170Y-83767768D01*
X132130170Y-83767771D01*
X132138216Y-83822426D01*
X132139642Y-83832112D01*
X132143958Y-83840902D01*
X132172696Y-83899435D01*
X132184764Y-83969399D01*
X132172794Y-84010295D01*
X132139464Y-84078482D01*
X132129500Y-84146782D01*
X132129500Y-85013218D01*
X132130170Y-85017768D01*
X132130170Y-85017771D01*
X132130712Y-85021452D01*
X132139642Y-85082112D01*
X132143958Y-85090902D01*
X132172696Y-85149435D01*
X132184764Y-85219399D01*
X132172794Y-85260295D01*
X132139464Y-85328482D01*
X132129500Y-85396782D01*
X132129500Y-86263218D01*
X132139642Y-86332112D01*
X132143958Y-86340902D01*
X132172696Y-86399435D01*
X132184764Y-86469399D01*
X132172794Y-86510295D01*
X132139464Y-86578482D01*
X132129500Y-86646782D01*
X132129500Y-87513218D01*
X132130170Y-87517768D01*
X132130170Y-87517771D01*
X132138216Y-87572426D01*
X132139642Y-87582112D01*
X132143958Y-87590902D01*
X132172696Y-87649435D01*
X132184764Y-87719399D01*
X132172794Y-87760295D01*
X132139464Y-87828482D01*
X132138052Y-87838162D01*
X132130849Y-87887537D01*
X132129500Y-87896782D01*
X132129500Y-88763218D01*
X132130170Y-88767768D01*
X132130170Y-88767771D01*
X132137891Y-88820215D01*
X132139642Y-88832112D01*
X132191068Y-88936855D01*
X132273650Y-89019293D01*
X132378482Y-89070536D01*
X132408973Y-89074984D01*
X132442256Y-89079840D01*
X132442260Y-89079840D01*
X132446782Y-89080500D01*
X133696000Y-89080500D01*
X133764121Y-89100502D01*
X133810614Y-89154158D01*
X133822000Y-89206500D01*
X133822000Y-89557885D01*
X133826475Y-89573124D01*
X133827865Y-89574329D01*
X133835548Y-89576000D01*
X134858000Y-89576000D01*
X134926121Y-89596002D01*
X134972614Y-89649658D01*
X134984000Y-89702000D01*
X134984000Y-91069884D01*
X134988475Y-91085123D01*
X134989865Y-91086328D01*
X134997548Y-91087999D01*
X135174669Y-91087999D01*
X135181490Y-91087629D01*
X135239895Y-91081286D01*
X135309777Y-91093815D01*
X135361792Y-91142137D01*
X135379500Y-91206549D01*
X135379500Y-91488858D01*
X135359498Y-91556979D01*
X135305842Y-91603472D01*
X135240658Y-91614202D01*
X135173562Y-91607328D01*
X135167145Y-91607000D01*
X135142115Y-91607000D01*
X135126876Y-91611475D01*
X135125671Y-91612865D01*
X135124000Y-91620548D01*
X135124000Y-94054884D01*
X135128475Y-94070123D01*
X135129865Y-94071328D01*
X135137548Y-94072999D01*
X135167095Y-94072999D01*
X135173614Y-94072662D01*
X135269206Y-94062743D01*
X135282600Y-94059851D01*
X135436784Y-94008412D01*
X135449962Y-94002239D01*
X135550538Y-93940000D01*
X138935052Y-93940000D01*
X138954812Y-94191069D01*
X138955966Y-94195876D01*
X138955967Y-94195882D01*
X138993230Y-94351093D01*
X139013604Y-94435956D01*
X139015497Y-94440527D01*
X139015498Y-94440529D01*
X139091999Y-94625218D01*
X139109981Y-94668631D01*
X139241570Y-94883365D01*
X139405130Y-95074870D01*
X139596635Y-95238430D01*
X139600852Y-95241014D01*
X139804705Y-95365935D01*
X139811369Y-95370019D01*
X139815939Y-95371912D01*
X139815943Y-95371914D01*
X140013690Y-95453823D01*
X140044044Y-95466396D01*
X140128907Y-95486770D01*
X140284118Y-95524033D01*
X140284124Y-95524034D01*
X140288931Y-95525188D01*
X140540000Y-95544948D01*
X140791069Y-95525188D01*
X140795876Y-95524034D01*
X140795882Y-95524033D01*
X140951093Y-95486770D01*
X141035956Y-95466396D01*
X141066310Y-95453823D01*
X141264057Y-95371914D01*
X141264061Y-95371912D01*
X141268631Y-95370019D01*
X141275296Y-95365935D01*
X141479148Y-95241014D01*
X141483365Y-95238430D01*
X141674870Y-95074870D01*
X141838430Y-94883365D01*
X141970019Y-94668631D01*
X141988002Y-94625218D01*
X142064502Y-94440529D01*
X142064503Y-94440527D01*
X142066396Y-94435956D01*
X142086770Y-94351093D01*
X142124033Y-94195882D01*
X142124034Y-94195876D01*
X142125188Y-94191069D01*
X142144948Y-93940000D01*
X142125188Y-93688931D01*
X142115699Y-93649404D01*
X142077808Y-93491578D01*
X142066396Y-93444044D01*
X142052706Y-93410993D01*
X141971914Y-93215943D01*
X141971912Y-93215939D01*
X141970019Y-93211369D01*
X141838430Y-92996635D01*
X141674870Y-92805130D01*
X141483365Y-92641570D01*
X141268631Y-92509981D01*
X141264061Y-92508088D01*
X141264057Y-92508086D01*
X141040529Y-92415498D01*
X141040527Y-92415497D01*
X141035956Y-92413604D01*
X140951093Y-92393230D01*
X140795882Y-92355967D01*
X140795876Y-92355966D01*
X140791069Y-92354812D01*
X140540000Y-92335052D01*
X140288931Y-92354812D01*
X140284124Y-92355966D01*
X140284118Y-92355967D01*
X140128907Y-92393230D01*
X140044044Y-92413604D01*
X140039473Y-92415497D01*
X140039471Y-92415498D01*
X139815943Y-92508086D01*
X139815939Y-92508088D01*
X139811369Y-92509981D01*
X139596635Y-92641570D01*
X139405130Y-92805130D01*
X139241570Y-92996635D01*
X139109981Y-93211369D01*
X139108088Y-93215939D01*
X139108086Y-93215943D01*
X139027294Y-93410993D01*
X139013604Y-93444044D01*
X139002192Y-93491578D01*
X138964302Y-93649404D01*
X138954812Y-93688931D01*
X138935052Y-93940000D01*
X135550538Y-93940000D01*
X135587807Y-93916937D01*
X135599208Y-93907901D01*
X135713739Y-93793171D01*
X135722751Y-93781760D01*
X135804336Y-93649404D01*
X135857108Y-93601911D01*
X135927180Y-93590487D01*
X135992304Y-93618761D01*
X136011557Y-93638814D01*
X136091718Y-93743282D01*
X136217159Y-93839536D01*
X136363238Y-93900044D01*
X136371426Y-93901122D01*
X136476545Y-93914961D01*
X136480639Y-93915500D01*
X136769964Y-93915500D01*
X137059360Y-93915499D01*
X137063444Y-93914961D01*
X137063450Y-93914961D01*
X137168575Y-93901122D01*
X137168577Y-93901122D01*
X137176762Y-93900044D01*
X137322841Y-93839536D01*
X137448282Y-93743282D01*
X137524348Y-93644151D01*
X137536586Y-93628202D01*
X137593924Y-93586335D01*
X137664795Y-93582113D01*
X137680465Y-93586807D01*
X137777289Y-93622815D01*
X137784270Y-93623746D01*
X137784272Y-93623747D01*
X137817663Y-93628202D01*
X137944183Y-93645083D01*
X137951194Y-93644445D01*
X137951198Y-93644445D01*
X138104843Y-93630462D01*
X138111864Y-93629823D01*
X138118566Y-93627645D01*
X138118568Y-93627645D01*
X138265298Y-93579970D01*
X138265301Y-93579969D01*
X138271997Y-93577793D01*
X138416623Y-93491578D01*
X138421717Y-93486727D01*
X138421721Y-93486724D01*
X138533454Y-93380322D01*
X138533455Y-93380320D01*
X138538554Y-93375465D01*
X138563281Y-93338249D01*
X138627836Y-93241085D01*
X138631731Y-93235223D01*
X138691521Y-93077823D01*
X138714955Y-92911088D01*
X138715249Y-92890000D01*
X138709499Y-92838735D01*
X138697266Y-92729672D01*
X138697265Y-92729669D01*
X138696481Y-92722676D01*
X138641108Y-92563668D01*
X138551884Y-92420879D01*
X138546920Y-92415880D01*
X138438205Y-92306403D01*
X138438201Y-92306400D01*
X138433242Y-92301406D01*
X138291079Y-92211187D01*
X138132462Y-92154706D01*
X138125474Y-92153873D01*
X138125471Y-92153872D01*
X138032300Y-92142762D01*
X137965273Y-92134769D01*
X137958270Y-92135505D01*
X137958269Y-92135505D01*
X137912712Y-92140293D01*
X137797821Y-92152369D01*
X137791152Y-92154639D01*
X137791149Y-92154640D01*
X137720399Y-92178725D01*
X137649467Y-92181743D01*
X137588163Y-92145933D01*
X137563385Y-92107665D01*
X137555803Y-92089361D01*
X137544536Y-92062159D01*
X137448282Y-91936718D01*
X137322841Y-91840464D01*
X137176762Y-91779956D01*
X137059361Y-91764500D01*
X137044192Y-91764500D01*
X136706499Y-91764501D01*
X136638380Y-91744499D01*
X136591887Y-91690844D01*
X136580500Y-91638501D01*
X136580500Y-91044044D01*
X136600502Y-90975923D01*
X136654158Y-90929430D01*
X136724432Y-90919326D01*
X136727350Y-90919982D01*
X136728482Y-90920536D01*
X136732258Y-90921087D01*
X136732263Y-90921088D01*
X136792256Y-90929840D01*
X136792260Y-90929840D01*
X136796782Y-90930500D01*
X137663218Y-90930500D01*
X137667768Y-90929830D01*
X137667771Y-90929830D01*
X137722426Y-90921784D01*
X137722427Y-90921784D01*
X137732112Y-90920358D01*
X137799436Y-90887304D01*
X137869399Y-90875236D01*
X137910295Y-90887206D01*
X137978482Y-90920536D01*
X137987914Y-90921912D01*
X138046979Y-90961063D01*
X138051871Y-90967711D01*
X138054016Y-90972428D01*
X138059874Y-90979226D01*
X138084387Y-91007675D01*
X138090675Y-91015595D01*
X138098522Y-91026336D01*
X138109265Y-91037079D01*
X138115623Y-91043925D01*
X138147600Y-91081037D01*
X138155135Y-91085921D01*
X138161898Y-91091820D01*
X138161894Y-91091825D01*
X138172987Y-91100800D01*
X138366467Y-91294281D01*
X138373933Y-91303624D01*
X138374321Y-91303293D01*
X138380142Y-91310132D01*
X138384930Y-91317720D01*
X138391656Y-91323660D01*
X138424609Y-91352763D01*
X138430297Y-91358110D01*
X138441507Y-91369320D01*
X138445093Y-91372008D01*
X138445096Y-91372010D01*
X138449677Y-91375444D01*
X138457518Y-91381827D01*
X138461805Y-91385613D01*
X138492388Y-91412623D01*
X138500513Y-91416438D01*
X138503683Y-91418520D01*
X138516670Y-91426323D01*
X138519994Y-91428143D01*
X138527176Y-91433526D01*
X138535577Y-91436675D01*
X138535578Y-91436676D01*
X138570736Y-91449856D01*
X138580053Y-91453783D01*
X138614034Y-91469737D01*
X138614037Y-91469738D01*
X138622163Y-91473553D01*
X138631037Y-91474935D01*
X138634650Y-91476039D01*
X138649307Y-91479885D01*
X138653010Y-91480699D01*
X138661420Y-91483852D01*
X138707843Y-91487302D01*
X138717856Y-91488452D01*
X138731009Y-91490500D01*
X138746204Y-91490500D01*
X138755542Y-91490846D01*
X138804392Y-91494476D01*
X138813168Y-91492603D01*
X138822125Y-91491992D01*
X138822125Y-91491998D01*
X138836318Y-91490500D01*
X142159819Y-91490500D01*
X142171704Y-91491828D01*
X142171745Y-91491318D01*
X142180691Y-91492038D01*
X142189447Y-91494019D01*
X142232980Y-91491318D01*
X142242264Y-91490742D01*
X142250067Y-91490500D01*
X142265940Y-91490500D01*
X142276052Y-91489052D01*
X142286106Y-91488022D01*
X142314097Y-91486285D01*
X142332538Y-91485141D01*
X142340982Y-91482093D01*
X142344694Y-91481324D01*
X142359399Y-91477657D01*
X142363027Y-91476596D01*
X142371918Y-91475323D01*
X142414282Y-91456061D01*
X142423637Y-91452254D01*
X142458943Y-91439509D01*
X142458947Y-91439507D01*
X142467387Y-91436460D01*
X142474635Y-91431165D01*
X142477975Y-91429389D01*
X142491089Y-91421726D01*
X142494261Y-91419697D01*
X142502428Y-91415984D01*
X142509223Y-91410129D01*
X142509226Y-91410127D01*
X142537675Y-91385613D01*
X142545596Y-91379324D01*
X142552402Y-91374352D01*
X142556336Y-91371478D01*
X142567079Y-91360735D01*
X142573926Y-91354377D01*
X142604237Y-91328259D01*
X142611037Y-91322400D01*
X142615920Y-91314866D01*
X142621819Y-91308104D01*
X142621824Y-91308108D01*
X142630800Y-91297014D01*
X143524280Y-90403534D01*
X143533624Y-90396068D01*
X143533292Y-90395678D01*
X143540128Y-90389860D01*
X143547720Y-90385070D01*
X143582756Y-90345399D01*
X143588102Y-90339712D01*
X143599320Y-90328494D01*
X143602010Y-90324905D01*
X143605450Y-90320316D01*
X143611832Y-90312477D01*
X143636682Y-90284339D01*
X143642623Y-90277612D01*
X143646437Y-90269489D01*
X143648508Y-90266336D01*
X143656327Y-90253324D01*
X143658143Y-90250006D01*
X143663526Y-90242824D01*
X143679858Y-90199259D01*
X143683783Y-90189944D01*
X143703553Y-90147837D01*
X143704935Y-90138964D01*
X143706042Y-90135342D01*
X143711223Y-90115594D01*
X143713852Y-90108581D01*
X143716307Y-90109501D01*
X143743865Y-90059300D01*
X143806253Y-90025414D01*
X143877057Y-90030637D01*
X143933798Y-90073310D01*
X143955678Y-90120893D01*
X143978565Y-90222446D01*
X143981645Y-90232275D01*
X144061770Y-90429603D01*
X144066413Y-90438794D01*
X144177694Y-90620388D01*
X144183777Y-90628699D01*
X144323213Y-90789667D01*
X144330580Y-90796883D01*
X144494434Y-90932916D01*
X144502881Y-90938831D01*
X144686756Y-91046279D01*
X144696042Y-91050729D01*
X144895001Y-91126703D01*
X144904899Y-91129579D01*
X145008250Y-91150606D01*
X145022299Y-91149410D01*
X145026000Y-91139065D01*
X145026000Y-89692000D01*
X145046002Y-89623879D01*
X145099658Y-89577386D01*
X145152000Y-89566000D01*
X145408000Y-89566000D01*
X145476121Y-89586002D01*
X145522614Y-89639658D01*
X145534000Y-89692000D01*
X145534000Y-91138517D01*
X145538064Y-91152359D01*
X145551478Y-91154393D01*
X145558184Y-91153534D01*
X145568262Y-91151392D01*
X145772255Y-91090191D01*
X145781842Y-91086433D01*
X145973095Y-90992739D01*
X145981945Y-90987464D01*
X146155328Y-90863792D01*
X146163200Y-90857139D01*
X146314052Y-90706812D01*
X146320730Y-90698965D01*
X146445003Y-90526020D01*
X146450310Y-90517189D01*
X146462502Y-90492519D01*
X146510615Y-90440312D01*
X146579316Y-90422404D01*
X146646793Y-90444482D01*
X146691622Y-90499535D01*
X146699750Y-90527657D01*
X146704291Y-90554939D01*
X146709235Y-90564101D01*
X146710401Y-90567508D01*
X146711834Y-90570819D01*
X146714344Y-90580924D01*
X146735807Y-90614164D01*
X146740832Y-90622662D01*
X146754672Y-90648313D01*
X146754674Y-90648316D01*
X146759621Y-90657484D01*
X146767273Y-90664557D01*
X146769483Y-90667406D01*
X146771899Y-90670061D01*
X146777549Y-90678812D01*
X146785728Y-90685260D01*
X146808619Y-90703306D01*
X146816139Y-90709729D01*
X146845185Y-90736578D01*
X146854711Y-90740789D01*
X146857727Y-90742770D01*
X146860877Y-90744501D01*
X146869055Y-90750949D01*
X146878882Y-90754400D01*
X146906387Y-90764059D01*
X146915573Y-90767696D01*
X146951755Y-90783692D01*
X146962132Y-90784591D01*
X146966985Y-90785837D01*
X146968330Y-90786245D01*
X146971519Y-90786932D01*
X146978993Y-90789556D01*
X146984119Y-90790000D01*
X147019143Y-90790000D01*
X147030014Y-90790470D01*
X147067840Y-90793746D01*
X147077950Y-90791235D01*
X147088329Y-90790418D01*
X147088392Y-90791214D01*
X147098335Y-90790000D01*
X149251652Y-90790000D01*
X149319773Y-90810002D01*
X149366266Y-90863658D01*
X149376370Y-90933932D01*
X149360034Y-90980259D01*
X149125730Y-91375444D01*
X149116402Y-91391177D01*
X149112210Y-91397773D01*
X148811138Y-91840464D01*
X148761811Y-91912993D01*
X148757220Y-91919313D01*
X148421245Y-92352841D01*
X148375545Y-92411810D01*
X148370574Y-92417829D01*
X148108320Y-92716026D01*
X147959080Y-92885720D01*
X147953737Y-92891428D01*
X147514028Y-93332885D01*
X147508342Y-93338249D01*
X147042101Y-93751590D01*
X147036095Y-93756592D01*
X146545103Y-94140231D01*
X146538820Y-94144833D01*
X146337789Y-94282724D01*
X146024988Y-94497279D01*
X146018407Y-94501499D01*
X145483712Y-94821397D01*
X145476881Y-94825201D01*
X144923390Y-95111315D01*
X144916338Y-95114688D01*
X144432781Y-95327761D01*
X144346147Y-95365935D01*
X144338903Y-95368862D01*
X143754215Y-95584269D01*
X143746821Y-95586734D01*
X143149919Y-95765459D01*
X143142363Y-95767468D01*
X142535541Y-95908826D01*
X142527876Y-95910363D01*
X141913432Y-96013820D01*
X141905686Y-96014878D01*
X141487851Y-96058809D01*
X141286023Y-96080028D01*
X141278238Y-96080604D01*
X141000706Y-96092460D01*
X140655714Y-96107198D01*
X140647897Y-96107289D01*
X140057530Y-96095857D01*
X140024951Y-96095226D01*
X140017142Y-96094833D01*
X139396100Y-96044156D01*
X139388332Y-96043278D01*
X138771672Y-95954190D01*
X138763973Y-95952833D01*
X138153995Y-95825666D01*
X138146422Y-95823840D01*
X137545488Y-95659085D01*
X137538035Y-95656791D01*
X137211138Y-95544948D01*
X136948495Y-95455089D01*
X136941181Y-95452330D01*
X136429581Y-95241014D01*
X136365274Y-95214452D01*
X136358165Y-95211253D01*
X135798140Y-94938126D01*
X135791223Y-94934483D01*
X135329812Y-94672851D01*
X135249211Y-94627148D01*
X135242536Y-94623085D01*
X135212840Y-94603719D01*
X134720610Y-94282716D01*
X134714221Y-94278260D01*
X134651137Y-94231298D01*
X134608440Y-94174576D01*
X134603187Y-94103774D01*
X134608810Y-94092504D01*
X134616000Y-94059452D01*
X134616000Y-93112115D01*
X134611525Y-93096876D01*
X134610135Y-93095671D01*
X134602452Y-93094000D01*
X133880116Y-93094000D01*
X133864877Y-93098475D01*
X133863672Y-93099865D01*
X133862001Y-93107548D01*
X133862001Y-93328125D01*
X133841999Y-93396246D01*
X133788343Y-93442739D01*
X133718069Y-93452843D01*
X133648828Y-93419102D01*
X133436804Y-93215943D01*
X133276841Y-93062668D01*
X133271373Y-93057094D01*
X133260162Y-93044930D01*
X132849066Y-92598923D01*
X132843949Y-92593012D01*
X132823520Y-92567885D01*
X133862000Y-92567885D01*
X133866475Y-92583124D01*
X133867865Y-92584329D01*
X133875548Y-92586000D01*
X134597885Y-92586000D01*
X134613124Y-92581525D01*
X134614329Y-92580135D01*
X134616000Y-92572452D01*
X134616000Y-91625116D01*
X134611525Y-91609877D01*
X134610135Y-91608672D01*
X134602452Y-91607001D01*
X134572905Y-91607001D01*
X134566386Y-91607338D01*
X134470794Y-91617257D01*
X134457400Y-91620149D01*
X134303216Y-91671588D01*
X134290038Y-91677761D01*
X134152193Y-91763063D01*
X134140792Y-91772099D01*
X134026261Y-91886829D01*
X134017249Y-91898240D01*
X133932184Y-92036243D01*
X133926037Y-92049424D01*
X133874862Y-92203710D01*
X133871995Y-92217086D01*
X133862328Y-92311438D01*
X133862000Y-92317855D01*
X133862000Y-92567885D01*
X132823520Y-92567885D01*
X132450905Y-92109576D01*
X132446163Y-92103360D01*
X132422167Y-92069789D01*
X132083828Y-91596439D01*
X132079484Y-91589944D01*
X132019828Y-91494476D01*
X131749306Y-91061562D01*
X131745370Y-91054807D01*
X131737561Y-91040391D01*
X131512358Y-90624669D01*
X133822001Y-90624669D01*
X133822371Y-90631490D01*
X133827895Y-90682352D01*
X133831521Y-90697604D01*
X133876676Y-90818054D01*
X133885214Y-90833649D01*
X133961715Y-90935724D01*
X133974276Y-90948285D01*
X134076351Y-91024786D01*
X134091946Y-91033324D01*
X134212394Y-91078478D01*
X134227649Y-91082105D01*
X134278514Y-91087631D01*
X134285328Y-91088000D01*
X134457885Y-91088000D01*
X134473124Y-91083525D01*
X134474329Y-91082135D01*
X134476000Y-91074452D01*
X134476000Y-90102115D01*
X134471525Y-90086876D01*
X134470135Y-90085671D01*
X134462452Y-90084000D01*
X133840116Y-90084000D01*
X133824877Y-90088475D01*
X133823672Y-90089865D01*
X133822001Y-90097548D01*
X133822001Y-90624669D01*
X131512358Y-90624669D01*
X131448569Y-90506915D01*
X131445066Y-90499937D01*
X131444880Y-90499535D01*
X131197160Y-89965609D01*
X131182842Y-89934748D01*
X131179773Y-89927558D01*
X131151378Y-89854854D01*
X130953088Y-89347152D01*
X130950483Y-89339818D01*
X130760228Y-88746463D01*
X130758076Y-88738960D01*
X130755679Y-88729500D01*
X130604991Y-88134968D01*
X130603308Y-88127344D01*
X130599536Y-88107314D01*
X130520246Y-87686350D01*
X130487977Y-87515030D01*
X130486769Y-87507306D01*
X130409632Y-86889008D01*
X130408906Y-86881224D01*
X130370265Y-86259362D01*
X130370022Y-86251548D01*
X130370022Y-85628452D01*
X130370265Y-85620638D01*
X130408906Y-84998776D01*
X130409632Y-84990992D01*
X130486769Y-84372694D01*
X130487977Y-84364970D01*
X130542050Y-84077888D01*
X130603310Y-83752645D01*
X130604993Y-83745021D01*
X130758079Y-83141028D01*
X130760231Y-83133525D01*
X130950483Y-82540182D01*
X130953088Y-82532848D01*
X131179773Y-81952442D01*
X131182842Y-81945252D01*
X131268655Y-81760293D01*
X131362564Y-81557885D01*
X133822000Y-81557885D01*
X133826475Y-81573124D01*
X133827865Y-81574329D01*
X133835548Y-81576000D01*
X134457885Y-81576000D01*
X134473124Y-81571525D01*
X134474329Y-81570135D01*
X134476000Y-81562452D01*
X134476000Y-80590116D01*
X134471525Y-80574877D01*
X134470135Y-80573672D01*
X134462452Y-80572001D01*
X134285331Y-80572001D01*
X134278510Y-80572371D01*
X134227648Y-80577895D01*
X134212396Y-80581521D01*
X134091946Y-80626676D01*
X134076351Y-80635214D01*
X133974276Y-80711715D01*
X133961715Y-80724276D01*
X133885214Y-80826351D01*
X133876676Y-80841946D01*
X133831522Y-80962394D01*
X133827895Y-80977649D01*
X133822369Y-81028514D01*
X133822000Y-81035328D01*
X133822000Y-81557885D01*
X131362564Y-81557885D01*
X131445071Y-81380053D01*
X131448574Y-81373076D01*
X131452546Y-81365745D01*
X131745370Y-80825193D01*
X131749306Y-80818438D01*
X131894823Y-80585568D01*
X132079486Y-80290053D01*
X132083830Y-80283558D01*
X132084471Y-80282662D01*
X132446163Y-79776640D01*
X132450905Y-79770424D01*
X132612151Y-79572095D01*
X133292001Y-79572095D01*
X133292338Y-79578614D01*
X133302257Y-79674206D01*
X133305149Y-79687600D01*
X133356588Y-79841784D01*
X133362761Y-79854962D01*
X133448063Y-79992807D01*
X133457099Y-80004208D01*
X133571829Y-80118739D01*
X133583240Y-80127751D01*
X133721243Y-80212816D01*
X133734424Y-80218963D01*
X133888710Y-80270138D01*
X133902086Y-80273005D01*
X133996438Y-80282672D01*
X134002854Y-80283000D01*
X134027885Y-80283000D01*
X134043124Y-80278525D01*
X134044329Y-80277135D01*
X134046000Y-80269452D01*
X134046000Y-79322115D01*
X134041525Y-79306876D01*
X134040135Y-79305671D01*
X134032452Y-79304000D01*
X133310116Y-79304000D01*
X133294877Y-79308475D01*
X133293672Y-79309865D01*
X133292001Y-79317548D01*
X133292001Y-79572095D01*
X132612151Y-79572095D01*
X132843949Y-79286988D01*
X132849066Y-79281077D01*
X133258748Y-78836604D01*
X133319624Y-78800072D01*
X133351396Y-78796000D01*
X134428000Y-78796000D01*
X134496121Y-78816002D01*
G37*
%TD.AperFunction*%
%TA.AperFunction,Conductor*%
G36*
X140655714Y-75772802D02*
G01*
X140945157Y-75785167D01*
X141278238Y-75799396D01*
X141286023Y-75799972D01*
X141487851Y-75821191D01*
X141905686Y-75865122D01*
X141913432Y-75866180D01*
X142527876Y-75969637D01*
X142535541Y-75971174D01*
X143142363Y-76112532D01*
X143149918Y-76114541D01*
X143746821Y-76293266D01*
X143754215Y-76295731D01*
X144338903Y-76511138D01*
X144346143Y-76514063D01*
X144629648Y-76638986D01*
X144916338Y-76765312D01*
X144923390Y-76768685D01*
X145476881Y-77054799D01*
X145483712Y-77058603D01*
X146018407Y-77378501D01*
X146024988Y-77382721D01*
X146538820Y-77735167D01*
X146545103Y-77739769D01*
X147015342Y-78107193D01*
X147036093Y-78123407D01*
X147042101Y-78128410D01*
X147508342Y-78541751D01*
X147514028Y-78547115D01*
X147953737Y-78988572D01*
X147959080Y-78994280D01*
X148358188Y-79448086D01*
X148370567Y-79462162D01*
X148375538Y-79468181D01*
X148725956Y-79920346D01*
X148757216Y-79960682D01*
X148761807Y-79967002D01*
X149033682Y-80366762D01*
X149112208Y-80482225D01*
X149116401Y-80488821D01*
X149339721Y-80865479D01*
X149360034Y-80899740D01*
X149377570Y-80968537D01*
X149355128Y-81035894D01*
X149299833Y-81080424D01*
X149251652Y-81090000D01*
X147060857Y-81090000D01*
X147049985Y-81089530D01*
X147041152Y-81088765D01*
X147012160Y-81086254D01*
X146998972Y-81089530D01*
X146973767Y-81095791D01*
X146964080Y-81097797D01*
X146957165Y-81098948D01*
X146935333Y-81102581D01*
X146935331Y-81102582D01*
X146925061Y-81104291D01*
X146915899Y-81109235D01*
X146912492Y-81110401D01*
X146909181Y-81111834D01*
X146899076Y-81114344D01*
X146865836Y-81135807D01*
X146857338Y-81140832D01*
X146831687Y-81154672D01*
X146831684Y-81154674D01*
X146822516Y-81159621D01*
X146815443Y-81167273D01*
X146812594Y-81169483D01*
X146809939Y-81171899D01*
X146801188Y-81177549D01*
X146794740Y-81185728D01*
X146776694Y-81208619D01*
X146770271Y-81216139D01*
X146743422Y-81245185D01*
X146739211Y-81254711D01*
X146737230Y-81257727D01*
X146735498Y-81260877D01*
X146729051Y-81269055D01*
X146725601Y-81278879D01*
X146725600Y-81278881D01*
X146718143Y-81300117D01*
X146676701Y-81357763D01*
X146610672Y-81383852D01*
X146541019Y-81370102D01*
X146489858Y-81320878D01*
X146474604Y-81276723D01*
X146471786Y-81257579D01*
X146471783Y-81257571D01*
X146470358Y-81247888D01*
X146439839Y-81185728D01*
X146423522Y-81152493D01*
X146423521Y-81152491D01*
X146418932Y-81143145D01*
X146361942Y-81086254D01*
X146343721Y-81068065D01*
X146343720Y-81068065D01*
X146336350Y-81060707D01*
X146317286Y-81051388D01*
X146269739Y-81028147D01*
X146231518Y-81009464D01*
X146201027Y-81005016D01*
X146167744Y-81000160D01*
X146167740Y-81000160D01*
X146163218Y-80999500D01*
X146006500Y-80999500D01*
X145938379Y-80979498D01*
X145891886Y-80925842D01*
X145880500Y-80873500D01*
X145880500Y-80647619D01*
X145881578Y-80631173D01*
X145884604Y-80608188D01*
X145885682Y-80600000D01*
X145868483Y-80469361D01*
X145866122Y-80451426D01*
X145865044Y-80443238D01*
X145804536Y-80297159D01*
X145732450Y-80203214D01*
X145732449Y-80203213D01*
X145708282Y-80171718D01*
X145683341Y-80152580D01*
X145670950Y-80141714D01*
X145188289Y-79659054D01*
X145177421Y-79646661D01*
X145163310Y-79628271D01*
X145158282Y-79621718D01*
X145032841Y-79525464D01*
X144886762Y-79464956D01*
X144865540Y-79462162D01*
X144769361Y-79449500D01*
X144738188Y-79445396D01*
X144730000Y-79444318D01*
X144721812Y-79445396D01*
X144698827Y-79448422D01*
X144682381Y-79449500D01*
X141577771Y-79449500D01*
X141509650Y-79429498D01*
X141463157Y-79375842D01*
X141453053Y-79305568D01*
X141482547Y-79240988D01*
X141495941Y-79227689D01*
X141662018Y-79085847D01*
X141674870Y-79074870D01*
X141838430Y-78883365D01*
X141970019Y-78668631D01*
X141994790Y-78608830D01*
X142064502Y-78440529D01*
X142064503Y-78440527D01*
X142066396Y-78435956D01*
X142086770Y-78351093D01*
X142124033Y-78195882D01*
X142124034Y-78195876D01*
X142125188Y-78191069D01*
X142144948Y-77940000D01*
X142125188Y-77688931D01*
X142118368Y-77660520D01*
X142067551Y-77448856D01*
X142066396Y-77444044D01*
X142039247Y-77378501D01*
X141971914Y-77215943D01*
X141971912Y-77215939D01*
X141970019Y-77211369D01*
X141838430Y-76996635D01*
X141674870Y-76805130D01*
X141483365Y-76641570D01*
X141289984Y-76523066D01*
X141272851Y-76512567D01*
X141268631Y-76509981D01*
X141264061Y-76508088D01*
X141264057Y-76508086D01*
X141040529Y-76415498D01*
X141040527Y-76415497D01*
X141035956Y-76413604D01*
X140951093Y-76393230D01*
X140795882Y-76355967D01*
X140795876Y-76355966D01*
X140791069Y-76354812D01*
X140540000Y-76335052D01*
X140288931Y-76354812D01*
X140284124Y-76355966D01*
X140284118Y-76355967D01*
X140128907Y-76393230D01*
X140044044Y-76413604D01*
X140039473Y-76415497D01*
X140039471Y-76415498D01*
X139815943Y-76508086D01*
X139815939Y-76508088D01*
X139811369Y-76509981D01*
X139807149Y-76512567D01*
X139790016Y-76523066D01*
X139596635Y-76641570D01*
X139405130Y-76805130D01*
X139241570Y-76996635D01*
X139109981Y-77211369D01*
X139108088Y-77215939D01*
X139108086Y-77215943D01*
X139040753Y-77378501D01*
X139013604Y-77444044D01*
X139012449Y-77448856D01*
X138961633Y-77660520D01*
X138954812Y-77688931D01*
X138935052Y-77940000D01*
X138954812Y-78191069D01*
X138955966Y-78195876D01*
X138955967Y-78195882D01*
X138993230Y-78351093D01*
X139013604Y-78435956D01*
X139015497Y-78440527D01*
X139015498Y-78440529D01*
X139085211Y-78608830D01*
X139109981Y-78668631D01*
X139241570Y-78883365D01*
X139405130Y-79074870D01*
X139417983Y-79085847D01*
X139584059Y-79227689D01*
X139622868Y-79287139D01*
X139623376Y-79358134D01*
X139585419Y-79418133D01*
X139521051Y-79448086D01*
X139502229Y-79449500D01*
X138640925Y-79449500D01*
X138572804Y-79429498D01*
X138551830Y-79412595D01*
X137798297Y-78659062D01*
X137787429Y-78646671D01*
X137773305Y-78628264D01*
X137768282Y-78621718D01*
X137642841Y-78525464D01*
X137496762Y-78464956D01*
X137379361Y-78449500D01*
X137340000Y-78444318D01*
X137331812Y-78445396D01*
X137308827Y-78448422D01*
X137292381Y-78449500D01*
X137132184Y-78449500D01*
X137064063Y-78429498D01*
X137015775Y-78371718D01*
X137002410Y-78339452D01*
X136974536Y-78272159D01*
X136878282Y-78146718D01*
X136854423Y-78128410D01*
X136759392Y-78055491D01*
X136752841Y-78050464D01*
X136606762Y-77989956D01*
X136598574Y-77988878D01*
X136493448Y-77975038D01*
X136493447Y-77975038D01*
X136489361Y-77974500D01*
X136200036Y-77974500D01*
X135910640Y-77974501D01*
X135906556Y-77975039D01*
X135906550Y-77975039D01*
X135801425Y-77988878D01*
X135801423Y-77988878D01*
X135793238Y-77989956D01*
X135647159Y-78050464D01*
X135640608Y-78055491D01*
X135545578Y-78128410D01*
X135521718Y-78146718D01*
X135516695Y-78153264D01*
X135441644Y-78251073D01*
X135384306Y-78292940D01*
X135313435Y-78297162D01*
X135251532Y-78262398D01*
X135234537Y-78240672D01*
X135151937Y-78107193D01*
X135142901Y-78095792D01*
X135028171Y-77981261D01*
X135016760Y-77972249D01*
X134878757Y-77887184D01*
X134865576Y-77881037D01*
X134730993Y-77836397D01*
X134672633Y-77795966D01*
X134645397Y-77730401D01*
X134657931Y-77660520D01*
X134695423Y-77615734D01*
X134714211Y-77601748D01*
X134720622Y-77597278D01*
X135242536Y-77256916D01*
X135249214Y-77252850D01*
X135322370Y-77211369D01*
X135447677Y-77140316D01*
X135791223Y-76945517D01*
X135798140Y-76941874D01*
X136085110Y-76801917D01*
X136358165Y-76668747D01*
X136365279Y-76665546D01*
X136415540Y-76644786D01*
X136639597Y-76552239D01*
X136941181Y-76427670D01*
X136948495Y-76424911D01*
X137333283Y-76293262D01*
X137538035Y-76223209D01*
X137545488Y-76220915D01*
X138146422Y-76056160D01*
X138153995Y-76054334D01*
X138763973Y-75927167D01*
X138771672Y-75925810D01*
X139388332Y-75836722D01*
X139396100Y-75835844D01*
X140017142Y-75785167D01*
X140024951Y-75784774D01*
X140057530Y-75784143D01*
X140647897Y-75772711D01*
X140655714Y-75772802D01*
G37*
%TD.AperFunction*%
%TD*%
M02*
