%TF.GenerationSoftware,KiCad,Pcbnew,(6.0.0)*%
%TF.CreationDate,2022-03-17T14:10:33-06:00*%
%TF.ProjectId,main-board,6d61696e-2d62-46f6-9172-642e6b696361,rev?*%
%TF.SameCoordinates,Original*%
%TF.FileFunction,Soldermask,Bot*%
%TF.FilePolarity,Negative*%
%FSLAX46Y46*%
G04 Gerber Fmt 4.6, Leading zero omitted, Abs format (unit mm)*
G04 Created by KiCad (PCBNEW (6.0.0)) date 2022-03-17 14:10:33*
%MOMM*%
%LPD*%
G01*
G04 APERTURE LIST*
%ADD10C,0.381000*%
%ADD11C,0.800000*%
%ADD12C,6.400000*%
%ADD13R,2.000000X1.905000*%
%ADD14O,2.000000X1.905000*%
%ADD15R,3.000000X3.000000*%
%ADD16C,3.000000*%
%ADD17R,1.980000X1.980000*%
%ADD18C,1.980000*%
%ADD19C,1.935000*%
%ADD20C,2.300000*%
G04 APERTURE END LIST*
D10*
%TO.C,REF\u002A\u002A*%
X109347000Y-64770000D02*
X110617000Y-64770000D01*
X111379000Y-65151000D02*
X109982000Y-65151000D01*
X111379000Y-67945000D02*
X110617000Y-67310000D01*
X111125000Y-67564000D02*
X109347000Y-64770000D01*
X109601000Y-63119000D02*
X110998000Y-65024000D01*
X109601000Y-63246000D02*
X109728000Y-62738000D01*
X109855000Y-62865000D02*
X111379000Y-65151000D01*
X108839000Y-62738000D02*
X109601000Y-63246000D01*
X110617000Y-64770000D02*
X108839000Y-62738000D01*
X111002000Y-65024000D02*
X109732000Y-65024000D01*
X111252000Y-66929000D02*
X111379000Y-67945000D01*
X109982000Y-65151000D02*
X111125000Y-67437000D01*
%TD*%
D11*
%TO.C,REF\u002A\u002A*%
X81697056Y-80302944D03*
X78302944Y-80302944D03*
D12*
X80000000Y-82000000D03*
D11*
X81697056Y-83697056D03*
X82400000Y-82000000D03*
X78302944Y-83697056D03*
X80000000Y-79600000D03*
X77600000Y-82000000D03*
X80000000Y-84400000D03*
%TD*%
D13*
%TO.C,Q2*%
X147680000Y-78360000D03*
D14*
X147680000Y-80900000D03*
X147680000Y-83440000D03*
%TD*%
D15*
%TO.C,J2*%
X156360000Y-57730000D03*
D16*
X156360000Y-52650000D03*
%TD*%
D17*
%TO.C,K1*%
X135392500Y-51790000D03*
D18*
X135392500Y-63790000D03*
D19*
X133392500Y-57790000D03*
D18*
X147592500Y-51790000D03*
X147592500Y-63790000D03*
%TD*%
D11*
%TO.C,REF\u002A\u002A*%
X88500000Y-42600000D03*
D12*
X88500000Y-45000000D03*
D11*
X90197056Y-43302944D03*
X88500000Y-47400000D03*
X86802944Y-43302944D03*
X86100000Y-45000000D03*
X90900000Y-45000000D03*
X90197056Y-46697056D03*
X86802944Y-46697056D03*
%TD*%
%TO.C,REF\u002A\u002A*%
X141302944Y-68302944D03*
X145400000Y-70000000D03*
X143000000Y-67600000D03*
X140600000Y-70000000D03*
X141302944Y-71697056D03*
X144697056Y-68302944D03*
D12*
X143000000Y-70000000D03*
D11*
X143000000Y-72400000D03*
X144697056Y-71697056D03*
%TD*%
D20*
%TO.C,F1*%
X71600000Y-67550000D03*
X71600000Y-62950000D03*
X71600000Y-83450000D03*
X71600000Y-78850000D03*
%TD*%
D15*
%TO.C,J3*%
X156250000Y-77710000D03*
D16*
X156250000Y-82790000D03*
%TD*%
D15*
%TO.C,J1*%
X72150000Y-44160000D03*
D16*
X72150000Y-49240000D03*
%TD*%
D11*
%TO.C,REF\u002A\u002A*%
X141302944Y-43302944D03*
X143000000Y-47400000D03*
X141302944Y-46697056D03*
X144697056Y-43302944D03*
X143000000Y-42600000D03*
D12*
X143000000Y-45000000D03*
D11*
X145400000Y-45000000D03*
X144697056Y-46697056D03*
X140600000Y-45000000D03*
%TD*%
D15*
%TO.C,PS1*%
X80320000Y-74150000D03*
D16*
X80320000Y-53350000D03*
X125320000Y-53350000D03*
X125320000Y-61350000D03*
%TD*%
M02*
