%TF.GenerationSoftware,KiCad,Pcbnew,(6.0.0)*%
%TF.CreationDate,2022-03-17T14:10:33-06:00*%
%TF.ProjectId,main-board,6d61696e-2d62-46f6-9172-642e6b696361,rev?*%
%TF.SameCoordinates,Original*%
%TF.FileFunction,Copper,L2,Bot*%
%TF.FilePolarity,Positive*%
%FSLAX46Y46*%
G04 Gerber Fmt 4.6, Leading zero omitted, Abs format (unit mm)*
G04 Created by KiCad (PCBNEW (6.0.0)) date 2022-03-17 14:10:33*
%MOMM*%
%LPD*%
G01*
G04 APERTURE LIST*
%TA.AperFunction,EtchedComponent*%
%ADD10C,0.381000*%
%TD*%
%TA.AperFunction,ComponentPad*%
%ADD11C,0.800000*%
%TD*%
%TA.AperFunction,ComponentPad*%
%ADD12C,6.400000*%
%TD*%
%TA.AperFunction,ComponentPad*%
%ADD13R,2.000000X1.905000*%
%TD*%
%TA.AperFunction,ComponentPad*%
%ADD14O,2.000000X1.905000*%
%TD*%
%TA.AperFunction,ComponentPad*%
%ADD15R,3.000000X3.000000*%
%TD*%
%TA.AperFunction,ComponentPad*%
%ADD16C,3.000000*%
%TD*%
%TA.AperFunction,ComponentPad*%
%ADD17R,1.980000X1.980000*%
%TD*%
%TA.AperFunction,ComponentPad*%
%ADD18C,1.980000*%
%TD*%
%TA.AperFunction,ComponentPad*%
%ADD19C,1.935000*%
%TD*%
%TA.AperFunction,ComponentPad*%
%ADD20C,2.300000*%
%TD*%
%TA.AperFunction,ViaPad*%
%ADD21C,0.800000*%
%TD*%
%TA.AperFunction,Conductor*%
%ADD22C,0.500000*%
%TD*%
%TA.AperFunction,Conductor*%
%ADD23C,1.500000*%
%TD*%
%TA.AperFunction,Conductor*%
%ADD24C,1.000000*%
%TD*%
%TA.AperFunction,Conductor*%
%ADD25C,0.300000*%
%TD*%
%TA.AperFunction,Conductor*%
%ADD26C,2.000000*%
%TD*%
%TA.AperFunction,Conductor*%
%ADD27C,0.250000*%
%TD*%
G04 APERTURE END LIST*
D10*
%TO.C,REF\u002A\u002A*%
X111125000Y-67437000D02*
X111252000Y-66929000D01*
X111125000Y-67437000D02*
X111252000Y-66929000D01*
X109347000Y-64770000D02*
X110617000Y-64770000D01*
X109601000Y-63246000D02*
X109728000Y-62738000D01*
X109982000Y-65151000D02*
X111125000Y-67437000D01*
X108839000Y-62738000D02*
X109601000Y-63246000D01*
X109855000Y-62865000D02*
X111379000Y-65151000D01*
X110617000Y-67310000D02*
X111125000Y-67564000D01*
X110998000Y-65024000D02*
X109728000Y-65024000D01*
X109601000Y-63119000D02*
X110998000Y-65024000D01*
X110617000Y-67310000D02*
X111125000Y-67564000D01*
X111125000Y-67564000D02*
X109347000Y-64770000D01*
X110617000Y-64770000D02*
X108839000Y-62738000D01*
X111252000Y-66929000D02*
X111379000Y-67945000D01*
X111379000Y-65151000D02*
X109982000Y-65151000D01*
X111379000Y-67945000D02*
X110617000Y-67310000D01*
%TD*%
D11*
%TO.P,REF\u002A\u002A,1*%
%TO.N,N/C*%
X81697056Y-80302944D03*
X78302944Y-80302944D03*
D12*
X80000000Y-82000000D03*
D11*
X81697056Y-83697056D03*
X82400000Y-82000000D03*
X78302944Y-83697056D03*
X80000000Y-79600000D03*
X77600000Y-82000000D03*
X80000000Y-84400000D03*
%TD*%
D13*
%TO.P,Q2,1,A1*%
%TO.N,NEUT*%
X147680000Y-78360000D03*
D14*
%TO.P,Q2,2,A2*%
%TO.N,Net-(J3-Pad2)*%
X147680000Y-80900000D03*
%TO.P,Q2,3,G*%
%TO.N,Net-(Q2-Pad3)*%
X147680000Y-83440000D03*
%TD*%
D15*
%TO.P,J2,1,Pin_1*%
%TO.N,Net-(J2-Pad1)*%
X156360000Y-57730000D03*
D16*
%TO.P,J2,2,Pin_2*%
%TO.N,NEUT*%
X156360000Y-52650000D03*
%TD*%
D17*
%TO.P,K1,A1*%
%TO.N,+5V*%
X135392500Y-51790000D03*
D18*
%TO.P,K1,A2*%
%TO.N,Net-(D1-Pad2)*%
X135392500Y-63790000D03*
D19*
%TO.P,K1,COM*%
%TO.N,Net-(J2-Pad1)*%
X133392500Y-57790000D03*
D18*
%TO.P,K1,NC*%
%TO.N,unconnected-(K1-PadNC)*%
X147592500Y-51790000D03*
%TO.P,K1,NO*%
%TO.N,LINE*%
X147592500Y-63790000D03*
%TD*%
D11*
%TO.P,REF\u002A\u002A,1*%
%TO.N,N/C*%
X88500000Y-42600000D03*
D12*
X88500000Y-45000000D03*
D11*
X90197056Y-43302944D03*
X88500000Y-47400000D03*
X86802944Y-43302944D03*
X86100000Y-45000000D03*
X90900000Y-45000000D03*
X90197056Y-46697056D03*
X86802944Y-46697056D03*
%TD*%
%TO.P,REF\u002A\u002A,1*%
%TO.N,N/C*%
X141302944Y-68302944D03*
X145400000Y-70000000D03*
X143000000Y-67600000D03*
X140600000Y-70000000D03*
X141302944Y-71697056D03*
X144697056Y-68302944D03*
D12*
X143000000Y-70000000D03*
D11*
X143000000Y-72400000D03*
X144697056Y-71697056D03*
%TD*%
D20*
%TO.P,F1,1*%
%TO.N,Net-(F1-Pad1)*%
X71600000Y-67550000D03*
X71600000Y-62950000D03*
%TO.P,F1,2*%
%TO.N,LINE*%
X71600000Y-83450000D03*
X71600000Y-78850000D03*
%TD*%
D15*
%TO.P,J3,1,Pin_1*%
%TO.N,LINE*%
X156250000Y-77710000D03*
D16*
%TO.P,J3,2,Pin_2*%
%TO.N,Net-(J3-Pad2)*%
X156250000Y-82790000D03*
%TD*%
D15*
%TO.P,J1,1,Pin_1*%
%TO.N,NEUT*%
X72150000Y-44160000D03*
D16*
%TO.P,J1,2,Pin_2*%
%TO.N,Net-(F1-Pad1)*%
X72150000Y-49240000D03*
%TD*%
D11*
%TO.P,REF\u002A\u002A,1*%
%TO.N,N/C*%
X141302944Y-43302944D03*
X143000000Y-47400000D03*
X141302944Y-46697056D03*
X144697056Y-43302944D03*
X143000000Y-42600000D03*
D12*
X143000000Y-45000000D03*
D11*
X145400000Y-45000000D03*
X144697056Y-46697056D03*
X140600000Y-45000000D03*
%TD*%
D15*
%TO.P,PS1,1,AC/L*%
%TO.N,LINE*%
X80320000Y-74150000D03*
D16*
%TO.P,PS1,2,AC/N*%
%TO.N,NEUT*%
X80320000Y-53350000D03*
%TO.P,PS1,3,-Vo*%
%TO.N,GND*%
X125320000Y-53350000D03*
%TO.P,PS1,4,+Vo*%
%TO.N,+5V*%
X125320000Y-61350000D03*
%TD*%
D21*
%TO.N,+5V*%
X117370000Y-61340000D03*
%TO.N,GND*%
X88300000Y-79070000D03*
X112000000Y-51000000D03*
X132200000Y-66350000D03*
X99300000Y-56710000D03*
X110000000Y-51000000D03*
X123000000Y-74750000D03*
X132150000Y-68400000D03*
X122950000Y-72200000D03*
X132150000Y-70200000D03*
X108000000Y-51000000D03*
X114000000Y-51000000D03*
X116000000Y-51000000D03*
X88320000Y-77490000D03*
X88320000Y-75600000D03*
X99270000Y-58560000D03*
%TO.N,/SCL*%
X96390000Y-64640000D03*
X101340000Y-65950000D03*
%TO.N,/SDA*%
X93250000Y-60830000D03*
X99390000Y-65990000D03*
%TO.N,Net-(C5-Pad1)*%
X95020000Y-64690000D03*
X96490000Y-59720000D03*
%TD*%
D22*
%TO.N,+5V*%
X117380000Y-61350000D02*
X125320000Y-61350000D01*
X117370000Y-61340000D02*
X117380000Y-61350000D01*
D23*
%TO.N,NEUT*%
X153920000Y-52650000D02*
X151850000Y-54720000D01*
X101100000Y-51300000D02*
X99050000Y-53350000D01*
X131200000Y-52900000D02*
X131200000Y-48200000D01*
X129000000Y-46000000D02*
X103000000Y-46000000D01*
X156360000Y-52650000D02*
X153920000Y-52650000D01*
X151850000Y-54720000D02*
X133020000Y-54720000D01*
X133020000Y-54720000D02*
X131200000Y-52900000D01*
X103000000Y-46000000D02*
X101100000Y-47900000D01*
X101100000Y-47900000D02*
X101100000Y-51300000D01*
X131200000Y-48200000D02*
X129000000Y-46000000D01*
X99050000Y-53350000D02*
X80320000Y-53350000D01*
%TO.N,LINE*%
X156580000Y-63420000D02*
X156210000Y-63790000D01*
X78290000Y-49710000D02*
X96140000Y-49710000D01*
X156580000Y-65470000D02*
X156580000Y-72930000D01*
X145050000Y-50900000D02*
X146750000Y-49200000D01*
X75050000Y-74150000D02*
X73350000Y-74150000D01*
X73350000Y-74150000D02*
X80320000Y-74150000D01*
X135920489Y-42920489D02*
X137295000Y-44295000D01*
X156210000Y-63790000D02*
X154260000Y-63790000D01*
X97710000Y-48140000D02*
X97710000Y-44940000D01*
X137295000Y-44295000D02*
X137295000Y-49055000D01*
X75050000Y-74150000D02*
X76800000Y-72400000D01*
X157810000Y-49200000D02*
X159600000Y-50990000D01*
X156580000Y-65470000D02*
X155940000Y-65470000D01*
X156580000Y-63420000D02*
X156580000Y-65170000D01*
X139140000Y-50900000D02*
X145050000Y-50900000D01*
X99729511Y-42920489D02*
X135920489Y-42920489D01*
X71600000Y-75900000D02*
X71600000Y-83450000D01*
X156250000Y-65500000D02*
X156250000Y-77710000D01*
X156580000Y-65170000D02*
X156250000Y-65500000D01*
X137295000Y-49055000D02*
X139140000Y-50900000D01*
X155940000Y-65470000D02*
X154260000Y-63790000D01*
X78550000Y-74150000D02*
X76800000Y-72400000D01*
X159600000Y-60400000D02*
X156580000Y-63420000D01*
X76800000Y-72400000D02*
X76800000Y-51200000D01*
X80320000Y-74150000D02*
X78550000Y-74150000D01*
X76800000Y-51200000D02*
X78290000Y-49710000D01*
X96140000Y-49710000D02*
X97710000Y-48140000D01*
X73350000Y-74150000D02*
X71600000Y-75900000D01*
X156580000Y-78550000D02*
X156580000Y-72930000D01*
X97710000Y-44940000D02*
X99729511Y-42920489D01*
X76800000Y-72400000D02*
X76800000Y-73300000D01*
X76800000Y-73300000D02*
X75950000Y-74150000D01*
X154260000Y-63790000D02*
X147592500Y-63790000D01*
X156580000Y-65170000D02*
X156580000Y-65470000D01*
X80320000Y-74150000D02*
X75950000Y-74150000D01*
X159600000Y-50990000D02*
X159600000Y-60400000D01*
X146750000Y-49200000D02*
X157810000Y-49200000D01*
D24*
%TO.N,Net-(J2-Pad1)*%
X156300000Y-57790000D02*
X156360000Y-57730000D01*
D23*
X133392500Y-57790000D02*
X156300000Y-57790000D01*
D25*
%TO.N,GND*%
X132150000Y-66400000D02*
X132200000Y-66350000D01*
X122950000Y-72200000D02*
X122950000Y-74700000D01*
X122950000Y-74700000D02*
X123000000Y-74750000D01*
X99300000Y-58530000D02*
X99270000Y-58560000D01*
X132150000Y-68400000D02*
X132150000Y-66400000D01*
X99300000Y-56710000D02*
X99300000Y-58530000D01*
D26*
%TO.N,Net-(F1-Pad1)*%
X72150000Y-49240000D02*
X72150000Y-67000000D01*
X71600000Y-67550000D02*
X71600000Y-62950000D01*
X72150000Y-67000000D02*
X71600000Y-67550000D01*
D27*
%TO.N,/SCL*%
X101340000Y-65270000D02*
X100710000Y-64640000D01*
X101340000Y-65950000D02*
X101340000Y-65270000D01*
X100710000Y-64640000D02*
X96390000Y-64640000D01*
D25*
%TO.N,/SDA*%
X93870000Y-65780000D02*
X94080000Y-65990000D01*
X94080000Y-65990000D02*
X99390000Y-65990000D01*
X93250000Y-65160000D02*
X93870000Y-65780000D01*
X93250000Y-60830000D02*
X93250000Y-65160000D01*
%TO.N,Net-(C5-Pad1)*%
X95020000Y-60060000D02*
X95360000Y-59720000D01*
X95360000Y-59720000D02*
X96490000Y-59720000D01*
X95020000Y-64690000D02*
X95020000Y-60060000D01*
%TD*%
%TA.AperFunction,Conductor*%
%TO.N,GND*%
G36*
X128415114Y-47470502D02*
G01*
X128436088Y-47487405D01*
X129712595Y-48763911D01*
X129746620Y-48826223D01*
X129749500Y-48853006D01*
X129749500Y-52787833D01*
X129748243Y-52805585D01*
X129747091Y-52813681D01*
X129747208Y-52818844D01*
X129747208Y-52818846D01*
X129749468Y-52918433D01*
X129749500Y-52921291D01*
X129749500Y-52960463D01*
X129750466Y-52972211D01*
X129750857Y-52979671D01*
X129751998Y-53029917D01*
X129752502Y-53052138D01*
X129753461Y-53057212D01*
X129753461Y-53057215D01*
X129759304Y-53088136D01*
X129761071Y-53101203D01*
X129764073Y-53137716D01*
X129765331Y-53142725D01*
X129765332Y-53142730D01*
X129781727Y-53208000D01*
X129783332Y-53215300D01*
X129796787Y-53286510D01*
X129807393Y-53315491D01*
X129809377Y-53320914D01*
X129813255Y-53333520D01*
X129822179Y-53369048D01*
X129851074Y-53435501D01*
X129853851Y-53442443D01*
X129878756Y-53510500D01*
X129881301Y-53514998D01*
X129881305Y-53515007D01*
X129896793Y-53542382D01*
X129902677Y-53554183D01*
X129915225Y-53583041D01*
X129915229Y-53583048D01*
X129917288Y-53587784D01*
X129929377Y-53606470D01*
X129956653Y-53648633D01*
X129960526Y-53655028D01*
X129996208Y-53718096D01*
X130018983Y-53746322D01*
X130019209Y-53746602D01*
X130026936Y-53757275D01*
X130046845Y-53788049D01*
X130095633Y-53841666D01*
X130100478Y-53847320D01*
X130117063Y-53867875D01*
X130117071Y-53867884D01*
X130119177Y-53870494D01*
X130146908Y-53898225D01*
X130151006Y-53902520D01*
X130207371Y-53964464D01*
X130211422Y-53967664D01*
X130211426Y-53967667D01*
X130229060Y-53981593D01*
X130240063Y-53991380D01*
X131915025Y-55666341D01*
X131926689Y-55679782D01*
X131928495Y-55682188D01*
X131928500Y-55682194D01*
X131931602Y-55686325D01*
X132005419Y-55756867D01*
X132007365Y-55758726D01*
X132009409Y-55760725D01*
X132037096Y-55788412D01*
X132039068Y-55790084D01*
X132039086Y-55790101D01*
X132046094Y-55796044D01*
X132051649Y-55801045D01*
X132104042Y-55851113D01*
X132134316Y-55871764D01*
X132144785Y-55879739D01*
X132172737Y-55903445D01*
X132177177Y-55906102D01*
X132177178Y-55906103D01*
X132234924Y-55940663D01*
X132241202Y-55944677D01*
X132301082Y-55985525D01*
X132333093Y-56000384D01*
X132334310Y-56000949D01*
X132345965Y-56007120D01*
X132377401Y-56025934D01*
X132444860Y-56052507D01*
X132451676Y-56055429D01*
X132482197Y-56069595D01*
X132512737Y-56083772D01*
X132512742Y-56083774D01*
X132517428Y-56085949D01*
X132522404Y-56087329D01*
X132522415Y-56087333D01*
X132552733Y-56095740D01*
X132565286Y-56099943D01*
X132566223Y-56100312D01*
X132622247Y-56143918D01*
X132645804Y-56210893D01*
X132629412Y-56279971D01*
X132581903Y-56326890D01*
X132581570Y-56327044D01*
X132577657Y-56329609D01*
X132577656Y-56329610D01*
X132378152Y-56460410D01*
X132378147Y-56460414D01*
X132374239Y-56462976D01*
X132189277Y-56628061D01*
X132030748Y-56818672D01*
X132028325Y-56822665D01*
X131911969Y-57014414D01*
X131902134Y-57030621D01*
X131806261Y-57259252D01*
X131745235Y-57499543D01*
X131720396Y-57746214D01*
X131732291Y-57993848D01*
X131780658Y-58237003D01*
X131864434Y-58470339D01*
X131866651Y-58474465D01*
X131963358Y-58654445D01*
X131981779Y-58688729D01*
X131984574Y-58692473D01*
X131984576Y-58692475D01*
X132016515Y-58735246D01*
X132130115Y-58887375D01*
X132133424Y-58890655D01*
X132133429Y-58890661D01*
X132295575Y-59051398D01*
X132306183Y-59061914D01*
X132309945Y-59064672D01*
X132309948Y-59064675D01*
X132502349Y-59205749D01*
X132506116Y-59208511D01*
X132510247Y-59210685D01*
X132510248Y-59210685D01*
X132721387Y-59321770D01*
X132721393Y-59321772D01*
X132725522Y-59323945D01*
X132729930Y-59325484D01*
X132729936Y-59325487D01*
X132915541Y-59390303D01*
X132973259Y-59431645D01*
X132999462Y-59497629D01*
X133000000Y-59509258D01*
X133000000Y-85174000D01*
X132979998Y-85242121D01*
X132926342Y-85288614D01*
X132874000Y-85300000D01*
X121666000Y-85300000D01*
X121597879Y-85279998D01*
X121551386Y-85226342D01*
X121540000Y-85174000D01*
X121540000Y-81800000D01*
X102430000Y-81800000D01*
X102430000Y-85174000D01*
X102409998Y-85242121D01*
X102356342Y-85288614D01*
X102304000Y-85300000D01*
X85126000Y-85300000D01*
X85057879Y-85279998D01*
X85011386Y-85226342D01*
X85000000Y-85174000D01*
X85000000Y-60801069D01*
X92145164Y-60801069D01*
X92158392Y-61002894D01*
X92208178Y-61198928D01*
X92292856Y-61382607D01*
X92296186Y-61387319D01*
X92296189Y-61387324D01*
X92376397Y-61500816D01*
X92399500Y-61573536D01*
X92399500Y-65118938D01*
X92399058Y-65129479D01*
X92394740Y-65180902D01*
X92395642Y-65187662D01*
X92395642Y-65187666D01*
X92405381Y-65260659D01*
X92405751Y-65263713D01*
X92410572Y-65308086D01*
X92414442Y-65343709D01*
X92416616Y-65350169D01*
X92417286Y-65353217D01*
X92417367Y-65353678D01*
X92417403Y-65353829D01*
X92417536Y-65354288D01*
X92418278Y-65357307D01*
X92419180Y-65364069D01*
X92421513Y-65370479D01*
X92421514Y-65370483D01*
X92446697Y-65439671D01*
X92447715Y-65442577D01*
X92462665Y-65486999D01*
X92473383Y-65518848D01*
X92476900Y-65524702D01*
X92478200Y-65527514D01*
X92478382Y-65527957D01*
X92478458Y-65528116D01*
X92478686Y-65528534D01*
X92480049Y-65531303D01*
X92482382Y-65537715D01*
X92486036Y-65543473D01*
X92486039Y-65543479D01*
X92525490Y-65605644D01*
X92527108Y-65608263D01*
X92565041Y-65671393D01*
X92568557Y-65677244D01*
X92573246Y-65682203D01*
X92575128Y-65684682D01*
X92575668Y-65685459D01*
X92578625Y-65689369D01*
X92581398Y-65693738D01*
X92585183Y-65697972D01*
X92638689Y-65751478D01*
X92641142Y-65754000D01*
X92676005Y-65790866D01*
X92695524Y-65811507D01*
X92701166Y-65815341D01*
X92706366Y-65819767D01*
X92706022Y-65820171D01*
X92713918Y-65826707D01*
X93205183Y-66317972D01*
X93449562Y-66562350D01*
X93456706Y-66570118D01*
X93485613Y-66604326D01*
X93485617Y-66604330D01*
X93490020Y-66609540D01*
X93495444Y-66613687D01*
X93495445Y-66613688D01*
X93553929Y-66658402D01*
X93556345Y-66660295D01*
X93570672Y-66671815D01*
X93613753Y-66706454D01*
X93613756Y-66706456D01*
X93619073Y-66710731D01*
X93625190Y-66713768D01*
X93627802Y-66715438D01*
X93628196Y-66715714D01*
X93628320Y-66715791D01*
X93628742Y-66716023D01*
X93631395Y-66717630D01*
X93636820Y-66721777D01*
X93665587Y-66735191D01*
X93709730Y-66755775D01*
X93712505Y-66757110D01*
X93778480Y-66789861D01*
X93778484Y-66789863D01*
X93784593Y-66792895D01*
X93791218Y-66794547D01*
X93794121Y-66795615D01*
X93794573Y-66795803D01*
X93794708Y-66795851D01*
X93795167Y-66795986D01*
X93798108Y-66796987D01*
X93804297Y-66799873D01*
X93810960Y-66801362D01*
X93810959Y-66801362D01*
X93882831Y-66817427D01*
X93885828Y-66818136D01*
X93957272Y-66835949D01*
X93963894Y-66837600D01*
X93970714Y-66837790D01*
X93973792Y-66838212D01*
X93974709Y-66838377D01*
X93979585Y-66839054D01*
X93984637Y-66840183D01*
X93990307Y-66840500D01*
X94065964Y-66840500D01*
X94069483Y-66840549D01*
X94148611Y-66842759D01*
X94155317Y-66841480D01*
X94162114Y-66840933D01*
X94162157Y-66841462D01*
X94172363Y-66840500D01*
X98643653Y-66840500D01*
X98713656Y-66861735D01*
X98862637Y-66961282D01*
X98867940Y-66963560D01*
X98867943Y-66963562D01*
X99043163Y-67038842D01*
X99048470Y-67041122D01*
X99245740Y-67085760D01*
X99251509Y-67085987D01*
X99251512Y-67085987D01*
X99327683Y-67088979D01*
X99447842Y-67093700D01*
X99534132Y-67081189D01*
X99642286Y-67065508D01*
X99642291Y-67065507D01*
X99648007Y-67064678D01*
X99653479Y-67062820D01*
X99653481Y-67062820D01*
X99834067Y-67001519D01*
X99834069Y-67001518D01*
X99839531Y-66999664D01*
X99975422Y-66923562D01*
X100010964Y-66903658D01*
X100010965Y-66903657D01*
X100016001Y-66900837D01*
X100078433Y-66848913D01*
X100167073Y-66775191D01*
X100171505Y-66771505D01*
X100283502Y-66636844D01*
X100342440Y-66597261D01*
X100413422Y-66595825D01*
X100473912Y-66632992D01*
X100483267Y-66644687D01*
X100499588Y-66667780D01*
X100644466Y-66808913D01*
X100649270Y-66812123D01*
X100691265Y-66840183D01*
X100812637Y-66921282D01*
X100817940Y-66923560D01*
X100817943Y-66923562D01*
X100988515Y-66996845D01*
X100998470Y-67001122D01*
X101195740Y-67045760D01*
X101201509Y-67045987D01*
X101201512Y-67045987D01*
X101277683Y-67048979D01*
X101397842Y-67053700D01*
X101500318Y-67038842D01*
X101592286Y-67025508D01*
X101592291Y-67025507D01*
X101598007Y-67024678D01*
X101603479Y-67022820D01*
X101603481Y-67022820D01*
X101784067Y-66961519D01*
X101784069Y-66961518D01*
X101789531Y-66959664D01*
X101966001Y-66860837D01*
X101990454Y-66840500D01*
X102117073Y-66735191D01*
X102121505Y-66731505D01*
X102190436Y-66648625D01*
X102247146Y-66580439D01*
X102250837Y-66576001D01*
X102349664Y-66399531D01*
X102375924Y-66322174D01*
X102412820Y-66213481D01*
X102412820Y-66213479D01*
X102414678Y-66208007D01*
X102415507Y-66202291D01*
X102415508Y-66202286D01*
X102443167Y-66011516D01*
X102443700Y-66007842D01*
X102445215Y-65950000D01*
X102426708Y-65748591D01*
X102412254Y-65697339D01*
X102398321Y-65647938D01*
X102371807Y-65553926D01*
X102282351Y-65372527D01*
X102255768Y-65336928D01*
X102185258Y-65242503D01*
X102161323Y-65183779D01*
X102159798Y-65172350D01*
X102159428Y-65169294D01*
X102151734Y-65098472D01*
X102151733Y-65098469D01*
X102150997Y-65091691D01*
X102148822Y-65085230D01*
X102148305Y-65082876D01*
X102148209Y-65082334D01*
X102148027Y-65081550D01*
X102147871Y-65081013D01*
X102147301Y-65078693D01*
X102146399Y-65071930D01*
X102141113Y-65057405D01*
X102119697Y-64998567D01*
X102118679Y-64995660D01*
X102095967Y-64928173D01*
X102093789Y-64921700D01*
X102090272Y-64915847D01*
X102089269Y-64913676D01*
X102089049Y-64913142D01*
X102088720Y-64912451D01*
X102088446Y-64911949D01*
X102087389Y-64909801D01*
X102085055Y-64903388D01*
X102043240Y-64837498D01*
X102041622Y-64834879D01*
X102004929Y-64773811D01*
X102004927Y-64773809D01*
X102001413Y-64767960D01*
X101996723Y-64763000D01*
X101995277Y-64761096D01*
X101994622Y-64760152D01*
X101991718Y-64756313D01*
X101988950Y-64751951D01*
X101985284Y-64747851D01*
X101933408Y-64695975D01*
X101930955Y-64693453D01*
X101882867Y-64642601D01*
X101882865Y-64642599D01*
X101878178Y-64637643D01*
X101872536Y-64633809D01*
X101867692Y-64629686D01*
X101860262Y-64622829D01*
X101322016Y-64084583D01*
X101314873Y-64076816D01*
X101308241Y-64068968D01*
X101282638Y-64038671D01*
X101220558Y-63991207D01*
X101218250Y-63989397D01*
X101157378Y-63940455D01*
X101151267Y-63937421D01*
X101149245Y-63936128D01*
X101148781Y-63935803D01*
X101148115Y-63935389D01*
X101147639Y-63935127D01*
X101145568Y-63933873D01*
X101140153Y-63929733D01*
X101069413Y-63896746D01*
X101066641Y-63895412D01*
X100996724Y-63860705D01*
X100990101Y-63859054D01*
X100987843Y-63858223D01*
X100987322Y-63858006D01*
X100986588Y-63857746D01*
X100986038Y-63857584D01*
X100983780Y-63856815D01*
X100977599Y-63853933D01*
X100970942Y-63852445D01*
X100970936Y-63852443D01*
X100901434Y-63836907D01*
X100898438Y-63836199D01*
X100846328Y-63823207D01*
X100822694Y-63817314D01*
X100815871Y-63817123D01*
X100813476Y-63816795D01*
X100812379Y-63816597D01*
X100807606Y-63815935D01*
X100802560Y-63814807D01*
X100797069Y-63814500D01*
X100723693Y-63814500D01*
X100720176Y-63814451D01*
X100650226Y-63812497D01*
X100650221Y-63812497D01*
X100643405Y-63812307D01*
X100636702Y-63813586D01*
X100630387Y-63814094D01*
X100620280Y-63814500D01*
X97167652Y-63814500D01*
X97099531Y-63794498D01*
X97082123Y-63781024D01*
X97067059Y-63767099D01*
X97067053Y-63767095D01*
X97062812Y-63763174D01*
X97057929Y-63760093D01*
X96896637Y-63658325D01*
X96891757Y-63655246D01*
X96703898Y-63580298D01*
X96505526Y-63540839D01*
X96499752Y-63540763D01*
X96499748Y-63540763D01*
X96397257Y-63539422D01*
X96303286Y-63538192D01*
X96297589Y-63539171D01*
X96297588Y-63539171D01*
X96109646Y-63571465D01*
X96109645Y-63571465D01*
X96103949Y-63572444D01*
X96085715Y-63579171D01*
X96040111Y-63595995D01*
X95969277Y-63600807D01*
X95907087Y-63566560D01*
X95873285Y-63504126D01*
X95870500Y-63477783D01*
X95870500Y-62680372D01*
X107945452Y-62680372D01*
X107945718Y-62686967D01*
X107948107Y-62746193D01*
X107948196Y-62753061D01*
X107947260Y-62818934D01*
X107948542Y-62825417D01*
X107950112Y-62833359D01*
X107952402Y-62852718D01*
X107952729Y-62860808D01*
X107952730Y-62860813D01*
X107952996Y-62867411D01*
X107969279Y-62931243D01*
X107970788Y-62937910D01*
X107983574Y-63002568D01*
X107986174Y-63008638D01*
X107989358Y-63016072D01*
X107995627Y-63034540D01*
X107999263Y-63048794D01*
X108002189Y-63054713D01*
X108002190Y-63054714D01*
X108028461Y-63107845D01*
X108031337Y-63114084D01*
X108054670Y-63168562D01*
X108054673Y-63168568D01*
X108057274Y-63174640D01*
X108061080Y-63180039D01*
X108061081Y-63180040D01*
X108065745Y-63186655D01*
X108075713Y-63203411D01*
X108082231Y-63216593D01*
X108116349Y-63259778D01*
X108123071Y-63268287D01*
X108127160Y-63273762D01*
X108138100Y-63289278D01*
X108140281Y-63291771D01*
X108140283Y-63291773D01*
X108152020Y-63305186D01*
X108156065Y-63310049D01*
X108198274Y-63363476D01*
X108203355Y-63367693D01*
X108203360Y-63367698D01*
X108207882Y-63371451D01*
X108222236Y-63385434D01*
X108727253Y-63962596D01*
X108757057Y-64027034D01*
X108747293Y-64097356D01*
X108716737Y-64139205D01*
X108686496Y-64166433D01*
X108686490Y-64166440D01*
X108681584Y-64170857D01*
X108677704Y-64176198D01*
X108677700Y-64176202D01*
X108676368Y-64178036D01*
X108662705Y-64193886D01*
X108656370Y-64200105D01*
X108616779Y-64259856D01*
X108613712Y-64264276D01*
X108571557Y-64322297D01*
X108568870Y-64328332D01*
X108568869Y-64328334D01*
X108567944Y-64330411D01*
X108557875Y-64348754D01*
X108552975Y-64356149D01*
X108550552Y-64362291D01*
X108550550Y-64362295D01*
X108526680Y-64422804D01*
X108524577Y-64427815D01*
X108498108Y-64487265D01*
X108495419Y-64493305D01*
X108494045Y-64499768D01*
X108494045Y-64499769D01*
X108493573Y-64501989D01*
X108487537Y-64522025D01*
X108486704Y-64524136D01*
X108486703Y-64524140D01*
X108484281Y-64530279D01*
X108483189Y-64536785D01*
X108472417Y-64600958D01*
X108471402Y-64606296D01*
X108463356Y-64644151D01*
X108456500Y-64676405D01*
X108456500Y-64685283D01*
X108454761Y-64706141D01*
X108453293Y-64714887D01*
X108455836Y-64773811D01*
X108456383Y-64786487D01*
X108456500Y-64791920D01*
X108456500Y-64863595D01*
X108457874Y-64870058D01*
X108458344Y-64872268D01*
X108460982Y-64893044D01*
X108461364Y-64901904D01*
X108463015Y-64908300D01*
X108463015Y-64908302D01*
X108479267Y-64971275D01*
X108480512Y-64976564D01*
X108491686Y-65029132D01*
X108495419Y-65046695D01*
X108499030Y-65054805D01*
X108505924Y-65074563D01*
X108506491Y-65076761D01*
X108506493Y-65076766D01*
X108508142Y-65083156D01*
X108511084Y-65089064D01*
X108511085Y-65089067D01*
X108540091Y-65147317D01*
X108542407Y-65152232D01*
X108555172Y-65180902D01*
X108571557Y-65217702D01*
X108589576Y-65242503D01*
X108608168Y-65268093D01*
X108612532Y-65274507D01*
X109727800Y-67027072D01*
X109747498Y-67095281D01*
X109742736Y-67129035D01*
X109734676Y-67157508D01*
X109734238Y-67164095D01*
X109733930Y-67165876D01*
X109733813Y-67166418D01*
X109733572Y-67167912D01*
X109733512Y-67168463D01*
X109733243Y-67170249D01*
X109731581Y-67176645D01*
X109731286Y-67183242D01*
X109727885Y-67259152D01*
X109727733Y-67261876D01*
X109722689Y-67337694D01*
X109722251Y-67344285D01*
X109723192Y-67350821D01*
X109723262Y-67352650D01*
X109723260Y-67353189D01*
X109723334Y-67354685D01*
X109723391Y-67355243D01*
X109723499Y-67357048D01*
X109723204Y-67363648D01*
X109724286Y-67370159D01*
X109724286Y-67370160D01*
X109736738Y-67445092D01*
X109737154Y-67447772D01*
X109748932Y-67529565D01*
X109751213Y-67535767D01*
X109751658Y-67537526D01*
X109751771Y-67538068D01*
X109752156Y-67539521D01*
X109752326Y-67540051D01*
X109752806Y-67541789D01*
X109753889Y-67548307D01*
X109756302Y-67554453D01*
X109756303Y-67554457D01*
X109784082Y-67625212D01*
X109785051Y-67627762D01*
X109813552Y-67705248D01*
X109817070Y-67710835D01*
X109817868Y-67712458D01*
X109818099Y-67712980D01*
X109818771Y-67714310D01*
X109819044Y-67714786D01*
X109819884Y-67716405D01*
X109822297Y-67722550D01*
X109825935Y-67728060D01*
X109825936Y-67728062D01*
X109867808Y-67791479D01*
X109869276Y-67793755D01*
X109913286Y-67863657D01*
X109917891Y-67868393D01*
X109918995Y-67869796D01*
X109919327Y-67870256D01*
X109920289Y-67871452D01*
X109920642Y-67871847D01*
X109921804Y-67873259D01*
X109925437Y-67878763D01*
X109930137Y-67883392D01*
X109930141Y-67883397D01*
X109984293Y-67936733D01*
X109986152Y-67938602D01*
X110011065Y-67964226D01*
X110013607Y-67966344D01*
X110014461Y-67967056D01*
X110022218Y-67974085D01*
X110058802Y-68010118D01*
X110083481Y-68025879D01*
X110096316Y-68035268D01*
X110684656Y-68525551D01*
X110801610Y-68623013D01*
X110803402Y-68624535D01*
X110867018Y-68679592D01*
X110910658Y-68703658D01*
X110919909Y-68709292D01*
X110946543Y-68727125D01*
X110961318Y-68737018D01*
X110989927Y-68748464D01*
X111003951Y-68755105D01*
X111030936Y-68769986D01*
X111037247Y-68771900D01*
X111037258Y-68771905D01*
X111078631Y-68784455D01*
X111088857Y-68788044D01*
X111135115Y-68806551D01*
X111141617Y-68807675D01*
X111141621Y-68807676D01*
X111160636Y-68810962D01*
X111165469Y-68811797D01*
X111180584Y-68815382D01*
X111203740Y-68822406D01*
X111203742Y-68822406D01*
X111210067Y-68824325D01*
X111216647Y-68824886D01*
X111216651Y-68824887D01*
X111259720Y-68828560D01*
X111270472Y-68829945D01*
X111319571Y-68838431D01*
X111335694Y-68837813D01*
X111350362Y-68837252D01*
X111365888Y-68837616D01*
X111389995Y-68839672D01*
X111390001Y-68839672D01*
X111396581Y-68840233D01*
X111413022Y-68838178D01*
X111446022Y-68834054D01*
X111456822Y-68833173D01*
X111500030Y-68831517D01*
X111500033Y-68831517D01*
X111506625Y-68831264D01*
X111513023Y-68829646D01*
X111513028Y-68829645D01*
X111536492Y-68823710D01*
X111551759Y-68820836D01*
X111575774Y-68817834D01*
X111575775Y-68817834D01*
X111582325Y-68817015D01*
X111629410Y-68800687D01*
X111639791Y-68797581D01*
X111681699Y-68786981D01*
X111688100Y-68785362D01*
X111694023Y-68782448D01*
X111694029Y-68782446D01*
X111715749Y-68771761D01*
X111730084Y-68765776D01*
X111759184Y-68755685D01*
X111801837Y-68729930D01*
X111811344Y-68724733D01*
X111842732Y-68709292D01*
X111856067Y-68702732D01*
X111880274Y-68683687D01*
X111893054Y-68674850D01*
X111913774Y-68662339D01*
X111913778Y-68662336D01*
X111919427Y-68658925D01*
X111955797Y-68624861D01*
X111964019Y-68617799D01*
X111997993Y-68591069D01*
X112003183Y-68586986D01*
X112022902Y-68563323D01*
X112033565Y-68552023D01*
X112056051Y-68530963D01*
X112084547Y-68490077D01*
X112091118Y-68481465D01*
X112118793Y-68448254D01*
X112123019Y-68443183D01*
X112126097Y-68437346D01*
X112126100Y-68437342D01*
X112137392Y-68415930D01*
X112145466Y-68402670D01*
X112163084Y-68377392D01*
X112182452Y-68331485D01*
X112187084Y-68321702D01*
X112210339Y-68277606D01*
X112218731Y-68247959D01*
X112223876Y-68233301D01*
X112233281Y-68211009D01*
X112233281Y-68211008D01*
X112235849Y-68204922D01*
X112237095Y-68198439D01*
X112237096Y-68198434D01*
X112245251Y-68155983D01*
X112247752Y-68145436D01*
X112259526Y-68103844D01*
X112259526Y-68103843D01*
X112261324Y-68097492D01*
X112263368Y-68066755D01*
X112265351Y-68051358D01*
X112271166Y-68021093D01*
X112270187Y-67971261D01*
X112270441Y-67960444D01*
X112273749Y-67910715D01*
X112261752Y-67827406D01*
X112261454Y-67825194D01*
X112139102Y-66846373D01*
X112138431Y-66839464D01*
X112138188Y-66835949D01*
X112133900Y-66774073D01*
X112115087Y-66708308D01*
X112113519Y-66702265D01*
X112103292Y-66658402D01*
X112097984Y-66635638D01*
X112092822Y-66624631D01*
X112085759Y-66605784D01*
X112084234Y-66600454D01*
X112082417Y-66594101D01*
X112050338Y-66533677D01*
X112047549Y-66528093D01*
X112021308Y-66472139D01*
X112018504Y-66466159D01*
X112014036Y-66460257D01*
X112011162Y-66456459D01*
X112000344Y-66439507D01*
X111997741Y-66434605D01*
X111994641Y-66428766D01*
X111990396Y-66423700D01*
X111990393Y-66423696D01*
X111950710Y-66376342D01*
X111946821Y-66371462D01*
X111909510Y-66322174D01*
X111905524Y-66316908D01*
X111896327Y-66308948D01*
X111882218Y-66294612D01*
X111878655Y-66290361D01*
X111878651Y-66290357D01*
X111874408Y-66285294D01*
X111869209Y-66281227D01*
X111869202Y-66281220D01*
X111820534Y-66243146D01*
X111815716Y-66239181D01*
X111768975Y-66198729D01*
X111768974Y-66198728D01*
X111763982Y-66194408D01*
X111753327Y-66188532D01*
X111736536Y-66177436D01*
X111733078Y-66174730D01*
X111691754Y-66117000D01*
X111688202Y-66046092D01*
X111723550Y-65984520D01*
X111747723Y-65966378D01*
X111760303Y-65959116D01*
X111776725Y-65951161D01*
X111788951Y-65946298D01*
X111788952Y-65946298D01*
X111795085Y-65943858D01*
X111845717Y-65910103D01*
X111852611Y-65905821D01*
X111899589Y-65878699D01*
X111899591Y-65878697D01*
X111905306Y-65875398D01*
X111910211Y-65870981D01*
X111910217Y-65870977D01*
X111919986Y-65862181D01*
X111934404Y-65850979D01*
X111945338Y-65843689D01*
X111950836Y-65840024D01*
X111993340Y-65796484D01*
X111999189Y-65790866D01*
X112039508Y-65754562D01*
X112044416Y-65750143D01*
X112056029Y-65734159D01*
X112067804Y-65720203D01*
X112076986Y-65710797D01*
X112081596Y-65706075D01*
X112085931Y-65699221D01*
X112114118Y-65654651D01*
X112118672Y-65647938D01*
X112150563Y-65604043D01*
X112154443Y-65598703D01*
X112157127Y-65592675D01*
X112157132Y-65592666D01*
X112162482Y-65580650D01*
X112171093Y-65564559D01*
X112178121Y-65553445D01*
X112181649Y-65547867D01*
X112202766Y-65490812D01*
X112205825Y-65483300D01*
X112227895Y-65433730D01*
X112227898Y-65433722D01*
X112230581Y-65427695D01*
X112231955Y-65421232D01*
X112234690Y-65408368D01*
X112239769Y-65390834D01*
X112240987Y-65387543D01*
X112246623Y-65372315D01*
X112255419Y-65312096D01*
X112256845Y-65304135D01*
X112269500Y-65244595D01*
X112269500Y-65224846D01*
X112270823Y-65206635D01*
X112272723Y-65193627D01*
X112273678Y-65187089D01*
X112272728Y-65172350D01*
X112269761Y-65126357D01*
X112269500Y-65118247D01*
X112269500Y-65057405D01*
X112265393Y-65038084D01*
X112262901Y-65019999D01*
X112262055Y-65006873D01*
X112262054Y-65006870D01*
X112261630Y-65000287D01*
X112245171Y-64941693D01*
X112243234Y-64933834D01*
X112231955Y-64880767D01*
X112231954Y-64880763D01*
X112230581Y-64874305D01*
X112222547Y-64856260D01*
X112216349Y-64839087D01*
X112212794Y-64826431D01*
X112212793Y-64826428D01*
X112211007Y-64820071D01*
X112182728Y-64766184D01*
X112179192Y-64758885D01*
X112157127Y-64709326D01*
X112157126Y-64709325D01*
X112154443Y-64703298D01*
X112111470Y-64644150D01*
X112108570Y-64639983D01*
X110571891Y-62334964D01*
X110570055Y-62332210D01*
X110543738Y-62300500D01*
X110484695Y-62229357D01*
X110484692Y-62229355D01*
X110480476Y-62224274D01*
X110475295Y-62220180D01*
X110475292Y-62220178D01*
X110428068Y-62182870D01*
X110409604Y-62164932D01*
X110406773Y-62161553D01*
X110350408Y-62094294D01*
X110270618Y-62031874D01*
X110208175Y-61983024D01*
X110208173Y-61983023D01*
X110202972Y-61978954D01*
X110117898Y-61937394D01*
X110040709Y-61899686D01*
X110040706Y-61899685D01*
X110034778Y-61896789D01*
X109920640Y-61868254D01*
X109859583Y-61852989D01*
X109859578Y-61852988D01*
X109853177Y-61851388D01*
X109846578Y-61851153D01*
X109846575Y-61851153D01*
X109698282Y-61845881D01*
X109666105Y-61844737D01*
X109659593Y-61845881D01*
X109532244Y-61868254D01*
X109481738Y-61877127D01*
X109475614Y-61879597D01*
X109475613Y-61879597D01*
X109332297Y-61937394D01*
X109261639Y-61944322D01*
X109226624Y-61931029D01*
X109226444Y-61931418D01*
X109220919Y-61928863D01*
X109220630Y-61928754D01*
X109214779Y-61925264D01*
X109208527Y-61923134D01*
X109208525Y-61923133D01*
X109200867Y-61920524D01*
X109182948Y-61912825D01*
X109175776Y-61909061D01*
X109175772Y-61909059D01*
X109169929Y-61905993D01*
X109106513Y-61888179D01*
X109099954Y-61886142D01*
X109043843Y-61867025D01*
X109043840Y-61867024D01*
X109037590Y-61864895D01*
X109031035Y-61864112D01*
X109031032Y-61864111D01*
X109022988Y-61863150D01*
X109003866Y-61859345D01*
X108989713Y-61855370D01*
X108923967Y-61851130D01*
X108917137Y-61850502D01*
X108885132Y-61846677D01*
X108858276Y-61843468D01*
X108858274Y-61843468D01*
X108851722Y-61842685D01*
X108837079Y-61844014D01*
X108817581Y-61844268D01*
X108809508Y-61843747D01*
X108809503Y-61843747D01*
X108802911Y-61843322D01*
X108749297Y-61851153D01*
X108737720Y-61852844D01*
X108730900Y-61853651D01*
X108665298Y-61859605D01*
X108651250Y-61863950D01*
X108632238Y-61868251D01*
X108617685Y-61870377D01*
X108555889Y-61893248D01*
X108549431Y-61895441D01*
X108486464Y-61914915D01*
X108473621Y-61922089D01*
X108455929Y-61930244D01*
X108442133Y-61935350D01*
X108386461Y-61970558D01*
X108380558Y-61974070D01*
X108328805Y-62002977D01*
X108328803Y-62002979D01*
X108323039Y-62006198D01*
X108318070Y-62010546D01*
X108318067Y-62010548D01*
X108311974Y-62015880D01*
X108296352Y-62027545D01*
X108283925Y-62035404D01*
X108265839Y-62053060D01*
X108236790Y-62081417D01*
X108231745Y-62086080D01*
X108216577Y-62099352D01*
X108182164Y-62129463D01*
X108178208Y-62134749D01*
X108173353Y-62141235D01*
X108160499Y-62155891D01*
X108154699Y-62161553D01*
X108149976Y-62166164D01*
X108146320Y-62171649D01*
X108146316Y-62171653D01*
X108113425Y-62220991D01*
X108109460Y-62226600D01*
X108069996Y-62279325D01*
X108067223Y-62285322D01*
X108067222Y-62285324D01*
X108063824Y-62292672D01*
X108054299Y-62309679D01*
X108052270Y-62312723D01*
X108051711Y-62313562D01*
X108046142Y-62321915D01*
X108021785Y-62383152D01*
X108019073Y-62389462D01*
X107997562Y-62435987D01*
X107991437Y-62449234D01*
X107989974Y-62455667D01*
X107988176Y-62463570D01*
X107982395Y-62482186D01*
X107976959Y-62495852D01*
X107975847Y-62502366D01*
X107965875Y-62560765D01*
X107964535Y-62567503D01*
X107951383Y-62625324D01*
X107949919Y-62631762D01*
X107949825Y-62638362D01*
X107949825Y-62638364D01*
X107949710Y-62646466D01*
X107947926Y-62665881D01*
X107945452Y-62680372D01*
X95870500Y-62680372D01*
X95870500Y-61311069D01*
X116265164Y-61311069D01*
X116278392Y-61512894D01*
X116279815Y-61518496D01*
X116311151Y-61641882D01*
X116328178Y-61708928D01*
X116412856Y-61892607D01*
X116427145Y-61912825D01*
X116517037Y-62040020D01*
X116529588Y-62057780D01*
X116674466Y-62198913D01*
X116842637Y-62311282D01*
X116847940Y-62313560D01*
X116847943Y-62313562D01*
X117009919Y-62383152D01*
X117028470Y-62391122D01*
X117225740Y-62435760D01*
X117231509Y-62435987D01*
X117231512Y-62435987D01*
X117307683Y-62438979D01*
X117427842Y-62443700D01*
X117514132Y-62431189D01*
X117622286Y-62415508D01*
X117622291Y-62415507D01*
X117628007Y-62414678D01*
X117633479Y-62412820D01*
X117633481Y-62412820D01*
X117814067Y-62351519D01*
X117814069Y-62351518D01*
X117819531Y-62349664D01*
X117878634Y-62316565D01*
X117940200Y-62300500D01*
X123256857Y-62300500D01*
X123324978Y-62320502D01*
X123369863Y-62370771D01*
X123410222Y-62452611D01*
X123412516Y-62456044D01*
X123566814Y-62686967D01*
X123570480Y-62692454D01*
X123573194Y-62695548D01*
X123573198Y-62695554D01*
X123729523Y-62873807D01*
X123760673Y-62909327D01*
X123763762Y-62912036D01*
X123974446Y-63096802D01*
X123974452Y-63096806D01*
X123977546Y-63099520D01*
X123980972Y-63101809D01*
X123980977Y-63101813D01*
X124107953Y-63186655D01*
X124217389Y-63259778D01*
X124221088Y-63261602D01*
X124221093Y-63261605D01*
X124456858Y-63377871D01*
X124476098Y-63387359D01*
X124479996Y-63388682D01*
X124479998Y-63388683D01*
X124745337Y-63478754D01*
X124745341Y-63478755D01*
X124749247Y-63480081D01*
X124753291Y-63480885D01*
X124753297Y-63480887D01*
X125028118Y-63535552D01*
X125028121Y-63535552D01*
X125032161Y-63536356D01*
X125036272Y-63536625D01*
X125036276Y-63536626D01*
X125315881Y-63554952D01*
X125320000Y-63555222D01*
X125324119Y-63554952D01*
X125603724Y-63536626D01*
X125603728Y-63536625D01*
X125607839Y-63536356D01*
X125611879Y-63535552D01*
X125611882Y-63535552D01*
X125886703Y-63480887D01*
X125886709Y-63480885D01*
X125890753Y-63480081D01*
X125894659Y-63478755D01*
X125894663Y-63478754D01*
X126160002Y-63388683D01*
X126160004Y-63388682D01*
X126163902Y-63387359D01*
X126183142Y-63377871D01*
X126418907Y-63261605D01*
X126418912Y-63261602D01*
X126422611Y-63259778D01*
X126532047Y-63186655D01*
X126659023Y-63101813D01*
X126659028Y-63101809D01*
X126662454Y-63099520D01*
X126665548Y-63096806D01*
X126665554Y-63096802D01*
X126876238Y-62912036D01*
X126879327Y-62909327D01*
X126910477Y-62873807D01*
X127066802Y-62695554D01*
X127066806Y-62695548D01*
X127069520Y-62692454D01*
X127073187Y-62686967D01*
X127227484Y-62456044D01*
X127229778Y-62452611D01*
X127234173Y-62443700D01*
X127355537Y-62197597D01*
X127355538Y-62197595D01*
X127357359Y-62193902D01*
X127379233Y-62129463D01*
X127448754Y-61924663D01*
X127448755Y-61924659D01*
X127450081Y-61920753D01*
X127451243Y-61914915D01*
X127505552Y-61641882D01*
X127505552Y-61641879D01*
X127506356Y-61637839D01*
X127513195Y-61533506D01*
X127524952Y-61354119D01*
X127525222Y-61350000D01*
X127506356Y-61062161D01*
X127505552Y-61058118D01*
X127450887Y-60783297D01*
X127450885Y-60783291D01*
X127450081Y-60779247D01*
X127448588Y-60774847D01*
X127358683Y-60509998D01*
X127358682Y-60509996D01*
X127357359Y-60506098D01*
X127355094Y-60501505D01*
X127231605Y-60251093D01*
X127231602Y-60251087D01*
X127229778Y-60247389D01*
X127113764Y-60073762D01*
X127071813Y-60010977D01*
X127071809Y-60010972D01*
X127069520Y-60007546D01*
X127066806Y-60004452D01*
X127066802Y-60004446D01*
X126882036Y-59793762D01*
X126879327Y-59790673D01*
X126872057Y-59784297D01*
X126665554Y-59603198D01*
X126665548Y-59603194D01*
X126662454Y-59600480D01*
X126659028Y-59598191D01*
X126659023Y-59598187D01*
X126426044Y-59442516D01*
X126422611Y-59440222D01*
X126418912Y-59438398D01*
X126418907Y-59438395D01*
X126167597Y-59314463D01*
X126167595Y-59314462D01*
X126163902Y-59312641D01*
X126049136Y-59273683D01*
X125894663Y-59221246D01*
X125894659Y-59221245D01*
X125890753Y-59219919D01*
X125886709Y-59219115D01*
X125886703Y-59219113D01*
X125611882Y-59164448D01*
X125611879Y-59164448D01*
X125607839Y-59163644D01*
X125603728Y-59163375D01*
X125603724Y-59163374D01*
X125324119Y-59145048D01*
X125320000Y-59144778D01*
X125315881Y-59145048D01*
X125036276Y-59163374D01*
X125036272Y-59163375D01*
X125032161Y-59163644D01*
X125028121Y-59164448D01*
X125028118Y-59164448D01*
X124753297Y-59219113D01*
X124753291Y-59219115D01*
X124749247Y-59219919D01*
X124745341Y-59221245D01*
X124745337Y-59221246D01*
X124590864Y-59273683D01*
X124476098Y-59312641D01*
X124472405Y-59314462D01*
X124472403Y-59314463D01*
X124221093Y-59438395D01*
X124221088Y-59438398D01*
X124217389Y-59440222D01*
X124213956Y-59442516D01*
X123980977Y-59598187D01*
X123980972Y-59598191D01*
X123977546Y-59600480D01*
X123974452Y-59603194D01*
X123974446Y-59603198D01*
X123767943Y-59784297D01*
X123760673Y-59790673D01*
X123757964Y-59793762D01*
X123573198Y-60004446D01*
X123573194Y-60004452D01*
X123570480Y-60007546D01*
X123568191Y-60010972D01*
X123568187Y-60010977D01*
X123526236Y-60073762D01*
X123410222Y-60247389D01*
X123394549Y-60279171D01*
X123369863Y-60329229D01*
X123321794Y-60381478D01*
X123256857Y-60399500D01*
X117978324Y-60399500D01*
X117911089Y-60380062D01*
X117876642Y-60358328D01*
X117876640Y-60358327D01*
X117871757Y-60355246D01*
X117683898Y-60280298D01*
X117485526Y-60240839D01*
X117479752Y-60240763D01*
X117479748Y-60240763D01*
X117377257Y-60239422D01*
X117283286Y-60238192D01*
X117277589Y-60239171D01*
X117277588Y-60239171D01*
X117089646Y-60271465D01*
X117089645Y-60271465D01*
X117083949Y-60272444D01*
X116894193Y-60342449D01*
X116889232Y-60345401D01*
X116889231Y-60345401D01*
X116798299Y-60399500D01*
X116720371Y-60445862D01*
X116568305Y-60579220D01*
X116443089Y-60738057D01*
X116348914Y-60917053D01*
X116288937Y-61110213D01*
X116265164Y-61311069D01*
X95870500Y-61311069D01*
X95870500Y-60842968D01*
X95890502Y-60774847D01*
X95944158Y-60728354D01*
X96014432Y-60718250D01*
X96046237Y-60727200D01*
X96143159Y-60768841D01*
X96143166Y-60768843D01*
X96148470Y-60771122D01*
X96345740Y-60815760D01*
X96351509Y-60815987D01*
X96351512Y-60815987D01*
X96427683Y-60818979D01*
X96547842Y-60823700D01*
X96634132Y-60811189D01*
X96742286Y-60795508D01*
X96742291Y-60795507D01*
X96748007Y-60794678D01*
X96753479Y-60792820D01*
X96753481Y-60792820D01*
X96934067Y-60731519D01*
X96934069Y-60731518D01*
X96939531Y-60729664D01*
X97116001Y-60630837D01*
X97271505Y-60501505D01*
X97400837Y-60346001D01*
X97499664Y-60169531D01*
X97532174Y-60073762D01*
X97562820Y-59983481D01*
X97562820Y-59983479D01*
X97564678Y-59978007D01*
X97565507Y-59972291D01*
X97565508Y-59972286D01*
X97585354Y-59835401D01*
X97593700Y-59777842D01*
X97595215Y-59720000D01*
X97576708Y-59518591D01*
X97554091Y-59438395D01*
X97523376Y-59329490D01*
X97521807Y-59323926D01*
X97432351Y-59142527D01*
X97408017Y-59109939D01*
X97314788Y-58985091D01*
X97314787Y-58985090D01*
X97311335Y-58980467D01*
X97277068Y-58948791D01*
X97167053Y-58847094D01*
X97167051Y-58847092D01*
X97162812Y-58843174D01*
X97135374Y-58825862D01*
X96996637Y-58738325D01*
X96991757Y-58735246D01*
X96803898Y-58660298D01*
X96605526Y-58620839D01*
X96599752Y-58620763D01*
X96599748Y-58620763D01*
X96497257Y-58619422D01*
X96403286Y-58618192D01*
X96397589Y-58619171D01*
X96397588Y-58619171D01*
X96209646Y-58651465D01*
X96209645Y-58651465D01*
X96203949Y-58652444D01*
X96014193Y-58722449D01*
X95840371Y-58825862D01*
X95826265Y-58838232D01*
X95761864Y-58868108D01*
X95743189Y-58869500D01*
X95401062Y-58869500D01*
X95390521Y-58869058D01*
X95339098Y-58864740D01*
X95332338Y-58865642D01*
X95332334Y-58865642D01*
X95259341Y-58875381D01*
X95256287Y-58875751D01*
X95183072Y-58883705D01*
X95183069Y-58883706D01*
X95176291Y-58884442D01*
X95169831Y-58886616D01*
X95166783Y-58887286D01*
X95166322Y-58887367D01*
X95166171Y-58887403D01*
X95165712Y-58887536D01*
X95162693Y-58888278D01*
X95155931Y-58889180D01*
X95149521Y-58891513D01*
X95149517Y-58891514D01*
X95080329Y-58916697D01*
X95077423Y-58917715D01*
X95007623Y-58941205D01*
X95007621Y-58941206D01*
X95001152Y-58943383D01*
X94995298Y-58946900D01*
X94992486Y-58948200D01*
X94992043Y-58948382D01*
X94991884Y-58948458D01*
X94991466Y-58948686D01*
X94988697Y-58950049D01*
X94982285Y-58952382D01*
X94976527Y-58956036D01*
X94976521Y-58956039D01*
X94914356Y-58995490D01*
X94911737Y-58997108D01*
X94848607Y-59035041D01*
X94848605Y-59035042D01*
X94842756Y-59038557D01*
X94837797Y-59043246D01*
X94835318Y-59045128D01*
X94834541Y-59045668D01*
X94830631Y-59048625D01*
X94826262Y-59051398D01*
X94822028Y-59055183D01*
X94768524Y-59108687D01*
X94766002Y-59111140D01*
X94727333Y-59147708D01*
X94708493Y-59165524D01*
X94704657Y-59171169D01*
X94700236Y-59176363D01*
X94699833Y-59176020D01*
X94693298Y-59183913D01*
X94447644Y-59429568D01*
X94439875Y-59436712D01*
X94400460Y-59470020D01*
X94396313Y-59475444D01*
X94396312Y-59475445D01*
X94351598Y-59533929D01*
X94349705Y-59536345D01*
X94299269Y-59599073D01*
X94296232Y-59605190D01*
X94294562Y-59607802D01*
X94294286Y-59608196D01*
X94294209Y-59608320D01*
X94293977Y-59608742D01*
X94292370Y-59611395D01*
X94288223Y-59616820D01*
X94285338Y-59623008D01*
X94254225Y-59689730D01*
X94252890Y-59692505D01*
X94220139Y-59758480D01*
X94220137Y-59758484D01*
X94217105Y-59764593D01*
X94215453Y-59771218D01*
X94214385Y-59774121D01*
X94214197Y-59774573D01*
X94214149Y-59774708D01*
X94214014Y-59775167D01*
X94213013Y-59778108D01*
X94210127Y-59784297D01*
X94208638Y-59790959D01*
X94192573Y-59862831D01*
X94191864Y-59865829D01*
X94175261Y-59932418D01*
X94139373Y-59993676D01*
X94076063Y-60025807D01*
X94005432Y-60018609D01*
X93967475Y-59994460D01*
X93927053Y-59957094D01*
X93927051Y-59957092D01*
X93922812Y-59953174D01*
X93895374Y-59935862D01*
X93756637Y-59848325D01*
X93751757Y-59845246D01*
X93563898Y-59770298D01*
X93365526Y-59730839D01*
X93359752Y-59730763D01*
X93359748Y-59730763D01*
X93257257Y-59729422D01*
X93163286Y-59728192D01*
X93157589Y-59729171D01*
X93157588Y-59729171D01*
X92969646Y-59761465D01*
X92969645Y-59761465D01*
X92963949Y-59762444D01*
X92774193Y-59832449D01*
X92600371Y-59935862D01*
X92448305Y-60069220D01*
X92323089Y-60228057D01*
X92228914Y-60407053D01*
X92168937Y-60600213D01*
X92145164Y-60801069D01*
X85000000Y-60801069D01*
X85000000Y-54939654D01*
X124095618Y-54939654D01*
X124102673Y-54949627D01*
X124133679Y-54975551D01*
X124140598Y-54980579D01*
X124365272Y-55121515D01*
X124372807Y-55125556D01*
X124614520Y-55234694D01*
X124622551Y-55237680D01*
X124876832Y-55313002D01*
X124885184Y-55314869D01*
X125147340Y-55354984D01*
X125155874Y-55355700D01*
X125421045Y-55359867D01*
X125429596Y-55359418D01*
X125692883Y-55327557D01*
X125701284Y-55325955D01*
X125957824Y-55258653D01*
X125965926Y-55255926D01*
X126210949Y-55154434D01*
X126218617Y-55150628D01*
X126447598Y-55016822D01*
X126454679Y-55012009D01*
X126534655Y-54949301D01*
X126543125Y-54937442D01*
X126536608Y-54925818D01*
X125332812Y-53722022D01*
X125318868Y-53714408D01*
X125317035Y-53714539D01*
X125310420Y-53718790D01*
X124102910Y-54926300D01*
X124095618Y-54939654D01*
X85000000Y-54939654D01*
X85000000Y-54926500D01*
X85020002Y-54858379D01*
X85073658Y-54811886D01*
X85126000Y-54800500D01*
X98937833Y-54800500D01*
X98955585Y-54801757D01*
X98956688Y-54801914D01*
X98963681Y-54802909D01*
X98968844Y-54802792D01*
X98968846Y-54802792D01*
X99068433Y-54800532D01*
X99071291Y-54800500D01*
X99110463Y-54800500D01*
X99122218Y-54799534D01*
X99129671Y-54799143D01*
X99179917Y-54798002D01*
X99202138Y-54797498D01*
X99207212Y-54796539D01*
X99207215Y-54796539D01*
X99218984Y-54794315D01*
X99238144Y-54790695D01*
X99251203Y-54788929D01*
X99262728Y-54787982D01*
X99282562Y-54786351D01*
X99282565Y-54786351D01*
X99287716Y-54785927D01*
X99292725Y-54784669D01*
X99292730Y-54784668D01*
X99358000Y-54768273D01*
X99365301Y-54766668D01*
X99436510Y-54753213D01*
X99470914Y-54740623D01*
X99483520Y-54736745D01*
X99491746Y-54734679D01*
X99519048Y-54727821D01*
X99585502Y-54698926D01*
X99592443Y-54696149D01*
X99655644Y-54673021D01*
X99660500Y-54671244D01*
X99664998Y-54668699D01*
X99665007Y-54668695D01*
X99692382Y-54653207D01*
X99704183Y-54647323D01*
X99733041Y-54634775D01*
X99733048Y-54634771D01*
X99737784Y-54632712D01*
X99798633Y-54593347D01*
X99805028Y-54589474D01*
X99863589Y-54556342D01*
X99863590Y-54556342D01*
X99868096Y-54553792D01*
X99896602Y-54530791D01*
X99907275Y-54523064D01*
X99938049Y-54503155D01*
X99991666Y-54454367D01*
X99997320Y-54449522D01*
X100017875Y-54432937D01*
X100017884Y-54432929D01*
X100020494Y-54430823D01*
X100048225Y-54403092D01*
X100052520Y-54398994D01*
X100110642Y-54346107D01*
X100110643Y-54346105D01*
X100114464Y-54342629D01*
X100117664Y-54338578D01*
X100117667Y-54338574D01*
X100131593Y-54320940D01*
X100141380Y-54309937D01*
X101118112Y-53333204D01*
X123307665Y-53333204D01*
X123322932Y-53597969D01*
X123324005Y-53606470D01*
X123375065Y-53866722D01*
X123377276Y-53874974D01*
X123463184Y-54125894D01*
X123466499Y-54133779D01*
X123585664Y-54370713D01*
X123590020Y-54378079D01*
X123719347Y-54566250D01*
X123729601Y-54574594D01*
X123743342Y-54567448D01*
X124947978Y-53362812D01*
X124954356Y-53351132D01*
X125684408Y-53351132D01*
X125684539Y-53352965D01*
X125688790Y-53359580D01*
X126895730Y-54566520D01*
X126907939Y-54573187D01*
X126919439Y-54564497D01*
X127016831Y-54431913D01*
X127021418Y-54424685D01*
X127147962Y-54191621D01*
X127151530Y-54183827D01*
X127245271Y-53935750D01*
X127247748Y-53927544D01*
X127306954Y-53669038D01*
X127308294Y-53660577D01*
X127332031Y-53394616D01*
X127332277Y-53389677D01*
X127332666Y-53352485D01*
X127332523Y-53347519D01*
X127314362Y-53081123D01*
X127313201Y-53072649D01*
X127259419Y-52812944D01*
X127257120Y-52804709D01*
X127168588Y-52554705D01*
X127165191Y-52546854D01*
X127043550Y-52311178D01*
X127039122Y-52303866D01*
X126920031Y-52134417D01*
X126909509Y-52126037D01*
X126896121Y-52133089D01*
X125692022Y-53337188D01*
X125684408Y-53351132D01*
X124954356Y-53351132D01*
X124955592Y-53348868D01*
X124955461Y-53347035D01*
X124951210Y-53340420D01*
X123743814Y-52133024D01*
X123731804Y-52126466D01*
X123720064Y-52135434D01*
X123611935Y-52285911D01*
X123607418Y-52293196D01*
X123483325Y-52527567D01*
X123479839Y-52535395D01*
X123388700Y-52784446D01*
X123386311Y-52792670D01*
X123329812Y-53051795D01*
X123328563Y-53060250D01*
X123307754Y-53324653D01*
X123307665Y-53333204D01*
X101118112Y-53333204D01*
X102046341Y-52404975D01*
X102059782Y-52393311D01*
X102062188Y-52391505D01*
X102062194Y-52391500D01*
X102066325Y-52388398D01*
X102138726Y-52312635D01*
X102140725Y-52310591D01*
X102168412Y-52282904D01*
X102176050Y-52273897D01*
X102181031Y-52268366D01*
X102231113Y-52215958D01*
X102251758Y-52185693D01*
X102259752Y-52175199D01*
X102280099Y-52151207D01*
X102283444Y-52147263D01*
X102298854Y-52121516D01*
X102320657Y-52085087D01*
X102324683Y-52078791D01*
X102362615Y-52023184D01*
X102365525Y-52018918D01*
X102380948Y-51985692D01*
X102387121Y-51974033D01*
X102403276Y-51947040D01*
X102405934Y-51942599D01*
X102432507Y-51875140D01*
X102435434Y-51868311D01*
X102438088Y-51862595D01*
X102465949Y-51802572D01*
X102467329Y-51797596D01*
X102467333Y-51797585D01*
X102475740Y-51767267D01*
X102477335Y-51762500D01*
X124096584Y-51762500D01*
X124102980Y-51773770D01*
X125307188Y-52977978D01*
X125321132Y-52985592D01*
X125322965Y-52985461D01*
X125329580Y-52981210D01*
X126536604Y-51774186D01*
X126543795Y-51761017D01*
X126536473Y-51750780D01*
X126489233Y-51712115D01*
X126482261Y-51707160D01*
X126256122Y-51568582D01*
X126248552Y-51564624D01*
X126005704Y-51458022D01*
X125997644Y-51455120D01*
X125742592Y-51382467D01*
X125734214Y-51380685D01*
X125471656Y-51343318D01*
X125463111Y-51342691D01*
X125197908Y-51341302D01*
X125189374Y-51341839D01*
X124926433Y-51376456D01*
X124918035Y-51378149D01*
X124662238Y-51448127D01*
X124654143Y-51450946D01*
X124410199Y-51554997D01*
X124402577Y-51558881D01*
X124175013Y-51695075D01*
X124167981Y-51699962D01*
X124105053Y-51750377D01*
X124096584Y-51762500D01*
X102477335Y-51762500D01*
X102479922Y-51754769D01*
X102493351Y-51720677D01*
X102495187Y-51712115D01*
X102508542Y-51649816D01*
X102510326Y-51642554D01*
X102528310Y-51577709D01*
X102528311Y-51577704D01*
X102529691Y-51572728D01*
X102533584Y-51536304D01*
X102535669Y-51523284D01*
X102542265Y-51492516D01*
X102542265Y-51492512D01*
X102543349Y-51487458D01*
X102546763Y-51415066D01*
X102547336Y-51407624D01*
X102550143Y-51381363D01*
X102550144Y-51381346D01*
X102550500Y-51378014D01*
X102550500Y-51338792D01*
X102550640Y-51332856D01*
X102554341Y-51254371D01*
X102554585Y-51249205D01*
X102551361Y-51221761D01*
X102550500Y-51207060D01*
X102550500Y-48553007D01*
X102570502Y-48484886D01*
X102587400Y-48463917D01*
X103563912Y-47487404D01*
X103626223Y-47453380D01*
X103653006Y-47450500D01*
X128346993Y-47450500D01*
X128415114Y-47470502D01*
G37*
%TD.AperFunction*%
%TD*%
M02*
