%TF.GenerationSoftware,KiCad,Pcbnew,(6.0.0)*%
%TF.CreationDate,2022-03-17T14:10:33-06:00*%
%TF.ProjectId,main-board,6d61696e-2d62-46f6-9172-642e6b696361,rev?*%
%TF.SameCoordinates,Original*%
%TF.FileFunction,Legend,Top*%
%TF.FilePolarity,Positive*%
%FSLAX46Y46*%
G04 Gerber Fmt 4.6, Leading zero omitted, Abs format (unit mm)*
G04 Created by KiCad (PCBNEW (6.0.0)) date 2022-03-17 14:10:33*
%MOMM*%
%LPD*%
G01*
G04 APERTURE LIST*
%ADD10C,0.300000*%
%ADD11C,0.150000*%
%ADD12C,0.254000*%
%ADD13C,0.120000*%
%ADD14C,0.127000*%
%ADD15C,0.200000*%
%ADD16C,0.250000*%
%ADD17C,0.100000*%
G04 APERTURE END LIST*
D10*
X74121428Y-53750000D02*
X74835714Y-53750000D01*
X73978571Y-54178571D02*
X74478571Y-52678571D01*
X74978571Y-54178571D01*
X76335714Y-54035714D02*
X76264285Y-54107142D01*
X76050000Y-54178571D01*
X75907142Y-54178571D01*
X75692857Y-54107142D01*
X75550000Y-53964285D01*
X75478571Y-53821428D01*
X75407142Y-53535714D01*
X75407142Y-53321428D01*
X75478571Y-53035714D01*
X75550000Y-52892857D01*
X75692857Y-52750000D01*
X75907142Y-52678571D01*
X76050000Y-52678571D01*
X76264285Y-52750000D01*
X76335714Y-52821428D01*
D11*
X128619428Y-44235714D02*
X128857523Y-44902380D01*
X129095619Y-44235714D01*
X130000380Y-44902380D02*
X129428952Y-44902380D01*
X129714666Y-44902380D02*
X129714666Y-43902380D01*
X129619428Y-44045238D01*
X129524190Y-44140476D01*
X129428952Y-44188095D01*
X130428952Y-44807142D02*
X130476571Y-44854761D01*
X130428952Y-44902380D01*
X130381333Y-44854761D01*
X130428952Y-44807142D01*
X130428952Y-44902380D01*
X131095619Y-43902380D02*
X131190857Y-43902380D01*
X131286095Y-43950000D01*
X131333714Y-43997619D01*
X131381333Y-44092857D01*
X131428952Y-44283333D01*
X131428952Y-44521428D01*
X131381333Y-44711904D01*
X131333714Y-44807142D01*
X131286095Y-44854761D01*
X131190857Y-44902380D01*
X131095619Y-44902380D01*
X131000380Y-44854761D01*
X130952761Y-44807142D01*
X130905142Y-44711904D01*
X130857523Y-44521428D01*
X130857523Y-44283333D01*
X130905142Y-44092857D01*
X130952761Y-43997619D01*
X131000380Y-43950000D01*
X131095619Y-43902380D01*
X123484190Y-43124380D02*
X123484190Y-42124380D01*
X123817523Y-42838666D01*
X124150857Y-42124380D01*
X124150857Y-43124380D01*
X125055619Y-43124380D02*
X125055619Y-42600571D01*
X125008000Y-42505333D01*
X124912761Y-42457714D01*
X124722285Y-42457714D01*
X124627047Y-42505333D01*
X125055619Y-43076761D02*
X124960380Y-43124380D01*
X124722285Y-43124380D01*
X124627047Y-43076761D01*
X124579428Y-42981523D01*
X124579428Y-42886285D01*
X124627047Y-42791047D01*
X124722285Y-42743428D01*
X124960380Y-42743428D01*
X125055619Y-42695809D01*
X125531809Y-43124380D02*
X125531809Y-42457714D01*
X125531809Y-42124380D02*
X125484190Y-42172000D01*
X125531809Y-42219619D01*
X125579428Y-42172000D01*
X125531809Y-42124380D01*
X125531809Y-42219619D01*
X126008000Y-42457714D02*
X126008000Y-43124380D01*
X126008000Y-42552952D02*
X126055619Y-42505333D01*
X126150857Y-42457714D01*
X126293714Y-42457714D01*
X126388952Y-42505333D01*
X126436571Y-42600571D01*
X126436571Y-43124380D01*
X128008000Y-42600571D02*
X128150857Y-42648190D01*
X128198476Y-42695809D01*
X128246095Y-42791047D01*
X128246095Y-42933904D01*
X128198476Y-43029142D01*
X128150857Y-43076761D01*
X128055619Y-43124380D01*
X127674666Y-43124380D01*
X127674666Y-42124380D01*
X128008000Y-42124380D01*
X128103238Y-42172000D01*
X128150857Y-42219619D01*
X128198476Y-42314857D01*
X128198476Y-42410095D01*
X128150857Y-42505333D01*
X128103238Y-42552952D01*
X128008000Y-42600571D01*
X127674666Y-42600571D01*
X128817523Y-43124380D02*
X128722285Y-43076761D01*
X128674666Y-43029142D01*
X128627047Y-42933904D01*
X128627047Y-42648190D01*
X128674666Y-42552952D01*
X128722285Y-42505333D01*
X128817523Y-42457714D01*
X128960380Y-42457714D01*
X129055619Y-42505333D01*
X129103238Y-42552952D01*
X129150857Y-42648190D01*
X129150857Y-42933904D01*
X129103238Y-43029142D01*
X129055619Y-43076761D01*
X128960380Y-43124380D01*
X128817523Y-43124380D01*
X130008000Y-43124380D02*
X130008000Y-42600571D01*
X129960380Y-42505333D01*
X129865142Y-42457714D01*
X129674666Y-42457714D01*
X129579428Y-42505333D01*
X130008000Y-43076761D02*
X129912761Y-43124380D01*
X129674666Y-43124380D01*
X129579428Y-43076761D01*
X129531809Y-42981523D01*
X129531809Y-42886285D01*
X129579428Y-42791047D01*
X129674666Y-42743428D01*
X129912761Y-42743428D01*
X130008000Y-42695809D01*
X130484190Y-43124380D02*
X130484190Y-42457714D01*
X130484190Y-42648190D02*
X130531809Y-42552952D01*
X130579428Y-42505333D01*
X130674666Y-42457714D01*
X130769904Y-42457714D01*
X131531809Y-43124380D02*
X131531809Y-42124380D01*
X131531809Y-43076761D02*
X131436571Y-43124380D01*
X131246095Y-43124380D01*
X131150857Y-43076761D01*
X131103238Y-43029142D01*
X131055619Y-42933904D01*
X131055619Y-42648190D01*
X131103238Y-42552952D01*
X131150857Y-42505333D01*
X131246095Y-42457714D01*
X131436571Y-42457714D01*
X131531809Y-42505333D01*
%TO.C,C4*%
X99203333Y-80167142D02*
X99155714Y-80214761D01*
X99012857Y-80262380D01*
X98917619Y-80262380D01*
X98774761Y-80214761D01*
X98679523Y-80119523D01*
X98631904Y-80024285D01*
X98584285Y-79833809D01*
X98584285Y-79690952D01*
X98631904Y-79500476D01*
X98679523Y-79405238D01*
X98774761Y-79310000D01*
X98917619Y-79262380D01*
X99012857Y-79262380D01*
X99155714Y-79310000D01*
X99203333Y-79357619D01*
X100060476Y-79595714D02*
X100060476Y-80262380D01*
X99822380Y-79214761D02*
X99584285Y-79929047D01*
X100203333Y-79929047D01*
%TO.C,Q2*%
X147904761Y-75047619D02*
X147809523Y-75000000D01*
X147714285Y-74904761D01*
X147571428Y-74761904D01*
X147476190Y-74714285D01*
X147380952Y-74714285D01*
X147428571Y-74952380D02*
X147333333Y-74904761D01*
X147238095Y-74809523D01*
X147190476Y-74619047D01*
X147190476Y-74285714D01*
X147238095Y-74095238D01*
X147333333Y-74000000D01*
X147428571Y-73952380D01*
X147619047Y-73952380D01*
X147714285Y-74000000D01*
X147809523Y-74095238D01*
X147857142Y-74285714D01*
X147857142Y-74619047D01*
X147809523Y-74809523D01*
X147714285Y-74904761D01*
X147619047Y-74952380D01*
X147428571Y-74952380D01*
X148238095Y-74047619D02*
X148285714Y-74000000D01*
X148380952Y-73952380D01*
X148619047Y-73952380D01*
X148714285Y-74000000D01*
X148761904Y-74047619D01*
X148809523Y-74142857D01*
X148809523Y-74238095D01*
X148761904Y-74380952D01*
X148190476Y-74952380D01*
X148809523Y-74952380D01*
%TO.C,J2*%
X156166666Y-48452380D02*
X156166666Y-49166666D01*
X156119047Y-49309523D01*
X156023809Y-49404761D01*
X155880952Y-49452380D01*
X155785714Y-49452380D01*
X156595238Y-48547619D02*
X156642857Y-48500000D01*
X156738095Y-48452380D01*
X156976190Y-48452380D01*
X157071428Y-48500000D01*
X157119047Y-48547619D01*
X157166666Y-48642857D01*
X157166666Y-48738095D01*
X157119047Y-48880952D01*
X156547619Y-49452380D01*
X157166666Y-49452380D01*
%TO.C,R1*%
X85173333Y-50672380D02*
X84840000Y-50196190D01*
X84601904Y-50672380D02*
X84601904Y-49672380D01*
X84982857Y-49672380D01*
X85078095Y-49720000D01*
X85125714Y-49767619D01*
X85173333Y-49862857D01*
X85173333Y-50005714D01*
X85125714Y-50100952D01*
X85078095Y-50148571D01*
X84982857Y-50196190D01*
X84601904Y-50196190D01*
X86125714Y-50672380D02*
X85554285Y-50672380D01*
X85840000Y-50672380D02*
X85840000Y-49672380D01*
X85744761Y-49815238D01*
X85649523Y-49910476D01*
X85554285Y-49958095D01*
%TO.C,D1*%
X128162380Y-63868095D02*
X127162380Y-63868095D01*
X127162380Y-63630000D01*
X127210000Y-63487142D01*
X127305238Y-63391904D01*
X127400476Y-63344285D01*
X127590952Y-63296666D01*
X127733809Y-63296666D01*
X127924285Y-63344285D01*
X128019523Y-63391904D01*
X128114761Y-63487142D01*
X128162380Y-63630000D01*
X128162380Y-63868095D01*
X128162380Y-62344285D02*
X128162380Y-62915714D01*
X128162380Y-62630000D02*
X127162380Y-62630000D01*
X127305238Y-62725238D01*
X127400476Y-62820476D01*
X127448095Y-62915714D01*
%TO.C,K1*%
X134128705Y-49406583D02*
X134128705Y-48406489D01*
X134700187Y-49406583D02*
X134271575Y-48835101D01*
X134700187Y-48406489D02*
X134128705Y-48977971D01*
X135652658Y-49406583D02*
X135081175Y-49406583D01*
X135366917Y-49406583D02*
X135366917Y-48406489D01*
X135271669Y-48549360D01*
X135176422Y-48644607D01*
X135081175Y-48692230D01*
%TO.C,R7*%
X142983333Y-79582380D02*
X142650000Y-79106190D01*
X142411904Y-79582380D02*
X142411904Y-78582380D01*
X142792857Y-78582380D01*
X142888095Y-78630000D01*
X142935714Y-78677619D01*
X142983333Y-78772857D01*
X142983333Y-78915714D01*
X142935714Y-79010952D01*
X142888095Y-79058571D01*
X142792857Y-79106190D01*
X142411904Y-79106190D01*
X143316666Y-78582380D02*
X143983333Y-78582380D01*
X143554761Y-79582380D01*
%TO.C,F1*%
X75971428Y-72866666D02*
X75971428Y-72533333D01*
X75447619Y-72533333D02*
X76447619Y-72533333D01*
X76447619Y-73009523D01*
X75447619Y-73914285D02*
X75447619Y-73342857D01*
X75447619Y-73628571D02*
X76447619Y-73628571D01*
X76304761Y-73533333D01*
X76209523Y-73438095D01*
X76161904Y-73342857D01*
%TO.C,J3*%
X155916666Y-73612380D02*
X155916666Y-74326666D01*
X155869047Y-74469523D01*
X155773809Y-74564761D01*
X155630952Y-74612380D01*
X155535714Y-74612380D01*
X156297619Y-73612380D02*
X156916666Y-73612380D01*
X156583333Y-73993333D01*
X156726190Y-73993333D01*
X156821428Y-74040952D01*
X156869047Y-74088571D01*
X156916666Y-74183809D01*
X156916666Y-74421904D01*
X156869047Y-74517142D01*
X156821428Y-74564761D01*
X156726190Y-74612380D01*
X156440476Y-74612380D01*
X156345238Y-74564761D01*
X156297619Y-74517142D01*
%TO.C,J1*%
X76682380Y-47033333D02*
X77396666Y-47033333D01*
X77539523Y-47080952D01*
X77634761Y-47176190D01*
X77682380Y-47319047D01*
X77682380Y-47414285D01*
X77682380Y-46033333D02*
X77682380Y-46604761D01*
X77682380Y-46319047D02*
X76682380Y-46319047D01*
X76825238Y-46414285D01*
X76920476Y-46509523D01*
X76968095Y-46604761D01*
%TO.C,C3*%
X91607142Y-57916666D02*
X91654761Y-57964285D01*
X91702380Y-58107142D01*
X91702380Y-58202380D01*
X91654761Y-58345238D01*
X91559523Y-58440476D01*
X91464285Y-58488095D01*
X91273809Y-58535714D01*
X91130952Y-58535714D01*
X90940476Y-58488095D01*
X90845238Y-58440476D01*
X90750000Y-58345238D01*
X90702380Y-58202380D01*
X90702380Y-58107142D01*
X90750000Y-57964285D01*
X90797619Y-57916666D01*
X90702380Y-57583333D02*
X90702380Y-56964285D01*
X91083333Y-57297619D01*
X91083333Y-57154761D01*
X91130952Y-57059523D01*
X91178571Y-57011904D01*
X91273809Y-56964285D01*
X91511904Y-56964285D01*
X91607142Y-57011904D01*
X91654761Y-57059523D01*
X91702380Y-57154761D01*
X91702380Y-57440476D01*
X91654761Y-57535714D01*
X91607142Y-57583333D01*
%TO.C,R2*%
X85173333Y-54282380D02*
X84840000Y-53806190D01*
X84601904Y-54282380D02*
X84601904Y-53282380D01*
X84982857Y-53282380D01*
X85078095Y-53330000D01*
X85125714Y-53377619D01*
X85173333Y-53472857D01*
X85173333Y-53615714D01*
X85125714Y-53710952D01*
X85078095Y-53758571D01*
X84982857Y-53806190D01*
X84601904Y-53806190D01*
X85554285Y-53377619D02*
X85601904Y-53330000D01*
X85697142Y-53282380D01*
X85935238Y-53282380D01*
X86030476Y-53330000D01*
X86078095Y-53377619D01*
X86125714Y-53472857D01*
X86125714Y-53568095D01*
X86078095Y-53710952D01*
X85506666Y-54282380D01*
X86125714Y-54282380D01*
%TO.C,R3*%
X100952380Y-53166666D02*
X100476190Y-53500000D01*
X100952380Y-53738095D02*
X99952380Y-53738095D01*
X99952380Y-53357142D01*
X100000000Y-53261904D01*
X100047619Y-53214285D01*
X100142857Y-53166666D01*
X100285714Y-53166666D01*
X100380952Y-53214285D01*
X100428571Y-53261904D01*
X100476190Y-53357142D01*
X100476190Y-53738095D01*
X99952380Y-52833333D02*
X99952380Y-52214285D01*
X100333333Y-52547619D01*
X100333333Y-52404761D01*
X100380952Y-52309523D01*
X100428571Y-52261904D01*
X100523809Y-52214285D01*
X100761904Y-52214285D01*
X100857142Y-52261904D01*
X100904761Y-52309523D01*
X100952380Y-52404761D01*
X100952380Y-52690476D01*
X100904761Y-52785714D01*
X100857142Y-52833333D01*
%TO.C,U1*%
X92348095Y-50432380D02*
X92348095Y-51241904D01*
X92395714Y-51337142D01*
X92443333Y-51384761D01*
X92538571Y-51432380D01*
X92729047Y-51432380D01*
X92824285Y-51384761D01*
X92871904Y-51337142D01*
X92919523Y-51241904D01*
X92919523Y-50432380D01*
X93919523Y-51432380D02*
X93348095Y-51432380D01*
X93633809Y-51432380D02*
X93633809Y-50432380D01*
X93538571Y-50575238D01*
X93443333Y-50670476D01*
X93348095Y-50718095D01*
D12*
%TO.C,U4*%
X90082380Y-76394523D02*
X90082380Y-77422619D01*
X90142857Y-77543571D01*
X90203333Y-77604047D01*
X90324285Y-77664523D01*
X90566190Y-77664523D01*
X90687142Y-77604047D01*
X90747619Y-77543571D01*
X90808095Y-77422619D01*
X90808095Y-76394523D01*
X91957142Y-76817857D02*
X91957142Y-77664523D01*
X91654761Y-76334047D02*
X91352380Y-77241190D01*
X92138571Y-77241190D01*
D11*
%TO.C,C2*%
X87047142Y-73156666D02*
X87094761Y-73204285D01*
X87142380Y-73347142D01*
X87142380Y-73442380D01*
X87094761Y-73585238D01*
X86999523Y-73680476D01*
X86904285Y-73728095D01*
X86713809Y-73775714D01*
X86570952Y-73775714D01*
X86380476Y-73728095D01*
X86285238Y-73680476D01*
X86190000Y-73585238D01*
X86142380Y-73442380D01*
X86142380Y-73347142D01*
X86190000Y-73204285D01*
X86237619Y-73156666D01*
X86237619Y-72775714D02*
X86190000Y-72728095D01*
X86142380Y-72632857D01*
X86142380Y-72394761D01*
X86190000Y-72299523D01*
X86237619Y-72251904D01*
X86332857Y-72204285D01*
X86428095Y-72204285D01*
X86570952Y-72251904D01*
X87142380Y-72823333D01*
X87142380Y-72204285D01*
%TO.C,Q1*%
X127777619Y-67635238D02*
X127730000Y-67730476D01*
X127634761Y-67825714D01*
X127491904Y-67968571D01*
X127444285Y-68063809D01*
X127444285Y-68159047D01*
X127682380Y-68111428D02*
X127634761Y-68206666D01*
X127539523Y-68301904D01*
X127349047Y-68349523D01*
X127015714Y-68349523D01*
X126825238Y-68301904D01*
X126730000Y-68206666D01*
X126682380Y-68111428D01*
X126682380Y-67920952D01*
X126730000Y-67825714D01*
X126825238Y-67730476D01*
X127015714Y-67682857D01*
X127349047Y-67682857D01*
X127539523Y-67730476D01*
X127634761Y-67825714D01*
X127682380Y-67920952D01*
X127682380Y-68111428D01*
X127682380Y-66730476D02*
X127682380Y-67301904D01*
X127682380Y-67016190D02*
X126682380Y-67016190D01*
X126825238Y-67111428D01*
X126920476Y-67206666D01*
X126968095Y-67301904D01*
%TO.C,R5*%
X124962380Y-82896666D02*
X124486190Y-83230000D01*
X124962380Y-83468095D02*
X123962380Y-83468095D01*
X123962380Y-83087142D01*
X124010000Y-82991904D01*
X124057619Y-82944285D01*
X124152857Y-82896666D01*
X124295714Y-82896666D01*
X124390952Y-82944285D01*
X124438571Y-82991904D01*
X124486190Y-83087142D01*
X124486190Y-83468095D01*
X123962380Y-81991904D02*
X123962380Y-82468095D01*
X124438571Y-82515714D01*
X124390952Y-82468095D01*
X124343333Y-82372857D01*
X124343333Y-82134761D01*
X124390952Y-82039523D01*
X124438571Y-81991904D01*
X124533809Y-81944285D01*
X124771904Y-81944285D01*
X124867142Y-81991904D01*
X124914761Y-82039523D01*
X124962380Y-82134761D01*
X124962380Y-82372857D01*
X124914761Y-82468095D01*
X124867142Y-82515714D01*
%TO.C,U5*%
X96738095Y-61572380D02*
X96738095Y-62381904D01*
X96785714Y-62477142D01*
X96833333Y-62524761D01*
X96928571Y-62572380D01*
X97119047Y-62572380D01*
X97214285Y-62524761D01*
X97261904Y-62477142D01*
X97309523Y-62381904D01*
X97309523Y-61572380D01*
X98261904Y-61572380D02*
X97785714Y-61572380D01*
X97738095Y-62048571D01*
X97785714Y-62000952D01*
X97880952Y-61953333D01*
X98119047Y-61953333D01*
X98214285Y-62000952D01*
X98261904Y-62048571D01*
X98309523Y-62143809D01*
X98309523Y-62381904D01*
X98261904Y-62477142D01*
X98214285Y-62524761D01*
X98119047Y-62572380D01*
X97880952Y-62572380D01*
X97785714Y-62524761D01*
X97738095Y-62477142D01*
%TO.C,U3*%
X130168095Y-78112380D02*
X130168095Y-78921904D01*
X130215714Y-79017142D01*
X130263333Y-79064761D01*
X130358571Y-79112380D01*
X130549047Y-79112380D01*
X130644285Y-79064761D01*
X130691904Y-79017142D01*
X130739523Y-78921904D01*
X130739523Y-78112380D01*
X131120476Y-78112380D02*
X131739523Y-78112380D01*
X131406190Y-78493333D01*
X131549047Y-78493333D01*
X131644285Y-78540952D01*
X131691904Y-78588571D01*
X131739523Y-78683809D01*
X131739523Y-78921904D01*
X131691904Y-79017142D01*
X131644285Y-79064761D01*
X131549047Y-79112380D01*
X131263333Y-79112380D01*
X131168095Y-79064761D01*
X131120476Y-79017142D01*
%TO.C,R8*%
X94803333Y-60192380D02*
X94470000Y-59716190D01*
X94231904Y-60192380D02*
X94231904Y-59192380D01*
X94612857Y-59192380D01*
X94708095Y-59240000D01*
X94755714Y-59287619D01*
X94803333Y-59382857D01*
X94803333Y-59525714D01*
X94755714Y-59620952D01*
X94708095Y-59668571D01*
X94612857Y-59716190D01*
X94231904Y-59716190D01*
X95374761Y-59620952D02*
X95279523Y-59573333D01*
X95231904Y-59525714D01*
X95184285Y-59430476D01*
X95184285Y-59382857D01*
X95231904Y-59287619D01*
X95279523Y-59240000D01*
X95374761Y-59192380D01*
X95565238Y-59192380D01*
X95660476Y-59240000D01*
X95708095Y-59287619D01*
X95755714Y-59382857D01*
X95755714Y-59430476D01*
X95708095Y-59525714D01*
X95660476Y-59573333D01*
X95565238Y-59620952D01*
X95374761Y-59620952D01*
X95279523Y-59668571D01*
X95231904Y-59716190D01*
X95184285Y-59811428D01*
X95184285Y-60001904D01*
X95231904Y-60097142D01*
X95279523Y-60144761D01*
X95374761Y-60192380D01*
X95565238Y-60192380D01*
X95660476Y-60144761D01*
X95708095Y-60097142D01*
X95755714Y-60001904D01*
X95755714Y-59811428D01*
X95708095Y-59716190D01*
X95660476Y-59668571D01*
X95565238Y-59620952D01*
%TO.C,R6*%
X138373333Y-79582380D02*
X138040000Y-79106190D01*
X137801904Y-79582380D02*
X137801904Y-78582380D01*
X138182857Y-78582380D01*
X138278095Y-78630000D01*
X138325714Y-78677619D01*
X138373333Y-78772857D01*
X138373333Y-78915714D01*
X138325714Y-79010952D01*
X138278095Y-79058571D01*
X138182857Y-79106190D01*
X137801904Y-79106190D01*
X139230476Y-78582380D02*
X139040000Y-78582380D01*
X138944761Y-78630000D01*
X138897142Y-78677619D01*
X138801904Y-78820476D01*
X138754285Y-79010952D01*
X138754285Y-79391904D01*
X138801904Y-79487142D01*
X138849523Y-79534761D01*
X138944761Y-79582380D01*
X139135238Y-79582380D01*
X139230476Y-79534761D01*
X139278095Y-79487142D01*
X139325714Y-79391904D01*
X139325714Y-79153809D01*
X139278095Y-79058571D01*
X139230476Y-79010952D01*
X139135238Y-78963333D01*
X138944761Y-78963333D01*
X138849523Y-79010952D01*
X138801904Y-79058571D01*
X138754285Y-79153809D01*
%TO.C,C1*%
X143033333Y-75947142D02*
X142985714Y-75994761D01*
X142842857Y-76042380D01*
X142747619Y-76042380D01*
X142604761Y-75994761D01*
X142509523Y-75899523D01*
X142461904Y-75804285D01*
X142414285Y-75613809D01*
X142414285Y-75470952D01*
X142461904Y-75280476D01*
X142509523Y-75185238D01*
X142604761Y-75090000D01*
X142747619Y-75042380D01*
X142842857Y-75042380D01*
X142985714Y-75090000D01*
X143033333Y-75137619D01*
X143985714Y-76042380D02*
X143414285Y-76042380D01*
X143700000Y-76042380D02*
X143700000Y-75042380D01*
X143604761Y-75185238D01*
X143509523Y-75280476D01*
X143414285Y-75328095D01*
%TO.C,R4*%
X129373333Y-72732380D02*
X129040000Y-72256190D01*
X128801904Y-72732380D02*
X128801904Y-71732380D01*
X129182857Y-71732380D01*
X129278095Y-71780000D01*
X129325714Y-71827619D01*
X129373333Y-71922857D01*
X129373333Y-72065714D01*
X129325714Y-72160952D01*
X129278095Y-72208571D01*
X129182857Y-72256190D01*
X128801904Y-72256190D01*
X130230476Y-72065714D02*
X130230476Y-72732380D01*
X129992380Y-71684761D02*
X129754285Y-72399047D01*
X130373333Y-72399047D01*
%TO.C,C5*%
X99097142Y-57786666D02*
X99144761Y-57834285D01*
X99192380Y-57977142D01*
X99192380Y-58072380D01*
X99144761Y-58215238D01*
X99049523Y-58310476D01*
X98954285Y-58358095D01*
X98763809Y-58405714D01*
X98620952Y-58405714D01*
X98430476Y-58358095D01*
X98335238Y-58310476D01*
X98240000Y-58215238D01*
X98192380Y-58072380D01*
X98192380Y-57977142D01*
X98240000Y-57834285D01*
X98287619Y-57786666D01*
X98192380Y-56881904D02*
X98192380Y-57358095D01*
X98668571Y-57405714D01*
X98620952Y-57358095D01*
X98573333Y-57262857D01*
X98573333Y-57024761D01*
X98620952Y-56929523D01*
X98668571Y-56881904D01*
X98763809Y-56834285D01*
X99001904Y-56834285D01*
X99097142Y-56881904D01*
X99144761Y-56929523D01*
X99192380Y-57024761D01*
X99192380Y-57262857D01*
X99144761Y-57358095D01*
X99097142Y-57405714D01*
D13*
%TO.C,C4*%
X99607252Y-77071000D02*
X99084748Y-77071000D01*
X99607252Y-78541000D02*
X99084748Y-78541000D01*
%TO.C,Q2*%
X149440000Y-75780000D02*
X149440000Y-86020000D01*
X150950000Y-79050000D02*
X149440000Y-79050000D01*
X150950000Y-75780000D02*
X150950000Y-86020000D01*
X150950000Y-75780000D02*
X146309000Y-75780000D01*
X150950000Y-86020000D02*
X146309000Y-86020000D01*
X150950000Y-82751000D02*
X149440000Y-82751000D01*
X146309000Y-75780000D02*
X146309000Y-86020000D01*
%TO.C,J2*%
X158900000Y-50110000D02*
X158900000Y-60270000D01*
X160170000Y-50110000D02*
X152550000Y-50110000D01*
X152550000Y-60270000D02*
X160170000Y-60270000D01*
X160170000Y-60270000D02*
X160170000Y-50110000D01*
X152550000Y-50110000D02*
X152550000Y-60270000D01*
%TO.C,R1*%
X84612936Y-52950000D02*
X86067064Y-52950000D01*
X84612936Y-51130000D02*
X86067064Y-51130000D01*
%TO.C,G\u002A\u002A\u002A*%
G36*
X68260037Y-59406957D02*
G01*
X68272431Y-59371994D01*
X68290345Y-59332417D01*
X68314274Y-59286274D01*
X68344715Y-59231611D01*
X68358242Y-59207937D01*
X68372172Y-59183661D01*
X68392143Y-59148837D01*
X68417570Y-59104488D01*
X68447866Y-59051638D01*
X68482447Y-58991308D01*
X68520725Y-58924521D01*
X68562115Y-58852299D01*
X68606032Y-58775664D01*
X68651888Y-58695640D01*
X68699098Y-58613248D01*
X68747076Y-58529511D01*
X68762074Y-58503333D01*
X68852808Y-58344965D01*
X68937653Y-58196882D01*
X69017343Y-58057800D01*
X69092614Y-57926433D01*
X69164204Y-57801497D01*
X69232848Y-57681707D01*
X69299282Y-57565779D01*
X69364243Y-57452427D01*
X69428467Y-57340368D01*
X69492690Y-57228315D01*
X69557649Y-57114986D01*
X69624079Y-56999094D01*
X69659864Y-56936667D01*
X69696629Y-56872529D01*
X69739045Y-56798529D01*
X69786136Y-56716371D01*
X69836923Y-56627763D01*
X69890428Y-56534408D01*
X69945676Y-56438014D01*
X70001687Y-56340285D01*
X70057484Y-56242927D01*
X70112089Y-56147646D01*
X70164526Y-56056149D01*
X70185242Y-56020000D01*
X70234622Y-55933836D01*
X70285215Y-55845558D01*
X70336210Y-55756584D01*
X70386794Y-55668329D01*
X70436156Y-55582211D01*
X70483482Y-55499646D01*
X70527962Y-55422051D01*
X70568783Y-55350843D01*
X70605133Y-55287438D01*
X70636200Y-55233254D01*
X70653357Y-55203333D01*
X70692226Y-55135548D01*
X70735300Y-55060418D01*
X70780793Y-54981062D01*
X70826915Y-54900600D01*
X70871879Y-54822150D01*
X70913899Y-54748831D01*
X70951184Y-54683762D01*
X70953340Y-54680000D01*
X70990267Y-54615553D01*
X71032039Y-54542658D01*
X71076867Y-54464434D01*
X71122963Y-54384002D01*
X71168539Y-54304481D01*
X71211809Y-54228989D01*
X71250984Y-54160646D01*
X71253266Y-54156667D01*
X71286397Y-54098859D01*
X71324899Y-54031664D01*
X71367519Y-53957266D01*
X71413007Y-53877850D01*
X71460110Y-53795603D01*
X71507577Y-53712707D01*
X71554157Y-53631350D01*
X71598598Y-53553716D01*
X71619803Y-53516667D01*
X71664780Y-53438210D01*
X71703923Y-53370257D01*
X71737922Y-53311684D01*
X71767465Y-53261367D01*
X71793242Y-53218180D01*
X71815941Y-53181000D01*
X71836251Y-53148702D01*
X71854863Y-53120161D01*
X71872464Y-53094253D01*
X71889744Y-53069853D01*
X71907391Y-53045837D01*
X71912449Y-53039087D01*
X71940154Y-53002388D01*
X71961716Y-52974535D01*
X71978951Y-52953676D01*
X71993674Y-52937959D01*
X72007702Y-52925533D01*
X72022849Y-52914546D01*
X72040931Y-52903146D01*
X72052615Y-52896131D01*
X72084344Y-52878100D01*
X72110915Y-52865754D01*
X72137953Y-52856938D01*
X72171084Y-52849494D01*
X72177550Y-52848244D01*
X72207599Y-52842700D01*
X72229587Y-52839682D01*
X72248235Y-52839231D01*
X72268265Y-52841389D01*
X72294396Y-52846197D01*
X72310232Y-52849405D01*
X72344510Y-52857162D01*
X72372174Y-52865767D01*
X72398453Y-52877284D01*
X72428577Y-52893779D01*
X72440628Y-52900890D01*
X72462288Y-52914353D01*
X72482766Y-52928473D01*
X72502573Y-52943982D01*
X72522218Y-52961614D01*
X72542212Y-52982100D01*
X72563064Y-53006174D01*
X72585283Y-53034569D01*
X72609380Y-53068018D01*
X72635865Y-53107253D01*
X72665247Y-53153007D01*
X72698036Y-53206014D01*
X72734742Y-53267005D01*
X72775874Y-53336714D01*
X72821944Y-53415874D01*
X72873459Y-53505218D01*
X72930931Y-53605477D01*
X72931611Y-53606667D01*
X73011121Y-53745645D01*
X73093881Y-53890290D01*
X73179037Y-54039106D01*
X73265733Y-54190601D01*
X73353114Y-54343281D01*
X73440326Y-54495652D01*
X73526514Y-54646220D01*
X73610822Y-54793492D01*
X73692395Y-54935975D01*
X73770380Y-55072174D01*
X73843920Y-55200597D01*
X73912160Y-55319748D01*
X73946672Y-55380000D01*
X73979461Y-55437247D01*
X74018005Y-55504553D01*
X74061438Y-55580406D01*
X74108894Y-55663292D01*
X74159506Y-55751698D01*
X74212409Y-55844111D01*
X74266735Y-55939017D01*
X74321620Y-56034904D01*
X74376195Y-56130258D01*
X74429596Y-56223565D01*
X74473338Y-56300000D01*
X74525981Y-56391990D01*
X74581188Y-56488457D01*
X74638016Y-56587749D01*
X74695519Y-56688217D01*
X74752754Y-56788212D01*
X74808775Y-56886084D01*
X74862640Y-56980183D01*
X74913404Y-57068861D01*
X74960122Y-57150466D01*
X75001850Y-57223349D01*
X75028562Y-57270000D01*
X75114549Y-57420166D01*
X75194347Y-57559522D01*
X75268392Y-57688831D01*
X75337121Y-57808853D01*
X75400970Y-57920351D01*
X75460374Y-58024087D01*
X75515770Y-58120821D01*
X75567595Y-58211315D01*
X75616284Y-58296332D01*
X75662273Y-58376632D01*
X75705999Y-58452977D01*
X75747898Y-58526129D01*
X75788406Y-58596849D01*
X75827959Y-58665900D01*
X75866994Y-58734042D01*
X75905946Y-58802037D01*
X75945252Y-58870648D01*
X75973527Y-58920000D01*
X76014202Y-58991134D01*
X76053163Y-59059532D01*
X76089864Y-59124220D01*
X76123759Y-59184226D01*
X76154303Y-59238576D01*
X76180951Y-59286297D01*
X76203158Y-59326414D01*
X76220378Y-59357955D01*
X76232065Y-59379946D01*
X76237675Y-59391413D01*
X76237804Y-59391738D01*
X76247561Y-59431730D01*
X76250253Y-59479502D01*
X76246408Y-59531871D01*
X76236553Y-59585656D01*
X76221214Y-59637676D01*
X76200920Y-59684748D01*
X76184717Y-59712076D01*
X76142513Y-59763027D01*
X76091914Y-59804064D01*
X76032233Y-59835683D01*
X75994920Y-59849356D01*
X75929840Y-59870000D01*
X72848253Y-59868417D01*
X72640202Y-59868304D01*
X72432965Y-59868177D01*
X72227075Y-59868037D01*
X72023069Y-59867886D01*
X71821479Y-59867724D01*
X71622842Y-59867552D01*
X71427692Y-59867370D01*
X71236564Y-59867179D01*
X71049992Y-59866980D01*
X70868512Y-59866774D01*
X70692658Y-59866561D01*
X70522964Y-59866342D01*
X70359966Y-59866118D01*
X70204199Y-59865889D01*
X70056196Y-59865656D01*
X69916494Y-59865421D01*
X69785626Y-59865183D01*
X69664128Y-59864944D01*
X69552533Y-59864703D01*
X69451378Y-59864463D01*
X69361196Y-59864223D01*
X69282523Y-59863984D01*
X69215893Y-59863747D01*
X69161841Y-59863513D01*
X69143333Y-59863417D01*
X68520000Y-59860000D01*
X68468225Y-59837467D01*
X68408233Y-59804433D01*
X68357224Y-59761778D01*
X68315791Y-59710245D01*
X68284525Y-59650578D01*
X68264020Y-59583517D01*
X68263482Y-59580933D01*
X68255724Y-59539739D01*
X68251005Y-59503697D01*
X68249821Y-59470855D01*
X68251235Y-59455151D01*
X68295695Y-59455151D01*
X68296484Y-59483048D01*
X68298481Y-59516215D01*
X68301051Y-59551281D01*
X68303857Y-59576902D01*
X68307871Y-59596947D01*
X68314062Y-59615285D01*
X68323404Y-59635785D01*
X68333535Y-59655827D01*
X68360068Y-59700404D01*
X68390470Y-59736212D01*
X68427837Y-59766226D01*
X68475264Y-59793419D01*
X68478307Y-59794932D01*
X68519878Y-59812349D01*
X68559651Y-59821754D01*
X68573333Y-59823430D01*
X68584364Y-59823862D01*
X68608236Y-59824277D01*
X68644478Y-59824675D01*
X68692619Y-59825055D01*
X68752188Y-59825419D01*
X68822715Y-59825766D01*
X68903728Y-59826096D01*
X68994758Y-59826410D01*
X69095333Y-59826706D01*
X69204983Y-59826986D01*
X69323237Y-59827250D01*
X69449625Y-59827497D01*
X69583675Y-59827727D01*
X69724917Y-59827941D01*
X69872881Y-59828138D01*
X70027095Y-59828320D01*
X70187089Y-59828485D01*
X70352392Y-59828633D01*
X70522534Y-59828766D01*
X70697043Y-59828883D01*
X70875449Y-59828983D01*
X71057282Y-59829068D01*
X71242070Y-59829136D01*
X71429344Y-59829189D01*
X71618631Y-59829226D01*
X71809462Y-59829247D01*
X72001366Y-59829252D01*
X72193872Y-59829242D01*
X72386510Y-59829216D01*
X72578808Y-59829175D01*
X72770296Y-59829118D01*
X72960504Y-59829046D01*
X73148960Y-59828958D01*
X73335194Y-59828855D01*
X73518735Y-59828737D01*
X73699113Y-59828603D01*
X73875857Y-59828455D01*
X74048495Y-59828291D01*
X74216558Y-59828112D01*
X74379575Y-59827919D01*
X74537075Y-59827710D01*
X74688587Y-59827486D01*
X74833641Y-59827248D01*
X74971765Y-59826995D01*
X75102490Y-59826727D01*
X75225344Y-59826445D01*
X75339857Y-59826148D01*
X75445558Y-59825836D01*
X75541976Y-59825510D01*
X75628641Y-59825170D01*
X75705082Y-59824815D01*
X75770829Y-59824446D01*
X75825409Y-59824062D01*
X75868354Y-59823664D01*
X75899192Y-59823253D01*
X75917452Y-59822827D01*
X75922197Y-59822562D01*
X75955807Y-59818009D01*
X75981652Y-59812278D01*
X76005289Y-59803647D01*
X76032274Y-59790392D01*
X76041014Y-59785711D01*
X76094696Y-59749931D01*
X76137926Y-59706098D01*
X76171423Y-59653438D01*
X76179162Y-59636991D01*
X76187502Y-59616587D01*
X76193259Y-59597797D01*
X76197066Y-59577010D01*
X76199557Y-59550616D01*
X76201364Y-59515003D01*
X76201598Y-59509084D01*
X76202565Y-59462291D01*
X76201310Y-59427528D01*
X76197780Y-59403671D01*
X76196473Y-59399084D01*
X76194332Y-59392620D01*
X76192005Y-59386269D01*
X76188937Y-59379033D01*
X76184572Y-59369910D01*
X76178354Y-59357901D01*
X76169727Y-59342006D01*
X76158136Y-59321225D01*
X76143025Y-59294557D01*
X76123837Y-59261004D01*
X76100018Y-59219563D01*
X76071011Y-59169237D01*
X76036260Y-59109024D01*
X76009881Y-59063333D01*
X75977425Y-59007112D01*
X75943825Y-58948894D01*
X75910434Y-58891028D01*
X75878607Y-58835861D01*
X75849699Y-58785740D01*
X75825063Y-58743014D01*
X75809879Y-58716667D01*
X75785820Y-58674914D01*
X75757087Y-58625061D01*
X75725667Y-58570553D01*
X75693547Y-58514839D01*
X75662716Y-58461366D01*
X75646550Y-58433333D01*
X75590411Y-58335979D01*
X75537887Y-58244877D01*
X75488460Y-58159124D01*
X75441611Y-58077817D01*
X75396822Y-58000052D01*
X75353575Y-57924925D01*
X75311350Y-57851534D01*
X75269629Y-57778973D01*
X75227894Y-57706340D01*
X75185626Y-57632732D01*
X75142307Y-57557244D01*
X75097417Y-57478973D01*
X75050439Y-57397016D01*
X75000854Y-57310468D01*
X74948143Y-57218427D01*
X74891787Y-57119989D01*
X74831269Y-57014251D01*
X74766069Y-56900308D01*
X74695670Y-56777257D01*
X74619552Y-56644195D01*
X74559951Y-56540000D01*
X74497418Y-56430676D01*
X74433948Y-56319721D01*
X74370132Y-56208164D01*
X74306557Y-56097033D01*
X74243814Y-55987358D01*
X74182489Y-55880169D01*
X74123174Y-55776494D01*
X74066455Y-55677362D01*
X74012923Y-55583804D01*
X73963166Y-55496847D01*
X73917772Y-55417522D01*
X73877332Y-55346858D01*
X73842433Y-55285883D01*
X73818076Y-55243333D01*
X73785047Y-55185635D01*
X73746117Y-55117626D01*
X73702009Y-55040565D01*
X73653444Y-54955715D01*
X73601144Y-54864335D01*
X73545831Y-54767688D01*
X73488226Y-54667034D01*
X73429051Y-54563634D01*
X73369027Y-54458749D01*
X73308877Y-54353640D01*
X73249321Y-54249568D01*
X73191082Y-54147794D01*
X73171363Y-54113333D01*
X73117700Y-54019559D01*
X73065063Y-53927589D01*
X73013922Y-53838243D01*
X72964746Y-53752339D01*
X72918002Y-53670696D01*
X72874161Y-53594131D01*
X72833690Y-53523464D01*
X72797058Y-53459514D01*
X72764734Y-53403098D01*
X72737188Y-53355035D01*
X72714887Y-53316144D01*
X72698301Y-53287244D01*
X72688386Y-53270000D01*
X72662798Y-53227586D01*
X72631957Y-53179562D01*
X72599016Y-53130667D01*
X72567129Y-53085638D01*
X72553031Y-53066667D01*
X72477208Y-52966667D01*
X72401937Y-52928459D01*
X72370101Y-52912512D01*
X72346316Y-52901609D01*
X72326814Y-52894625D01*
X72307824Y-52890438D01*
X72285576Y-52887926D01*
X72260000Y-52886191D01*
X72226958Y-52884622D01*
X72202219Y-52884998D01*
X72180830Y-52887843D01*
X72157836Y-52893680D01*
X72141570Y-52898721D01*
X72091178Y-52920974D01*
X72042160Y-52954063D01*
X71997616Y-52995602D01*
X71967888Y-53032448D01*
X71949278Y-53058712D01*
X71927306Y-53089385D01*
X71906510Y-53118134D01*
X71905151Y-53120000D01*
X71900367Y-53126580D01*
X71895714Y-53133086D01*
X71890883Y-53140055D01*
X71885561Y-53148023D01*
X71879438Y-53157526D01*
X71872201Y-53169102D01*
X71863541Y-53183287D01*
X71853145Y-53200618D01*
X71840702Y-53221632D01*
X71825902Y-53246864D01*
X71808432Y-53276852D01*
X71787982Y-53312132D01*
X71764239Y-53353242D01*
X71736894Y-53400717D01*
X71705635Y-53455094D01*
X71670149Y-53516911D01*
X71630127Y-53586703D01*
X71585257Y-53665007D01*
X71535227Y-53752360D01*
X71479727Y-53849299D01*
X71418444Y-53956361D01*
X71351068Y-54074081D01*
X71299988Y-54163333D01*
X71211000Y-54318821D01*
X71128170Y-54463550D01*
X71051033Y-54598334D01*
X70979123Y-54723984D01*
X70911975Y-54841315D01*
X70849123Y-54951140D01*
X70790103Y-55054272D01*
X70734449Y-55151524D01*
X70681697Y-55243708D01*
X70631379Y-55331639D01*
X70583033Y-55416130D01*
X70536191Y-55497993D01*
X70490389Y-55578041D01*
X70445161Y-55657089D01*
X70400043Y-55735948D01*
X70354569Y-55815433D01*
X70308274Y-55896356D01*
X70260692Y-55979530D01*
X70211358Y-56065769D01*
X70159807Y-56155885D01*
X70105573Y-56250692D01*
X70048193Y-56351004D01*
X69987199Y-56457632D01*
X69926736Y-56563333D01*
X69847384Y-56702052D01*
X69774210Y-56829961D01*
X69706777Y-56947822D01*
X69644645Y-57056402D01*
X69587377Y-57156465D01*
X69534534Y-57248775D01*
X69485678Y-57334096D01*
X69440370Y-57413194D01*
X69398172Y-57486833D01*
X69358646Y-57555777D01*
X69321353Y-57620792D01*
X69285856Y-57682641D01*
X69251714Y-57742089D01*
X69218491Y-57799901D01*
X69185748Y-57856842D01*
X69153047Y-57913675D01*
X69119948Y-57971166D01*
X69086015Y-58030078D01*
X69050808Y-58091178D01*
X69041881Y-58106667D01*
X69006776Y-58167578D01*
X68967550Y-58235650D01*
X68926248Y-58307332D01*
X68884916Y-58379071D01*
X68845600Y-58447318D01*
X68810347Y-58508520D01*
X68801815Y-58523333D01*
X68774581Y-58570612D01*
X68741917Y-58627306D01*
X68705053Y-58691283D01*
X68665218Y-58760406D01*
X68623643Y-58832542D01*
X68581558Y-58905556D01*
X68540193Y-58977313D01*
X68500779Y-59045680D01*
X68500210Y-59046667D01*
X68465291Y-59107481D01*
X68432120Y-59165731D01*
X68401354Y-59220232D01*
X68373649Y-59269798D01*
X68349662Y-59313244D01*
X68330049Y-59349385D01*
X68315466Y-59377035D01*
X68306570Y-59395008D01*
X68304322Y-59400388D01*
X68299448Y-59417129D01*
X68296628Y-59434280D01*
X68295695Y-59455151D01*
X68251235Y-59455151D01*
X68252665Y-59439260D01*
X68260037Y-59406957D01*
G37*
G36*
X72553582Y-54644579D02*
G01*
X72585576Y-54645510D01*
X72609682Y-54647173D01*
X72626990Y-54649644D01*
X72638586Y-54653003D01*
X72645560Y-54657327D01*
X72648999Y-54662694D01*
X72649993Y-54669183D01*
X72650000Y-54669913D01*
X72647954Y-54688461D01*
X72642150Y-54717761D01*
X72633089Y-54755931D01*
X72621272Y-54801086D01*
X72607199Y-54851344D01*
X72591372Y-54904823D01*
X72574291Y-54959639D01*
X72566652Y-54983256D01*
X72556425Y-55014574D01*
X72542553Y-55057167D01*
X72525492Y-55109625D01*
X72505702Y-55170535D01*
X72483639Y-55238487D01*
X72459763Y-55312071D01*
X72434530Y-55389874D01*
X72408400Y-55470487D01*
X72381829Y-55552497D01*
X72359969Y-55620000D01*
X72332444Y-55705013D01*
X72304284Y-55791980D01*
X72276039Y-55879203D01*
X72248258Y-55964983D01*
X72221493Y-56047622D01*
X72196293Y-56125422D01*
X72173209Y-56196685D01*
X72152789Y-56259713D01*
X72135585Y-56312806D01*
X72126772Y-56340000D01*
X72105250Y-56406490D01*
X72087578Y-56461409D01*
X72073457Y-56505858D01*
X72062587Y-56540939D01*
X72054670Y-56567752D01*
X72049407Y-56587398D01*
X72046499Y-56600977D01*
X72045646Y-56609591D01*
X72046549Y-56614341D01*
X72048910Y-56616327D01*
X72051616Y-56616667D01*
X72060339Y-56613268D01*
X72078015Y-56603922D01*
X72102388Y-56589901D01*
X72131202Y-56572478D01*
X72143812Y-56564625D01*
X72174374Y-56545470D01*
X72213264Y-56521158D01*
X72257483Y-56493559D01*
X72304031Y-56464547D01*
X72349906Y-56435993D01*
X72366666Y-56425573D01*
X72405332Y-56401533D01*
X72452953Y-56371907D01*
X72507173Y-56338165D01*
X72565631Y-56301775D01*
X72625968Y-56264206D01*
X72685828Y-56226924D01*
X72738224Y-56194281D01*
X72788582Y-56163054D01*
X72835655Y-56134150D01*
X72878196Y-56108315D01*
X72914955Y-56086295D01*
X72944684Y-56068835D01*
X72966133Y-56056681D01*
X72978054Y-56050579D01*
X72979891Y-56050000D01*
X72988808Y-56054433D01*
X72989984Y-56058333D01*
X72988600Y-56066586D01*
X72984673Y-56086323D01*
X72978526Y-56116004D01*
X72970483Y-56154091D01*
X72960871Y-56199048D01*
X72950012Y-56249334D01*
X72939707Y-56296667D01*
X72931656Y-56333152D01*
X72922764Y-56372737D01*
X72912887Y-56416011D01*
X72901883Y-56463564D01*
X72889610Y-56515987D01*
X72875925Y-56573869D01*
X72860684Y-56637801D01*
X72843747Y-56708372D01*
X72824969Y-56786172D01*
X72804208Y-56871793D01*
X72781321Y-56965823D01*
X72756167Y-57068853D01*
X72728602Y-57181472D01*
X72698483Y-57304272D01*
X72665668Y-57437842D01*
X72630014Y-57582772D01*
X72591379Y-57739652D01*
X72563538Y-57852617D01*
X72544046Y-57931713D01*
X72527540Y-57998859D01*
X72513818Y-58055052D01*
X72502677Y-58101286D01*
X72493916Y-58138560D01*
X72487332Y-58167868D01*
X72482721Y-58190207D01*
X72479883Y-58206574D01*
X72478614Y-58217964D01*
X72478712Y-58225374D01*
X72479975Y-58229800D01*
X72482200Y-58232239D01*
X72485184Y-58233686D01*
X72486038Y-58234015D01*
X72495308Y-58233578D01*
X72515595Y-58230128D01*
X72545028Y-58224067D01*
X72581734Y-58215796D01*
X72623843Y-58205718D01*
X72660418Y-58196560D01*
X72705048Y-58185352D01*
X72745335Y-58175588D01*
X72779506Y-58167668D01*
X72805793Y-58161992D01*
X72822424Y-58158960D01*
X72827630Y-58158741D01*
X72828809Y-58160799D01*
X72828836Y-58164096D01*
X72827325Y-58169193D01*
X72823890Y-58176654D01*
X72818145Y-58187041D01*
X72809704Y-58200917D01*
X72798181Y-58218846D01*
X72783191Y-58241389D01*
X72764346Y-58269109D01*
X72741262Y-58302570D01*
X72713553Y-58342334D01*
X72680832Y-58388964D01*
X72642713Y-58443023D01*
X72598812Y-58505073D01*
X72548741Y-58575678D01*
X72492115Y-58655400D01*
X72428548Y-58744801D01*
X72357654Y-58844445D01*
X72351329Y-58853333D01*
X72301217Y-58923126D01*
X72257992Y-58981960D01*
X72221407Y-59030141D01*
X72191215Y-59067975D01*
X72167168Y-59095767D01*
X72149019Y-59113823D01*
X72136522Y-59122447D01*
X72132728Y-59123333D01*
X72127965Y-59117456D01*
X72119071Y-59101033D01*
X72106913Y-59075882D01*
X72092360Y-59043817D01*
X72076279Y-59006655D01*
X72071378Y-58995000D01*
X72051826Y-58947125D01*
X72031119Y-58894561D01*
X72010957Y-58841751D01*
X71993041Y-58793139D01*
X71981382Y-58760000D01*
X71971451Y-58730944D01*
X71957827Y-58691184D01*
X71941163Y-58642623D01*
X71922114Y-58587163D01*
X71901331Y-58526704D01*
X71879469Y-58463149D01*
X71857181Y-58398400D01*
X71843242Y-58357929D01*
X71821785Y-58295172D01*
X71802331Y-58237347D01*
X71785241Y-58185581D01*
X71770873Y-58141003D01*
X71759586Y-58104740D01*
X71751742Y-58077921D01*
X71747697Y-58061674D01*
X71747404Y-58057074D01*
X71755249Y-58057358D01*
X71773848Y-58061230D01*
X71801262Y-58068185D01*
X71835553Y-58077724D01*
X71874783Y-58089342D01*
X71890000Y-58094018D01*
X71943135Y-58110230D01*
X71984859Y-58122272D01*
X72016347Y-58130378D01*
X72038773Y-58134780D01*
X72053312Y-58135710D01*
X72061139Y-58133400D01*
X72063428Y-58128333D01*
X72063581Y-58119701D01*
X72063967Y-58099544D01*
X72064550Y-58069669D01*
X72065294Y-58031882D01*
X72066164Y-57987988D01*
X72067125Y-57939795D01*
X72067187Y-57936667D01*
X72069711Y-57808826D01*
X72071912Y-57693744D01*
X72073795Y-57590849D01*
X72075366Y-57499570D01*
X72076627Y-57419335D01*
X72077586Y-57349575D01*
X72078246Y-57289717D01*
X72078612Y-57239191D01*
X72078689Y-57197425D01*
X72078483Y-57163848D01*
X72077997Y-57137890D01*
X72077237Y-57118978D01*
X72076207Y-57106543D01*
X72074912Y-57100013D01*
X72074287Y-57098890D01*
X72066142Y-57099424D01*
X72047521Y-57105710D01*
X72019668Y-57117136D01*
X71983823Y-57133093D01*
X71941229Y-57152968D01*
X71893128Y-57176152D01*
X71840764Y-57202034D01*
X71785377Y-57230004D01*
X71728211Y-57259451D01*
X71670508Y-57289765D01*
X71613509Y-57320334D01*
X71558457Y-57350549D01*
X71531209Y-57365807D01*
X71480370Y-57394298D01*
X71439781Y-57416485D01*
X71408215Y-57432853D01*
X71384448Y-57443887D01*
X71367253Y-57450072D01*
X71355404Y-57451893D01*
X71347677Y-57449835D01*
X71342844Y-57444382D01*
X71341284Y-57440943D01*
X71341792Y-57432300D01*
X71344963Y-57412554D01*
X71350430Y-57383584D01*
X71357827Y-57347273D01*
X71366786Y-57305502D01*
X71374052Y-57272863D01*
X71386091Y-57219592D01*
X71399019Y-57162385D01*
X71411941Y-57105214D01*
X71423958Y-57052049D01*
X71434172Y-57006860D01*
X71436477Y-56996667D01*
X71446472Y-56952449D01*
X71458410Y-56899632D01*
X71471295Y-56842623D01*
X71484129Y-56785828D01*
X71495919Y-56733653D01*
X71495991Y-56733333D01*
X71531102Y-56577955D01*
X71563438Y-56434899D01*
X71593159Y-56303482D01*
X71620425Y-56183020D01*
X71645395Y-56072829D01*
X71668229Y-55972226D01*
X71689085Y-55880525D01*
X71708125Y-55797044D01*
X71725507Y-55721098D01*
X71741391Y-55652005D01*
X71755937Y-55589079D01*
X71769304Y-55531636D01*
X71781651Y-55478994D01*
X71793139Y-55430469D01*
X71803926Y-55385375D01*
X71814173Y-55343030D01*
X71824038Y-55302750D01*
X71833683Y-55263851D01*
X71843265Y-55225648D01*
X71852945Y-55187458D01*
X71862882Y-55148598D01*
X71873236Y-55108383D01*
X71884166Y-55066129D01*
X71892494Y-55034013D01*
X71912973Y-54955236D01*
X71930493Y-54888374D01*
X71945409Y-54832430D01*
X71958074Y-54786403D01*
X71968842Y-54749295D01*
X71978066Y-54720106D01*
X71986100Y-54697837D01*
X71993297Y-54681488D01*
X72000011Y-54670061D01*
X72006595Y-54662556D01*
X72013402Y-54657974D01*
X72020787Y-54655315D01*
X72026930Y-54653980D01*
X72036208Y-54653346D01*
X72057367Y-54652541D01*
X72088959Y-54651601D01*
X72129534Y-54650562D01*
X72177642Y-54649460D01*
X72231834Y-54648331D01*
X72290660Y-54647211D01*
X72324965Y-54646603D01*
X72399392Y-54645391D01*
X72461578Y-54644597D01*
X72512612Y-54644301D01*
X72553582Y-54644579D01*
G37*
%TO.C,D1*%
X128620000Y-60830000D02*
X128620000Y-64730000D01*
X130620000Y-60830000D02*
X128620000Y-60830000D01*
X130620000Y-60830000D02*
X130620000Y-64730000D01*
D14*
%TO.C,K1*%
X131942500Y-65540000D02*
X131942500Y-50040000D01*
X131942500Y-50040000D02*
X151042500Y-50040000D01*
X151042500Y-65540000D02*
X131942500Y-65540000D01*
X151042500Y-50040000D02*
X151042500Y-65540000D01*
D10*
X131392500Y-51671000D02*
G75*
G03*
X131392500Y-51671000I-100000J0D01*
G01*
D13*
%TO.C,R7*%
X142422936Y-80040000D02*
X143877064Y-80040000D01*
X142422936Y-81860000D02*
X143877064Y-81860000D01*
%TO.C,F1*%
X74650000Y-61200000D02*
X74650000Y-85200000D01*
X68550000Y-61200000D02*
X74650000Y-61200000D01*
X74650000Y-85200000D02*
X68550000Y-85200000D01*
X68550000Y-85200000D02*
X68550000Y-61200000D01*
%TO.C,J3*%
X160060000Y-85330000D02*
X160060000Y-75170000D01*
X160060000Y-75170000D02*
X152440000Y-75170000D01*
X152440000Y-85330000D02*
X160060000Y-85330000D01*
X153710000Y-85330000D02*
X153710000Y-75170000D01*
X152440000Y-75170000D02*
X152440000Y-85330000D01*
%TO.C,J1*%
X75960000Y-41620000D02*
X68340000Y-41620000D01*
X68340000Y-51780000D02*
X75960000Y-51780000D01*
X68340000Y-41620000D02*
X68340000Y-51780000D01*
X69610000Y-51780000D02*
X69610000Y-41620000D01*
X75960000Y-51780000D02*
X75960000Y-41620000D01*
%TO.C,C3*%
X92185000Y-57388748D02*
X92185000Y-57911252D01*
X93655000Y-57388748D02*
X93655000Y-57911252D01*
%TO.C,R2*%
X84612936Y-56560000D02*
X86067064Y-56560000D01*
X84612936Y-54740000D02*
X86067064Y-54740000D01*
%TO.C,R3*%
X97835000Y-53416564D02*
X97835000Y-52962436D01*
X99305000Y-53416564D02*
X99305000Y-52962436D01*
%TO.C,U1*%
X95510000Y-51680000D02*
X95510000Y-51830000D01*
X95510000Y-55680000D02*
X90710000Y-55680000D01*
X90710000Y-55680000D02*
X90710000Y-55530000D01*
X90710000Y-51830000D02*
X90710000Y-51680000D01*
X95510000Y-55530000D02*
X95510000Y-55680000D01*
X90710000Y-51830000D02*
X89010000Y-51830000D01*
X90710000Y-51680000D02*
X95510000Y-51680000D01*
D15*
%TO.C,U4*%
X100350000Y-65480000D02*
X98800000Y-65480000D01*
X90250000Y-74030000D02*
X90250000Y-75580000D01*
X90250000Y-65480000D02*
X91800000Y-65480000D01*
X92700000Y-76130000D02*
X92700000Y-76130000D01*
X100350000Y-74030000D02*
X100350000Y-75580000D01*
X92900000Y-76130000D02*
X92900000Y-76130000D01*
X100350000Y-75580000D02*
X98800000Y-75580000D01*
X90250000Y-75580000D02*
X91800000Y-75580000D01*
X100350000Y-67030000D02*
X100350000Y-65480000D01*
X90250000Y-67030000D02*
X90250000Y-65480000D01*
X92700000Y-76130000D02*
G75*
G03*
X92900000Y-76130000I100000J0D01*
G01*
X92900000Y-76130000D02*
G75*
G03*
X92700000Y-76130000I-100000J0D01*
G01*
D13*
%TO.C,C2*%
X87595000Y-72458748D02*
X87595000Y-72981252D01*
X89065000Y-72458748D02*
X89065000Y-72981252D01*
%TO.C,Q1*%
X131190000Y-67540000D02*
X131190000Y-66890000D01*
X128070000Y-67540000D02*
X128070000Y-66890000D01*
X131190000Y-67540000D02*
X131190000Y-68190000D01*
X128070000Y-67540000D02*
X128070000Y-69215000D01*
%TO.C,R5*%
X125235000Y-79722936D02*
X125235000Y-80177064D01*
X123765000Y-79722936D02*
X123765000Y-80177064D01*
D16*
%TO.C,U5*%
X96645000Y-60495000D02*
G75*
G03*
X96645000Y-60495000I-125000J0D01*
G01*
D13*
%TO.C,U3*%
X133380000Y-84860000D02*
X133380000Y-79660000D01*
X128480000Y-84860000D02*
X133380000Y-84860000D01*
X129930000Y-79660000D02*
X128480000Y-79660000D01*
X128480000Y-79660000D02*
X128480000Y-84860000D01*
X133380000Y-79660000D02*
X131930000Y-79660000D01*
X129930000Y-79660000D02*
G75*
G03*
X131930000Y-79660000I1000000J0D01*
G01*
%TO.C,R8*%
X95645000Y-57857064D02*
X95645000Y-57402936D01*
X94175000Y-57857064D02*
X94175000Y-57402936D01*
%TO.C,R6*%
X137812936Y-81860000D02*
X139267064Y-81860000D01*
X137812936Y-80040000D02*
X139267064Y-80040000D01*
%TO.C,C1*%
X142488748Y-78350000D02*
X143911252Y-78350000D01*
X142488748Y-76530000D02*
X143911252Y-76530000D01*
%TO.C,U2*%
X103110000Y-85163000D02*
X120890000Y-85163000D01*
X103110000Y-41163000D02*
X120890000Y-41163000D01*
X103110000Y-41163000D02*
X103110000Y-85163000D01*
X120890000Y-41163000D02*
X120890000Y-85163000D01*
D17*
X108825000Y-40303000D02*
X108825000Y-44748000D01*
X108825000Y-44748000D02*
X115175000Y-44748000D01*
X115175000Y-44748000D02*
X115175000Y-40303000D01*
X115175000Y-40303000D02*
X108825000Y-40303000D01*
G36*
X115175000Y-44748000D02*
G01*
X108825000Y-44748000D01*
X108825000Y-40303000D01*
X115175000Y-40303000D01*
X115175000Y-44748000D01*
G37*
X115175000Y-44748000D02*
X108825000Y-44748000D01*
X108825000Y-40303000D01*
X115175000Y-40303000D01*
X115175000Y-44748000D01*
D13*
%TO.C,R4*%
X129767064Y-71365000D02*
X129312936Y-71365000D01*
X129767064Y-69895000D02*
X129312936Y-69895000D01*
%TO.C,C5*%
X96155000Y-57911252D02*
X96155000Y-57388748D01*
X97625000Y-57911252D02*
X97625000Y-57388748D01*
%TD*%
M02*
