M48
; DRILL file {KiCad (6.0.0)} date Thu Mar 17 14:10:35 2022
; FORMAT={-:-/ absolute / inch / decimal}
; #@! TF.CreationDate,2022-03-17T14:10:35-06:00
; #@! TF.GenerationSoftware,Kicad,Pcbnew,(6.0.0)
; #@! TF.FileFunction,Plated,1,2,PTH
FMAT,2
INCH
; #@! TA.AperFunction,Plated,PTH,ViaDrill
T1C0.0157
; #@! TA.AperFunction,Plated,PTH,ComponentDrill
T2C0.0197
; #@! TA.AperFunction,Plated,PTH,ComponentDrill
T3C0.0433
; #@! TA.AperFunction,Plated,PTH,ComponentDrill
T4C0.0508
; #@! TA.AperFunction,Plated,PTH,ComponentDrill
T5C0.0512
; #@! TA.AperFunction,Plated,PTH,ComponentDrill
T6C0.0520
; #@! TA.AperFunction,Plated,PTH,ComponentDrill
T7C0.0591
; #@! TA.AperFunction,Plated,PTH,ComponentDrill
T8C0.0598
; #@! TA.AperFunction,Plated,PTH,ComponentDrill
T9C0.1260
%
G90
G05
T1
X3.4764Y-3.113
X3.4772Y-2.9764
X3.4772Y-3.0508
X3.6713Y-2.3949
X3.7409Y-2.5469
X3.7949Y-2.5449
X3.7988Y-2.3512
X3.9083Y-2.3055
X3.9094Y-2.2327
X3.913Y-2.598
X3.9898Y-2.5965
X4.252Y-2.0079
X4.3307Y-2.0079
X4.4094Y-2.0079
X4.4882Y-2.0079
X4.5669Y-2.0079
X4.6209Y-2.415
X4.8406Y-2.8425
X4.8425Y-2.9429
X5.2028Y-2.6929
X5.2028Y-2.7638
X5.2047Y-2.6122
T2
X3.0551Y-3.2283
X3.0828Y-3.1615
X3.0828Y-3.2952
X3.1496Y-3.1339
X3.1496Y-3.3228
X3.2164Y-3.1615
X3.2164Y-3.2952
X3.2441Y-3.2283
X3.3898Y-1.7717
X3.4174Y-1.7048
X3.4174Y-1.8385
X3.4843Y-1.6772
X3.4843Y-1.8661
X3.5511Y-1.7048
X3.5511Y-1.8385
X3.5787Y-1.7717
X5.5354Y-1.7717
X5.5354Y-2.7559
X5.5631Y-1.7048
X5.5631Y-1.8385
X5.5631Y-2.6891
X5.5631Y-2.8227
X5.6299Y-1.6772
X5.6299Y-1.8661
X5.6299Y-2.6614
X5.6299Y-2.8504
X5.6967Y-1.7048
X5.6967Y-1.8385
X5.6967Y-2.6891
X5.6967Y-2.8227
X5.7244Y-1.7717
X5.7244Y-2.7559
T3
X5.8142Y-3.085
X5.8142Y-3.185
X5.8142Y-3.285
T4
X5.2517Y-2.2752
T5
X2.8189Y-2.4783
X2.8189Y-2.6594
X2.8189Y-3.1043
X2.8189Y-3.2854
T6
X5.3304Y-2.039
X5.3304Y-2.5114
X5.8107Y-2.039
X5.8107Y-2.5114
T7
X3.1622Y-2.1004
X3.1622Y-2.9193
X4.9339Y-2.1004
X4.9339Y-2.4154
T8
X2.8406Y-1.7386
X2.8406Y-1.9386
X6.1516Y-3.0594
X6.1516Y-3.2594
X6.1559Y-2.0728
X6.1559Y-2.2728
T9
X3.1496Y-3.2283
X3.4843Y-1.7717
X5.6299Y-1.7717
X5.6299Y-2.7559
T0
M30
