%TF.GenerationSoftware,KiCad,Pcbnew,(6.0.0)*%
%TF.CreationDate,2022-03-17T14:09:45-06:00*%
%TF.ProjectId,sensor-board,73656e73-6f72-42d6-926f-6172642e6b69,rev?*%
%TF.SameCoordinates,Original*%
%TF.FileFunction,Legend,Top*%
%TF.FilePolarity,Positive*%
%FSLAX46Y46*%
G04 Gerber Fmt 4.6, Leading zero omitted, Abs format (unit mm)*
G04 Created by KiCad (PCBNEW (6.0.0)) date 2022-03-17 14:09:45*
%MOMM*%
%LPD*%
G01*
G04 APERTURE LIST*
%ADD10C,0.150000*%
%ADD11C,0.120000*%
%ADD12C,0.100000*%
G04 APERTURE END LIST*
D10*
X142009047Y-57641428D02*
X142770952Y-57641428D01*
X142390000Y-58022380D02*
X142390000Y-57260476D01*
X135500952Y-57858571D02*
X134739047Y-57858571D01*
X143257976Y-57139761D02*
X143400833Y-57187380D01*
X143638928Y-57187380D01*
X143734166Y-57139761D01*
X143781785Y-57092142D01*
X143829404Y-56996904D01*
X143829404Y-56901666D01*
X143781785Y-56806428D01*
X143734166Y-56758809D01*
X143638928Y-56711190D01*
X143448452Y-56663571D01*
X143353214Y-56615952D01*
X143305595Y-56568333D01*
X143257976Y-56473095D01*
X143257976Y-56377857D01*
X143305595Y-56282619D01*
X143353214Y-56235000D01*
X143448452Y-56187380D01*
X143686547Y-56187380D01*
X143829404Y-56235000D01*
X144638928Y-57139761D02*
X144543690Y-57187380D01*
X144353214Y-57187380D01*
X144257976Y-57139761D01*
X144210357Y-57044523D01*
X144210357Y-56663571D01*
X144257976Y-56568333D01*
X144353214Y-56520714D01*
X144543690Y-56520714D01*
X144638928Y-56568333D01*
X144686547Y-56663571D01*
X144686547Y-56758809D01*
X144210357Y-56854047D01*
X145115119Y-56520714D02*
X145115119Y-57187380D01*
X145115119Y-56615952D02*
X145162738Y-56568333D01*
X145257976Y-56520714D01*
X145400833Y-56520714D01*
X145496071Y-56568333D01*
X145543690Y-56663571D01*
X145543690Y-57187380D01*
X145972261Y-57139761D02*
X146067500Y-57187380D01*
X146257976Y-57187380D01*
X146353214Y-57139761D01*
X146400833Y-57044523D01*
X146400833Y-56996904D01*
X146353214Y-56901666D01*
X146257976Y-56854047D01*
X146115119Y-56854047D01*
X146019880Y-56806428D01*
X145972261Y-56711190D01*
X145972261Y-56663571D01*
X146019880Y-56568333D01*
X146115119Y-56520714D01*
X146257976Y-56520714D01*
X146353214Y-56568333D01*
X146972261Y-57187380D02*
X146877023Y-57139761D01*
X146829404Y-57092142D01*
X146781785Y-56996904D01*
X146781785Y-56711190D01*
X146829404Y-56615952D01*
X146877023Y-56568333D01*
X146972261Y-56520714D01*
X147115119Y-56520714D01*
X147210357Y-56568333D01*
X147257976Y-56615952D01*
X147305595Y-56711190D01*
X147305595Y-56996904D01*
X147257976Y-57092142D01*
X147210357Y-57139761D01*
X147115119Y-57187380D01*
X146972261Y-57187380D01*
X147734166Y-57187380D02*
X147734166Y-56520714D01*
X147734166Y-56711190D02*
X147781785Y-56615952D01*
X147829404Y-56568333D01*
X147924642Y-56520714D01*
X148019880Y-56520714D01*
X143638928Y-58273571D02*
X143781785Y-58321190D01*
X143829404Y-58368809D01*
X143877023Y-58464047D01*
X143877023Y-58606904D01*
X143829404Y-58702142D01*
X143781785Y-58749761D01*
X143686547Y-58797380D01*
X143305595Y-58797380D01*
X143305595Y-57797380D01*
X143638928Y-57797380D01*
X143734166Y-57845000D01*
X143781785Y-57892619D01*
X143829404Y-57987857D01*
X143829404Y-58083095D01*
X143781785Y-58178333D01*
X143734166Y-58225952D01*
X143638928Y-58273571D01*
X143305595Y-58273571D01*
X144448452Y-58797380D02*
X144353214Y-58749761D01*
X144305595Y-58702142D01*
X144257976Y-58606904D01*
X144257976Y-58321190D01*
X144305595Y-58225952D01*
X144353214Y-58178333D01*
X144448452Y-58130714D01*
X144591309Y-58130714D01*
X144686547Y-58178333D01*
X144734166Y-58225952D01*
X144781785Y-58321190D01*
X144781785Y-58606904D01*
X144734166Y-58702142D01*
X144686547Y-58749761D01*
X144591309Y-58797380D01*
X144448452Y-58797380D01*
X145638928Y-58797380D02*
X145638928Y-58273571D01*
X145591309Y-58178333D01*
X145496071Y-58130714D01*
X145305595Y-58130714D01*
X145210357Y-58178333D01*
X145638928Y-58749761D02*
X145543690Y-58797380D01*
X145305595Y-58797380D01*
X145210357Y-58749761D01*
X145162738Y-58654523D01*
X145162738Y-58559285D01*
X145210357Y-58464047D01*
X145305595Y-58416428D01*
X145543690Y-58416428D01*
X145638928Y-58368809D01*
X146115119Y-58797380D02*
X146115119Y-58130714D01*
X146115119Y-58321190D02*
X146162738Y-58225952D01*
X146210357Y-58178333D01*
X146305595Y-58130714D01*
X146400833Y-58130714D01*
X147162738Y-58797380D02*
X147162738Y-57797380D01*
X147162738Y-58749761D02*
X147067500Y-58797380D01*
X146877023Y-58797380D01*
X146781785Y-58749761D01*
X146734166Y-58702142D01*
X146686547Y-58606904D01*
X146686547Y-58321190D01*
X146734166Y-58225952D01*
X146781785Y-58178333D01*
X146877023Y-58130714D01*
X147067500Y-58130714D01*
X147162738Y-58178333D01*
D11*
X145587142Y-59038571D02*
X145777619Y-59571904D01*
X145968095Y-59038571D01*
X146691904Y-59571904D02*
X146234761Y-59571904D01*
X146463333Y-59571904D02*
X146463333Y-58771904D01*
X146387142Y-58886190D01*
X146310952Y-58962380D01*
X146234761Y-59000476D01*
X147034761Y-59495714D02*
X147072857Y-59533809D01*
X147034761Y-59571904D01*
X146996666Y-59533809D01*
X147034761Y-59495714D01*
X147034761Y-59571904D01*
X147568095Y-58771904D02*
X147644285Y-58771904D01*
X147720476Y-58810000D01*
X147758571Y-58848095D01*
X147796666Y-58924285D01*
X147834761Y-59076666D01*
X147834761Y-59267142D01*
X147796666Y-59419523D01*
X147758571Y-59495714D01*
X147720476Y-59533809D01*
X147644285Y-59571904D01*
X147568095Y-59571904D01*
X147491904Y-59533809D01*
X147453809Y-59495714D01*
X147415714Y-59419523D01*
X147377619Y-59267142D01*
X147377619Y-59076666D01*
X147415714Y-58924285D01*
X147453809Y-58848095D01*
X147491904Y-58810000D01*
X147568095Y-58771904D01*
D10*
%TO.C,R2*%
X130355833Y-59427380D02*
X130022500Y-58951190D01*
X129784404Y-59427380D02*
X129784404Y-58427380D01*
X130165357Y-58427380D01*
X130260595Y-58475000D01*
X130308214Y-58522619D01*
X130355833Y-58617857D01*
X130355833Y-58760714D01*
X130308214Y-58855952D01*
X130260595Y-58903571D01*
X130165357Y-58951190D01*
X129784404Y-58951190D01*
X130736785Y-58522619D02*
X130784404Y-58475000D01*
X130879642Y-58427380D01*
X131117738Y-58427380D01*
X131212976Y-58475000D01*
X131260595Y-58522619D01*
X131308214Y-58617857D01*
X131308214Y-58713095D01*
X131260595Y-58855952D01*
X130689166Y-59427380D01*
X131308214Y-59427380D01*
%TO.C,D1*%
X125676904Y-59422380D02*
X125676904Y-58422380D01*
X125915000Y-58422380D01*
X126057857Y-58470000D01*
X126153095Y-58565238D01*
X126200714Y-58660476D01*
X126248333Y-58850952D01*
X126248333Y-58993809D01*
X126200714Y-59184285D01*
X126153095Y-59279523D01*
X126057857Y-59374761D01*
X125915000Y-59422380D01*
X125676904Y-59422380D01*
X127200714Y-59422380D02*
X126629285Y-59422380D01*
X126915000Y-59422380D02*
X126915000Y-58422380D01*
X126819761Y-58565238D01*
X126724523Y-58660476D01*
X126629285Y-58708095D01*
%TO.C,J2*%
X159307380Y-58283333D02*
X160021666Y-58283333D01*
X160164523Y-58330952D01*
X160259761Y-58426190D01*
X160307380Y-58569047D01*
X160307380Y-58664285D01*
X159402619Y-57854761D02*
X159355000Y-57807142D01*
X159307380Y-57711904D01*
X159307380Y-57473809D01*
X159355000Y-57378571D01*
X159402619Y-57330952D01*
X159497857Y-57283333D01*
X159593095Y-57283333D01*
X159735952Y-57330952D01*
X160307380Y-57902380D01*
X160307380Y-57283333D01*
%TO.C,J1*%
X134586666Y-58482380D02*
X134586666Y-59196666D01*
X134539047Y-59339523D01*
X134443809Y-59434761D01*
X134300952Y-59482380D01*
X134205714Y-59482380D01*
X135586666Y-59482380D02*
X135015238Y-59482380D01*
X135300952Y-59482380D02*
X135300952Y-58482380D01*
X135205714Y-58625238D01*
X135110476Y-58720476D01*
X135015238Y-58768095D01*
D11*
%TO.C,R2*%
X130729564Y-56660000D02*
X130275436Y-56660000D01*
X130729564Y-58130000D02*
X130275436Y-58130000D01*
%TO.C,U2*%
X120000000Y-78390000D02*
X120000000Y-60610000D01*
X120000000Y-60610000D02*
X164000000Y-60610000D01*
X120000000Y-78390000D02*
X164000000Y-78390000D01*
X164000000Y-78390000D02*
X164000000Y-60610000D01*
D12*
X119140000Y-72675000D02*
X123585000Y-72675000D01*
X123585000Y-72675000D02*
X123585000Y-66325000D01*
X123585000Y-66325000D02*
X119140000Y-66325000D01*
X119140000Y-66325000D02*
X119140000Y-72675000D01*
G36*
X123585000Y-72675000D02*
G01*
X119140000Y-72675000D01*
X119140000Y-66325000D01*
X123585000Y-66325000D01*
X123585000Y-72675000D01*
G37*
X123585000Y-72675000D02*
X119140000Y-72675000D01*
X119140000Y-66325000D01*
X123585000Y-66325000D01*
X123585000Y-72675000D01*
D11*
%TO.C,D1*%
X128275000Y-56360000D02*
X125415000Y-56360000D01*
X128275000Y-58280000D02*
X128275000Y-56360000D01*
X125415000Y-58280000D02*
X128275000Y-58280000D01*
%TO.C,J2*%
X157525000Y-56620000D02*
X158855000Y-56620000D01*
X156255000Y-56620000D02*
X156255000Y-59280000D01*
X156255000Y-56620000D02*
X148575000Y-56620000D01*
X148575000Y-56620000D02*
X148575000Y-59280000D01*
X158855000Y-56620000D02*
X158855000Y-57950000D01*
X156255000Y-59280000D02*
X148575000Y-59280000D01*
%TO.C,J1*%
X138785000Y-56460000D02*
X141385000Y-56460000D01*
X137515000Y-59120000D02*
X136185000Y-59120000D01*
X138785000Y-59120000D02*
X138785000Y-56460000D01*
X138785000Y-59120000D02*
X141385000Y-59120000D01*
X136185000Y-59120000D02*
X136185000Y-57790000D01*
X141385000Y-59120000D02*
X141385000Y-56460000D01*
%TD*%
M02*
