%TF.GenerationSoftware,KiCad,Pcbnew,(6.0.0)*%
%TF.CreationDate,2022-03-17T14:10:59-06:00*%
%TF.ProjectId,sensor-co2,73656e73-6f72-42d6-936f-322e6b696361,rev?*%
%TF.SameCoordinates,Original*%
%TF.FileFunction,Legend,Top*%
%TF.FilePolarity,Positive*%
%FSLAX46Y46*%
G04 Gerber Fmt 4.6, Leading zero omitted, Abs format (unit mm)*
G04 Created by KiCad (PCBNEW (6.0.0)) date 2022-03-17 14:10:59*
%MOMM*%
%LPD*%
G01*
G04 APERTURE LIST*
%ADD10C,0.254000*%
%ADD11C,0.150000*%
%ADD12C,0.200000*%
%ADD13C,0.120000*%
G04 APERTURE END LIST*
D10*
%TO.C,U1*%
X136262380Y-85134523D02*
X136262380Y-86162619D01*
X136322857Y-86283571D01*
X136383333Y-86344047D01*
X136504285Y-86404523D01*
X136746190Y-86404523D01*
X136867142Y-86344047D01*
X136927619Y-86283571D01*
X136988095Y-86162619D01*
X136988095Y-85134523D01*
X138258095Y-86404523D02*
X137532380Y-86404523D01*
X137895238Y-86404523D02*
X137895238Y-85134523D01*
X137774285Y-85315952D01*
X137653333Y-85436904D01*
X137532380Y-85497380D01*
D11*
%TO.C,C3*%
X136103333Y-77817142D02*
X136055714Y-77864761D01*
X135912857Y-77912380D01*
X135817619Y-77912380D01*
X135674761Y-77864761D01*
X135579523Y-77769523D01*
X135531904Y-77674285D01*
X135484285Y-77483809D01*
X135484285Y-77340952D01*
X135531904Y-77150476D01*
X135579523Y-77055238D01*
X135674761Y-76960000D01*
X135817619Y-76912380D01*
X135912857Y-76912380D01*
X136055714Y-76960000D01*
X136103333Y-77007619D01*
X136436666Y-76912380D02*
X137055714Y-76912380D01*
X136722380Y-77293333D01*
X136865238Y-77293333D01*
X136960476Y-77340952D01*
X137008095Y-77388571D01*
X137055714Y-77483809D01*
X137055714Y-77721904D01*
X137008095Y-77817142D01*
X136960476Y-77864761D01*
X136865238Y-77912380D01*
X136579523Y-77912380D01*
X136484285Y-77864761D01*
X136436666Y-77817142D01*
%TO.C,C1*%
X135977333Y-94877142D02*
X135929714Y-94924761D01*
X135786857Y-94972380D01*
X135691619Y-94972380D01*
X135548761Y-94924761D01*
X135453523Y-94829523D01*
X135405904Y-94734285D01*
X135358285Y-94543809D01*
X135358285Y-94400952D01*
X135405904Y-94210476D01*
X135453523Y-94115238D01*
X135548761Y-94020000D01*
X135691619Y-93972380D01*
X135786857Y-93972380D01*
X135929714Y-94020000D01*
X135977333Y-94067619D01*
X136929714Y-94972380D02*
X136358285Y-94972380D01*
X136644000Y-94972380D02*
X136644000Y-93972380D01*
X136548761Y-94115238D01*
X136453523Y-94210476D01*
X136358285Y-94258095D01*
D12*
%TO.C,U1*%
X131630000Y-83230000D02*
X131630000Y-83230000D01*
X132180000Y-80780000D02*
X132180000Y-82330000D01*
X142280000Y-80780000D02*
X142280000Y-82330000D01*
X132180000Y-90880000D02*
X132180000Y-89330000D01*
X140730000Y-90880000D02*
X142280000Y-90880000D01*
X131630000Y-83430000D02*
X131630000Y-83430000D01*
X133730000Y-90880000D02*
X132180000Y-90880000D01*
X142280000Y-90880000D02*
X142280000Y-89330000D01*
X133730000Y-80780000D02*
X132180000Y-80780000D01*
X140730000Y-80780000D02*
X142280000Y-80780000D01*
X131630000Y-83430000D02*
G75*
G03*
X131630000Y-83230000I0J100000D01*
G01*
X131630000Y-83230000D02*
G75*
G03*
X131630000Y-83430000I0J-100000D01*
G01*
D13*
%TO.C,C3*%
X135511252Y-78315000D02*
X134988748Y-78315000D01*
X135511252Y-79785000D02*
X134988748Y-79785000D01*
%TO.C,C1*%
X136081252Y-92105000D02*
X135558748Y-92105000D01*
X136081252Y-93575000D02*
X135558748Y-93575000D01*
%TD*%
M02*
