%TF.GenerationSoftware,KiCad,Pcbnew,(6.0.0)*%
%TF.CreationDate,2022-03-17T14:10:59-06:00*%
%TF.ProjectId,sensor-co2,73656e73-6f72-42d6-936f-322e6b696361,rev?*%
%TF.SameCoordinates,Original*%
%TF.FileFunction,Copper,L2,Bot*%
%TF.FilePolarity,Positive*%
%FSLAX46Y46*%
G04 Gerber Fmt 4.6, Leading zero omitted, Abs format (unit mm)*
G04 Created by KiCad (PCBNEW (6.0.0)) date 2022-03-17 14:10:59*
%MOMM*%
%LPD*%
G01*
G04 APERTURE LIST*
%TA.AperFunction,ComponentPad*%
%ADD10R,1.700000X1.700000*%
%TD*%
%TA.AperFunction,ComponentPad*%
%ADD11O,1.700000X1.700000*%
%TD*%
%TA.AperFunction,ViaPad*%
%ADD12C,0.800000*%
%TD*%
%TA.AperFunction,Conductor*%
%ADD13C,0.500000*%
%TD*%
G04 APERTURE END LIST*
D10*
%TO.P,J2,1,Pin_1*%
%TO.N,+3V3*%
X145280000Y-82200000D03*
D11*
%TO.P,J2,2,Pin_2*%
%TO.N,/SDA*%
X145280000Y-84740000D03*
%TO.P,J2,3,Pin_3*%
%TO.N,/SCL*%
X145280000Y-87280000D03*
%TO.P,J2,4,Pin_4*%
%TO.N,GND*%
X145280000Y-89820000D03*
%TD*%
D12*
%TO.N,GND*%
X135790000Y-94300000D03*
X137960000Y-77520000D03*
X133520000Y-92460000D03*
%TO.N,+3V3*%
X137960000Y-92890000D03*
%TD*%
D13*
%TO.N,+3V3*%
X139280000Y-82200000D02*
X145280000Y-82200000D01*
X137960000Y-83520000D02*
X139280000Y-82200000D01*
X137960000Y-84550000D02*
X137960000Y-83520000D01*
X137960000Y-92890000D02*
X137960000Y-84550000D01*
%TD*%
%TA.AperFunction,Conductor*%
%TO.N,GND*%
G36*
X140655714Y-75772802D02*
G01*
X140945157Y-75785167D01*
X141278238Y-75799396D01*
X141286023Y-75799972D01*
X141487851Y-75821191D01*
X141905686Y-75865122D01*
X141913432Y-75866180D01*
X142527876Y-75969637D01*
X142535541Y-75971174D01*
X143142363Y-76112532D01*
X143149918Y-76114541D01*
X143746821Y-76293266D01*
X143754215Y-76295731D01*
X144338903Y-76511138D01*
X144346143Y-76514063D01*
X144629648Y-76638986D01*
X144916338Y-76765312D01*
X144923390Y-76768685D01*
X145476881Y-77054799D01*
X145483712Y-77058603D01*
X146018407Y-77378501D01*
X146024988Y-77382721D01*
X146538820Y-77735167D01*
X146545103Y-77739769D01*
X146850866Y-77978679D01*
X147036093Y-78123407D01*
X147042101Y-78128410D01*
X147508342Y-78541751D01*
X147514028Y-78547115D01*
X147953737Y-78988572D01*
X147959080Y-78994280D01*
X148291197Y-79371914D01*
X148370567Y-79462162D01*
X148375538Y-79468181D01*
X148609770Y-79770424D01*
X148757216Y-79960682D01*
X148761807Y-79967002D01*
X148981515Y-80290056D01*
X149112208Y-80482225D01*
X149116402Y-80488823D01*
X149360034Y-80899740D01*
X149377570Y-80968537D01*
X149355128Y-81035894D01*
X149299833Y-81080424D01*
X149251652Y-81090000D01*
X147060857Y-81090000D01*
X147049985Y-81089530D01*
X147041152Y-81088765D01*
X147012160Y-81086254D01*
X146998972Y-81089530D01*
X146973767Y-81095791D01*
X146964080Y-81097797D01*
X146957165Y-81098948D01*
X146935333Y-81102581D01*
X146935331Y-81102582D01*
X146925061Y-81104291D01*
X146915899Y-81109235D01*
X146912492Y-81110401D01*
X146909181Y-81111834D01*
X146899076Y-81114344D01*
X146865836Y-81135807D01*
X146857338Y-81140832D01*
X146831687Y-81154672D01*
X146831684Y-81154674D01*
X146822516Y-81159621D01*
X146815443Y-81167273D01*
X146812594Y-81169483D01*
X146809939Y-81171899D01*
X146801188Y-81177549D01*
X146794740Y-81185728D01*
X146776694Y-81208619D01*
X146770271Y-81216139D01*
X146743422Y-81245185D01*
X146739211Y-81254711D01*
X146737230Y-81257727D01*
X146735498Y-81260877D01*
X146729051Y-81269055D01*
X146725601Y-81278879D01*
X146725600Y-81278881D01*
X146718143Y-81300117D01*
X146676701Y-81357763D01*
X146610672Y-81383852D01*
X146541019Y-81370102D01*
X146489858Y-81320878D01*
X146474604Y-81276723D01*
X146471786Y-81257579D01*
X146471783Y-81257571D01*
X146470358Y-81247888D01*
X146439839Y-81185728D01*
X146423522Y-81152493D01*
X146423521Y-81152491D01*
X146418932Y-81143145D01*
X146361942Y-81086254D01*
X146343721Y-81068065D01*
X146343720Y-81068065D01*
X146336350Y-81060707D01*
X146231518Y-81009464D01*
X146201027Y-81005016D01*
X146167744Y-81000160D01*
X146167740Y-81000160D01*
X146163218Y-80999500D01*
X144396782Y-80999500D01*
X144392232Y-81000170D01*
X144392229Y-81000170D01*
X144337574Y-81008216D01*
X144337573Y-81008216D01*
X144327888Y-81009642D01*
X144290198Y-81028147D01*
X144232493Y-81056478D01*
X144232491Y-81056479D01*
X144223145Y-81061068D01*
X144140707Y-81143650D01*
X144136134Y-81153006D01*
X144136133Y-81153007D01*
X144127860Y-81169932D01*
X144089464Y-81248482D01*
X144079500Y-81316782D01*
X144079500Y-81473500D01*
X144059498Y-81541621D01*
X144005842Y-81588114D01*
X143953500Y-81599500D01*
X139327619Y-81599500D01*
X139311173Y-81598422D01*
X139288188Y-81595396D01*
X139280000Y-81594318D01*
X139240639Y-81599500D01*
X139123238Y-81614956D01*
X138977159Y-81675464D01*
X138851718Y-81771718D01*
X138846695Y-81778264D01*
X138832571Y-81796671D01*
X138821703Y-81809062D01*
X137569062Y-83061703D01*
X137556672Y-83072570D01*
X137531718Y-83091718D01*
X137526695Y-83098264D01*
X137492327Y-83143054D01*
X137485832Y-83151518D01*
X137435464Y-83217159D01*
X137374956Y-83363238D01*
X137354318Y-83520000D01*
X137356909Y-83539680D01*
X137358422Y-83551173D01*
X137359500Y-83567619D01*
X137359500Y-92399201D01*
X137339413Y-92467453D01*
X137283515Y-92554190D01*
X137281105Y-92560810D01*
X137281104Y-92560813D01*
X137268275Y-92596060D01*
X137225927Y-92712409D01*
X137204825Y-92879455D01*
X137205512Y-92886462D01*
X137205512Y-92886465D01*
X137208311Y-92915010D01*
X137221255Y-93047025D01*
X137274402Y-93206791D01*
X137278049Y-93212813D01*
X137278050Y-93212815D01*
X137354016Y-93338249D01*
X137361624Y-93350812D01*
X137366513Y-93355875D01*
X137366514Y-93355876D01*
X137419740Y-93410993D01*
X137478586Y-93471929D01*
X137484483Y-93475788D01*
X137613577Y-93560266D01*
X137613581Y-93560268D01*
X137619475Y-93564125D01*
X137777289Y-93622815D01*
X137784270Y-93623746D01*
X137784272Y-93623747D01*
X137829812Y-93629823D01*
X137944183Y-93645083D01*
X137951194Y-93644445D01*
X137951198Y-93644445D01*
X138104843Y-93630462D01*
X138111864Y-93629823D01*
X138118566Y-93627645D01*
X138118568Y-93627645D01*
X138265298Y-93579970D01*
X138265301Y-93579969D01*
X138271997Y-93577793D01*
X138416623Y-93491578D01*
X138421717Y-93486727D01*
X138421721Y-93486724D01*
X138533454Y-93380322D01*
X138533455Y-93380320D01*
X138538554Y-93375465D01*
X138554934Y-93350812D01*
X138627836Y-93241085D01*
X138631731Y-93235223D01*
X138691521Y-93077823D01*
X138714955Y-92911088D01*
X138715249Y-92890000D01*
X138713283Y-92872468D01*
X138697266Y-92729672D01*
X138697265Y-92729669D01*
X138696481Y-92722676D01*
X138641108Y-92563668D01*
X138579646Y-92465308D01*
X138560500Y-92398538D01*
X138560500Y-90087966D01*
X143948257Y-90087966D01*
X143978565Y-90222446D01*
X143981645Y-90232275D01*
X144061770Y-90429603D01*
X144066413Y-90438794D01*
X144177694Y-90620388D01*
X144183777Y-90628699D01*
X144323213Y-90789667D01*
X144330580Y-90796883D01*
X144494434Y-90932916D01*
X144502881Y-90938831D01*
X144686756Y-91046279D01*
X144696042Y-91050729D01*
X144895001Y-91126703D01*
X144904899Y-91129579D01*
X145008250Y-91150606D01*
X145022299Y-91149410D01*
X145026000Y-91139065D01*
X145026000Y-90092115D01*
X145021525Y-90076876D01*
X145020135Y-90075671D01*
X145012452Y-90074000D01*
X143963225Y-90074000D01*
X143949694Y-90077973D01*
X143948257Y-90087966D01*
X138560500Y-90087966D01*
X138560500Y-83820925D01*
X138580502Y-83752804D01*
X138597405Y-83731830D01*
X139491830Y-82837405D01*
X139554142Y-82803379D01*
X139580925Y-82800500D01*
X143953500Y-82800500D01*
X144021621Y-82820502D01*
X144068114Y-82874158D01*
X144079500Y-82926500D01*
X144079500Y-83083218D01*
X144089642Y-83152112D01*
X144141068Y-83256855D01*
X144223650Y-83339293D01*
X144328482Y-83390536D01*
X144358973Y-83394984D01*
X144392256Y-83399840D01*
X144392260Y-83399840D01*
X144396782Y-83400500D01*
X144736570Y-83400500D01*
X144804691Y-83420502D01*
X144851184Y-83474158D01*
X144861288Y-83544432D01*
X144831794Y-83609012D01*
X144780180Y-83644712D01*
X144771382Y-83647958D01*
X144760957Y-83651804D01*
X144755996Y-83654756D01*
X144755995Y-83654756D01*
X144591441Y-83752656D01*
X144571341Y-83764614D01*
X144405457Y-83910090D01*
X144268863Y-84083360D01*
X144166131Y-84278620D01*
X144100703Y-84489333D01*
X144074770Y-84708440D01*
X144089200Y-84928604D01*
X144090621Y-84934200D01*
X144090622Y-84934205D01*
X144118500Y-85043971D01*
X144143511Y-85142452D01*
X144145928Y-85147694D01*
X144145928Y-85147695D01*
X144184046Y-85230379D01*
X144235883Y-85342821D01*
X144363222Y-85523002D01*
X144521264Y-85676961D01*
X144526060Y-85680166D01*
X144526063Y-85680168D01*
X144610261Y-85736427D01*
X144704717Y-85799540D01*
X144710020Y-85801818D01*
X144710023Y-85801820D01*
X144902129Y-85884355D01*
X144907436Y-85886635D01*
X144913071Y-85887910D01*
X144913074Y-85887911D01*
X144914484Y-85888230D01*
X144915083Y-85888564D01*
X144918562Y-85889694D01*
X144918340Y-85890377D01*
X144976511Y-85922772D01*
X145010016Y-85985366D01*
X145004362Y-86056137D01*
X144961344Y-86112616D01*
X144930287Y-86129335D01*
X144766376Y-86189804D01*
X144766368Y-86189808D01*
X144760957Y-86191804D01*
X144755996Y-86194756D01*
X144755995Y-86194756D01*
X144647403Y-86259362D01*
X144571341Y-86304614D01*
X144405457Y-86450090D01*
X144268863Y-86623360D01*
X144166131Y-86818620D01*
X144100703Y-87029333D01*
X144074770Y-87248440D01*
X144089200Y-87468604D01*
X144090621Y-87474200D01*
X144090622Y-87474205D01*
X144118500Y-87583971D01*
X144143511Y-87682452D01*
X144145928Y-87687694D01*
X144145928Y-87687695D01*
X144184046Y-87770379D01*
X144235883Y-87882821D01*
X144363222Y-88063002D01*
X144521264Y-88216961D01*
X144526060Y-88220166D01*
X144526063Y-88220168D01*
X144610258Y-88276425D01*
X144704717Y-88339540D01*
X144710020Y-88341818D01*
X144710023Y-88341820D01*
X144722546Y-88347200D01*
X144777239Y-88392469D01*
X144798776Y-88460120D01*
X144780319Y-88528675D01*
X144730988Y-88574731D01*
X144558463Y-88664542D01*
X144549738Y-88670036D01*
X144379433Y-88797905D01*
X144371726Y-88804748D01*
X144224590Y-88958717D01*
X144218104Y-88966727D01*
X144098098Y-89142649D01*
X144093000Y-89151623D01*
X144003338Y-89344783D01*
X143999775Y-89354470D01*
X143944389Y-89554183D01*
X143945912Y-89562607D01*
X143958292Y-89566000D01*
X145408000Y-89566000D01*
X145476121Y-89586002D01*
X145522614Y-89639658D01*
X145534000Y-89692000D01*
X145534000Y-91138517D01*
X145538064Y-91152359D01*
X145551478Y-91154393D01*
X145558184Y-91153534D01*
X145568262Y-91151392D01*
X145772255Y-91090191D01*
X145781842Y-91086433D01*
X145973095Y-90992739D01*
X145981945Y-90987464D01*
X146155328Y-90863792D01*
X146163200Y-90857139D01*
X146314052Y-90706812D01*
X146320730Y-90698965D01*
X146445003Y-90526020D01*
X146450310Y-90517189D01*
X146462502Y-90492519D01*
X146510615Y-90440312D01*
X146579316Y-90422404D01*
X146646793Y-90444482D01*
X146691622Y-90499535D01*
X146699750Y-90527657D01*
X146704291Y-90554939D01*
X146709235Y-90564101D01*
X146710401Y-90567508D01*
X146711834Y-90570819D01*
X146714344Y-90580924D01*
X146735807Y-90614164D01*
X146740832Y-90622662D01*
X146754672Y-90648313D01*
X146754674Y-90648316D01*
X146759621Y-90657484D01*
X146767273Y-90664557D01*
X146769483Y-90667406D01*
X146771899Y-90670061D01*
X146777549Y-90678812D01*
X146785728Y-90685260D01*
X146808619Y-90703306D01*
X146816139Y-90709729D01*
X146845185Y-90736578D01*
X146854711Y-90740789D01*
X146857727Y-90742770D01*
X146860877Y-90744501D01*
X146869055Y-90750949D01*
X146878882Y-90754400D01*
X146906387Y-90764059D01*
X146915573Y-90767696D01*
X146951755Y-90783692D01*
X146962132Y-90784591D01*
X146966985Y-90785837D01*
X146968330Y-90786245D01*
X146971519Y-90786932D01*
X146978993Y-90789556D01*
X146984119Y-90790000D01*
X147019143Y-90790000D01*
X147030014Y-90790470D01*
X147067840Y-90793746D01*
X147077950Y-90791235D01*
X147088329Y-90790418D01*
X147088392Y-90791214D01*
X147098335Y-90790000D01*
X149251652Y-90790000D01*
X149319773Y-90810002D01*
X149366266Y-90863658D01*
X149376370Y-90933932D01*
X149360034Y-90980260D01*
X149116402Y-91391177D01*
X149112210Y-91397773D01*
X148977096Y-91596442D01*
X148761811Y-91912993D01*
X148757220Y-91919313D01*
X148385317Y-92399201D01*
X148375545Y-92411810D01*
X148370574Y-92417829D01*
X148117326Y-92705786D01*
X147959080Y-92885720D01*
X147953737Y-92891428D01*
X147514028Y-93332885D01*
X147508342Y-93338249D01*
X147042101Y-93751590D01*
X147036095Y-93756592D01*
X146545103Y-94140231D01*
X146538820Y-94144833D01*
X146337789Y-94282724D01*
X146024988Y-94497279D01*
X146018407Y-94501499D01*
X145483712Y-94821397D01*
X145476881Y-94825201D01*
X144923390Y-95111315D01*
X144916338Y-95114688D01*
X144432781Y-95327761D01*
X144346147Y-95365935D01*
X144338903Y-95368862D01*
X143754215Y-95584269D01*
X143746821Y-95586734D01*
X143149919Y-95765459D01*
X143142363Y-95767468D01*
X142535541Y-95908826D01*
X142527876Y-95910363D01*
X141913432Y-96013820D01*
X141905686Y-96014878D01*
X141487851Y-96058809D01*
X141286023Y-96080028D01*
X141278238Y-96080604D01*
X141000706Y-96092460D01*
X140655714Y-96107198D01*
X140647897Y-96107289D01*
X140057530Y-96095857D01*
X140024951Y-96095226D01*
X140017142Y-96094833D01*
X139396100Y-96044156D01*
X139388332Y-96043278D01*
X138771672Y-95954190D01*
X138763973Y-95952833D01*
X138153995Y-95825666D01*
X138146422Y-95823840D01*
X137545488Y-95659085D01*
X137538035Y-95656791D01*
X137211138Y-95544948D01*
X136948495Y-95455089D01*
X136941181Y-95452330D01*
X136429581Y-95241014D01*
X136365274Y-95214452D01*
X136358165Y-95211253D01*
X135798140Y-94938126D01*
X135791223Y-94934483D01*
X135329812Y-94672851D01*
X135249211Y-94627148D01*
X135242536Y-94623085D01*
X135212840Y-94603719D01*
X134720610Y-94282716D01*
X134714221Y-94278260D01*
X134259841Y-93940000D01*
X138935052Y-93940000D01*
X138954812Y-94191069D01*
X138955966Y-94195876D01*
X138955967Y-94195882D01*
X138993230Y-94351093D01*
X139013604Y-94435956D01*
X139015497Y-94440527D01*
X139015498Y-94440529D01*
X139091999Y-94625218D01*
X139109981Y-94668631D01*
X139241570Y-94883365D01*
X139405130Y-95074870D01*
X139596635Y-95238430D01*
X139600852Y-95241014D01*
X139804705Y-95365935D01*
X139811369Y-95370019D01*
X139815939Y-95371912D01*
X139815943Y-95371914D01*
X140013690Y-95453823D01*
X140044044Y-95466396D01*
X140128907Y-95486770D01*
X140284118Y-95524033D01*
X140284124Y-95524034D01*
X140288931Y-95525188D01*
X140540000Y-95544948D01*
X140791069Y-95525188D01*
X140795876Y-95524034D01*
X140795882Y-95524033D01*
X140951093Y-95486770D01*
X141035956Y-95466396D01*
X141066310Y-95453823D01*
X141264057Y-95371914D01*
X141264061Y-95371912D01*
X141268631Y-95370019D01*
X141275296Y-95365935D01*
X141479148Y-95241014D01*
X141483365Y-95238430D01*
X141674870Y-95074870D01*
X141838430Y-94883365D01*
X141970019Y-94668631D01*
X141988002Y-94625218D01*
X142064502Y-94440529D01*
X142064503Y-94440527D01*
X142066396Y-94435956D01*
X142086770Y-94351093D01*
X142124033Y-94195882D01*
X142124034Y-94195876D01*
X142125188Y-94191069D01*
X142144948Y-93940000D01*
X142125188Y-93688931D01*
X142114438Y-93644151D01*
X142078673Y-93495182D01*
X142066396Y-93444044D01*
X142037990Y-93375465D01*
X141971914Y-93215943D01*
X141971912Y-93215939D01*
X141970019Y-93211369D01*
X141838430Y-92996635D01*
X141674870Y-92805130D01*
X141483365Y-92641570D01*
X141268631Y-92509981D01*
X141264061Y-92508088D01*
X141264057Y-92508086D01*
X141040529Y-92415498D01*
X141040527Y-92415497D01*
X141035956Y-92413604D01*
X140951093Y-92393230D01*
X140795882Y-92355967D01*
X140795876Y-92355966D01*
X140791069Y-92354812D01*
X140540000Y-92335052D01*
X140288931Y-92354812D01*
X140284124Y-92355966D01*
X140284118Y-92355967D01*
X140128907Y-92393230D01*
X140044044Y-92413604D01*
X140039473Y-92415497D01*
X140039471Y-92415498D01*
X139815943Y-92508086D01*
X139815939Y-92508088D01*
X139811369Y-92509981D01*
X139596635Y-92641570D01*
X139405130Y-92805130D01*
X139241570Y-92996635D01*
X139109981Y-93211369D01*
X139108088Y-93215939D01*
X139108086Y-93215943D01*
X139042010Y-93375465D01*
X139013604Y-93444044D01*
X139001327Y-93495182D01*
X138965563Y-93644151D01*
X138954812Y-93688931D01*
X138935052Y-93940000D01*
X134259841Y-93940000D01*
X134214414Y-93906182D01*
X134208291Y-93901321D01*
X133732540Y-93498978D01*
X133726730Y-93493747D01*
X133436804Y-93215943D01*
X133276841Y-93062668D01*
X133271373Y-93057094D01*
X133262093Y-93047025D01*
X132849066Y-92598923D01*
X132843949Y-92593012D01*
X132450905Y-92109576D01*
X132446163Y-92103360D01*
X132083830Y-91596442D01*
X132079484Y-91589944D01*
X131959401Y-91397775D01*
X131749306Y-91061562D01*
X131745370Y-91054807D01*
X131679340Y-90932916D01*
X131448569Y-90506915D01*
X131445066Y-90499937D01*
X131444880Y-90499535D01*
X131182842Y-89934748D01*
X131179773Y-89927558D01*
X131151378Y-89854854D01*
X130953088Y-89347152D01*
X130950483Y-89339818D01*
X130760228Y-88746463D01*
X130758076Y-88738960D01*
X130745217Y-88688222D01*
X130604991Y-88134968D01*
X130603308Y-88127344D01*
X130557252Y-87882821D01*
X130487977Y-87515030D01*
X130486769Y-87507306D01*
X130409632Y-86889008D01*
X130408906Y-86881224D01*
X130370265Y-86259362D01*
X130370022Y-86251548D01*
X130370022Y-85628452D01*
X130370265Y-85620638D01*
X130408906Y-84998776D01*
X130409632Y-84990992D01*
X130486769Y-84372694D01*
X130487977Y-84364970D01*
X130557891Y-83993785D01*
X130603310Y-83752645D01*
X130604993Y-83745021D01*
X130758079Y-83141028D01*
X130760231Y-83133525D01*
X130950483Y-82540182D01*
X130953088Y-82532848D01*
X131179773Y-81952442D01*
X131182842Y-81945252D01*
X131268655Y-81760293D01*
X131445071Y-81380053D01*
X131448574Y-81373076D01*
X131452546Y-81365745D01*
X131745370Y-80825193D01*
X131749306Y-80818438D01*
X131818721Y-80707353D01*
X132079486Y-80290053D01*
X132083830Y-80283558D01*
X132446163Y-79776640D01*
X132450905Y-79770424D01*
X132843949Y-79286988D01*
X132849066Y-79281077D01*
X133039132Y-79074870D01*
X133271380Y-78822899D01*
X133276848Y-78817325D01*
X133432031Y-78668631D01*
X133726730Y-78386253D01*
X133732540Y-78381022D01*
X134208291Y-77978679D01*
X134214414Y-77973818D01*
X134259841Y-77940000D01*
X138935052Y-77940000D01*
X138954812Y-78191069D01*
X138955966Y-78195876D01*
X138955967Y-78195882D01*
X138993230Y-78351093D01*
X139013604Y-78435956D01*
X139015497Y-78440527D01*
X139015498Y-78440529D01*
X139085211Y-78608830D01*
X139109981Y-78668631D01*
X139241570Y-78883365D01*
X139405130Y-79074870D01*
X139596635Y-79238430D01*
X139811369Y-79370019D01*
X139815939Y-79371912D01*
X139815943Y-79371914D01*
X140033822Y-79462162D01*
X140044044Y-79466396D01*
X140128907Y-79486770D01*
X140284118Y-79524033D01*
X140284124Y-79524034D01*
X140288931Y-79525188D01*
X140540000Y-79544948D01*
X140791069Y-79525188D01*
X140795876Y-79524034D01*
X140795882Y-79524033D01*
X140951093Y-79486770D01*
X141035956Y-79466396D01*
X141046178Y-79462162D01*
X141264057Y-79371914D01*
X141264061Y-79371912D01*
X141268631Y-79370019D01*
X141483365Y-79238430D01*
X141674870Y-79074870D01*
X141838430Y-78883365D01*
X141970019Y-78668631D01*
X141994790Y-78608830D01*
X142064502Y-78440529D01*
X142064503Y-78440527D01*
X142066396Y-78435956D01*
X142086770Y-78351093D01*
X142124033Y-78195882D01*
X142124034Y-78195876D01*
X142125188Y-78191069D01*
X142144948Y-77940000D01*
X142125188Y-77688931D01*
X142104258Y-77601748D01*
X142067551Y-77448856D01*
X142066396Y-77444044D01*
X142039247Y-77378501D01*
X141971914Y-77215943D01*
X141971912Y-77215939D01*
X141970019Y-77211369D01*
X141838430Y-76996635D01*
X141674870Y-76805130D01*
X141483365Y-76641570D01*
X141289984Y-76523066D01*
X141272851Y-76512567D01*
X141268631Y-76509981D01*
X141264061Y-76508088D01*
X141264057Y-76508086D01*
X141040529Y-76415498D01*
X141040527Y-76415497D01*
X141035956Y-76413604D01*
X140951093Y-76393230D01*
X140795882Y-76355967D01*
X140795876Y-76355966D01*
X140791069Y-76354812D01*
X140540000Y-76335052D01*
X140288931Y-76354812D01*
X140284124Y-76355966D01*
X140284118Y-76355967D01*
X140128907Y-76393230D01*
X140044044Y-76413604D01*
X140039473Y-76415497D01*
X140039471Y-76415498D01*
X139815943Y-76508086D01*
X139815939Y-76508088D01*
X139811369Y-76509981D01*
X139807149Y-76512567D01*
X139790016Y-76523066D01*
X139596635Y-76641570D01*
X139405130Y-76805130D01*
X139241570Y-76996635D01*
X139109981Y-77211369D01*
X139108088Y-77215939D01*
X139108086Y-77215943D01*
X139040753Y-77378501D01*
X139013604Y-77444044D01*
X139012449Y-77448856D01*
X138975743Y-77601748D01*
X138954812Y-77688931D01*
X138935052Y-77940000D01*
X134259841Y-77940000D01*
X134405280Y-77831729D01*
X134714221Y-77601740D01*
X134720610Y-77597284D01*
X135242540Y-77256913D01*
X135249214Y-77252850D01*
X135322370Y-77211369D01*
X135447677Y-77140316D01*
X135791223Y-76945517D01*
X135798140Y-76941874D01*
X136085110Y-76801917D01*
X136358165Y-76668747D01*
X136365279Y-76665546D01*
X136415540Y-76644786D01*
X136639597Y-76552239D01*
X136941181Y-76427670D01*
X136948495Y-76424911D01*
X137333283Y-76293262D01*
X137538035Y-76223209D01*
X137545488Y-76220915D01*
X138146422Y-76056160D01*
X138153995Y-76054334D01*
X138763973Y-75927167D01*
X138771672Y-75925810D01*
X139388332Y-75836722D01*
X139396100Y-75835844D01*
X140017142Y-75785167D01*
X140024951Y-75784774D01*
X140057530Y-75784143D01*
X140647897Y-75772711D01*
X140655714Y-75772802D01*
G37*
%TD.AperFunction*%
%TD*%
M02*
