%TF.GenerationSoftware,KiCad,Pcbnew,(6.0.0)*%
%TF.CreationDate,2022-03-17T14:11:52-06:00*%
%TF.ProjectId,sensor-exp,73656e73-6f72-42d6-9578-702e6b696361,rev?*%
%TF.SameCoordinates,Original*%
%TF.FileFunction,Copper,L1,Top*%
%TF.FilePolarity,Positive*%
%FSLAX46Y46*%
G04 Gerber Fmt 4.6, Leading zero omitted, Abs format (unit mm)*
G04 Created by KiCad (PCBNEW (6.0.0)) date 2022-03-17 14:11:52*
%MOMM*%
%LPD*%
G01*
G04 APERTURE LIST*
G04 Aperture macros list*
%AMRoundRect*
0 Rectangle with rounded corners*
0 $1 Rounding radius*
0 $2 $3 $4 $5 $6 $7 $8 $9 X,Y pos of 4 corners*
0 Add a 4 corners polygon primitive as box body*
4,1,4,$2,$3,$4,$5,$6,$7,$8,$9,$2,$3,0*
0 Add four circle primitives for the rounded corners*
1,1,$1+$1,$2,$3*
1,1,$1+$1,$4,$5*
1,1,$1+$1,$6,$7*
1,1,$1+$1,$8,$9*
0 Add four rect primitives between the rounded corners*
20,1,$1+$1,$2,$3,$4,$5,0*
20,1,$1+$1,$4,$5,$6,$7,0*
20,1,$1+$1,$6,$7,$8,$9,0*
20,1,$1+$1,$8,$9,$2,$3,0*%
G04 Aperture macros list end*
%TA.AperFunction,SMDPad,CuDef*%
%ADD10RoundRect,0.250000X0.450000X-0.262500X0.450000X0.262500X-0.450000X0.262500X-0.450000X-0.262500X0*%
%TD*%
%TA.AperFunction,SMDPad,CuDef*%
%ADD11R,0.450000X0.750000*%
%TD*%
%TA.AperFunction,SMDPad,CuDef*%
%ADD12R,1.740000X1.350000*%
%TD*%
%TA.AperFunction,SMDPad,CuDef*%
%ADD13RoundRect,0.250000X-0.475000X0.250000X-0.475000X-0.250000X0.475000X-0.250000X0.475000X0.250000X0*%
%TD*%
%TA.AperFunction,SMDPad,CuDef*%
%ADD14RoundRect,0.250000X0.475000X-0.250000X0.475000X0.250000X-0.475000X0.250000X-0.475000X-0.250000X0*%
%TD*%
%TA.AperFunction,ComponentPad*%
%ADD15R,1.700000X1.700000*%
%TD*%
%TA.AperFunction,ComponentPad*%
%ADD16O,1.700000X1.700000*%
%TD*%
%TA.AperFunction,ViaPad*%
%ADD17C,0.800000*%
%TD*%
%TA.AperFunction,Conductor*%
%ADD18C,0.250000*%
%TD*%
%TA.AperFunction,Conductor*%
%ADD19C,0.500000*%
%TD*%
G04 APERTURE END LIST*
D10*
%TO.P,R4,1*%
%TO.N,Net-(C6-Pad1)*%
X140200000Y-83725000D03*
%TO.P,R4,2*%
%TO.N,+3V3*%
X140200000Y-81900000D03*
%TD*%
D11*
%TO.P,U4,1,VDD*%
%TO.N,Net-(C6-Pad1)*%
X131700000Y-87250000D03*
%TO.P,U4,2,VSS*%
%TO.N,GND*%
X132500000Y-87250000D03*
%TO.P,U4,3,SDA*%
%TO.N,/SDA*%
X133300000Y-87250000D03*
%TO.P,U4,4,N/A*%
%TO.N,GND*%
X133300000Y-84750000D03*
%TO.P,U4,5,VDDH*%
%TO.N,Net-(C6-Pad1)*%
X132500000Y-84750000D03*
%TO.P,U4,6,SCL*%
%TO.N,/SCL*%
X131700000Y-84750000D03*
D12*
%TO.P,U4,7,EP*%
%TO.N,GND*%
X132500000Y-86000000D03*
%TD*%
D13*
%TO.P,C3,1*%
%TO.N,+3V3*%
X142200000Y-81850000D03*
%TO.P,C3,2*%
%TO.N,GND*%
X142200000Y-83750000D03*
%TD*%
D14*
%TO.P,C6,1*%
%TO.N,Net-(C6-Pad1)*%
X138200000Y-83750000D03*
%TO.P,C6,2*%
%TO.N,GND*%
X138200000Y-81850000D03*
%TD*%
D15*
%TO.P,J2,1,Pin_1*%
%TO.N,+3V3*%
X145200000Y-82200000D03*
D16*
%TO.P,J2,2,Pin_2*%
%TO.N,/SDA*%
X145200000Y-84740000D03*
%TO.P,J2,3,Pin_3*%
%TO.N,/SCL*%
X145200000Y-87280000D03*
%TO.P,J2,4,Pin_4*%
%TO.N,GND*%
X145200000Y-89820000D03*
%TD*%
D17*
%TO.N,Net-(C6-Pad1)*%
X138200000Y-85100000D03*
X138200000Y-88375500D03*
%TO.N,GND*%
X141850000Y-85500000D03*
X136150000Y-82000000D03*
X134600000Y-85550000D03*
%TD*%
D18*
%TO.N,Net-(C6-Pad1)*%
X131700000Y-87950000D02*
X132100000Y-88350000D01*
D19*
X138200000Y-83750000D02*
X140175000Y-83750000D01*
D18*
X132500000Y-84750000D02*
X132500000Y-83950000D01*
X132500000Y-83950000D02*
X132700000Y-83750000D01*
X132700000Y-83750000D02*
X138200000Y-83750000D01*
X131700000Y-87250000D02*
X131700000Y-87950000D01*
D19*
X140175000Y-83750000D02*
X140200000Y-83725000D01*
D18*
X132125500Y-88375500D02*
X138200000Y-88375500D01*
X132100000Y-88350000D02*
X132125500Y-88375500D01*
X138200000Y-85100000D02*
X138200000Y-83750000D01*
%TO.N,GND*%
X136300000Y-81850000D02*
X136150000Y-82000000D01*
X138200000Y-81850000D02*
X136300000Y-81850000D01*
X142200000Y-85150000D02*
X141850000Y-85500000D01*
X132500000Y-86000000D02*
X134150000Y-86000000D01*
X133300000Y-85200000D02*
X132500000Y-86000000D01*
X142200000Y-83750000D02*
X142200000Y-85150000D01*
X133300000Y-84750000D02*
X133300000Y-85200000D01*
X134150000Y-86000000D02*
X134600000Y-85550000D01*
X132500000Y-87250000D02*
X132500000Y-86000000D01*
%TO.N,+3V3*%
X142200000Y-81850000D02*
X140250000Y-81850000D01*
X140250000Y-81850000D02*
X140200000Y-81900000D01*
D19*
X142250000Y-82200000D02*
X145200000Y-82200000D01*
D18*
%TO.N,/SDA*%
X143760000Y-84740000D02*
X145200000Y-84740000D01*
X143250000Y-85250000D02*
X143760000Y-84740000D01*
X133300000Y-87250000D02*
X142850000Y-87250000D01*
X143250000Y-86850000D02*
X143250000Y-85250000D01*
X142850000Y-87250000D02*
X143250000Y-86850000D01*
%TO.N,/SCL*%
X143780000Y-87280000D02*
X145200000Y-87280000D01*
X131150000Y-84750000D02*
X130700000Y-85200000D01*
X130700000Y-85200000D02*
X130700000Y-88350000D01*
X143500000Y-88600000D02*
X143500000Y-87560000D01*
X131450000Y-89100000D02*
X143000000Y-89100000D01*
X131700000Y-84750000D02*
X131150000Y-84750000D01*
X130700000Y-88350000D02*
X131450000Y-89100000D01*
X143000000Y-89100000D02*
X143500000Y-88600000D01*
X143500000Y-87560000D02*
X143780000Y-87280000D01*
%TD*%
%TA.AperFunction,Conductor*%
%TO.N,GND*%
G36*
X143821306Y-89278765D02*
G01*
X143878142Y-89321312D01*
X143902953Y-89387832D01*
X143898691Y-89430493D01*
X143864389Y-89554183D01*
X143865912Y-89562607D01*
X143878292Y-89566000D01*
X145328000Y-89566000D01*
X145396121Y-89586002D01*
X145442614Y-89639658D01*
X145454000Y-89692000D01*
X145454000Y-91138517D01*
X145458064Y-91152359D01*
X145471478Y-91154393D01*
X145478184Y-91153534D01*
X145488262Y-91151392D01*
X145692255Y-91090191D01*
X145701842Y-91086433D01*
X145893095Y-90992739D01*
X145901945Y-90987464D01*
X146075328Y-90863792D01*
X146083200Y-90857139D01*
X146234052Y-90706812D01*
X146240723Y-90698972D01*
X146292385Y-90627077D01*
X146348380Y-90583429D01*
X146419083Y-90576983D01*
X146482048Y-90609786D01*
X146509406Y-90648446D01*
X146518022Y-90667396D01*
X146524464Y-90684907D01*
X146531512Y-90709565D01*
X146536298Y-90717150D01*
X146536298Y-90717151D01*
X146537860Y-90719627D01*
X146547274Y-90734548D01*
X146555404Y-90749614D01*
X146567633Y-90776510D01*
X146584374Y-90795939D01*
X146595479Y-90810947D01*
X146609160Y-90832631D01*
X146615888Y-90838573D01*
X146631296Y-90852181D01*
X146643340Y-90864373D01*
X146662619Y-90886747D01*
X146670147Y-90891626D01*
X146670150Y-90891629D01*
X146684139Y-90900696D01*
X146699013Y-90911986D01*
X146718228Y-90928956D01*
X146726354Y-90932771D01*
X146726355Y-90932772D01*
X146726662Y-90932916D01*
X146744966Y-90941510D01*
X146759935Y-90949824D01*
X146784727Y-90965893D01*
X146793327Y-90968465D01*
X146809290Y-90973239D01*
X146826736Y-90979901D01*
X146849948Y-90990799D01*
X146879130Y-90995343D01*
X146895849Y-90999126D01*
X146915536Y-91005014D01*
X146915539Y-91005015D01*
X146924141Y-91007587D01*
X146933116Y-91007642D01*
X146933117Y-91007642D01*
X146939810Y-91007683D01*
X146958556Y-91007797D01*
X146959328Y-91007830D01*
X146960423Y-91008000D01*
X146991298Y-91008000D01*
X146992068Y-91008002D01*
X147065716Y-91008452D01*
X147065717Y-91008452D01*
X147069652Y-91008476D01*
X147070996Y-91008092D01*
X147072341Y-91008000D01*
X148933962Y-91008000D01*
X149002083Y-91028002D01*
X149048576Y-91081658D01*
X149058680Y-91151932D01*
X149042267Y-91198389D01*
X148935407Y-91378133D01*
X148931155Y-91384801D01*
X148581380Y-91896999D01*
X148576717Y-91903386D01*
X148195515Y-92392611D01*
X148190461Y-92398694D01*
X148115219Y-92483673D01*
X147779295Y-92863066D01*
X147773889Y-92868800D01*
X147557000Y-93084788D01*
X147334403Y-93306460D01*
X147328627Y-93311861D01*
X146862548Y-93721091D01*
X146856444Y-93726120D01*
X146365645Y-94105277D01*
X146359238Y-94109914D01*
X145845582Y-94457559D01*
X145838896Y-94461784D01*
X145304461Y-94776508D01*
X145297524Y-94780305D01*
X144744392Y-95060885D01*
X144737234Y-95064238D01*
X144296853Y-95253895D01*
X144167591Y-95309564D01*
X144160232Y-95312463D01*
X143576319Y-95521569D01*
X143568794Y-95524000D01*
X143431174Y-95563738D01*
X142993006Y-95690260D01*
X142972926Y-95696058D01*
X142965267Y-95698012D01*
X142359747Y-95832358D01*
X142351994Y-95833824D01*
X142012643Y-95887041D01*
X141739241Y-95929916D01*
X141731393Y-95930895D01*
X141407100Y-95961069D01*
X141113835Y-95988355D01*
X141105955Y-95988840D01*
X140954448Y-95993386D01*
X140684637Y-96001483D01*
X140615947Y-95983534D01*
X140567866Y-95931297D01*
X140555659Y-95861357D01*
X140583201Y-95795921D01*
X140641749Y-95755763D01*
X140667138Y-95750290D01*
X140736335Y-95742711D01*
X140816615Y-95733920D01*
X140816621Y-95733919D01*
X140821268Y-95733410D01*
X140825792Y-95732219D01*
X141069431Y-95668074D01*
X141069433Y-95668073D01*
X141073954Y-95666883D01*
X141078251Y-95665037D01*
X141309736Y-95565583D01*
X141309738Y-95565582D01*
X141314030Y-95563738D01*
X141536224Y-95426240D01*
X141551768Y-95413081D01*
X141732087Y-95260431D01*
X141732089Y-95260429D01*
X141735654Y-95257411D01*
X141907938Y-95060958D01*
X141914432Y-95050863D01*
X142046765Y-94845127D01*
X142049293Y-94841197D01*
X142156612Y-94602958D01*
X142157882Y-94598455D01*
X142226269Y-94355976D01*
X142226270Y-94355973D01*
X142227539Y-94351472D01*
X142260514Y-94092265D01*
X142260601Y-94088968D01*
X142262847Y-94003160D01*
X142262930Y-94000000D01*
X142259155Y-93949198D01*
X142243912Y-93744074D01*
X142243911Y-93744070D01*
X142243566Y-93739422D01*
X142239419Y-93721091D01*
X142186929Y-93489126D01*
X142185898Y-93484569D01*
X142161462Y-93421731D01*
X142092888Y-93245392D01*
X142092887Y-93245389D01*
X142091195Y-93241039D01*
X142067538Y-93199647D01*
X141963854Y-93018240D01*
X141961535Y-93014182D01*
X141799768Y-92808982D01*
X141609448Y-92629946D01*
X141394755Y-92481008D01*
X141390565Y-92478942D01*
X141390562Y-92478940D01*
X141164593Y-92367505D01*
X141164590Y-92367504D01*
X141160405Y-92365440D01*
X140911548Y-92285780D01*
X140906941Y-92285030D01*
X140906938Y-92285029D01*
X140658260Y-92244529D01*
X140658261Y-92244529D01*
X140653649Y-92243778D01*
X140526861Y-92242118D01*
X140397053Y-92240419D01*
X140397050Y-92240419D01*
X140392376Y-92240358D01*
X140133466Y-92275594D01*
X139882609Y-92348712D01*
X139878374Y-92350664D01*
X139878367Y-92350667D01*
X139750527Y-92409603D01*
X139645315Y-92458107D01*
X139641406Y-92460670D01*
X139430709Y-92598808D01*
X139430704Y-92598812D01*
X139426796Y-92601374D01*
X139231854Y-92775366D01*
X139064771Y-92976261D01*
X138929218Y-93199647D01*
X138927409Y-93203961D01*
X138927408Y-93203963D01*
X138833919Y-93426910D01*
X138828172Y-93440614D01*
X138827021Y-93445146D01*
X138827020Y-93445149D01*
X138817009Y-93484569D01*
X138763853Y-93693870D01*
X138737674Y-93953852D01*
X138739393Y-93989640D01*
X138750211Y-94214847D01*
X138751124Y-94219435D01*
X138798930Y-94459774D01*
X138801187Y-94471123D01*
X138802766Y-94475521D01*
X138802768Y-94475528D01*
X138850051Y-94607222D01*
X138889483Y-94717048D01*
X139013160Y-94947222D01*
X139015955Y-94950965D01*
X139015957Y-94950968D01*
X139166707Y-95152846D01*
X139169500Y-95156586D01*
X139172807Y-95159864D01*
X139172812Y-95159870D01*
X139316452Y-95302261D01*
X139355069Y-95340542D01*
X139358836Y-95343304D01*
X139358837Y-95343305D01*
X139562018Y-95492284D01*
X139565789Y-95495049D01*
X139569924Y-95497225D01*
X139569928Y-95497227D01*
X139691665Y-95561276D01*
X139797033Y-95616713D01*
X139990730Y-95684355D01*
X140004461Y-95689150D01*
X140043720Y-95702860D01*
X140048313Y-95703732D01*
X140296506Y-95750853D01*
X140359700Y-95783210D01*
X140395369Y-95844597D01*
X140392188Y-95915522D01*
X140351167Y-95973468D01*
X140285329Y-96000038D01*
X140268878Y-96000574D01*
X139858198Y-95987109D01*
X139850328Y-95986604D01*
X139232919Y-95927429D01*
X139225085Y-95926430D01*
X138612616Y-95828640D01*
X138604851Y-95827149D01*
X138556715Y-95816329D01*
X137999707Y-95691125D01*
X137992066Y-95689153D01*
X137396664Y-95515439D01*
X137389147Y-95512987D01*
X136805814Y-95302261D01*
X136798464Y-95299342D01*
X136229500Y-95052436D01*
X136222347Y-95049061D01*
X135815368Y-94841197D01*
X135670000Y-94766950D01*
X135663077Y-94763136D01*
X135645928Y-94752973D01*
X135129500Y-94446919D01*
X135122846Y-94442688D01*
X134610152Y-94093617D01*
X134603765Y-94088968D01*
X134356999Y-93897238D01*
X134114012Y-93708445D01*
X134107922Y-93703400D01*
X133642982Y-93292881D01*
X133637221Y-93287463D01*
X133198961Y-92848595D01*
X133193551Y-92842826D01*
X132783671Y-92377310D01*
X132778673Y-92371260D01*
X132398781Y-91880918D01*
X132394156Y-91874544D01*
X132045808Y-91361384D01*
X132041573Y-91354704D01*
X131726100Y-90820692D01*
X131722297Y-90813768D01*
X131706793Y-90783307D01*
X131458158Y-90294832D01*
X131440948Y-90261020D01*
X131437584Y-90253863D01*
X131365865Y-90087966D01*
X143868257Y-90087966D01*
X143898565Y-90222446D01*
X143901645Y-90232275D01*
X143981770Y-90429603D01*
X143986413Y-90438794D01*
X144097694Y-90620388D01*
X144103777Y-90628699D01*
X144243213Y-90789667D01*
X144250580Y-90796883D01*
X144414434Y-90932916D01*
X144422881Y-90938831D01*
X144606756Y-91046279D01*
X144616042Y-91050729D01*
X144815001Y-91126703D01*
X144824899Y-91129579D01*
X144928250Y-91150606D01*
X144942299Y-91149410D01*
X144946000Y-91139065D01*
X144946000Y-90092115D01*
X144941525Y-90076876D01*
X144940135Y-90075671D01*
X144932452Y-90074000D01*
X143883225Y-90074000D01*
X143869694Y-90077973D01*
X143868257Y-90087966D01*
X131365865Y-90087966D01*
X131289751Y-89911904D01*
X131281079Y-89841439D01*
X131311880Y-89777472D01*
X131372375Y-89740312D01*
X131414148Y-89738049D01*
X131414189Y-89736731D01*
X131422114Y-89736980D01*
X131429943Y-89738220D01*
X131437835Y-89737474D01*
X131456580Y-89735702D01*
X131473962Y-89734059D01*
X131485819Y-89733500D01*
X142921233Y-89733500D01*
X142932416Y-89734027D01*
X142939909Y-89735702D01*
X142947835Y-89735453D01*
X142947836Y-89735453D01*
X143007986Y-89733562D01*
X143011945Y-89733500D01*
X143039856Y-89733500D01*
X143043791Y-89733003D01*
X143043856Y-89732995D01*
X143055693Y-89732062D01*
X143087951Y-89731048D01*
X143091970Y-89730922D01*
X143099889Y-89730673D01*
X143119343Y-89725021D01*
X143138700Y-89721013D01*
X143150930Y-89719468D01*
X143150931Y-89719468D01*
X143158797Y-89718474D01*
X143166168Y-89715555D01*
X143166170Y-89715555D01*
X143199912Y-89702196D01*
X143211142Y-89698351D01*
X143245983Y-89688229D01*
X143245984Y-89688229D01*
X143253593Y-89686018D01*
X143260412Y-89681985D01*
X143260417Y-89681983D01*
X143271028Y-89675707D01*
X143288776Y-89667012D01*
X143307617Y-89659552D01*
X143343387Y-89633564D01*
X143353307Y-89627048D01*
X143384535Y-89608580D01*
X143384538Y-89608578D01*
X143391362Y-89604542D01*
X143405683Y-89590221D01*
X143420717Y-89577380D01*
X143430693Y-89570132D01*
X143437107Y-89565472D01*
X143465288Y-89531407D01*
X143473278Y-89522627D01*
X143688179Y-89307726D01*
X143750491Y-89273700D01*
X143821306Y-89278765D01*
G37*
%TD.AperFunction*%
%TA.AperFunction,Conductor*%
G36*
X143783621Y-82978502D02*
G01*
X143830114Y-83032158D01*
X143841500Y-83084500D01*
X143841500Y-83098134D01*
X143848255Y-83160316D01*
X143899385Y-83296705D01*
X143986739Y-83413261D01*
X144103295Y-83500615D01*
X144111704Y-83503767D01*
X144111705Y-83503768D01*
X144220451Y-83544535D01*
X144277216Y-83587176D01*
X144301916Y-83653738D01*
X144286709Y-83723087D01*
X144267316Y-83749568D01*
X144140629Y-83882138D01*
X144137715Y-83886410D01*
X144137714Y-83886411D01*
X144025095Y-84051504D01*
X143970184Y-84096507D01*
X143921007Y-84106500D01*
X143838767Y-84106500D01*
X143827584Y-84105973D01*
X143820091Y-84104298D01*
X143812165Y-84104547D01*
X143812164Y-84104547D01*
X143752001Y-84106438D01*
X143748043Y-84106500D01*
X143720144Y-84106500D01*
X143716154Y-84107004D01*
X143704320Y-84107936D01*
X143660111Y-84109326D01*
X143652497Y-84111538D01*
X143652492Y-84111539D01*
X143640659Y-84114977D01*
X143621296Y-84118988D01*
X143601203Y-84121526D01*
X143593830Y-84124445D01*
X143590146Y-84125391D01*
X143519191Y-84122959D01*
X143460815Y-84082553D01*
X143437913Y-84038848D01*
X143428525Y-84006876D01*
X143427135Y-84005671D01*
X143419452Y-84004000D01*
X142472115Y-84004000D01*
X142456876Y-84008475D01*
X142455671Y-84009865D01*
X142454000Y-84017548D01*
X142454000Y-84739884D01*
X142458475Y-84755123D01*
X142459865Y-84756328D01*
X142467548Y-84757999D01*
X142580819Y-84757999D01*
X142648940Y-84778001D01*
X142695433Y-84831657D01*
X142705537Y-84901931D01*
X142696457Y-84934038D01*
X142682827Y-84965536D01*
X142677609Y-84976187D01*
X142656305Y-85014940D01*
X142654334Y-85022615D01*
X142654334Y-85022616D01*
X142651267Y-85034562D01*
X142644863Y-85053266D01*
X142636819Y-85071855D01*
X142635580Y-85079678D01*
X142635577Y-85079688D01*
X142629901Y-85115524D01*
X142627495Y-85127144D01*
X142616500Y-85169970D01*
X142616500Y-85190224D01*
X142614949Y-85209934D01*
X142611780Y-85229943D01*
X142612526Y-85237835D01*
X142615941Y-85273961D01*
X142616500Y-85285819D01*
X142616500Y-86490500D01*
X142596498Y-86558621D01*
X142542842Y-86605114D01*
X142490500Y-86616500D01*
X134029802Y-86616500D01*
X133961681Y-86596498D01*
X133928975Y-86566064D01*
X133903173Y-86531636D01*
X133878326Y-86465130D01*
X133878000Y-86456072D01*
X133878000Y-86272115D01*
X133873525Y-86256876D01*
X133872135Y-86255671D01*
X133864452Y-86254000D01*
X132772115Y-86254000D01*
X132756876Y-86258475D01*
X132755671Y-86259865D01*
X132754000Y-86267548D01*
X132754000Y-86419087D01*
X132733998Y-86487208D01*
X132718025Y-86507028D01*
X132711739Y-86511739D01*
X132624385Y-86628295D01*
X132621233Y-86636704D01*
X132621232Y-86636705D01*
X132617982Y-86645374D01*
X132575341Y-86702139D01*
X132508779Y-86726839D01*
X132439430Y-86711632D01*
X132389312Y-86661346D01*
X132382018Y-86645374D01*
X132378768Y-86636705D01*
X132378767Y-86636704D01*
X132375615Y-86628295D01*
X132288261Y-86511739D01*
X132282482Y-86507408D01*
X132248879Y-86445870D01*
X132246000Y-86419087D01*
X132246000Y-85872000D01*
X132266002Y-85803879D01*
X132319658Y-85757386D01*
X132372000Y-85746000D01*
X133859884Y-85746000D01*
X133875123Y-85741525D01*
X133876328Y-85740135D01*
X133877999Y-85732452D01*
X133877999Y-85543096D01*
X133898001Y-85474975D01*
X133903172Y-85467531D01*
X133969789Y-85378644D01*
X133978324Y-85363054D01*
X134023478Y-85242606D01*
X134027105Y-85227351D01*
X134032631Y-85176486D01*
X134033000Y-85169672D01*
X134033000Y-84993115D01*
X134028525Y-84977876D01*
X134027135Y-84976671D01*
X134019452Y-84975000D01*
X133359500Y-84975000D01*
X133291379Y-84954998D01*
X133244886Y-84901342D01*
X133233500Y-84849000D01*
X133233500Y-84651000D01*
X133253502Y-84582879D01*
X133307158Y-84536386D01*
X133359500Y-84525000D01*
X134014884Y-84525000D01*
X134030123Y-84520525D01*
X134031328Y-84519135D01*
X134032999Y-84511452D01*
X134032999Y-84509500D01*
X134034637Y-84503920D01*
X134035878Y-84498217D01*
X134036286Y-84498306D01*
X134053001Y-84441379D01*
X134106657Y-84394886D01*
X134158999Y-84383500D01*
X137000101Y-84383500D01*
X137068222Y-84403502D01*
X137107245Y-84443197D01*
X137126522Y-84474348D01*
X137251697Y-84599305D01*
X137257929Y-84603147D01*
X137257931Y-84603148D01*
X137297116Y-84627302D01*
X137344610Y-84680074D01*
X137356034Y-84750145D01*
X137350834Y-84773497D01*
X137306458Y-84910072D01*
X137305768Y-84916633D01*
X137305768Y-84916635D01*
X137295436Y-85014940D01*
X137286496Y-85100000D01*
X137287186Y-85106565D01*
X137299331Y-85222114D01*
X137306458Y-85289928D01*
X137365473Y-85471556D01*
X137460960Y-85636944D01*
X137465378Y-85641851D01*
X137465379Y-85641852D01*
X137533259Y-85717240D01*
X137588747Y-85778866D01*
X137743248Y-85891118D01*
X137749276Y-85893802D01*
X137749278Y-85893803D01*
X137911681Y-85966109D01*
X137917712Y-85968794D01*
X138011113Y-85988647D01*
X138098056Y-86007128D01*
X138098061Y-86007128D01*
X138104513Y-86008500D01*
X138295487Y-86008500D01*
X138301939Y-86007128D01*
X138301944Y-86007128D01*
X138388887Y-85988647D01*
X138482288Y-85968794D01*
X138488319Y-85966109D01*
X138650722Y-85893803D01*
X138650724Y-85893802D01*
X138656752Y-85891118D01*
X138811253Y-85778866D01*
X138866741Y-85717240D01*
X138934621Y-85641852D01*
X138934622Y-85641851D01*
X138939040Y-85636944D01*
X139034527Y-85471556D01*
X139093542Y-85289928D01*
X139100670Y-85222114D01*
X139112814Y-85106565D01*
X139113504Y-85100000D01*
X139104564Y-85014940D01*
X139094232Y-84916635D01*
X139094232Y-84916633D01*
X139093542Y-84910072D01*
X139049147Y-84773439D01*
X139047119Y-84702472D01*
X139083782Y-84641674D01*
X139102677Y-84627359D01*
X139143122Y-84602331D01*
X139143123Y-84602330D01*
X139143568Y-84602055D01*
X139143570Y-84602054D01*
X139149348Y-84598478D01*
X139149960Y-84599467D01*
X139209179Y-84575496D01*
X139278943Y-84588666D01*
X139287751Y-84593619D01*
X139420090Y-84675194D01*
X139427262Y-84679615D01*
X139470520Y-84693963D01*
X139588611Y-84733132D01*
X139588613Y-84733132D01*
X139595139Y-84735297D01*
X139601975Y-84735997D01*
X139601978Y-84735998D01*
X139639908Y-84739884D01*
X139699600Y-84746000D01*
X140700400Y-84746000D01*
X140703646Y-84745663D01*
X140703650Y-84745663D01*
X140799308Y-84735738D01*
X140799312Y-84735737D01*
X140806166Y-84735026D01*
X140812702Y-84732845D01*
X140812704Y-84732845D01*
X140955995Y-84685039D01*
X140973946Y-84679050D01*
X141112417Y-84593361D01*
X141180869Y-84574523D01*
X141248638Y-84595684D01*
X141256813Y-84601624D01*
X141258239Y-84602750D01*
X141396243Y-84687816D01*
X141409424Y-84693963D01*
X141563710Y-84745138D01*
X141577086Y-84748005D01*
X141671438Y-84757672D01*
X141677854Y-84758000D01*
X141927885Y-84758000D01*
X141943124Y-84753525D01*
X141944329Y-84752135D01*
X141946000Y-84744452D01*
X141946000Y-83622000D01*
X141966002Y-83553879D01*
X142019658Y-83507386D01*
X142072000Y-83496000D01*
X143414884Y-83496000D01*
X143430123Y-83491525D01*
X143431328Y-83490135D01*
X143432999Y-83482452D01*
X143432999Y-83452905D01*
X143432662Y-83446386D01*
X143422743Y-83350794D01*
X143419851Y-83337400D01*
X143368412Y-83183216D01*
X143362239Y-83170040D01*
X143350335Y-83150802D01*
X143331498Y-83082350D01*
X143352660Y-83014581D01*
X143407101Y-82969010D01*
X143457480Y-82958500D01*
X143715500Y-82958500D01*
X143783621Y-82978502D01*
G37*
%TD.AperFunction*%
%TA.AperFunction,Conductor*%
G36*
X140377149Y-76015889D02*
G01*
X140425375Y-76067992D01*
X140437776Y-76137897D01*
X140410415Y-76203410D01*
X140351979Y-76243730D01*
X140329529Y-76248911D01*
X140323695Y-76249705D01*
X140133466Y-76275594D01*
X139882609Y-76348712D01*
X139878374Y-76350664D01*
X139878367Y-76350667D01*
X139672363Y-76445638D01*
X139645315Y-76458107D01*
X139641406Y-76460670D01*
X139430709Y-76598808D01*
X139430704Y-76598812D01*
X139426796Y-76601374D01*
X139231854Y-76775366D01*
X139064771Y-76976261D01*
X138929218Y-77199647D01*
X138927409Y-77203961D01*
X138927408Y-77203963D01*
X138838789Y-77415296D01*
X138828172Y-77440614D01*
X138827021Y-77445146D01*
X138827020Y-77445149D01*
X138817009Y-77484569D01*
X138763853Y-77693870D01*
X138737674Y-77953852D01*
X138739393Y-77989640D01*
X138750211Y-78214847D01*
X138801187Y-78471123D01*
X138802766Y-78475521D01*
X138802768Y-78475528D01*
X138850051Y-78607222D01*
X138889483Y-78717048D01*
X139013160Y-78947222D01*
X139015955Y-78950965D01*
X139015957Y-78950968D01*
X139165631Y-79151405D01*
X139169500Y-79156586D01*
X139172807Y-79159864D01*
X139172812Y-79159870D01*
X139351753Y-79337255D01*
X139355069Y-79340542D01*
X139565789Y-79495049D01*
X139569924Y-79497225D01*
X139569928Y-79497227D01*
X139691665Y-79561276D01*
X139797033Y-79616713D01*
X140043720Y-79702860D01*
X140048313Y-79703732D01*
X140295842Y-79750727D01*
X140295845Y-79750727D01*
X140300431Y-79751598D01*
X140424457Y-79756471D01*
X140556857Y-79761673D01*
X140556862Y-79761673D01*
X140561525Y-79761856D01*
X140663145Y-79750727D01*
X140816615Y-79733920D01*
X140816621Y-79733919D01*
X140821268Y-79733410D01*
X140825792Y-79732219D01*
X141069431Y-79668074D01*
X141069433Y-79668073D01*
X141073954Y-79666883D01*
X141078251Y-79665037D01*
X141309736Y-79565583D01*
X141309738Y-79565582D01*
X141314030Y-79563738D01*
X141536224Y-79426240D01*
X141551768Y-79413081D01*
X141732087Y-79260431D01*
X141732089Y-79260429D01*
X141735654Y-79257411D01*
X141907938Y-79060958D01*
X141981096Y-78947222D01*
X142046765Y-78845127D01*
X142049293Y-78841197D01*
X142156612Y-78602958D01*
X142157882Y-78598455D01*
X142226269Y-78355976D01*
X142226270Y-78355973D01*
X142227539Y-78351472D01*
X142260514Y-78092265D01*
X142262930Y-78000000D01*
X142250714Y-77835611D01*
X142243912Y-77744074D01*
X142243911Y-77744070D01*
X142243566Y-77739422D01*
X142232232Y-77689331D01*
X142186929Y-77489126D01*
X142185898Y-77484569D01*
X142161462Y-77421731D01*
X142092888Y-77245392D01*
X142092887Y-77245389D01*
X142091195Y-77241039D01*
X142067538Y-77199647D01*
X141963854Y-77018240D01*
X141961535Y-77014182D01*
X141799768Y-76808982D01*
X141609448Y-76629946D01*
X141564563Y-76598808D01*
X141398597Y-76483673D01*
X141398594Y-76483671D01*
X141394755Y-76481008D01*
X141390565Y-76478942D01*
X141390562Y-76478940D01*
X141164593Y-76367505D01*
X141164590Y-76367504D01*
X141160405Y-76365440D01*
X140911548Y-76285780D01*
X140906941Y-76285030D01*
X140906938Y-76285029D01*
X140690042Y-76249705D01*
X140626023Y-76219013D01*
X140588759Y-76158581D01*
X140590083Y-76087597D01*
X140629573Y-76028597D01*
X140694693Y-76000313D01*
X140714075Y-75999400D01*
X141105957Y-76011160D01*
X141113835Y-76011645D01*
X141407100Y-76038931D01*
X141731393Y-76069105D01*
X141739241Y-76070084D01*
X142012643Y-76112959D01*
X142351994Y-76166176D01*
X142359747Y-76167642D01*
X142965267Y-76301988D01*
X142972922Y-76303941D01*
X143185905Y-76365440D01*
X143568794Y-76476000D01*
X143576319Y-76478431D01*
X144160232Y-76687537D01*
X144167590Y-76690436D01*
X144532774Y-76847708D01*
X144737231Y-76935761D01*
X144744392Y-76939115D01*
X145297524Y-77219695D01*
X145304461Y-77223492D01*
X145838896Y-77538216D01*
X145845582Y-77542441D01*
X146359238Y-77890086D01*
X146365645Y-77894723D01*
X146856444Y-78273880D01*
X146862548Y-78278909D01*
X147328627Y-78688139D01*
X147334403Y-78693540D01*
X147557000Y-78915212D01*
X147773889Y-79131200D01*
X147779295Y-79136934D01*
X147794586Y-79154203D01*
X148190461Y-79601306D01*
X148195515Y-79607389D01*
X148576717Y-80096614D01*
X148581380Y-80103001D01*
X148931155Y-80615199D01*
X148935407Y-80621867D01*
X149042267Y-80801611D01*
X149059886Y-80870387D01*
X149037524Y-80937770D01*
X148982282Y-80982367D01*
X148933962Y-80992000D01*
X147008702Y-80992000D01*
X147007932Y-80991998D01*
X147007078Y-80991993D01*
X146930348Y-80991524D01*
X146921719Y-80993990D01*
X146921714Y-80993991D01*
X146901952Y-80999639D01*
X146885191Y-81003217D01*
X146864848Y-81006130D01*
X146864838Y-81006133D01*
X146855955Y-81007405D01*
X146832605Y-81018021D01*
X146815093Y-81024464D01*
X146802200Y-81028149D01*
X146790435Y-81031512D01*
X146765452Y-81047274D01*
X146750386Y-81055404D01*
X146723490Y-81067633D01*
X146704061Y-81084374D01*
X146689053Y-81095479D01*
X146667369Y-81109160D01*
X146667133Y-81109427D01*
X146606255Y-81136578D01*
X146536074Y-81125850D01*
X146488606Y-81087271D01*
X146418643Y-80993920D01*
X146418642Y-80993919D01*
X146413261Y-80986739D01*
X146296705Y-80899385D01*
X146160316Y-80848255D01*
X146098134Y-80841500D01*
X144301866Y-80841500D01*
X144239684Y-80848255D01*
X144103295Y-80899385D01*
X143986739Y-80986739D01*
X143899385Y-81103295D01*
X143848255Y-81239684D01*
X143841500Y-81301866D01*
X143841500Y-81315500D01*
X143821498Y-81383621D01*
X143767842Y-81430114D01*
X143715500Y-81441500D01*
X143512538Y-81441500D01*
X143444417Y-81421498D01*
X143397924Y-81367842D01*
X143393014Y-81355376D01*
X143371348Y-81290435D01*
X143366550Y-81276054D01*
X143273478Y-81125652D01*
X143148303Y-81000695D01*
X143137312Y-80993920D01*
X143003968Y-80911725D01*
X143003966Y-80911724D01*
X142997738Y-80907885D01*
X142910652Y-80879000D01*
X142836389Y-80854368D01*
X142836387Y-80854368D01*
X142829861Y-80852203D01*
X142823025Y-80851503D01*
X142823022Y-80851502D01*
X142779969Y-80847091D01*
X142725400Y-80841500D01*
X141674600Y-80841500D01*
X141671354Y-80841837D01*
X141671350Y-80841837D01*
X141575692Y-80851762D01*
X141575688Y-80851763D01*
X141568834Y-80852474D01*
X141562298Y-80854655D01*
X141562296Y-80854655D01*
X141458567Y-80889262D01*
X141401054Y-80908450D01*
X141250652Y-81001522D01*
X141245479Y-81006704D01*
X141239742Y-81011251D01*
X141237854Y-81008869D01*
X141187598Y-81036355D01*
X141116778Y-81031337D01*
X141094616Y-81020512D01*
X140978968Y-80949225D01*
X140978966Y-80949224D01*
X140972738Y-80945385D01*
X140861382Y-80908450D01*
X140811389Y-80891868D01*
X140811387Y-80891868D01*
X140804861Y-80889703D01*
X140798025Y-80889003D01*
X140798022Y-80889002D01*
X140754969Y-80884591D01*
X140700400Y-80879000D01*
X139699600Y-80879000D01*
X139696354Y-80879337D01*
X139696350Y-80879337D01*
X139600692Y-80889262D01*
X139600688Y-80889263D01*
X139593834Y-80889974D01*
X139587298Y-80892155D01*
X139587296Y-80892155D01*
X139526897Y-80912306D01*
X139426054Y-80945950D01*
X139309597Y-81018016D01*
X139305071Y-81020817D01*
X139236619Y-81039655D01*
X139168850Y-81018494D01*
X139159129Y-81010530D01*
X139158917Y-81010799D01*
X139141761Y-80997250D01*
X139003757Y-80912184D01*
X138990576Y-80906037D01*
X138836290Y-80854862D01*
X138822914Y-80851995D01*
X138728562Y-80842328D01*
X138722145Y-80842000D01*
X138472115Y-80842000D01*
X138456876Y-80846475D01*
X138455671Y-80847865D01*
X138454000Y-80855548D01*
X138454000Y-81978000D01*
X138433998Y-82046121D01*
X138380342Y-82092614D01*
X138328000Y-82104000D01*
X136985116Y-82104000D01*
X136969877Y-82108475D01*
X136968672Y-82109865D01*
X136967001Y-82117548D01*
X136967001Y-82147095D01*
X136967338Y-82153614D01*
X136977257Y-82249206D01*
X136980149Y-82262600D01*
X137031588Y-82416784D01*
X137037761Y-82429962D01*
X137123063Y-82567807D01*
X137132099Y-82579208D01*
X137246828Y-82693738D01*
X137255762Y-82700794D01*
X137296823Y-82758712D01*
X137300053Y-82829635D01*
X137264426Y-82891046D01*
X137256593Y-82897846D01*
X137250652Y-82901522D01*
X137125695Y-83026697D01*
X137121855Y-83032927D01*
X137107251Y-83056618D01*
X137054478Y-83104110D01*
X136999992Y-83116500D01*
X132778768Y-83116500D01*
X132767585Y-83115973D01*
X132760092Y-83114298D01*
X132752166Y-83114547D01*
X132752165Y-83114547D01*
X132692002Y-83116438D01*
X132688044Y-83116500D01*
X132660144Y-83116500D01*
X132656154Y-83117004D01*
X132644320Y-83117936D01*
X132600111Y-83119326D01*
X132592497Y-83121538D01*
X132592492Y-83121539D01*
X132580659Y-83124977D01*
X132561296Y-83128988D01*
X132541203Y-83131526D01*
X132533836Y-83134443D01*
X132533831Y-83134444D01*
X132500092Y-83147802D01*
X132488865Y-83151646D01*
X132446407Y-83163982D01*
X132439581Y-83168019D01*
X132428972Y-83174293D01*
X132411224Y-83182988D01*
X132392383Y-83190448D01*
X132385967Y-83195110D01*
X132385966Y-83195110D01*
X132356613Y-83216436D01*
X132346693Y-83222952D01*
X132315465Y-83241420D01*
X132315462Y-83241422D01*
X132308638Y-83245458D01*
X132294314Y-83259782D01*
X132279287Y-83272617D01*
X132262893Y-83284528D01*
X132257840Y-83290636D01*
X132234708Y-83318597D01*
X132226720Y-83327375D01*
X132107744Y-83446352D01*
X132099462Y-83453888D01*
X132092982Y-83458000D01*
X132087555Y-83463779D01*
X132087554Y-83463780D01*
X132046356Y-83507652D01*
X132043601Y-83510494D01*
X132023865Y-83530230D01*
X132021385Y-83533427D01*
X132013682Y-83542447D01*
X131983414Y-83574679D01*
X131979595Y-83581625D01*
X131979593Y-83581628D01*
X131973652Y-83592434D01*
X131962801Y-83608953D01*
X131950386Y-83624959D01*
X131947241Y-83632228D01*
X131947238Y-83632232D01*
X131932826Y-83665537D01*
X131927609Y-83676187D01*
X131906305Y-83714940D01*
X131904334Y-83722615D01*
X131904334Y-83722616D01*
X131901267Y-83734562D01*
X131894863Y-83753266D01*
X131889967Y-83764579D01*
X131889966Y-83764583D01*
X131886819Y-83771855D01*
X131886041Y-83776764D01*
X131848535Y-83835490D01*
X131784038Y-83865166D01*
X131765753Y-83866500D01*
X131426866Y-83866500D01*
X131364684Y-83873255D01*
X131228295Y-83924385D01*
X131111739Y-84011739D01*
X131106358Y-84018919D01*
X131054915Y-84087559D01*
X130998056Y-84130074D01*
X130994926Y-84131056D01*
X130991203Y-84131526D01*
X130983836Y-84134443D01*
X130983831Y-84134444D01*
X130950097Y-84147800D01*
X130938869Y-84151645D01*
X130896407Y-84163982D01*
X130889584Y-84168017D01*
X130889582Y-84168018D01*
X130878972Y-84174293D01*
X130861214Y-84182992D01*
X130853646Y-84185989D01*
X130782945Y-84192464D01*
X130719967Y-84159687D01*
X130684707Y-84098065D01*
X130684299Y-84041372D01*
X130685075Y-84037900D01*
X130801352Y-83517230D01*
X130803316Y-83509572D01*
X130812136Y-83479185D01*
X130976208Y-82913921D01*
X130978648Y-82906404D01*
X130980702Y-82900695D01*
X131188563Y-82322784D01*
X131191472Y-82315430D01*
X131437584Y-81746137D01*
X131440948Y-81738980D01*
X131522945Y-81577885D01*
X136967000Y-81577885D01*
X136971475Y-81593124D01*
X136972865Y-81594329D01*
X136980548Y-81596000D01*
X137927885Y-81596000D01*
X137943124Y-81591525D01*
X137944329Y-81590135D01*
X137946000Y-81582452D01*
X137946000Y-80860116D01*
X137941525Y-80844877D01*
X137940135Y-80843672D01*
X137932452Y-80842001D01*
X137677905Y-80842001D01*
X137671386Y-80842338D01*
X137575794Y-80852257D01*
X137562400Y-80855149D01*
X137408216Y-80906588D01*
X137395038Y-80912761D01*
X137257193Y-80998063D01*
X137245792Y-81007099D01*
X137131261Y-81121829D01*
X137122249Y-81133240D01*
X137037184Y-81271243D01*
X137031037Y-81284424D01*
X136979862Y-81438710D01*
X136976995Y-81452086D01*
X136967328Y-81546438D01*
X136967000Y-81552855D01*
X136967000Y-81577885D01*
X131522945Y-81577885D01*
X131598161Y-81430114D01*
X131722301Y-81186225D01*
X131726104Y-81179300D01*
X131735027Y-81164197D01*
X132041576Y-80645291D01*
X132045808Y-80638616D01*
X132394156Y-80125456D01*
X132398781Y-80119082D01*
X132778673Y-79628740D01*
X132783671Y-79622690D01*
X133193552Y-79157173D01*
X133198961Y-79151405D01*
X133637221Y-78712537D01*
X133642982Y-78707119D01*
X134107922Y-78296600D01*
X134114012Y-78291555D01*
X134290705Y-78154270D01*
X134603772Y-77911027D01*
X134610159Y-77906378D01*
X135122846Y-77557312D01*
X135129500Y-77553081D01*
X135663080Y-77236862D01*
X135670003Y-77233048D01*
X135692643Y-77221485D01*
X136098523Y-77014182D01*
X136222347Y-76950939D01*
X136229500Y-76947564D01*
X136798464Y-76700658D01*
X136805814Y-76697739D01*
X137389147Y-76487013D01*
X137396665Y-76484561D01*
X137487335Y-76458107D01*
X137992066Y-76310847D01*
X137999707Y-76308875D01*
X138604853Y-76172851D01*
X138612618Y-76171360D01*
X138635892Y-76167644D01*
X139225085Y-76073570D01*
X139232919Y-76072571D01*
X139850328Y-76013396D01*
X139858198Y-76012891D01*
X140308409Y-75998130D01*
X140377149Y-76015889D01*
G37*
%TD.AperFunction*%
%TD*%
M02*
