%TF.GenerationSoftware,KiCad,Pcbnew,(6.0.0)*%
%TF.CreationDate,2022-03-17T14:10:33-06:00*%
%TF.ProjectId,main-board,6d61696e-2d62-46f6-9172-642e6b696361,rev?*%
%TF.SameCoordinates,Original*%
%TF.FileFunction,Copper,L1,Top*%
%TF.FilePolarity,Positive*%
%FSLAX46Y46*%
G04 Gerber Fmt 4.6, Leading zero omitted, Abs format (unit mm)*
G04 Created by KiCad (PCBNEW (6.0.0)) date 2022-03-17 14:10:33*
%MOMM*%
%LPD*%
G01*
G04 APERTURE LIST*
G04 Aperture macros list*
%AMRoundRect*
0 Rectangle with rounded corners*
0 $1 Rounding radius*
0 $2 $3 $4 $5 $6 $7 $8 $9 X,Y pos of 4 corners*
0 Add a 4 corners polygon primitive as box body*
4,1,4,$2,$3,$4,$5,$6,$7,$8,$9,$2,$3,0*
0 Add four circle primitives for the rounded corners*
1,1,$1+$1,$2,$3*
1,1,$1+$1,$4,$5*
1,1,$1+$1,$6,$7*
1,1,$1+$1,$8,$9*
0 Add four rect primitives between the rounded corners*
20,1,$1+$1,$2,$3,$4,$5,0*
20,1,$1+$1,$4,$5,$6,$7,0*
20,1,$1+$1,$6,$7,$8,$9,0*
20,1,$1+$1,$8,$9,$2,$3,0*%
G04 Aperture macros list end*
%TA.AperFunction,SMDPad,CuDef*%
%ADD10RoundRect,0.250000X0.250000X0.475000X-0.250000X0.475000X-0.250000X-0.475000X0.250000X-0.475000X0*%
%TD*%
%TA.AperFunction,ComponentPad*%
%ADD11C,0.800000*%
%TD*%
%TA.AperFunction,ComponentPad*%
%ADD12C,6.400000*%
%TD*%
%TA.AperFunction,ComponentPad*%
%ADD13R,2.000000X1.905000*%
%TD*%
%TA.AperFunction,ComponentPad*%
%ADD14O,2.000000X1.905000*%
%TD*%
%TA.AperFunction,ComponentPad*%
%ADD15R,3.000000X3.000000*%
%TD*%
%TA.AperFunction,ComponentPad*%
%ADD16C,3.000000*%
%TD*%
%TA.AperFunction,SMDPad,CuDef*%
%ADD17RoundRect,0.250000X-0.312500X-0.625000X0.312500X-0.625000X0.312500X0.625000X-0.312500X0.625000X0*%
%TD*%
%TA.AperFunction,SMDPad,CuDef*%
%ADD18R,1.200000X0.900000*%
%TD*%
%TA.AperFunction,ComponentPad*%
%ADD19R,1.980000X1.980000*%
%TD*%
%TA.AperFunction,ComponentPad*%
%ADD20C,1.980000*%
%TD*%
%TA.AperFunction,ComponentPad*%
%ADD21C,1.935000*%
%TD*%
%TA.AperFunction,ComponentPad*%
%ADD22C,2.300000*%
%TD*%
%TA.AperFunction,SMDPad,CuDef*%
%ADD23RoundRect,0.250000X-0.475000X0.250000X-0.475000X-0.250000X0.475000X-0.250000X0.475000X0.250000X0*%
%TD*%
%TA.AperFunction,SMDPad,CuDef*%
%ADD24RoundRect,0.250000X0.450000X-0.262500X0.450000X0.262500X-0.450000X0.262500X-0.450000X-0.262500X0*%
%TD*%
%TA.AperFunction,SMDPad,CuDef*%
%ADD25R,2.000000X0.640000*%
%TD*%
%TA.AperFunction,SMDPad,CuDef*%
%ADD26R,0.800000X1.500000*%
%TD*%
%TA.AperFunction,SMDPad,CuDef*%
%ADD27R,1.500000X0.800000*%
%TD*%
%TA.AperFunction,SMDPad,CuDef*%
%ADD28R,4.800000X4.800000*%
%TD*%
%TA.AperFunction,SMDPad,CuDef*%
%ADD29RoundRect,0.150000X0.150000X-0.587500X0.150000X0.587500X-0.150000X0.587500X-0.150000X-0.587500X0*%
%TD*%
%TA.AperFunction,SMDPad,CuDef*%
%ADD30RoundRect,0.250000X-0.450000X0.262500X-0.450000X-0.262500X0.450000X-0.262500X0.450000X0.262500X0*%
%TD*%
%TA.AperFunction,SMDPad,CuDef*%
%ADD31R,0.450000X0.750000*%
%TD*%
%TA.AperFunction,SMDPad,CuDef*%
%ADD32R,1.740000X1.350000*%
%TD*%
%TA.AperFunction,SMDPad,CuDef*%
%ADD33R,2.000000X1.780000*%
%TD*%
%TA.AperFunction,SMDPad,CuDef*%
%ADD34RoundRect,0.250000X-0.325000X-0.650000X0.325000X-0.650000X0.325000X0.650000X-0.325000X0.650000X0*%
%TD*%
%TA.AperFunction,SMDPad,CuDef*%
%ADD35O,3.000000X1.700000*%
%TD*%
%TA.AperFunction,SMDPad,CuDef*%
%ADD36RoundRect,0.250000X0.262500X0.450000X-0.262500X0.450000X-0.262500X-0.450000X0.262500X-0.450000X0*%
%TD*%
%TA.AperFunction,SMDPad,CuDef*%
%ADD37RoundRect,0.250000X0.475000X-0.250000X0.475000X0.250000X-0.475000X0.250000X-0.475000X-0.250000X0*%
%TD*%
%TA.AperFunction,ViaPad*%
%ADD38C,0.800000*%
%TD*%
%TA.AperFunction,Conductor*%
%ADD39C,0.500000*%
%TD*%
%TA.AperFunction,Conductor*%
%ADD40C,0.300000*%
%TD*%
%TA.AperFunction,Conductor*%
%ADD41C,1.000000*%
%TD*%
%TA.AperFunction,Conductor*%
%ADD42C,2.000000*%
%TD*%
%TA.AperFunction,Conductor*%
%ADD43C,1.500000*%
%TD*%
%TA.AperFunction,Conductor*%
%ADD44C,0.250000*%
%TD*%
G04 APERTURE END LIST*
D10*
%TO.P,C4,1*%
%TO.N,+3V3*%
X100296000Y-77806000D03*
%TO.P,C4,2*%
%TO.N,GND*%
X98396000Y-77806000D03*
%TD*%
D11*
%TO.P,REF\u002A\u002A,1*%
%TO.N,N/C*%
X81697056Y-80302944D03*
X78302944Y-80302944D03*
D12*
X80000000Y-82000000D03*
D11*
X81697056Y-83697056D03*
X82400000Y-82000000D03*
X78302944Y-83697056D03*
X80000000Y-79600000D03*
X77600000Y-82000000D03*
X80000000Y-84400000D03*
%TD*%
D13*
%TO.P,Q2,1,A1*%
%TO.N,NEUT*%
X147680000Y-78360000D03*
D14*
%TO.P,Q2,2,A2*%
%TO.N,Net-(J3-Pad2)*%
X147680000Y-80900000D03*
%TO.P,Q2,3,G*%
%TO.N,Net-(Q2-Pad3)*%
X147680000Y-83440000D03*
%TD*%
D15*
%TO.P,J2,1,Pin_1*%
%TO.N,Net-(J2-Pad1)*%
X156360000Y-57730000D03*
D16*
%TO.P,J2,2,Pin_2*%
%TO.N,NEUT*%
X156360000Y-52650000D03*
%TD*%
D17*
%TO.P,R1,1*%
%TO.N,NEUT*%
X83877500Y-52040000D03*
%TO.P,R1,2*%
%TO.N,Net-(R1-Pad2)*%
X86802500Y-52040000D03*
%TD*%
D18*
%TO.P,D1,1,K*%
%TO.N,+5V*%
X129620000Y-61430000D03*
%TO.P,D1,2,A*%
%TO.N,Net-(D1-Pad2)*%
X129620000Y-64730000D03*
%TD*%
D19*
%TO.P,K1,A1*%
%TO.N,+5V*%
X135392500Y-51790000D03*
D20*
%TO.P,K1,A2*%
%TO.N,Net-(D1-Pad2)*%
X135392500Y-63790000D03*
D21*
%TO.P,K1,COM*%
%TO.N,Net-(J2-Pad1)*%
X133392500Y-57790000D03*
D20*
%TO.P,K1,NC*%
%TO.N,unconnected-(K1-PadNC)*%
X147592500Y-51790000D03*
%TO.P,K1,NO*%
%TO.N,LINE*%
X147592500Y-63790000D03*
%TD*%
D11*
%TO.P,REF\u002A\u002A,1*%
%TO.N,N/C*%
X88500000Y-42600000D03*
D12*
X88500000Y-45000000D03*
D11*
X90197056Y-43302944D03*
X88500000Y-47400000D03*
X86802944Y-43302944D03*
X86100000Y-45000000D03*
X90900000Y-45000000D03*
X90197056Y-46697056D03*
X86802944Y-46697056D03*
%TD*%
D17*
%TO.P,R7,1*%
%TO.N,Net-(C1-Pad1)*%
X141687500Y-80950000D03*
%TO.P,R7,2*%
%TO.N,Net-(J3-Pad2)*%
X144612500Y-80950000D03*
%TD*%
D11*
%TO.P,REF\u002A\u002A,1*%
%TO.N,N/C*%
X141302944Y-68302944D03*
X145400000Y-70000000D03*
X143000000Y-67600000D03*
X140600000Y-70000000D03*
X141302944Y-71697056D03*
X144697056Y-68302944D03*
D12*
X143000000Y-70000000D03*
D11*
X143000000Y-72400000D03*
X144697056Y-71697056D03*
%TD*%
D22*
%TO.P,F1,1*%
%TO.N,Net-(F1-Pad1)*%
X71600000Y-67550000D03*
X71600000Y-62950000D03*
%TO.P,F1,2*%
%TO.N,LINE*%
X71600000Y-83450000D03*
X71600000Y-78850000D03*
%TD*%
D15*
%TO.P,J3,1,Pin_1*%
%TO.N,LINE*%
X156250000Y-77710000D03*
D16*
%TO.P,J3,2,Pin_2*%
%TO.N,Net-(J3-Pad2)*%
X156250000Y-82790000D03*
%TD*%
D15*
%TO.P,J1,1,Pin_1*%
%TO.N,NEUT*%
X72150000Y-44160000D03*
D16*
%TO.P,J1,2,Pin_2*%
%TO.N,Net-(F1-Pad1)*%
X72150000Y-49240000D03*
%TD*%
D23*
%TO.P,C3,1*%
%TO.N,+3V3*%
X92920000Y-56700000D03*
%TO.P,C3,2*%
%TO.N,GND*%
X92920000Y-58600000D03*
%TD*%
D17*
%TO.P,R2,1*%
%TO.N,LINE*%
X83877500Y-55650000D03*
%TO.P,R2,2*%
%TO.N,Net-(R2-Pad2)*%
X86802500Y-55650000D03*
%TD*%
D24*
%TO.P,R3,1*%
%TO.N,/ZeroDetector*%
X98570000Y-54102000D03*
%TO.P,R3,2*%
%TO.N,+3V3*%
X98570000Y-52277000D03*
%TD*%
D25*
%TO.P,U1,1*%
%TO.N,Net-(R1-Pad2)*%
X89960000Y-52410000D03*
%TO.P,U1,2*%
%TO.N,Net-(R2-Pad2)*%
X89960000Y-54950000D03*
%TO.P,U1,3*%
%TO.N,GND*%
X96260000Y-54950000D03*
%TO.P,U1,4*%
%TO.N,/ZeroDetector*%
X96260000Y-52410000D03*
%TD*%
D26*
%TO.P,U4,1*%
%TO.N,N/C*%
X92800000Y-74530000D03*
%TO.P,U4,2*%
X94050000Y-74530000D03*
%TO.P,U4,3*%
X95300000Y-74530000D03*
%TO.P,U4,4*%
X96550000Y-74530000D03*
%TO.P,U4,5*%
X97800000Y-74530000D03*
D27*
%TO.P,U4,6,GND*%
%TO.N,GND*%
X99300000Y-73030000D03*
%TO.P,U4,7,VDD*%
%TO.N,+3V3*%
X99300000Y-71780000D03*
%TO.P,U4,8*%
%TO.N,N/C*%
X99300000Y-70530000D03*
%TO.P,U4,9,SCL*%
%TO.N,/SCL*%
X99300000Y-69280000D03*
%TO.P,U4,10,SDA*%
%TO.N,/SDA*%
X99300000Y-68030000D03*
D26*
%TO.P,U4,11*%
%TO.N,N/C*%
X97800000Y-66530000D03*
%TO.P,U4,12*%
X96550000Y-66530000D03*
%TO.P,U4,13*%
X95300000Y-66530000D03*
%TO.P,U4,14*%
X94050000Y-66530000D03*
%TO.P,U4,15*%
X92800000Y-66530000D03*
D27*
%TO.P,U4,16*%
X91300000Y-68030000D03*
%TO.P,U4,17*%
X91300000Y-69280000D03*
%TO.P,U4,18*%
X91300000Y-70530000D03*
%TO.P,U4,19,VDDH*%
%TO.N,+3V3*%
X91300000Y-71780000D03*
%TO.P,U4,20,GND_2*%
%TO.N,GND*%
X91300000Y-73030000D03*
D28*
%TO.P,U4,21,GND_3*%
X95300000Y-70530000D03*
%TD*%
D23*
%TO.P,C2,1*%
%TO.N,+3V3*%
X88330000Y-71770000D03*
%TO.P,C2,2*%
%TO.N,GND*%
X88330000Y-73670000D03*
%TD*%
D29*
%TO.P,Q1,1,B*%
%TO.N,Net-(Q1-Pad1)*%
X128680000Y-68477500D03*
%TO.P,Q1,2,E*%
%TO.N,GND*%
X130580000Y-68477500D03*
%TO.P,Q1,3,C*%
%TO.N,Net-(D1-Pad2)*%
X129630000Y-66602500D03*
%TD*%
D30*
%TO.P,R5,1*%
%TO.N,/ControlSignal2*%
X124500000Y-79037500D03*
%TO.P,R5,2*%
%TO.N,Net-(R5-Pad2)*%
X124500000Y-80862500D03*
%TD*%
D31*
%TO.P,U5,1,VDD*%
%TO.N,Net-(C5-Pad1)*%
X95795000Y-60870000D03*
%TO.P,U5,2,VSS*%
%TO.N,GND*%
X94995000Y-60870000D03*
%TO.P,U5,3,SDA*%
%TO.N,/SDA*%
X94195000Y-60870000D03*
%TO.P,U5,4,N/A*%
%TO.N,GND*%
X94195000Y-63370000D03*
%TO.P,U5,5,VDDH*%
%TO.N,Net-(C5-Pad1)*%
X94995000Y-63370000D03*
%TO.P,U5,6,SCL*%
%TO.N,/SCL*%
X95795000Y-63370000D03*
D32*
%TO.P,U5,7,EP*%
%TO.N,GND*%
X94995000Y-62120000D03*
%TD*%
D33*
%TO.P,U3,1*%
%TO.N,Net-(R5-Pad2)*%
X127120000Y-80990000D03*
%TO.P,U3,2*%
%TO.N,GND*%
X127120000Y-83530000D03*
%TO.P,U3,3*%
%TO.N,Net-(Q2-Pad3)*%
X134740000Y-83530000D03*
%TO.P,U3,4*%
%TO.N,Net-(R6-Pad1)*%
X134740000Y-80990000D03*
%TD*%
D24*
%TO.P,R8,1*%
%TO.N,Net-(C5-Pad1)*%
X94910000Y-58542500D03*
%TO.P,R8,2*%
%TO.N,+3V3*%
X94910000Y-56717500D03*
%TD*%
D17*
%TO.P,R6,1*%
%TO.N,Net-(R6-Pad1)*%
X137077500Y-80950000D03*
%TO.P,R6,2*%
%TO.N,Net-(C1-Pad1)*%
X140002500Y-80950000D03*
%TD*%
D34*
%TO.P,C1,1*%
%TO.N,Net-(C1-Pad1)*%
X141725000Y-77440000D03*
%TO.P,C1,2*%
%TO.N,NEUT*%
X144675000Y-77440000D03*
%TD*%
D35*
%TO.P,U2,1,1*%
%TO.N,unconnected-(U2-Pad1)*%
X103745000Y-45383000D03*
%TO.P,U2,2,2*%
%TO.N,+3V3*%
X103745000Y-47923000D03*
%TO.P,U2,3,3*%
%TO.N,unconnected-(U2-Pad3)*%
X103745000Y-50463000D03*
%TO.P,U2,4,4*%
%TO.N,unconnected-(U2-Pad4)*%
X103745000Y-53003000D03*
%TO.P,U2,5,5*%
%TO.N,/ZeroDetector*%
X103745000Y-55543000D03*
%TO.P,U2,6,6*%
%TO.N,unconnected-(U2-Pad6)*%
X103745000Y-58083000D03*
%TO.P,U2,7,7*%
%TO.N,unconnected-(U2-Pad7)*%
X103745000Y-60623000D03*
%TO.P,U2,8,8*%
%TO.N,/SDA*%
X103745000Y-63163000D03*
%TO.P,U2,9,9*%
%TO.N,/SCL*%
X103745000Y-65703000D03*
%TO.P,U2,10,10*%
%TO.N,unconnected-(U2-Pad10)*%
X103745000Y-68243000D03*
%TO.P,U2,11,11*%
%TO.N,unconnected-(U2-Pad11)*%
X103745000Y-70783000D03*
%TO.P,U2,12,12*%
%TO.N,unconnected-(U2-Pad12)*%
X103745000Y-73323000D03*
%TO.P,U2,13,13*%
%TO.N,unconnected-(U2-Pad13)*%
X103745000Y-75863000D03*
%TO.P,U2,14,14*%
%TO.N,GND*%
X103745000Y-78403000D03*
%TO.P,U2,15,15*%
%TO.N,+5V*%
X103745000Y-80943000D03*
%TO.P,U2,16,16*%
%TO.N,unconnected-(U2-Pad16)*%
X120255000Y-80943000D03*
%TO.P,U2,17,17*%
%TO.N,unconnected-(U2-Pad17)*%
X120255000Y-78403000D03*
%TO.P,U2,18,18*%
%TO.N,/RST*%
X120255000Y-75863000D03*
%TO.P,U2,19,19*%
%TO.N,GND*%
X120255000Y-73323000D03*
%TO.P,U2,20,20*%
%TO.N,/ControlSignal2*%
X120255000Y-70783000D03*
%TO.P,U2,21,21*%
%TO.N,/ControlSignal1*%
X120255000Y-68243000D03*
%TO.P,U2,22,22*%
%TO.N,unconnected-(U2-Pad22)*%
X120255000Y-65703000D03*
%TO.P,U2,23,23*%
%TO.N,unconnected-(U2-Pad23)*%
X120255000Y-63163000D03*
%TO.P,U2,24,24*%
%TO.N,unconnected-(U2-Pad24)*%
X120255000Y-60623000D03*
%TO.P,U2,25,25*%
%TO.N,unconnected-(U2-Pad25)*%
X120255000Y-58083000D03*
%TO.P,U2,26,26*%
%TO.N,unconnected-(U2-Pad26)*%
X120255000Y-55543000D03*
%TO.P,U2,27,27*%
%TO.N,unconnected-(U2-Pad27)*%
X120255000Y-53003000D03*
%TO.P,U2,28,28*%
%TO.N,unconnected-(U2-Pad28)*%
X120255000Y-50463000D03*
%TO.P,U2,29,29*%
%TO.N,unconnected-(U2-Pad29)*%
X120255000Y-47923000D03*
%TO.P,U2,30,30*%
%TO.N,unconnected-(U2-Pad30)*%
X120255000Y-45383000D03*
%TD*%
D11*
%TO.P,REF\u002A\u002A,1*%
%TO.N,N/C*%
X141302944Y-43302944D03*
X143000000Y-47400000D03*
X141302944Y-46697056D03*
X144697056Y-43302944D03*
X143000000Y-42600000D03*
D12*
X143000000Y-45000000D03*
D11*
X145400000Y-45000000D03*
X144697056Y-46697056D03*
X140600000Y-45000000D03*
%TD*%
D36*
%TO.P,R4,1*%
%TO.N,/ControlSignal1*%
X130452500Y-70630000D03*
%TO.P,R4,2*%
%TO.N,Net-(Q1-Pad1)*%
X128627500Y-70630000D03*
%TD*%
D37*
%TO.P,C5,1*%
%TO.N,Net-(C5-Pad1)*%
X96890000Y-58600000D03*
%TO.P,C5,2*%
%TO.N,GND*%
X96890000Y-56700000D03*
%TD*%
D15*
%TO.P,PS1,1,AC/L*%
%TO.N,LINE*%
X80320000Y-74150000D03*
D16*
%TO.P,PS1,2,AC/N*%
%TO.N,NEUT*%
X80320000Y-53350000D03*
%TO.P,PS1,3,-Vo*%
%TO.N,GND*%
X125320000Y-53350000D03*
%TO.P,PS1,4,+Vo*%
%TO.N,+5V*%
X125320000Y-61350000D03*
%TD*%
D38*
%TO.N,+5V*%
X117370000Y-61340000D03*
%TO.N,GND*%
X88300000Y-79070000D03*
X112000000Y-51000000D03*
X132200000Y-66350000D03*
X99300000Y-56710000D03*
X110000000Y-51000000D03*
X123000000Y-74750000D03*
X132150000Y-68400000D03*
X122950000Y-72200000D03*
X132150000Y-70200000D03*
X108000000Y-51000000D03*
X114000000Y-51000000D03*
X116000000Y-51000000D03*
X88320000Y-77490000D03*
X88320000Y-75600000D03*
X99270000Y-58560000D03*
%TO.N,/SCL*%
X96390000Y-64640000D03*
X101340000Y-65950000D03*
%TO.N,/SDA*%
X93250000Y-60830000D03*
X99390000Y-65990000D03*
%TO.N,Net-(C5-Pad1)*%
X95020000Y-64690000D03*
X96490000Y-59720000D03*
%TD*%
D39*
%TO.N,+5V*%
X125320000Y-61350000D02*
X129540000Y-61350000D01*
X116567000Y-80943000D02*
X117370000Y-80140000D01*
X130380000Y-51790000D02*
X135392500Y-51790000D01*
X129620000Y-61430000D02*
X129620000Y-52550000D01*
X129620000Y-52550000D02*
X130380000Y-51790000D01*
X117370000Y-77090000D02*
X117370000Y-61340000D01*
X103745000Y-80943000D02*
X116567000Y-80943000D01*
X117370000Y-80140000D02*
X117370000Y-77090000D01*
X129540000Y-61350000D02*
X129620000Y-61430000D01*
%TO.N,Net-(D1-Pad2)*%
X130560000Y-63790000D02*
X130110000Y-64240000D01*
X135392500Y-63790000D02*
X130560000Y-63790000D01*
D40*
X129620000Y-66592500D02*
X129630000Y-66602500D01*
D39*
X130110000Y-64240000D02*
X129630000Y-64720000D01*
D40*
X129620000Y-64730000D02*
X129620000Y-66592500D01*
D39*
X129630000Y-64720000D02*
X129630000Y-66602500D01*
X130110000Y-64240000D02*
X129620000Y-64730000D01*
D41*
%TO.N,NEUT*%
X145865000Y-77805000D02*
X145500000Y-77440000D01*
D42*
X78110000Y-44160000D02*
X80320000Y-46370000D01*
D41*
X81630000Y-52040000D02*
X80320000Y-53350000D01*
D43*
X150510000Y-78360000D02*
X151780000Y-77090000D01*
D41*
X146420000Y-78360000D02*
X145865000Y-77805000D01*
D43*
X151780000Y-53950000D02*
X153080000Y-52650000D01*
X147680000Y-78360000D02*
X150510000Y-78360000D01*
D41*
X145500000Y-77440000D02*
X144675000Y-77440000D01*
D43*
X151780000Y-77090000D02*
X151780000Y-53950000D01*
D42*
X72150000Y-44160000D02*
X78110000Y-44160000D01*
D41*
X147680000Y-78360000D02*
X146420000Y-78360000D01*
D43*
X153080000Y-52650000D02*
X156360000Y-52650000D01*
D41*
X83877500Y-52040000D02*
X81630000Y-52040000D01*
D42*
X80320000Y-46370000D02*
X80320000Y-53350000D01*
D43*
%TO.N,LINE*%
X80320000Y-74150000D02*
X80320000Y-58090000D01*
X80320000Y-58090000D02*
X82760000Y-55650000D01*
X82760000Y-55650000D02*
X83877500Y-55650000D01*
D39*
%TO.N,GND*%
X97800000Y-73030000D02*
X95300000Y-70530000D01*
X99300000Y-73030000D02*
X97800000Y-73030000D01*
X99300000Y-76902000D02*
X98396000Y-77806000D01*
D40*
X122910000Y-72160000D02*
X122950000Y-72200000D01*
X132072500Y-68477500D02*
X132150000Y-68400000D01*
X88330000Y-73670000D02*
X88330000Y-75590000D01*
X88320000Y-79050000D02*
X88300000Y-79070000D01*
X88320000Y-77490000D02*
X88320000Y-79050000D01*
X99290000Y-56700000D02*
X99300000Y-56710000D01*
D39*
X92800000Y-73030000D02*
X95300000Y-70530000D01*
D40*
X96890000Y-56700000D02*
X99290000Y-56700000D01*
X94995000Y-60870000D02*
X94995000Y-60205000D01*
X94995000Y-60205000D02*
X93390000Y-58600000D01*
X130580000Y-68477500D02*
X132072500Y-68477500D01*
D39*
X91300000Y-73030000D02*
X92800000Y-73030000D01*
D40*
X88330000Y-75590000D02*
X88320000Y-75600000D01*
D39*
X99300000Y-73030000D02*
X99300000Y-76902000D01*
D40*
X93390000Y-58600000D02*
X92920000Y-58600000D01*
X94995000Y-60870000D02*
X94995000Y-62120000D01*
X96890000Y-55580000D02*
X96260000Y-54950000D01*
X132150000Y-68400000D02*
X132150000Y-70200000D01*
X96890000Y-56700000D02*
X96890000Y-55580000D01*
D39*
%TO.N,Net-(Q1-Pad1)*%
X128680000Y-68477500D02*
X128680000Y-70577500D01*
X128680000Y-70577500D02*
X128627500Y-70630000D01*
%TO.N,Net-(R1-Pad2)*%
X89590000Y-52040000D02*
X89960000Y-52410000D01*
X86802500Y-52040000D02*
X89590000Y-52040000D01*
%TO.N,Net-(R2-Pad2)*%
X89260000Y-55650000D02*
X89960000Y-54950000D01*
X86802500Y-55650000D02*
X89260000Y-55650000D01*
D40*
%TO.N,/ZeroDetector*%
X96800000Y-53550000D02*
X96290000Y-53040000D01*
X98570000Y-54102000D02*
X98848000Y-54380000D01*
X96290000Y-52440000D02*
X96260000Y-52410000D01*
X98570000Y-55170000D02*
X98570000Y-54102000D01*
X98570000Y-54102000D02*
X98192000Y-54102000D01*
X103745000Y-55543000D02*
X98943000Y-55543000D01*
X96290000Y-53040000D02*
X96290000Y-52440000D01*
X98192000Y-54102000D02*
X97640000Y-53550000D01*
X97640000Y-53550000D02*
X96800000Y-53550000D01*
X98943000Y-55543000D02*
X98570000Y-55170000D01*
D39*
%TO.N,+3V3*%
X88340000Y-71780000D02*
X88330000Y-71770000D01*
X88330000Y-67490000D02*
X89030000Y-66790000D01*
X95247000Y-47923000D02*
X94530000Y-48640000D01*
X99300000Y-80600000D02*
X87070000Y-80600000D01*
X101357000Y-47923000D02*
X98677000Y-47923000D01*
X98677000Y-48443000D02*
X98677000Y-47923000D01*
X86070000Y-72800000D02*
X86070000Y-72290000D01*
X100780000Y-72270000D02*
X100780000Y-77322000D01*
X94892500Y-56700000D02*
X94910000Y-56717500D01*
X88270000Y-71830000D02*
X88330000Y-71770000D01*
X101357000Y-47923000D02*
X103745000Y-47923000D01*
X98677000Y-47923000D02*
X97903000Y-47923000D01*
X98570000Y-52277000D02*
X98570000Y-49040000D01*
X87070000Y-80600000D02*
X86070000Y-79600000D01*
X98570000Y-49040000D02*
X98570000Y-48590000D01*
X98570000Y-48550000D02*
X98677000Y-48443000D01*
X92920000Y-56700000D02*
X93720000Y-56700000D01*
X97903000Y-47923000D02*
X95247000Y-47923000D01*
X94910000Y-56717500D02*
X94530000Y-56337500D01*
X100290000Y-71780000D02*
X100780000Y-72270000D01*
X86070000Y-72290000D02*
X86530000Y-71830000D01*
X98570000Y-48550000D02*
X99197000Y-47923000D01*
X89030000Y-66790000D02*
X90760000Y-66790000D01*
X94530000Y-56337500D02*
X94530000Y-48640000D01*
X91300000Y-71780000D02*
X88340000Y-71780000D01*
X99197000Y-47923000D02*
X101357000Y-47923000D01*
X90760000Y-66790000D02*
X91080000Y-66470000D01*
X98570000Y-48590000D02*
X97903000Y-47923000D01*
X88330000Y-71770000D02*
X88330000Y-67490000D01*
X99300000Y-71780000D02*
X100290000Y-71780000D01*
X100780000Y-77322000D02*
X100296000Y-77806000D01*
X100296000Y-79604000D02*
X99300000Y-80600000D01*
X86070000Y-79600000D02*
X86070000Y-72800000D01*
X98570000Y-49040000D02*
X98570000Y-48550000D01*
X91080000Y-66470000D02*
X91080000Y-57210000D01*
X86530000Y-71830000D02*
X88270000Y-71830000D01*
X91590000Y-56700000D02*
X92920000Y-56700000D01*
X93720000Y-56700000D02*
X94892500Y-56700000D01*
X91080000Y-57210000D02*
X91590000Y-56700000D01*
X100296000Y-77806000D02*
X100296000Y-79604000D01*
D40*
%TO.N,/ControlSignal1*%
X125150000Y-69750000D02*
X125150000Y-68750000D01*
X125150000Y-68750000D02*
X124630000Y-68230000D01*
X125850000Y-73550000D02*
X129650000Y-73550000D01*
X130452500Y-72747500D02*
X130452500Y-70630000D01*
X124617000Y-68243000D02*
X120255000Y-68243000D01*
X129650000Y-73550000D02*
X130452500Y-72747500D01*
X125150000Y-69750000D02*
X125150000Y-72850000D01*
X124630000Y-68230000D02*
X124617000Y-68243000D01*
X125150000Y-72850000D02*
X125850000Y-73550000D01*
D44*
%TO.N,/SCL*%
X101340000Y-68990000D02*
X101340000Y-65950000D01*
X99300000Y-69280000D02*
X101050000Y-69280000D01*
D40*
X103498000Y-65950000D02*
X103745000Y-65703000D01*
X95795000Y-64045000D02*
X96390000Y-64640000D01*
X101340000Y-65950000D02*
X103498000Y-65950000D01*
X95795000Y-63370000D02*
X95795000Y-64045000D01*
D44*
X101050000Y-69280000D02*
X101340000Y-68990000D01*
D40*
%TO.N,/SDA*%
X99390000Y-65990000D02*
X99390000Y-63930000D01*
X93290000Y-60870000D02*
X93250000Y-60830000D01*
X99390000Y-67940000D02*
X99300000Y-68030000D01*
X99390000Y-65990000D02*
X99390000Y-67940000D01*
X94195000Y-60870000D02*
X93290000Y-60870000D01*
X99390000Y-63930000D02*
X100157000Y-63163000D01*
X100157000Y-63163000D02*
X103745000Y-63163000D01*
%TO.N,/ControlSignal2*%
X124500000Y-71668000D02*
X123615000Y-70783000D01*
X124500000Y-76494000D02*
X124500000Y-71668000D01*
X123615000Y-70783000D02*
X120255000Y-70783000D01*
X124500000Y-79037500D02*
X124500000Y-76494000D01*
D41*
%TO.N,Net-(C1-Pad1)*%
X141725000Y-80912500D02*
X141687500Y-80950000D01*
X141687500Y-80950000D02*
X140002500Y-80950000D01*
X141725000Y-77440000D02*
X141725000Y-80912500D01*
D43*
%TO.N,Net-(J3-Pad2)*%
X152500000Y-82790000D02*
X156250000Y-82790000D01*
X147680000Y-80900000D02*
X150610000Y-80900000D01*
D41*
X147630000Y-80950000D02*
X147680000Y-80900000D01*
D43*
X152105000Y-82395000D02*
X152500000Y-82790000D01*
X150610000Y-80900000D02*
X152105000Y-82395000D01*
D41*
X144612500Y-80950000D02*
X147630000Y-80950000D01*
%TO.N,Net-(Q2-Pad3)*%
X134740000Y-83530000D02*
X147590000Y-83530000D01*
X147590000Y-83530000D02*
X147680000Y-83440000D01*
D39*
%TO.N,Net-(R5-Pad2)*%
X127120000Y-80990000D02*
X124840000Y-80990000D01*
X124840000Y-80990000D02*
X124780000Y-80930000D01*
D41*
%TO.N,Net-(R6-Pad1)*%
X137077500Y-80950000D02*
X134780000Y-80950000D01*
X134780000Y-80950000D02*
X134740000Y-80990000D01*
D40*
%TO.N,Net-(C5-Pad1)*%
X96490000Y-59720000D02*
X96080000Y-59720000D01*
X95795000Y-60185000D02*
X95795000Y-60005000D01*
X96490000Y-59720000D02*
X96087500Y-59720000D01*
X95795000Y-60870000D02*
X95795000Y-60185000D01*
X94995000Y-64665000D02*
X95020000Y-64690000D01*
D39*
X94967500Y-58600000D02*
X94910000Y-58542500D01*
D40*
X94995000Y-63370000D02*
X94995000Y-64665000D01*
D39*
X96890000Y-58600000D02*
X94967500Y-58600000D01*
D40*
X95795000Y-59645000D02*
X95795000Y-59427500D01*
X95870000Y-59720000D02*
X95795000Y-59645000D01*
X95795000Y-60005000D02*
X96080000Y-59720000D01*
X96087500Y-59720000D02*
X95795000Y-59427500D01*
X96080000Y-59720000D02*
X95870000Y-59720000D01*
X95795000Y-60185000D02*
X95795000Y-59645000D01*
X95795000Y-59427500D02*
X94910000Y-58542500D01*
%TD*%
%TA.AperFunction,Conductor*%
%TO.N,GND*%
G36*
X132942121Y-64760502D02*
G01*
X132988614Y-64814158D01*
X133000000Y-64866500D01*
X133000000Y-85174000D01*
X132979998Y-85242121D01*
X132926342Y-85288614D01*
X132874000Y-85300000D01*
X121666000Y-85300000D01*
X121597879Y-85279998D01*
X121551386Y-85226342D01*
X121540000Y-85174000D01*
X121540000Y-84464669D01*
X125612001Y-84464669D01*
X125612371Y-84471490D01*
X125617895Y-84522352D01*
X125621521Y-84537604D01*
X125666676Y-84658054D01*
X125675214Y-84673649D01*
X125751715Y-84775724D01*
X125764276Y-84788285D01*
X125866351Y-84864786D01*
X125881946Y-84873324D01*
X126002394Y-84918478D01*
X126017649Y-84922105D01*
X126068514Y-84927631D01*
X126075328Y-84928000D01*
X126847885Y-84928000D01*
X126863124Y-84923525D01*
X126864329Y-84922135D01*
X126866000Y-84914452D01*
X126866000Y-84909884D01*
X127374000Y-84909884D01*
X127378475Y-84925123D01*
X127379865Y-84926328D01*
X127387548Y-84927999D01*
X128164669Y-84927999D01*
X128171490Y-84927629D01*
X128222352Y-84922105D01*
X128237604Y-84918479D01*
X128358054Y-84873324D01*
X128373649Y-84864786D01*
X128475724Y-84788285D01*
X128488285Y-84775724D01*
X128564786Y-84673649D01*
X128573324Y-84658054D01*
X128618478Y-84537606D01*
X128622105Y-84522351D01*
X128627631Y-84471486D01*
X128628000Y-84464672D01*
X128628000Y-83802115D01*
X128623525Y-83786876D01*
X128622135Y-83785671D01*
X128614452Y-83784000D01*
X127392115Y-83784000D01*
X127376876Y-83788475D01*
X127375671Y-83789865D01*
X127374000Y-83797548D01*
X127374000Y-84909884D01*
X126866000Y-84909884D01*
X126866000Y-83802115D01*
X126861525Y-83786876D01*
X126860135Y-83785671D01*
X126852452Y-83784000D01*
X125630116Y-83784000D01*
X125614877Y-83788475D01*
X125613672Y-83789865D01*
X125612001Y-83797548D01*
X125612001Y-84464669D01*
X121540000Y-84464669D01*
X121540000Y-82441294D01*
X121560002Y-82373173D01*
X121616763Y-82325313D01*
X121625677Y-82321529D01*
X121629962Y-82318831D01*
X121629967Y-82318828D01*
X121743297Y-82247460D01*
X121836808Y-82188573D01*
X121934923Y-82102073D01*
X122020168Y-82026920D01*
X122020171Y-82026917D01*
X122023965Y-82023572D01*
X122031663Y-82014201D01*
X122052820Y-81988444D01*
X122182334Y-81830770D01*
X122307840Y-81615128D01*
X122324105Y-81572758D01*
X122395443Y-81386915D01*
X122397255Y-81382195D01*
X122401538Y-81361696D01*
X122447243Y-81142915D01*
X122448278Y-81137961D01*
X122450784Y-81082787D01*
X122455716Y-80974148D01*
X122459596Y-80888712D01*
X122430919Y-80640860D01*
X122362983Y-80400781D01*
X122289294Y-80242753D01*
X122259675Y-80179234D01*
X122259673Y-80179230D01*
X122257538Y-80174652D01*
X122230506Y-80134875D01*
X122158984Y-80029635D01*
X122117294Y-79968290D01*
X121993164Y-79837026D01*
X121949344Y-79790688D01*
X121949343Y-79790687D01*
X121945862Y-79787006D01*
X121925221Y-79771225D01*
X121883255Y-79713960D01*
X121878910Y-79643097D01*
X121918427Y-79576616D01*
X121920517Y-79574774D01*
X121989560Y-79513904D01*
X122020168Y-79486920D01*
X122020171Y-79486917D01*
X122023965Y-79483572D01*
X122182334Y-79290770D01*
X122307840Y-79075128D01*
X122328663Y-79020884D01*
X122381303Y-78883751D01*
X122397255Y-78842195D01*
X122404623Y-78806930D01*
X122447243Y-78602915D01*
X122448278Y-78597961D01*
X122459596Y-78348712D01*
X122458117Y-78335924D01*
X122431501Y-78105890D01*
X122430919Y-78100860D01*
X122423191Y-78073548D01*
X122375106Y-77903624D01*
X122362983Y-77860781D01*
X122302692Y-77731485D01*
X122259675Y-77639234D01*
X122259673Y-77639230D01*
X122257538Y-77634652D01*
X122237073Y-77604538D01*
X122201368Y-77552000D01*
X122117294Y-77428290D01*
X121945862Y-77247006D01*
X121925221Y-77231225D01*
X121883255Y-77173960D01*
X121878910Y-77103097D01*
X121918427Y-77036616D01*
X121920517Y-77034774D01*
X121986963Y-76976194D01*
X122020168Y-76946920D01*
X122020171Y-76946917D01*
X122023965Y-76943572D01*
X122182334Y-76750770D01*
X122307840Y-76535128D01*
X122342851Y-76443923D01*
X122395443Y-76306915D01*
X122397255Y-76302195D01*
X122448278Y-76057961D01*
X122451796Y-75980500D01*
X122458210Y-75839234D01*
X122459596Y-75808712D01*
X122448049Y-75708907D01*
X122431501Y-75565890D01*
X122430919Y-75560860D01*
X122362983Y-75320781D01*
X122257538Y-75094652D01*
X122117294Y-74888290D01*
X121945862Y-74707006D01*
X121922814Y-74689384D01*
X121771954Y-74574043D01*
X121729986Y-74516778D01*
X121725641Y-74445915D01*
X121761511Y-74382778D01*
X121921900Y-74229772D01*
X121928941Y-74221814D01*
X122060141Y-74045475D01*
X122065745Y-74036438D01*
X122165357Y-73840516D01*
X122169357Y-73830665D01*
X122234534Y-73620760D01*
X122236817Y-73610376D01*
X122238861Y-73594957D01*
X122236665Y-73580793D01*
X122223478Y-73577000D01*
X120127000Y-73577000D01*
X120058879Y-73556998D01*
X120012386Y-73503342D01*
X120001000Y-73451000D01*
X120001000Y-73195000D01*
X120021002Y-73126879D01*
X120074658Y-73080386D01*
X120127000Y-73069000D01*
X122221192Y-73069000D01*
X122234723Y-73065027D01*
X122236248Y-73054420D01*
X122211523Y-72936579D01*
X122208463Y-72926383D01*
X122127737Y-72721971D01*
X122123006Y-72712439D01*
X122008984Y-72524538D01*
X122002720Y-72515948D01*
X121858673Y-72349948D01*
X121851048Y-72342533D01*
X121763510Y-72270756D01*
X121723516Y-72212096D01*
X121721585Y-72141125D01*
X121758330Y-72080377D01*
X121776260Y-72066702D01*
X121832527Y-72031269D01*
X121832528Y-72031268D01*
X121836808Y-72028573D01*
X121904471Y-71968920D01*
X122020168Y-71866920D01*
X122020171Y-71866917D01*
X122023965Y-71863572D01*
X122175144Y-71679523D01*
X122233838Y-71639581D01*
X122272508Y-71633500D01*
X123210520Y-71633500D01*
X123278641Y-71653502D01*
X123299615Y-71670404D01*
X123612595Y-71983383D01*
X123646620Y-72045696D01*
X123649500Y-72072479D01*
X123649500Y-77835503D01*
X123629498Y-77903624D01*
X123581876Y-77947164D01*
X123571387Y-77952648D01*
X123524070Y-77977385D01*
X123519127Y-77981416D01*
X123519123Y-77981419D01*
X123379369Y-78095400D01*
X123374429Y-78099429D01*
X123252385Y-78249070D01*
X123162923Y-78420194D01*
X123109698Y-78605813D01*
X123109165Y-78611786D01*
X123105130Y-78657000D01*
X123099500Y-78720076D01*
X123099500Y-79354924D01*
X123099749Y-79357711D01*
X123099749Y-79357717D01*
X123104019Y-79405559D01*
X123109698Y-79469187D01*
X123111351Y-79474951D01*
X123161136Y-79648573D01*
X123162923Y-79654806D01*
X123184389Y-79695866D01*
X123230044Y-79783195D01*
X123252385Y-79825930D01*
X123256416Y-79830872D01*
X123288625Y-79870365D01*
X123316178Y-79935797D01*
X123303982Y-80005738D01*
X123288625Y-80029635D01*
X123252385Y-80074070D01*
X123249432Y-80079718D01*
X123249431Y-80079720D01*
X123241267Y-80095336D01*
X123162923Y-80245194D01*
X123161166Y-80251322D01*
X123161165Y-80251324D01*
X123148417Y-80295783D01*
X123109698Y-80430813D01*
X123099500Y-80545076D01*
X123099500Y-81179924D01*
X123099749Y-81182711D01*
X123099749Y-81182717D01*
X123105756Y-81250014D01*
X123109698Y-81294187D01*
X123122626Y-81339271D01*
X123157425Y-81460631D01*
X123162923Y-81479806D01*
X123252385Y-81650930D01*
X123256414Y-81655870D01*
X123256416Y-81655873D01*
X123337878Y-81755755D01*
X123374429Y-81800571D01*
X123379369Y-81804600D01*
X123518056Y-81917710D01*
X123524070Y-81922615D01*
X123529718Y-81925568D01*
X123529720Y-81925569D01*
X123579086Y-81951377D01*
X123695194Y-82012077D01*
X123701322Y-82013834D01*
X123701324Y-82013835D01*
X123735282Y-82023572D01*
X123880813Y-82065302D01*
X123913096Y-82068183D01*
X123992283Y-82075251D01*
X123992289Y-82075251D01*
X123995076Y-82075500D01*
X125004924Y-82075500D01*
X125007711Y-82075251D01*
X125007717Y-82075251D01*
X125086904Y-82068183D01*
X125119187Y-82065302D01*
X125264718Y-82023572D01*
X125298972Y-82013750D01*
X125369967Y-82014201D01*
X125429448Y-82052963D01*
X125453935Y-82097188D01*
X125476873Y-82170383D01*
X125564703Y-82315408D01*
X125605104Y-82355809D01*
X125639130Y-82418121D01*
X125633991Y-82489134D01*
X125621519Y-82522402D01*
X125617895Y-82537643D01*
X125612369Y-82588514D01*
X125612000Y-82595328D01*
X125612000Y-83257885D01*
X125616475Y-83273124D01*
X125617865Y-83274329D01*
X125625548Y-83276000D01*
X128609884Y-83276000D01*
X128625123Y-83271525D01*
X128626328Y-83270135D01*
X128627999Y-83262452D01*
X128627999Y-82595331D01*
X128627629Y-82588510D01*
X128622105Y-82537650D01*
X128618479Y-82522396D01*
X128606009Y-82489134D01*
X128600826Y-82418327D01*
X128634896Y-82355809D01*
X128675297Y-82315408D01*
X128763127Y-82170383D01*
X128813829Y-82008594D01*
X128820500Y-81935993D01*
X128820499Y-80044008D01*
X128813829Y-79971406D01*
X128802670Y-79935797D01*
X128765399Y-79816866D01*
X128765398Y-79816864D01*
X128763127Y-79809617D01*
X128675297Y-79664592D01*
X128555408Y-79544703D01*
X128410383Y-79456873D01*
X128403136Y-79454602D01*
X128403134Y-79454601D01*
X128337894Y-79434156D01*
X128248594Y-79406171D01*
X128175993Y-79399500D01*
X128173095Y-79399500D01*
X127117261Y-79399501D01*
X126064008Y-79399501D01*
X126061148Y-79399764D01*
X126061143Y-79399764D01*
X126049254Y-79400856D01*
X126038027Y-79401888D01*
X125968363Y-79388202D01*
X125917156Y-79339025D01*
X125900500Y-79276416D01*
X125900500Y-78720076D01*
X125894871Y-78657000D01*
X125890835Y-78611786D01*
X125890302Y-78605813D01*
X125837077Y-78420194D01*
X125747615Y-78249070D01*
X125625571Y-78099429D01*
X125620631Y-78095400D01*
X125480877Y-77981419D01*
X125480873Y-77981416D01*
X125475930Y-77977385D01*
X125428613Y-77952648D01*
X125418124Y-77947164D01*
X125367022Y-77897878D01*
X125350500Y-77835503D01*
X125350500Y-74454800D01*
X125370502Y-74386679D01*
X125424158Y-74340186D01*
X125494432Y-74330082D01*
X125532525Y-74341941D01*
X125548481Y-74349862D01*
X125548485Y-74349864D01*
X125554592Y-74352895D01*
X125561208Y-74354545D01*
X125564126Y-74355618D01*
X125564553Y-74355796D01*
X125564730Y-74355858D01*
X125565185Y-74355992D01*
X125568111Y-74356988D01*
X125574297Y-74359873D01*
X125580951Y-74361360D01*
X125580953Y-74361361D01*
X125621278Y-74370374D01*
X125652868Y-74377435D01*
X125655850Y-74378141D01*
X125727269Y-74395948D01*
X125727274Y-74395949D01*
X125733893Y-74397599D01*
X125740712Y-74397789D01*
X125743790Y-74398211D01*
X125744729Y-74398380D01*
X125749585Y-74399054D01*
X125754637Y-74400183D01*
X125760307Y-74400500D01*
X125835999Y-74400500D01*
X125839518Y-74400549D01*
X125918611Y-74402758D01*
X125925317Y-74401479D01*
X125932114Y-74400932D01*
X125932157Y-74401466D01*
X125942357Y-74400500D01*
X129608938Y-74400500D01*
X129619479Y-74400942D01*
X129670902Y-74405260D01*
X129677662Y-74404358D01*
X129677666Y-74404358D01*
X129750659Y-74394619D01*
X129753713Y-74394249D01*
X129826928Y-74386295D01*
X129826931Y-74386294D01*
X129833709Y-74385558D01*
X129840169Y-74383384D01*
X129843217Y-74382714D01*
X129843678Y-74382633D01*
X129843829Y-74382597D01*
X129844288Y-74382464D01*
X129847307Y-74381722D01*
X129854069Y-74380820D01*
X129860479Y-74378487D01*
X129860483Y-74378486D01*
X129929671Y-74353303D01*
X129932577Y-74352285D01*
X130002377Y-74328795D01*
X130002379Y-74328794D01*
X130008848Y-74326617D01*
X130014702Y-74323100D01*
X130017514Y-74321800D01*
X130017957Y-74321618D01*
X130018116Y-74321542D01*
X130018534Y-74321314D01*
X130021303Y-74319951D01*
X130027715Y-74317618D01*
X130033473Y-74313964D01*
X130033479Y-74313961D01*
X130095644Y-74274510D01*
X130098263Y-74272892D01*
X130161393Y-74234959D01*
X130161395Y-74234958D01*
X130167244Y-74231443D01*
X130172203Y-74226754D01*
X130174682Y-74224872D01*
X130175459Y-74224332D01*
X130179369Y-74221375D01*
X130183738Y-74218602D01*
X130187972Y-74214817D01*
X130241478Y-74161311D01*
X130244000Y-74158858D01*
X130296549Y-74109165D01*
X130296551Y-74109163D01*
X130301507Y-74104476D01*
X130305341Y-74098834D01*
X130309767Y-74093634D01*
X130310171Y-74093978D01*
X130316707Y-74086082D01*
X131024856Y-73377933D01*
X131032623Y-73370790D01*
X131066827Y-73341885D01*
X131072040Y-73337480D01*
X131120926Y-73273540D01*
X131122817Y-73271129D01*
X131168955Y-73213746D01*
X131168961Y-73213736D01*
X131173230Y-73208427D01*
X131176260Y-73202323D01*
X131177931Y-73199710D01*
X131178201Y-73199324D01*
X131178302Y-73199161D01*
X131178522Y-73198762D01*
X131180139Y-73196092D01*
X131184277Y-73190680D01*
X131187158Y-73184503D01*
X131187161Y-73184497D01*
X131218287Y-73117748D01*
X131219621Y-73114975D01*
X131252363Y-73049016D01*
X131255395Y-73042908D01*
X131257045Y-73036292D01*
X131258118Y-73033374D01*
X131258296Y-73032947D01*
X131258358Y-73032770D01*
X131258492Y-73032315D01*
X131259488Y-73029390D01*
X131262373Y-73023203D01*
X131279933Y-72944642D01*
X131280642Y-72941645D01*
X131295953Y-72880234D01*
X131300099Y-72863606D01*
X131300289Y-72856784D01*
X131300710Y-72853714D01*
X131300878Y-72852785D01*
X131301554Y-72847916D01*
X131302683Y-72842863D01*
X131303000Y-72837193D01*
X131303000Y-72761500D01*
X131303049Y-72757982D01*
X131303258Y-72750502D01*
X131305258Y-72678889D01*
X131303979Y-72672183D01*
X131303432Y-72665386D01*
X131303966Y-72665343D01*
X131303000Y-72655143D01*
X131303000Y-71886822D01*
X131323002Y-71818701D01*
X131349364Y-71789179D01*
X131385631Y-71759600D01*
X131390571Y-71755571D01*
X131423957Y-71714636D01*
X131508584Y-71610873D01*
X131508586Y-71610870D01*
X131512615Y-71605930D01*
X131602077Y-71434806D01*
X131655302Y-71249187D01*
X131665500Y-71134924D01*
X131665500Y-70125076D01*
X131664233Y-70110872D01*
X131656247Y-70021400D01*
X131655302Y-70010813D01*
X131602077Y-69825194D01*
X131537896Y-69702428D01*
X131515569Y-69659720D01*
X131515568Y-69659718D01*
X131512615Y-69654070D01*
X131490543Y-69627006D01*
X131394600Y-69509369D01*
X131390571Y-69504429D01*
X131368962Y-69486805D01*
X131328814Y-69428250D01*
X131326697Y-69357285D01*
X131332960Y-69339124D01*
X131340892Y-69320793D01*
X131383269Y-69174935D01*
X131385570Y-69162333D01*
X131387807Y-69133916D01*
X131388000Y-69128986D01*
X131388000Y-68749615D01*
X131383525Y-68734376D01*
X131382135Y-68733171D01*
X131374452Y-68731500D01*
X130452000Y-68731500D01*
X130383879Y-68711498D01*
X130337386Y-68657842D01*
X130326000Y-68605500D01*
X130326000Y-68349500D01*
X130346002Y-68281379D01*
X130399658Y-68234886D01*
X130452000Y-68223500D01*
X131369884Y-68223500D01*
X131385123Y-68219025D01*
X131386328Y-68217635D01*
X131387999Y-68209952D01*
X131387999Y-67826017D01*
X131387805Y-67821080D01*
X131385570Y-67792664D01*
X131383270Y-67780069D01*
X131340893Y-67634210D01*
X131334648Y-67619779D01*
X131258089Y-67490322D01*
X131248449Y-67477896D01*
X131142104Y-67371551D01*
X131129678Y-67361911D01*
X131000221Y-67285352D01*
X130985790Y-67279107D01*
X130839935Y-67236731D01*
X130827333Y-67234430D01*
X130798916Y-67232193D01*
X130793986Y-67232000D01*
X130756500Y-67232000D01*
X130688379Y-67211998D01*
X130641886Y-67158342D01*
X130630500Y-67106000D01*
X130630500Y-65941434D01*
X130629644Y-65928868D01*
X130627978Y-65904441D01*
X130627600Y-65898893D01*
X130626232Y-65893403D01*
X130617544Y-65858561D01*
X130620472Y-65787625D01*
X130656656Y-65736545D01*
X130655408Y-65735297D01*
X130775297Y-65615408D01*
X130863127Y-65470383D01*
X130866864Y-65458460D01*
X130911828Y-65314978D01*
X130913829Y-65308594D01*
X130920500Y-65235993D01*
X130920500Y-64866500D01*
X130940502Y-64798379D01*
X130994158Y-64751886D01*
X131046500Y-64740500D01*
X132874000Y-64740500D01*
X132942121Y-64760502D01*
G37*
%TD.AperFunction*%
%TA.AperFunction,Conductor*%
G36*
X132942121Y-41720002D02*
G01*
X132988614Y-41773658D01*
X133000000Y-41826000D01*
X133000000Y-50713500D01*
X132979998Y-50781621D01*
X132926342Y-50828114D01*
X132874000Y-50839500D01*
X130395416Y-50839500D01*
X130391898Y-50839451D01*
X130316408Y-50837342D01*
X130316406Y-50837342D01*
X130310027Y-50837164D01*
X130303742Y-50838272D01*
X130303732Y-50838273D01*
X130253818Y-50847075D01*
X130244678Y-50848344D01*
X130205350Y-50852339D01*
X130194239Y-50853467D01*
X130194238Y-50853467D01*
X130187890Y-50854112D01*
X130172242Y-50859016D01*
X130162186Y-50862167D01*
X130146387Y-50866019D01*
X130142144Y-50866767D01*
X130119863Y-50870696D01*
X130066793Y-50891708D01*
X130058111Y-50894782D01*
X130003627Y-50911856D01*
X129998055Y-50914945D01*
X129998045Y-50914949D01*
X129980058Y-50924920D01*
X129965357Y-50931869D01*
X129940324Y-50941780D01*
X129934979Y-50945278D01*
X129892569Y-50973030D01*
X129884670Y-50977795D01*
X129834739Y-51005472D01*
X129829890Y-51009628D01*
X129814286Y-51023002D01*
X129801283Y-51032765D01*
X129778746Y-51047513D01*
X129774032Y-51051758D01*
X129737247Y-51088543D01*
X129730150Y-51095116D01*
X129688125Y-51131136D01*
X129670400Y-51153986D01*
X129659942Y-51165848D01*
X128958811Y-51866979D01*
X128956290Y-51869431D01*
X128896765Y-51925721D01*
X128864026Y-51972478D01*
X128858467Y-51979829D01*
X128822385Y-52024070D01*
X128819427Y-52029728D01*
X128809905Y-52047942D01*
X128801462Y-52061829D01*
X128786009Y-52083898D01*
X128763331Y-52136305D01*
X128759377Y-52144593D01*
X128732923Y-52195194D01*
X128731163Y-52201332D01*
X128725498Y-52221087D01*
X128720015Y-52236400D01*
X128711857Y-52255251D01*
X128711855Y-52255256D01*
X128709320Y-52261115D01*
X128697645Y-52317000D01*
X128695439Y-52325916D01*
X128679697Y-52380813D01*
X128679208Y-52387170D01*
X128677630Y-52407678D01*
X128675339Y-52423772D01*
X128669832Y-52450133D01*
X128669500Y-52456468D01*
X128669500Y-52508494D01*
X128669129Y-52518158D01*
X128664883Y-52573342D01*
X128665683Y-52579674D01*
X128668506Y-52602021D01*
X128669500Y-52617813D01*
X128669500Y-60273500D01*
X128649498Y-60341621D01*
X128595842Y-60388114D01*
X128543500Y-60399500D01*
X127383143Y-60399500D01*
X127315022Y-60379498D01*
X127270137Y-60329229D01*
X127245451Y-60279171D01*
X127229778Y-60247389D01*
X127118454Y-60080781D01*
X127071813Y-60010977D01*
X127071809Y-60010972D01*
X127069520Y-60007546D01*
X127066806Y-60004452D01*
X127066802Y-60004446D01*
X126882036Y-59793762D01*
X126879327Y-59790673D01*
X126839220Y-59755500D01*
X126665554Y-59603198D01*
X126665548Y-59603194D01*
X126662454Y-59600480D01*
X126659028Y-59598191D01*
X126659023Y-59598187D01*
X126462696Y-59467006D01*
X126422611Y-59440222D01*
X126418912Y-59438398D01*
X126418907Y-59438395D01*
X126167597Y-59314463D01*
X126167595Y-59314462D01*
X126163902Y-59312641D01*
X126049136Y-59273683D01*
X125894663Y-59221246D01*
X125894659Y-59221245D01*
X125890753Y-59219919D01*
X125886709Y-59219115D01*
X125886703Y-59219113D01*
X125611882Y-59164448D01*
X125611879Y-59164448D01*
X125607839Y-59163644D01*
X125603728Y-59163375D01*
X125603724Y-59163374D01*
X125324119Y-59145048D01*
X125320000Y-59144778D01*
X125315881Y-59145048D01*
X125036276Y-59163374D01*
X125036272Y-59163375D01*
X125032161Y-59163644D01*
X125028121Y-59164448D01*
X125028118Y-59164448D01*
X124753297Y-59219113D01*
X124753291Y-59219115D01*
X124749247Y-59219919D01*
X124745341Y-59221245D01*
X124745337Y-59221246D01*
X124590864Y-59273683D01*
X124476098Y-59312641D01*
X124472405Y-59314462D01*
X124472403Y-59314463D01*
X124221093Y-59438395D01*
X124221088Y-59438398D01*
X124217389Y-59440222D01*
X124177304Y-59467006D01*
X123980977Y-59598187D01*
X123980972Y-59598191D01*
X123977546Y-59600480D01*
X123974452Y-59603194D01*
X123974446Y-59603198D01*
X123800780Y-59755500D01*
X123760673Y-59790673D01*
X123757964Y-59793762D01*
X123573198Y-60004446D01*
X123573194Y-60004452D01*
X123570480Y-60007546D01*
X123568191Y-60010972D01*
X123568187Y-60010977D01*
X123521546Y-60080781D01*
X123410222Y-60247389D01*
X123408398Y-60251087D01*
X123408395Y-60251093D01*
X123284906Y-60501505D01*
X123282641Y-60506098D01*
X123281318Y-60509996D01*
X123281317Y-60509998D01*
X123202167Y-60743167D01*
X123189919Y-60779247D01*
X123189115Y-60783291D01*
X123189113Y-60783297D01*
X123145433Y-61002894D01*
X123133644Y-61062161D01*
X123133375Y-61066272D01*
X123133374Y-61066276D01*
X123118180Y-61298095D01*
X123114778Y-61350000D01*
X123115048Y-61354119D01*
X123128006Y-61551815D01*
X123133644Y-61637839D01*
X123134448Y-61641879D01*
X123134448Y-61641882D01*
X123186887Y-61905508D01*
X123189919Y-61920753D01*
X123191245Y-61924659D01*
X123191246Y-61924663D01*
X123274657Y-62170383D01*
X123282641Y-62193902D01*
X123284462Y-62197595D01*
X123284463Y-62197597D01*
X123406508Y-62445079D01*
X123410222Y-62452611D01*
X123412516Y-62456044D01*
X123543763Y-62652469D01*
X123570480Y-62692454D01*
X123573194Y-62695548D01*
X123573198Y-62695554D01*
X123745218Y-62891704D01*
X123760673Y-62909327D01*
X123763762Y-62912036D01*
X123974446Y-63096802D01*
X123974452Y-63096806D01*
X123977546Y-63099520D01*
X123980972Y-63101809D01*
X123980977Y-63101813D01*
X124076813Y-63165848D01*
X124217389Y-63259778D01*
X124221088Y-63261602D01*
X124221093Y-63261605D01*
X124426530Y-63362915D01*
X124476098Y-63387359D01*
X124479996Y-63388682D01*
X124479998Y-63388683D01*
X124745337Y-63478754D01*
X124745341Y-63478755D01*
X124749247Y-63480081D01*
X124753291Y-63480885D01*
X124753297Y-63480887D01*
X125028118Y-63535552D01*
X125028121Y-63535552D01*
X125032161Y-63536356D01*
X125036272Y-63536625D01*
X125036276Y-63536626D01*
X125315881Y-63554952D01*
X125320000Y-63555222D01*
X125324119Y-63554952D01*
X125603724Y-63536626D01*
X125603728Y-63536625D01*
X125607839Y-63536356D01*
X125611879Y-63535552D01*
X125611882Y-63535552D01*
X125886703Y-63480887D01*
X125886709Y-63480885D01*
X125890753Y-63480081D01*
X125894659Y-63478755D01*
X125894663Y-63478754D01*
X126160002Y-63388683D01*
X126160004Y-63388682D01*
X126163902Y-63387359D01*
X126213470Y-63362915D01*
X126418907Y-63261605D01*
X126418912Y-63261602D01*
X126422611Y-63259778D01*
X126563187Y-63165848D01*
X126659023Y-63101813D01*
X126659028Y-63101809D01*
X126662454Y-63099520D01*
X126665548Y-63096806D01*
X126665554Y-63096802D01*
X126876238Y-62912036D01*
X126879327Y-62909327D01*
X126894782Y-62891704D01*
X127066802Y-62695554D01*
X127066806Y-62695548D01*
X127069520Y-62692454D01*
X127096238Y-62652469D01*
X127227484Y-62456044D01*
X127229778Y-62452611D01*
X127270137Y-62370771D01*
X127318206Y-62318522D01*
X127383143Y-62300500D01*
X128397605Y-62300500D01*
X128465726Y-62320502D01*
X128486700Y-62337405D01*
X128584592Y-62435297D01*
X128729617Y-62523127D01*
X128736864Y-62525398D01*
X128736866Y-62525399D01*
X128802106Y-62545844D01*
X128891406Y-62573829D01*
X128964007Y-62580500D01*
X128966905Y-62580500D01*
X129621702Y-62580499D01*
X130275992Y-62580499D01*
X130278850Y-62580236D01*
X130278859Y-62580236D01*
X130315123Y-62576904D01*
X130348594Y-62573829D01*
X130354979Y-62571828D01*
X130503134Y-62525399D01*
X130503136Y-62525398D01*
X130510383Y-62523127D01*
X130655408Y-62435297D01*
X130775297Y-62315408D01*
X130863127Y-62170383D01*
X130913829Y-62008594D01*
X130920500Y-61935993D01*
X130920499Y-60924008D01*
X130913829Y-60851406D01*
X130911830Y-60845027D01*
X130865399Y-60696866D01*
X130865398Y-60696864D01*
X130863127Y-60689617D01*
X130775297Y-60544592D01*
X130655408Y-60424703D01*
X130631229Y-60410059D01*
X130583323Y-60357664D01*
X130570500Y-60302284D01*
X130570500Y-52995900D01*
X130590502Y-52927779D01*
X130607405Y-52906805D01*
X130736805Y-52777405D01*
X130799117Y-52743379D01*
X130825900Y-52740500D01*
X132874000Y-52740500D01*
X132942121Y-52760502D01*
X132988614Y-52814158D01*
X133000000Y-52866500D01*
X133000000Y-56072396D01*
X132979998Y-56140517D01*
X132926342Y-56187010D01*
X132909261Y-56193361D01*
X132806716Y-56223250D01*
X132581570Y-56327044D01*
X132551379Y-56346838D01*
X132378152Y-56460410D01*
X132378147Y-56460414D01*
X132374239Y-56462976D01*
X132301127Y-56528231D01*
X132217739Y-56602658D01*
X132189277Y-56628061D01*
X132179479Y-56639842D01*
X132042442Y-56804612D01*
X132030748Y-56818672D01*
X132028325Y-56822665D01*
X131918554Y-57003562D01*
X131902134Y-57030621D01*
X131900330Y-57034924D01*
X131900327Y-57034930D01*
X131814471Y-57239674D01*
X131806261Y-57259252D01*
X131805110Y-57263784D01*
X131805109Y-57263787D01*
X131787073Y-57334806D01*
X131745235Y-57499543D01*
X131720396Y-57746214D01*
X131720620Y-57750880D01*
X131720620Y-57750885D01*
X131726704Y-57877541D01*
X131732291Y-57993848D01*
X131780658Y-58237003D01*
X131864434Y-58470339D01*
X131981779Y-58688729D01*
X132130115Y-58887375D01*
X132133424Y-58890655D01*
X132133429Y-58890661D01*
X132268896Y-59024951D01*
X132306183Y-59061914D01*
X132309945Y-59064672D01*
X132309948Y-59064675D01*
X132449393Y-59166920D01*
X132506116Y-59208511D01*
X132510247Y-59210685D01*
X132510248Y-59210685D01*
X132721387Y-59321770D01*
X132721393Y-59321772D01*
X132725522Y-59323945D01*
X132729930Y-59325484D01*
X132729936Y-59325487D01*
X132858204Y-59370280D01*
X132894351Y-59382903D01*
X132915541Y-59390303D01*
X132973259Y-59431645D01*
X132999462Y-59497629D01*
X133000000Y-59509258D01*
X133000000Y-62713500D01*
X132979998Y-62781621D01*
X132926342Y-62828114D01*
X132874000Y-62839500D01*
X130575431Y-62839500D01*
X130571913Y-62839451D01*
X130496410Y-62837342D01*
X130496407Y-62837342D01*
X130490027Y-62837164D01*
X130433808Y-62847077D01*
X130424676Y-62848344D01*
X130367890Y-62854112D01*
X130349015Y-62860027D01*
X130342189Y-62862166D01*
X130326393Y-62866016D01*
X130306153Y-62869585D01*
X130306144Y-62869587D01*
X130299863Y-62870695D01*
X130293930Y-62873044D01*
X130246799Y-62891704D01*
X130238096Y-62894786D01*
X130189718Y-62909947D01*
X130189717Y-62909948D01*
X130183627Y-62911856D01*
X130160060Y-62924919D01*
X130145369Y-62931863D01*
X130127325Y-62939008D01*
X130120324Y-62941780D01*
X130114977Y-62945279D01*
X130072569Y-62973030D01*
X130064670Y-62977795D01*
X130014739Y-63005472D01*
X130009890Y-63009628D01*
X129994286Y-63023002D01*
X129981283Y-63032765D01*
X129958746Y-63047513D01*
X129954032Y-63051758D01*
X129917247Y-63088543D01*
X129910150Y-63095116D01*
X129868125Y-63131136D01*
X129850400Y-63153986D01*
X129839942Y-63165848D01*
X129463194Y-63542596D01*
X129400882Y-63576622D01*
X129374099Y-63579501D01*
X128964008Y-63579501D01*
X128961150Y-63579764D01*
X128961141Y-63579764D01*
X128925757Y-63583015D01*
X128891406Y-63586171D01*
X128885028Y-63588170D01*
X128885027Y-63588170D01*
X128736866Y-63634601D01*
X128736864Y-63634602D01*
X128729617Y-63636873D01*
X128584592Y-63724703D01*
X128464703Y-63844592D01*
X128376873Y-63989617D01*
X128374602Y-63996864D01*
X128374601Y-63996866D01*
X128370343Y-64010453D01*
X128326171Y-64151406D01*
X128319500Y-64224007D01*
X128319501Y-65235992D01*
X128319764Y-65238850D01*
X128319764Y-65238859D01*
X128323015Y-65274243D01*
X128326171Y-65308594D01*
X128328170Y-65314972D01*
X128328170Y-65314973D01*
X128373137Y-65458460D01*
X128376873Y-65470383D01*
X128464703Y-65615408D01*
X128584592Y-65735297D01*
X128591090Y-65739232D01*
X128594677Y-65742045D01*
X128635940Y-65799820D01*
X128639185Y-65871678D01*
X128632400Y-65898893D01*
X128632022Y-65904441D01*
X128630357Y-65928868D01*
X128629500Y-65941434D01*
X128629500Y-66913500D01*
X128609498Y-66981621D01*
X128555842Y-67028114D01*
X128503500Y-67039500D01*
X128456434Y-67039500D01*
X128454299Y-67039646D01*
X128454286Y-67039646D01*
X128430706Y-67041254D01*
X128413893Y-67042400D01*
X128408501Y-67043744D01*
X128408497Y-67043745D01*
X128263603Y-67079872D01*
X128234592Y-67087105D01*
X128228485Y-67090136D01*
X128228481Y-67090138D01*
X128211971Y-67098334D01*
X128069074Y-67169269D01*
X127925060Y-67285060D01*
X127809269Y-67429074D01*
X127783832Y-67480316D01*
X127730138Y-67588481D01*
X127730136Y-67588485D01*
X127727105Y-67594592D01*
X127725454Y-67601214D01*
X127685739Y-67760502D01*
X127682400Y-67773893D01*
X127679500Y-67816434D01*
X127679500Y-69138566D01*
X127682400Y-69181107D01*
X127683744Y-69186499D01*
X127683745Y-69186503D01*
X127694466Y-69229500D01*
X127722856Y-69343364D01*
X127725757Y-69355001D01*
X127729500Y-69385483D01*
X127729500Y-69413079D01*
X127709498Y-69481200D01*
X127693364Y-69501220D01*
X127689429Y-69504429D01*
X127685400Y-69509369D01*
X127589458Y-69627006D01*
X127567385Y-69654070D01*
X127564432Y-69659718D01*
X127564431Y-69659720D01*
X127542104Y-69702428D01*
X127477923Y-69825194D01*
X127424698Y-70010813D01*
X127423753Y-70021400D01*
X127415768Y-70110872D01*
X127414500Y-70125076D01*
X127414500Y-71134924D01*
X127424698Y-71249187D01*
X127477923Y-71434806D01*
X127567385Y-71605930D01*
X127571414Y-71610870D01*
X127571416Y-71610873D01*
X127656043Y-71714636D01*
X127689429Y-71755571D01*
X127694369Y-71759600D01*
X127825957Y-71866920D01*
X127839070Y-71877615D01*
X127844718Y-71880568D01*
X127844720Y-71880569D01*
X127887156Y-71902754D01*
X128010194Y-71967077D01*
X128016322Y-71968834D01*
X128016324Y-71968835D01*
X128112679Y-71996464D01*
X128195813Y-72020302D01*
X128227129Y-72023097D01*
X128307283Y-72030251D01*
X128307289Y-72030251D01*
X128310076Y-72030500D01*
X128944924Y-72030500D01*
X128947711Y-72030251D01*
X128947717Y-72030251D01*
X129027871Y-72023097D01*
X129059187Y-72020302D01*
X129142321Y-71996464D01*
X129238676Y-71968835D01*
X129238678Y-71968834D01*
X129244806Y-71967077D01*
X129415930Y-71877615D01*
X129417060Y-71879777D01*
X129474520Y-71862169D01*
X129542871Y-71881369D01*
X129589991Y-71934475D01*
X129602000Y-71988160D01*
X129602000Y-72343020D01*
X129581998Y-72411141D01*
X129565096Y-72432115D01*
X129334617Y-72662595D01*
X129272304Y-72696620D01*
X129245521Y-72699500D01*
X126254478Y-72699500D01*
X126186357Y-72679498D01*
X126165383Y-72662595D01*
X126037405Y-72534617D01*
X126003379Y-72472305D01*
X126000500Y-72445522D01*
X126000500Y-68791062D01*
X126000942Y-68780518D01*
X126004689Y-68735895D01*
X126005260Y-68729098D01*
X125999632Y-68686915D01*
X125994619Y-68649341D01*
X125994249Y-68646287D01*
X125986295Y-68573072D01*
X125986294Y-68573069D01*
X125985558Y-68566291D01*
X125983384Y-68559831D01*
X125982714Y-68556783D01*
X125982633Y-68556322D01*
X125982597Y-68556171D01*
X125982464Y-68555712D01*
X125981722Y-68552693D01*
X125980820Y-68545931D01*
X125978487Y-68539521D01*
X125978486Y-68539517D01*
X125953303Y-68470329D01*
X125952285Y-68467423D01*
X125928795Y-68397623D01*
X125928794Y-68397621D01*
X125926617Y-68391152D01*
X125923100Y-68385298D01*
X125921800Y-68382486D01*
X125921618Y-68382043D01*
X125921542Y-68381884D01*
X125921314Y-68381466D01*
X125919951Y-68378697D01*
X125917618Y-68372285D01*
X125913964Y-68366527D01*
X125913961Y-68366521D01*
X125874510Y-68304356D01*
X125872892Y-68301737D01*
X125834959Y-68238607D01*
X125834958Y-68238605D01*
X125831443Y-68232756D01*
X125826754Y-68227797D01*
X125824872Y-68225318D01*
X125824332Y-68224541D01*
X125821373Y-68220628D01*
X125818602Y-68216262D01*
X125814817Y-68212028D01*
X125761312Y-68158524D01*
X125758859Y-68156002D01*
X125704476Y-68098493D01*
X125698831Y-68094657D01*
X125693635Y-68090235D01*
X125693978Y-68089831D01*
X125686080Y-68083292D01*
X125288219Y-67685431D01*
X125274863Y-67669683D01*
X125271742Y-67665324D01*
X125271740Y-67665322D01*
X125267766Y-67659771D01*
X125262693Y-67655203D01*
X125262691Y-67655201D01*
X125217935Y-67614903D01*
X125213150Y-67610362D01*
X125198751Y-67595963D01*
X125184200Y-67584264D01*
X125178851Y-67579712D01*
X125135511Y-67540688D01*
X125130440Y-67536122D01*
X125118414Y-67529290D01*
X125101705Y-67517935D01*
X125090927Y-67509269D01*
X125032590Y-67480311D01*
X125026397Y-67477018D01*
X124969766Y-67444847D01*
X124956544Y-67440754D01*
X124937797Y-67433256D01*
X124925407Y-67427105D01*
X124911971Y-67423755D01*
X124862233Y-67411354D01*
X124855457Y-67409462D01*
X124799758Y-67392220D01*
X124799752Y-67392219D01*
X124793240Y-67390203D01*
X124786446Y-67389633D01*
X124786443Y-67389632D01*
X124779461Y-67389046D01*
X124759527Y-67385746D01*
X124752726Y-67384050D01*
X124752720Y-67384049D01*
X124746106Y-67382400D01*
X124698844Y-67381080D01*
X124681015Y-67380582D01*
X124673990Y-67380189D01*
X124630878Y-67376569D01*
X124609098Y-67374740D01*
X124602338Y-67375642D01*
X124602337Y-67375642D01*
X124595391Y-67376569D01*
X124575208Y-67377627D01*
X124561389Y-67377241D01*
X124527144Y-67383774D01*
X124497433Y-67389441D01*
X124490494Y-67390565D01*
X124484290Y-67391393D01*
X124467626Y-67392500D01*
X122268420Y-67392500D01*
X122200299Y-67372498D01*
X122164208Y-67337322D01*
X122157309Y-67327170D01*
X122117294Y-67268290D01*
X121945862Y-67087006D01*
X121925221Y-67071225D01*
X121883255Y-67013960D01*
X121878910Y-66943097D01*
X121918427Y-66876616D01*
X121920517Y-66874774D01*
X121997415Y-66806979D01*
X122020168Y-66786920D01*
X122020171Y-66786917D01*
X122023965Y-66783572D01*
X122182334Y-66590770D01*
X122307840Y-66375128D01*
X122397255Y-66142195D01*
X122399566Y-66131136D01*
X122447243Y-65902915D01*
X122448278Y-65897961D01*
X122448563Y-65891702D01*
X122455358Y-65742045D01*
X122459596Y-65648712D01*
X122454991Y-65608907D01*
X122431501Y-65405890D01*
X122430919Y-65400860D01*
X122362983Y-65160781D01*
X122279028Y-64980737D01*
X122259675Y-64939234D01*
X122259673Y-64939230D01*
X122257538Y-64934652D01*
X122117294Y-64728290D01*
X121945862Y-64547006D01*
X121925221Y-64531225D01*
X121883255Y-64473960D01*
X121878910Y-64403097D01*
X121918427Y-64336616D01*
X121920517Y-64334774D01*
X121997331Y-64267053D01*
X122020168Y-64246920D01*
X122020171Y-64246917D01*
X122023965Y-64243572D01*
X122182334Y-64050770D01*
X122188058Y-64040936D01*
X122221745Y-63983054D01*
X122307840Y-63835128D01*
X122311840Y-63824709D01*
X122361466Y-63695427D01*
X122397255Y-63602195D01*
X122398759Y-63595000D01*
X122447243Y-63362915D01*
X122448278Y-63357961D01*
X122448847Y-63345445D01*
X122453682Y-63238954D01*
X122459596Y-63108712D01*
X122458533Y-63099520D01*
X122431501Y-62865890D01*
X122430919Y-62860860D01*
X122429010Y-62854112D01*
X122384142Y-62695554D01*
X122362983Y-62620781D01*
X122296423Y-62478041D01*
X122259675Y-62399234D01*
X122259673Y-62399230D01*
X122257538Y-62394652D01*
X122244639Y-62375671D01*
X122189475Y-62294501D01*
X122117294Y-62188290D01*
X121945862Y-62007006D01*
X121925221Y-61991225D01*
X121883255Y-61933960D01*
X121878910Y-61863097D01*
X121918427Y-61796616D01*
X121920517Y-61794774D01*
X121976609Y-61745322D01*
X122020168Y-61706920D01*
X122020171Y-61706917D01*
X122023965Y-61703572D01*
X122182334Y-61510770D01*
X122307840Y-61295128D01*
X122397255Y-61062195D01*
X122425522Y-60926891D01*
X122447243Y-60822915D01*
X122448278Y-60817961D01*
X122449155Y-60798666D01*
X122456775Y-60630837D01*
X122459596Y-60568712D01*
X122457558Y-60551093D01*
X122431501Y-60325890D01*
X122430919Y-60320860D01*
X122425663Y-60302284D01*
X122364360Y-60085648D01*
X122362983Y-60080781D01*
X122257538Y-59854652D01*
X122117294Y-59648290D01*
X121945862Y-59467006D01*
X121925221Y-59451225D01*
X121883255Y-59393960D01*
X121878910Y-59323097D01*
X121918427Y-59256616D01*
X121920517Y-59254774D01*
X121977194Y-59204806D01*
X122020168Y-59166920D01*
X122020171Y-59166917D01*
X122023965Y-59163572D01*
X122182334Y-58970770D01*
X122307840Y-58755128D01*
X122397255Y-58522195D01*
X122407227Y-58474465D01*
X122444117Y-58297878D01*
X122448278Y-58277961D01*
X122449939Y-58241398D01*
X122455868Y-58110813D01*
X122459596Y-58028712D01*
X122455065Y-57989546D01*
X122431501Y-57785890D01*
X122430919Y-57780860D01*
X122362983Y-57540781D01*
X122257538Y-57314652D01*
X122117294Y-57108290D01*
X121945862Y-56927006D01*
X121925221Y-56911225D01*
X121883255Y-56853960D01*
X121878910Y-56783097D01*
X121918427Y-56716616D01*
X121920517Y-56714774D01*
X121948926Y-56689728D01*
X122020168Y-56626920D01*
X122020171Y-56626917D01*
X122023965Y-56623572D01*
X122182334Y-56430770D01*
X122307840Y-56215128D01*
X122326435Y-56166688D01*
X122392333Y-55995016D01*
X122397255Y-55982195D01*
X122399699Y-55970499D01*
X122444276Y-55757116D01*
X122448278Y-55737961D01*
X122448663Y-55729498D01*
X122456306Y-55561165D01*
X122459596Y-55488712D01*
X122444689Y-55359867D01*
X122431501Y-55245890D01*
X122430919Y-55240860D01*
X122427216Y-55227772D01*
X122364360Y-55005648D01*
X122362983Y-55000781D01*
X122334479Y-54939654D01*
X124095618Y-54939654D01*
X124102673Y-54949627D01*
X124133679Y-54975551D01*
X124140598Y-54980579D01*
X124365272Y-55121515D01*
X124372807Y-55125556D01*
X124614520Y-55234694D01*
X124622551Y-55237680D01*
X124876832Y-55313002D01*
X124885184Y-55314869D01*
X125147340Y-55354984D01*
X125155874Y-55355700D01*
X125421045Y-55359867D01*
X125429596Y-55359418D01*
X125692883Y-55327557D01*
X125701284Y-55325955D01*
X125957824Y-55258653D01*
X125965926Y-55255926D01*
X126210949Y-55154434D01*
X126218617Y-55150628D01*
X126447598Y-55016822D01*
X126454679Y-55012009D01*
X126534655Y-54949301D01*
X126543125Y-54937442D01*
X126536608Y-54925818D01*
X125332812Y-53722022D01*
X125318868Y-53714408D01*
X125317035Y-53714539D01*
X125310420Y-53718790D01*
X124102910Y-54926300D01*
X124095618Y-54939654D01*
X122334479Y-54939654D01*
X122257538Y-54774652D01*
X122117294Y-54568290D01*
X122002762Y-54447176D01*
X121949344Y-54390688D01*
X121949343Y-54390687D01*
X121945862Y-54387006D01*
X121925221Y-54371225D01*
X121883255Y-54313960D01*
X121878910Y-54243097D01*
X121918427Y-54176616D01*
X121920517Y-54174774D01*
X122008883Y-54096869D01*
X122020168Y-54086920D01*
X122020171Y-54086917D01*
X122023965Y-54083572D01*
X122182334Y-53890770D01*
X122307840Y-53675128D01*
X122309689Y-53670313D01*
X122383109Y-53479046D01*
X122397255Y-53442195D01*
X122399699Y-53430500D01*
X122420025Y-53333204D01*
X123307665Y-53333204D01*
X123322932Y-53597969D01*
X123324005Y-53606470D01*
X123375065Y-53866722D01*
X123377276Y-53874974D01*
X123463184Y-54125894D01*
X123466499Y-54133779D01*
X123585664Y-54370713D01*
X123590020Y-54378079D01*
X123719347Y-54566250D01*
X123729601Y-54574594D01*
X123743342Y-54567448D01*
X124947978Y-53362812D01*
X124954356Y-53351132D01*
X125684408Y-53351132D01*
X125684539Y-53352965D01*
X125688790Y-53359580D01*
X126895730Y-54566520D01*
X126907939Y-54573187D01*
X126919439Y-54564497D01*
X127016831Y-54431913D01*
X127021418Y-54424685D01*
X127147962Y-54191621D01*
X127151530Y-54183827D01*
X127245271Y-53935750D01*
X127247748Y-53927544D01*
X127306954Y-53669038D01*
X127308294Y-53660577D01*
X127332031Y-53394616D01*
X127332277Y-53389677D01*
X127332666Y-53352485D01*
X127332523Y-53347519D01*
X127314362Y-53081123D01*
X127313201Y-53072649D01*
X127259419Y-52812944D01*
X127257120Y-52804709D01*
X127168588Y-52554705D01*
X127165191Y-52546854D01*
X127043550Y-52311178D01*
X127039122Y-52303866D01*
X126920031Y-52134417D01*
X126909509Y-52126037D01*
X126896121Y-52133089D01*
X125692022Y-53337188D01*
X125684408Y-53351132D01*
X124954356Y-53351132D01*
X124955592Y-53348868D01*
X124955461Y-53347035D01*
X124951210Y-53340420D01*
X123743814Y-52133024D01*
X123731804Y-52126466D01*
X123720064Y-52135434D01*
X123611935Y-52285911D01*
X123607418Y-52293196D01*
X123483325Y-52527567D01*
X123479839Y-52535395D01*
X123388700Y-52784446D01*
X123386311Y-52792670D01*
X123329812Y-53051795D01*
X123328563Y-53060250D01*
X123307754Y-53324653D01*
X123307665Y-53333204D01*
X122420025Y-53333204D01*
X122447243Y-53202915D01*
X122448278Y-53197961D01*
X122448598Y-53190930D01*
X122454945Y-53051137D01*
X122459596Y-52948712D01*
X122454748Y-52906805D01*
X122431501Y-52705890D01*
X122430919Y-52700860D01*
X122362983Y-52460781D01*
X122295922Y-52316968D01*
X122259675Y-52239234D01*
X122259673Y-52239230D01*
X122257538Y-52234652D01*
X122117294Y-52028290D01*
X121964750Y-51866979D01*
X121949344Y-51850688D01*
X121949343Y-51850687D01*
X121945862Y-51847006D01*
X121925221Y-51831225D01*
X121883255Y-51773960D01*
X121882552Y-51762500D01*
X124096584Y-51762500D01*
X124102980Y-51773770D01*
X125307188Y-52977978D01*
X125321132Y-52985592D01*
X125322965Y-52985461D01*
X125329580Y-52981210D01*
X126536604Y-51774186D01*
X126543795Y-51761017D01*
X126536473Y-51750780D01*
X126489233Y-51712115D01*
X126482261Y-51707160D01*
X126256122Y-51568582D01*
X126248552Y-51564624D01*
X126005704Y-51458022D01*
X125997644Y-51455120D01*
X125742592Y-51382467D01*
X125734214Y-51380685D01*
X125471656Y-51343318D01*
X125463111Y-51342691D01*
X125197908Y-51341302D01*
X125189374Y-51341839D01*
X124926433Y-51376456D01*
X124918035Y-51378149D01*
X124662238Y-51448127D01*
X124654143Y-51450946D01*
X124410199Y-51554997D01*
X124402577Y-51558881D01*
X124175013Y-51695075D01*
X124167981Y-51699962D01*
X124105053Y-51750377D01*
X124096584Y-51762500D01*
X121882552Y-51762500D01*
X121878910Y-51703097D01*
X121918427Y-51636616D01*
X121920517Y-51634774D01*
X121995597Y-51568582D01*
X122020168Y-51546920D01*
X122020171Y-51546917D01*
X122023965Y-51543572D01*
X122182334Y-51350770D01*
X122187845Y-51341302D01*
X122224421Y-51278457D01*
X122307840Y-51135128D01*
X122310070Y-51129320D01*
X122382060Y-50941780D01*
X122397255Y-50902195D01*
X122399448Y-50891702D01*
X122447243Y-50662915D01*
X122448278Y-50657961D01*
X122449938Y-50621416D01*
X122454895Y-50512234D01*
X122459596Y-50408712D01*
X122430919Y-50160860D01*
X122362983Y-49920781D01*
X122257538Y-49694652D01*
X122117294Y-49488290D01*
X121945862Y-49307006D01*
X121925221Y-49291225D01*
X121883255Y-49233960D01*
X121878910Y-49163097D01*
X121918427Y-49096616D01*
X121920517Y-49094774D01*
X121989780Y-49033710D01*
X122020168Y-49006920D01*
X122020171Y-49006917D01*
X122023965Y-49003572D01*
X122029524Y-48996805D01*
X122114377Y-48893502D01*
X122182334Y-48810770D01*
X122307840Y-48595128D01*
X122325880Y-48548134D01*
X122395443Y-48366915D01*
X122397255Y-48362195D01*
X122404406Y-48327969D01*
X122447243Y-48122915D01*
X122448278Y-48117961D01*
X122448680Y-48109125D01*
X122454895Y-47972234D01*
X122459596Y-47868712D01*
X122457084Y-47846996D01*
X122431501Y-47625890D01*
X122430919Y-47620860D01*
X122362983Y-47380781D01*
X122288129Y-47220254D01*
X122259675Y-47159234D01*
X122259673Y-47159230D01*
X122257538Y-47154652D01*
X122249367Y-47142628D01*
X122154196Y-47002589D01*
X122117294Y-46948290D01*
X121945862Y-46767006D01*
X121925221Y-46751225D01*
X121883255Y-46693960D01*
X121878910Y-46623097D01*
X121918427Y-46556616D01*
X121920517Y-46554774D01*
X121948864Y-46529782D01*
X122020168Y-46466920D01*
X122020171Y-46466917D01*
X122023965Y-46463572D01*
X122182334Y-46270770D01*
X122307840Y-46055128D01*
X122397255Y-45822195D01*
X122399385Y-45812002D01*
X122447243Y-45582915D01*
X122448278Y-45577961D01*
X122459596Y-45328712D01*
X122430919Y-45080860D01*
X122362983Y-44840781D01*
X122257538Y-44614652D01*
X122117294Y-44408290D01*
X121945862Y-44227006D01*
X121747651Y-44075462D01*
X121527761Y-43957557D01*
X121291848Y-43876326D01*
X121163901Y-43854226D01*
X121049893Y-43834533D01*
X121049887Y-43834532D01*
X121045983Y-43833858D01*
X121042022Y-43833678D01*
X121042021Y-43833678D01*
X121017497Y-43832564D01*
X121017478Y-43832564D01*
X121016078Y-43832500D01*
X119542309Y-43832500D01*
X119539801Y-43832702D01*
X119539796Y-43832702D01*
X119361339Y-43847060D01*
X119361334Y-43847061D01*
X119356298Y-43847466D01*
X119351390Y-43848671D01*
X119351387Y-43848672D01*
X119121392Y-43905165D01*
X119113994Y-43906982D01*
X119109342Y-43908957D01*
X119109338Y-43908958D01*
X118888978Y-44002495D01*
X118884323Y-44004471D01*
X118673192Y-44137427D01*
X118669398Y-44140772D01*
X118489832Y-44299080D01*
X118489829Y-44299083D01*
X118486035Y-44302428D01*
X118327666Y-44495230D01*
X118202160Y-44710872D01*
X118112745Y-44943805D01*
X118111712Y-44948751D01*
X118111710Y-44948757D01*
X118085131Y-45075986D01*
X118061722Y-45188039D01*
X118050404Y-45437288D01*
X118079081Y-45685140D01*
X118147017Y-45925219D01*
X118252462Y-46151348D01*
X118392706Y-46357710D01*
X118564138Y-46538994D01*
X118584779Y-46554775D01*
X118626745Y-46612040D01*
X118631090Y-46682903D01*
X118591573Y-46749384D01*
X118575071Y-46763932D01*
X118489832Y-46839080D01*
X118489829Y-46839083D01*
X118486035Y-46842428D01*
X118327666Y-47035230D01*
X118202160Y-47250872D01*
X118200347Y-47255595D01*
X118200346Y-47255597D01*
X118154051Y-47376199D01*
X118112745Y-47483805D01*
X118111712Y-47488751D01*
X118111710Y-47488757D01*
X118085131Y-47615986D01*
X118061722Y-47728039D01*
X118050404Y-47977288D01*
X118050985Y-47982308D01*
X118050985Y-47982312D01*
X118067253Y-48122915D01*
X118079081Y-48225140D01*
X118080460Y-48230011D01*
X118080460Y-48230014D01*
X118101110Y-48302989D01*
X118147017Y-48465219D01*
X118165939Y-48505797D01*
X118239403Y-48663342D01*
X118252462Y-48691348D01*
X118392706Y-48897710D01*
X118564138Y-49078994D01*
X118584779Y-49094775D01*
X118626745Y-49152040D01*
X118631090Y-49222903D01*
X118591573Y-49289384D01*
X118575071Y-49303932D01*
X118489832Y-49379080D01*
X118489829Y-49379083D01*
X118486035Y-49382428D01*
X118327666Y-49575230D01*
X118202160Y-49790872D01*
X118112745Y-50023805D01*
X118061722Y-50268039D01*
X118050404Y-50517288D01*
X118050985Y-50522308D01*
X118050985Y-50522312D01*
X118061985Y-50617385D01*
X118079081Y-50765140D01*
X118080460Y-50770011D01*
X118080460Y-50770014D01*
X118104798Y-50856021D01*
X118147017Y-51005219D01*
X118186935Y-51090823D01*
X118245718Y-51216885D01*
X118252462Y-51231348D01*
X118255304Y-51235529D01*
X118255304Y-51235530D01*
X118258375Y-51240049D01*
X118392706Y-51437710D01*
X118564138Y-51618994D01*
X118584779Y-51634775D01*
X118626745Y-51692040D01*
X118631090Y-51762903D01*
X118591573Y-51829384D01*
X118580043Y-51839549D01*
X118489832Y-51919080D01*
X118489829Y-51919083D01*
X118486035Y-51922428D01*
X118327666Y-52115230D01*
X118202160Y-52330872D01*
X118112745Y-52563805D01*
X118111712Y-52568751D01*
X118111710Y-52568757D01*
X118081273Y-52714451D01*
X118061722Y-52808039D01*
X118061493Y-52813088D01*
X118061492Y-52813094D01*
X118060273Y-52839951D01*
X118050404Y-53057288D01*
X118050985Y-53062308D01*
X118050985Y-53062312D01*
X118069149Y-53219297D01*
X118079081Y-53305140D01*
X118080460Y-53310011D01*
X118080460Y-53310014D01*
X118098962Y-53375399D01*
X118147017Y-53545219D01*
X118183677Y-53623837D01*
X118225972Y-53714539D01*
X118252462Y-53771348D01*
X118392706Y-53977710D01*
X118564138Y-54158994D01*
X118584779Y-54174775D01*
X118626745Y-54232040D01*
X118631090Y-54302903D01*
X118591573Y-54369384D01*
X118582072Y-54377760D01*
X118489832Y-54459080D01*
X118489829Y-54459083D01*
X118486035Y-54462428D01*
X118327666Y-54655230D01*
X118202160Y-54870872D01*
X118112745Y-55103805D01*
X118111712Y-55108751D01*
X118111710Y-55108757D01*
X118076311Y-55278206D01*
X118061722Y-55348039D01*
X118061493Y-55353088D01*
X118061492Y-55353094D01*
X118060540Y-55374069D01*
X118050404Y-55597288D01*
X118050985Y-55602308D01*
X118050985Y-55602312D01*
X118057357Y-55657385D01*
X118079081Y-55845140D01*
X118147017Y-56085219D01*
X118172803Y-56140517D01*
X118247541Y-56300794D01*
X118252462Y-56311348D01*
X118255304Y-56315529D01*
X118255304Y-56315530D01*
X118293094Y-56371136D01*
X118392706Y-56517710D01*
X118473206Y-56602836D01*
X118555376Y-56689728D01*
X118564138Y-56698994D01*
X118584779Y-56714775D01*
X118626745Y-56772040D01*
X118631090Y-56842903D01*
X118591573Y-56909384D01*
X118584918Y-56915251D01*
X118489832Y-56999080D01*
X118489829Y-56999083D01*
X118486035Y-57002428D01*
X118327666Y-57195230D01*
X118202160Y-57410872D01*
X118200347Y-57415595D01*
X118200346Y-57415597D01*
X118182179Y-57462923D01*
X118112745Y-57643805D01*
X118111712Y-57648751D01*
X118111710Y-57648757D01*
X118090375Y-57750885D01*
X118061722Y-57888039D01*
X118050404Y-58137288D01*
X118050985Y-58142308D01*
X118050985Y-58142312D01*
X118076414Y-58362089D01*
X118079081Y-58385140D01*
X118147017Y-58625219D01*
X118252462Y-58851348D01*
X118392706Y-59057710D01*
X118473573Y-59143224D01*
X118547355Y-59221246D01*
X118564138Y-59238994D01*
X118584779Y-59254775D01*
X118626745Y-59312040D01*
X118631090Y-59382903D01*
X118591573Y-59449384D01*
X118588691Y-59451925D01*
X118489832Y-59539080D01*
X118489829Y-59539083D01*
X118486035Y-59542428D01*
X118482825Y-59546336D01*
X118482824Y-59546337D01*
X118467790Y-59564640D01*
X118327666Y-59735230D01*
X118202160Y-59950872D01*
X118200347Y-59955595D01*
X118200346Y-59955597D01*
X118186093Y-59992728D01*
X118112745Y-60183805D01*
X118104448Y-60223521D01*
X118090142Y-60291999D01*
X118056632Y-60354590D01*
X117994603Y-60389127D01*
X117923748Y-60384647D01*
X117899570Y-60372794D01*
X117876642Y-60358328D01*
X117876640Y-60358327D01*
X117871757Y-60355246D01*
X117683898Y-60280298D01*
X117485526Y-60240839D01*
X117479752Y-60240763D01*
X117479748Y-60240763D01*
X117377257Y-60239422D01*
X117283286Y-60238192D01*
X117277589Y-60239171D01*
X117277588Y-60239171D01*
X117089646Y-60271465D01*
X117089645Y-60271465D01*
X117083949Y-60272444D01*
X116894193Y-60342449D01*
X116889232Y-60345401D01*
X116889231Y-60345401D01*
X116798299Y-60399500D01*
X116720371Y-60445862D01*
X116568305Y-60579220D01*
X116443089Y-60738057D01*
X116348914Y-60917053D01*
X116288937Y-61110213D01*
X116265164Y-61311069D01*
X116278392Y-61512894D01*
X116286053Y-61543060D01*
X116322071Y-61684880D01*
X116328178Y-61708928D01*
X116351571Y-61759671D01*
X116407926Y-61881913D01*
X116419500Y-61934665D01*
X116419500Y-79694100D01*
X116399498Y-79762221D01*
X116382595Y-79783195D01*
X116210195Y-79955595D01*
X116147883Y-79989621D01*
X116121100Y-79992500D01*
X105684452Y-79992500D01*
X105616331Y-79972498D01*
X105592904Y-79953073D01*
X105439344Y-79790688D01*
X105439343Y-79790687D01*
X105435862Y-79787006D01*
X105430878Y-79783195D01*
X105261954Y-79654043D01*
X105219986Y-79596778D01*
X105215641Y-79525915D01*
X105251511Y-79462778D01*
X105411900Y-79309772D01*
X105418941Y-79301814D01*
X105550141Y-79125475D01*
X105555745Y-79116438D01*
X105655357Y-78920516D01*
X105659357Y-78910665D01*
X105724534Y-78700760D01*
X105726817Y-78690376D01*
X105728861Y-78674957D01*
X105726665Y-78660793D01*
X105713478Y-78657000D01*
X101778808Y-78657000D01*
X101765277Y-78660973D01*
X101763752Y-78671580D01*
X101788477Y-78789421D01*
X101791537Y-78799617D01*
X101872263Y-79004029D01*
X101876994Y-79013561D01*
X101991016Y-79201462D01*
X101997280Y-79210052D01*
X102141327Y-79376052D01*
X102148952Y-79383467D01*
X102236490Y-79455244D01*
X102276484Y-79513904D01*
X102278415Y-79584875D01*
X102241670Y-79645623D01*
X102223740Y-79659298D01*
X102163192Y-79697427D01*
X102125417Y-79730730D01*
X101979832Y-79859080D01*
X101979829Y-79859083D01*
X101976035Y-79862428D01*
X101817666Y-80055230D01*
X101692160Y-80270872D01*
X101690347Y-80275595D01*
X101690346Y-80275597D01*
X101677296Y-80309594D01*
X101602745Y-80503805D01*
X101601712Y-80508751D01*
X101601710Y-80508757D01*
X101575131Y-80635986D01*
X101551722Y-80748039D01*
X101551493Y-80753088D01*
X101551492Y-80753094D01*
X101548374Y-80821769D01*
X101540404Y-80997288D01*
X101540985Y-81002308D01*
X101540985Y-81002312D01*
X101566653Y-81224152D01*
X101569081Y-81245140D01*
X101570460Y-81250011D01*
X101570460Y-81250014D01*
X101591180Y-81323235D01*
X101637017Y-81485219D01*
X101655366Y-81524568D01*
X101732947Y-81690942D01*
X101742462Y-81711348D01*
X101882706Y-81917710D01*
X102054138Y-82098994D01*
X102058164Y-82102072D01*
X102058165Y-82102073D01*
X102147511Y-82170383D01*
X102252349Y-82250538D01*
X102256811Y-82252931D01*
X102256818Y-82252935D01*
X102363541Y-82310159D01*
X102414124Y-82359977D01*
X102430000Y-82421203D01*
X102430000Y-85174000D01*
X102409998Y-85242121D01*
X102356342Y-85288614D01*
X102304000Y-85300000D01*
X85126000Y-85300000D01*
X85057879Y-85279998D01*
X85011386Y-85226342D01*
X85000000Y-85174000D01*
X85000000Y-80123419D01*
X85020002Y-80055298D01*
X85073658Y-80008805D01*
X85143932Y-79998701D01*
X85208512Y-80028195D01*
X85231431Y-80054425D01*
X85247984Y-80079720D01*
X85253028Y-80087428D01*
X85257798Y-80095336D01*
X85273365Y-80123419D01*
X85285472Y-80145261D01*
X85289626Y-80150107D01*
X85289627Y-80150109D01*
X85303001Y-80165712D01*
X85312766Y-80178718D01*
X85327513Y-80201254D01*
X85331758Y-80205968D01*
X85368543Y-80242753D01*
X85375116Y-80249850D01*
X85411136Y-80291875D01*
X85433986Y-80309600D01*
X85445848Y-80320058D01*
X86386979Y-81261189D01*
X86389431Y-81263710D01*
X86445721Y-81323235D01*
X86450950Y-81326896D01*
X86450953Y-81326899D01*
X86492478Y-81355975D01*
X86499842Y-81361544D01*
X86506531Y-81366999D01*
X86544070Y-81397615D01*
X86567947Y-81410098D01*
X86581829Y-81418538D01*
X86603898Y-81433991D01*
X86656277Y-81456658D01*
X86664606Y-81460631D01*
X86709542Y-81484123D01*
X86709545Y-81484124D01*
X86715195Y-81487078D01*
X86721316Y-81488833D01*
X86721323Y-81488836D01*
X86741098Y-81494506D01*
X86756407Y-81499988D01*
X86775254Y-81508144D01*
X86775256Y-81508145D01*
X86781115Y-81510680D01*
X86787365Y-81511986D01*
X86787366Y-81511986D01*
X86836974Y-81522350D01*
X86845936Y-81524568D01*
X86894677Y-81538544D01*
X86894681Y-81538545D01*
X86900813Y-81540303D01*
X86927682Y-81542371D01*
X86943772Y-81544661D01*
X86957892Y-81547611D01*
X86965388Y-81549177D01*
X86965391Y-81549177D01*
X86970133Y-81550168D01*
X86976468Y-81550500D01*
X87028494Y-81550500D01*
X87038160Y-81550871D01*
X87086983Y-81554628D01*
X87086987Y-81554628D01*
X87093343Y-81555117D01*
X87122037Y-81551492D01*
X87137815Y-81550500D01*
X99284568Y-81550500D01*
X99288086Y-81550549D01*
X99363589Y-81552658D01*
X99363592Y-81552658D01*
X99369972Y-81552836D01*
X99426191Y-81542923D01*
X99435322Y-81541657D01*
X99492110Y-81535888D01*
X99513145Y-81529296D01*
X99517811Y-81527834D01*
X99533607Y-81523984D01*
X99553847Y-81520415D01*
X99553856Y-81520413D01*
X99560137Y-81519305D01*
X99578623Y-81511986D01*
X99613206Y-81498294D01*
X99621909Y-81495212D01*
X99639175Y-81489801D01*
X99676373Y-81478144D01*
X99699939Y-81465081D01*
X99714629Y-81458138D01*
X99739675Y-81448221D01*
X99787431Y-81416970D01*
X99795336Y-81412202D01*
X99839672Y-81387626D01*
X99845261Y-81384528D01*
X99853761Y-81377243D01*
X99865712Y-81366999D01*
X99878718Y-81357234D01*
X99897198Y-81345141D01*
X99901254Y-81342487D01*
X99905968Y-81338242D01*
X99942753Y-81301457D01*
X99949850Y-81294884D01*
X99987032Y-81263015D01*
X99991875Y-81258864D01*
X100009600Y-81236014D01*
X100020058Y-81224152D01*
X100957189Y-80287021D01*
X100959711Y-80284568D01*
X101014596Y-80232666D01*
X101014597Y-80232665D01*
X101019235Y-80228279D01*
X101051980Y-80181514D01*
X101057533Y-80174171D01*
X101093615Y-80129930D01*
X101106098Y-80106053D01*
X101114538Y-80092171D01*
X101129991Y-80070102D01*
X101152658Y-80017723D01*
X101156631Y-80009394D01*
X101180123Y-79964458D01*
X101180124Y-79964455D01*
X101183078Y-79958805D01*
X101184833Y-79952684D01*
X101184836Y-79952677D01*
X101190506Y-79932902D01*
X101195988Y-79917593D01*
X101204144Y-79898746D01*
X101204145Y-79898744D01*
X101206680Y-79892885D01*
X101213522Y-79860137D01*
X101218350Y-79837026D01*
X101220568Y-79828064D01*
X101234544Y-79779323D01*
X101234545Y-79779319D01*
X101236303Y-79773187D01*
X101238371Y-79746318D01*
X101240662Y-79730221D01*
X101245177Y-79708612D01*
X101245177Y-79708609D01*
X101246168Y-79703867D01*
X101246500Y-79697532D01*
X101246500Y-79645506D01*
X101246871Y-79635840D01*
X101250628Y-79587017D01*
X101250628Y-79587013D01*
X101251117Y-79580657D01*
X101247494Y-79551978D01*
X101246500Y-79536186D01*
X101246500Y-78970872D01*
X101266502Y-78902751D01*
X101274857Y-78891237D01*
X101339580Y-78811878D01*
X101339582Y-78811875D01*
X101343615Y-78806930D01*
X101433077Y-78635806D01*
X101486302Y-78450187D01*
X101496500Y-78335924D01*
X101496500Y-77995626D01*
X101519287Y-77923355D01*
X101535973Y-77899525D01*
X101541543Y-77892161D01*
X101573579Y-77852880D01*
X101573580Y-77852878D01*
X101577615Y-77847931D01*
X101590100Y-77824050D01*
X101598547Y-77810158D01*
X101600273Y-77807693D01*
X101655733Y-77763372D01*
X101710235Y-77757737D01*
X101683051Y-77723567D01*
X101675905Y-77652931D01*
X101684122Y-77626040D01*
X101688146Y-77616741D01*
X101688146Y-77616740D01*
X101690680Y-77610885D01*
X101702350Y-77555026D01*
X101704568Y-77546063D01*
X101718544Y-77497321D01*
X101720303Y-77491188D01*
X101722370Y-77464327D01*
X101724661Y-77448229D01*
X101724860Y-77447277D01*
X101730168Y-77421867D01*
X101730500Y-77415532D01*
X101730500Y-77363498D01*
X101730871Y-77353832D01*
X101734627Y-77305018D01*
X101734627Y-77305015D01*
X101735116Y-77298658D01*
X101731492Y-77269972D01*
X101730500Y-77254194D01*
X101730500Y-76993380D01*
X101750502Y-76925259D01*
X101804158Y-76878766D01*
X101874432Y-76868662D01*
X101939012Y-76898156D01*
X101948048Y-76906807D01*
X102045498Y-77009857D01*
X102054138Y-77018994D01*
X102058159Y-77022068D01*
X102058165Y-77022073D01*
X102228046Y-77151957D01*
X102270014Y-77209222D01*
X102274359Y-77280085D01*
X102238489Y-77343222D01*
X102078100Y-77496228D01*
X102071059Y-77504186D01*
X101939859Y-77680525D01*
X101934255Y-77689562D01*
X101912077Y-77733184D01*
X101863374Y-77784841D01*
X101797427Y-77801234D01*
X101825689Y-77849313D01*
X101823810Y-77917340D01*
X101765466Y-78105240D01*
X101763183Y-78115624D01*
X101761139Y-78131043D01*
X101763335Y-78145207D01*
X101776522Y-78149000D01*
X105711192Y-78149000D01*
X105724723Y-78145027D01*
X105726248Y-78134420D01*
X105701523Y-78016579D01*
X105698463Y-78006383D01*
X105617736Y-77801968D01*
X105613006Y-77792439D01*
X105498984Y-77604538D01*
X105492720Y-77595948D01*
X105348673Y-77429948D01*
X105341048Y-77422533D01*
X105253510Y-77350756D01*
X105213516Y-77292096D01*
X105211585Y-77221125D01*
X105248330Y-77160377D01*
X105266260Y-77146702D01*
X105322527Y-77111269D01*
X105322528Y-77111268D01*
X105326808Y-77108573D01*
X105424929Y-77022068D01*
X105510168Y-76946920D01*
X105510171Y-76946917D01*
X105513965Y-76943572D01*
X105672334Y-76750770D01*
X105797840Y-76535128D01*
X105832851Y-76443923D01*
X105885443Y-76306915D01*
X105887255Y-76302195D01*
X105938278Y-76057961D01*
X105941796Y-75980500D01*
X105948210Y-75839234D01*
X105949596Y-75808712D01*
X105938049Y-75708907D01*
X105921501Y-75565890D01*
X105920919Y-75560860D01*
X105852983Y-75320781D01*
X105747538Y-75094652D01*
X105607294Y-74888290D01*
X105435862Y-74707006D01*
X105415221Y-74691225D01*
X105373255Y-74633960D01*
X105368910Y-74563097D01*
X105408427Y-74496616D01*
X105410517Y-74494774D01*
X105479560Y-74433904D01*
X105510168Y-74406920D01*
X105510171Y-74406917D01*
X105513965Y-74403572D01*
X105518402Y-74398171D01*
X105555692Y-74352772D01*
X105672334Y-74210770D01*
X105797840Y-73995128D01*
X105806119Y-73973562D01*
X105885443Y-73766915D01*
X105887255Y-73762195D01*
X105938278Y-73517961D01*
X105949596Y-73268712D01*
X105943237Y-73213746D01*
X105921501Y-73025890D01*
X105920919Y-73020860D01*
X105906669Y-72970500D01*
X105873358Y-72852785D01*
X105852983Y-72780781D01*
X105747538Y-72554652D01*
X105727073Y-72524538D01*
X105650008Y-72411141D01*
X105607294Y-72348290D01*
X105435862Y-72167006D01*
X105415221Y-72151225D01*
X105373255Y-72093960D01*
X105368910Y-72023097D01*
X105408427Y-71956616D01*
X105410517Y-71954774D01*
X105472963Y-71899720D01*
X105510168Y-71866920D01*
X105510171Y-71866917D01*
X105513965Y-71863572D01*
X105672334Y-71670770D01*
X105797840Y-71455128D01*
X105887255Y-71222195D01*
X105890671Y-71205848D01*
X105937243Y-70982915D01*
X105938278Y-70977961D01*
X105938816Y-70966131D01*
X105944352Y-70844197D01*
X105949596Y-70728712D01*
X105948719Y-70721126D01*
X105921501Y-70485890D01*
X105920919Y-70480860D01*
X105852983Y-70240781D01*
X105775216Y-70074007D01*
X105749675Y-70019234D01*
X105749673Y-70019230D01*
X105747538Y-70014652D01*
X105707162Y-69955240D01*
X105650687Y-69872141D01*
X105607294Y-69808290D01*
X105435862Y-69627006D01*
X105415221Y-69611225D01*
X105373255Y-69553960D01*
X105368910Y-69483097D01*
X105408427Y-69416616D01*
X105410517Y-69414774D01*
X105478316Y-69355001D01*
X105510168Y-69326920D01*
X105510171Y-69326917D01*
X105513965Y-69323572D01*
X105672334Y-69130770D01*
X105797840Y-68915128D01*
X105887255Y-68682195D01*
X105892937Y-68655000D01*
X105937243Y-68442915D01*
X105938278Y-68437961D01*
X105940825Y-68381884D01*
X105947596Y-68232756D01*
X105949596Y-68188712D01*
X105946104Y-68158525D01*
X105921501Y-67945890D01*
X105920919Y-67940860D01*
X105919516Y-67935900D01*
X105885066Y-67814158D01*
X105852983Y-67700781D01*
X105782621Y-67549889D01*
X105749675Y-67479234D01*
X105749673Y-67479230D01*
X105747538Y-67474652D01*
X105727283Y-67444847D01*
X105683341Y-67380189D01*
X105607294Y-67268290D01*
X105435862Y-67087006D01*
X105415221Y-67071225D01*
X105373255Y-67013960D01*
X105368910Y-66943097D01*
X105408427Y-66876616D01*
X105410517Y-66874774D01*
X105487415Y-66806979D01*
X105510168Y-66786920D01*
X105510171Y-66786917D01*
X105513965Y-66783572D01*
X105672334Y-66590770D01*
X105797840Y-66375128D01*
X105887255Y-66142195D01*
X105889566Y-66131136D01*
X105937243Y-65902915D01*
X105938278Y-65897961D01*
X105938563Y-65891702D01*
X105945358Y-65742045D01*
X105949596Y-65648712D01*
X105944991Y-65608907D01*
X105921501Y-65405890D01*
X105920919Y-65400860D01*
X105852983Y-65160781D01*
X105769028Y-64980737D01*
X105749675Y-64939234D01*
X105749673Y-64939230D01*
X105747538Y-64934652D01*
X105607294Y-64728290D01*
X105435862Y-64547006D01*
X105415221Y-64531225D01*
X105373255Y-64473960D01*
X105368910Y-64403097D01*
X105408427Y-64336616D01*
X105410517Y-64334774D01*
X105487331Y-64267053D01*
X105510168Y-64246920D01*
X105510171Y-64246917D01*
X105513965Y-64243572D01*
X105672334Y-64050770D01*
X105678058Y-64040936D01*
X105711745Y-63983054D01*
X105797840Y-63835128D01*
X105801840Y-63824709D01*
X105851466Y-63695427D01*
X105887255Y-63602195D01*
X105888759Y-63595000D01*
X105937243Y-63362915D01*
X105938278Y-63357961D01*
X105938847Y-63345445D01*
X105943682Y-63238954D01*
X105949596Y-63108712D01*
X105948533Y-63099520D01*
X105921501Y-62865890D01*
X105920919Y-62860860D01*
X105919010Y-62854112D01*
X105874142Y-62695554D01*
X105852983Y-62620781D01*
X105786423Y-62478041D01*
X105749675Y-62399234D01*
X105749673Y-62399230D01*
X105747538Y-62394652D01*
X105734639Y-62375671D01*
X105679475Y-62294501D01*
X105607294Y-62188290D01*
X105435862Y-62007006D01*
X105415221Y-61991225D01*
X105373255Y-61933960D01*
X105368910Y-61863097D01*
X105408427Y-61796616D01*
X105410517Y-61794774D01*
X105466609Y-61745322D01*
X105510168Y-61706920D01*
X105510171Y-61706917D01*
X105513965Y-61703572D01*
X105672334Y-61510770D01*
X105797840Y-61295128D01*
X105887255Y-61062195D01*
X105915522Y-60926891D01*
X105937243Y-60822915D01*
X105938278Y-60817961D01*
X105939155Y-60798666D01*
X105946775Y-60630837D01*
X105949596Y-60568712D01*
X105947558Y-60551093D01*
X105921501Y-60325890D01*
X105920919Y-60320860D01*
X105915663Y-60302284D01*
X105854360Y-60085648D01*
X105852983Y-60080781D01*
X105747538Y-59854652D01*
X105607294Y-59648290D01*
X105435862Y-59467006D01*
X105415221Y-59451225D01*
X105373255Y-59393960D01*
X105368910Y-59323097D01*
X105408427Y-59256616D01*
X105410517Y-59254774D01*
X105467194Y-59204806D01*
X105510168Y-59166920D01*
X105510171Y-59166917D01*
X105513965Y-59163572D01*
X105672334Y-58970770D01*
X105797840Y-58755128D01*
X105887255Y-58522195D01*
X105897227Y-58474465D01*
X105934117Y-58297878D01*
X105938278Y-58277961D01*
X105939939Y-58241398D01*
X105945868Y-58110813D01*
X105949596Y-58028712D01*
X105945065Y-57989546D01*
X105921501Y-57785890D01*
X105920919Y-57780860D01*
X105852983Y-57540781D01*
X105747538Y-57314652D01*
X105607294Y-57108290D01*
X105435862Y-56927006D01*
X105415221Y-56911225D01*
X105373255Y-56853960D01*
X105368910Y-56783097D01*
X105408427Y-56716616D01*
X105410517Y-56714774D01*
X105438926Y-56689728D01*
X105510168Y-56626920D01*
X105510171Y-56626917D01*
X105513965Y-56623572D01*
X105672334Y-56430770D01*
X105797840Y-56215128D01*
X105816435Y-56166688D01*
X105882333Y-55995016D01*
X105887255Y-55982195D01*
X105889699Y-55970499D01*
X105934276Y-55757116D01*
X105938278Y-55737961D01*
X105938663Y-55729498D01*
X105946306Y-55561165D01*
X105949596Y-55488712D01*
X105934689Y-55359867D01*
X105921501Y-55245890D01*
X105920919Y-55240860D01*
X105917216Y-55227772D01*
X105854360Y-55005648D01*
X105852983Y-55000781D01*
X105747538Y-54774652D01*
X105607294Y-54568290D01*
X105492762Y-54447176D01*
X105439344Y-54390688D01*
X105439343Y-54390687D01*
X105435862Y-54387006D01*
X105415221Y-54371225D01*
X105373255Y-54313960D01*
X105368910Y-54243097D01*
X105408427Y-54176616D01*
X105410517Y-54174774D01*
X105498883Y-54096869D01*
X105510168Y-54086920D01*
X105510171Y-54086917D01*
X105513965Y-54083572D01*
X105672334Y-53890770D01*
X105797840Y-53675128D01*
X105799689Y-53670313D01*
X105873109Y-53479046D01*
X105887255Y-53442195D01*
X105889699Y-53430500D01*
X105937243Y-53202915D01*
X105938278Y-53197961D01*
X105938598Y-53190930D01*
X105944945Y-53051137D01*
X105949596Y-52948712D01*
X105944748Y-52906805D01*
X105921501Y-52705890D01*
X105920919Y-52700860D01*
X105852983Y-52460781D01*
X105785922Y-52316968D01*
X105749675Y-52239234D01*
X105749673Y-52239230D01*
X105747538Y-52234652D01*
X105607294Y-52028290D01*
X105454750Y-51866979D01*
X105439344Y-51850688D01*
X105439343Y-51850687D01*
X105435862Y-51847006D01*
X105415221Y-51831225D01*
X105373255Y-51773960D01*
X105368910Y-51703097D01*
X105408427Y-51636616D01*
X105410517Y-51634774D01*
X105485597Y-51568582D01*
X105510168Y-51546920D01*
X105510171Y-51546917D01*
X105513965Y-51543572D01*
X105672334Y-51350770D01*
X105677845Y-51341302D01*
X105714421Y-51278457D01*
X105797840Y-51135128D01*
X105800070Y-51129320D01*
X105872060Y-50941780D01*
X105887255Y-50902195D01*
X105889448Y-50891702D01*
X105937243Y-50662915D01*
X105938278Y-50657961D01*
X105939938Y-50621416D01*
X105944895Y-50512234D01*
X105949596Y-50408712D01*
X105920919Y-50160860D01*
X105852983Y-49920781D01*
X105747538Y-49694652D01*
X105607294Y-49488290D01*
X105435862Y-49307006D01*
X105415221Y-49291225D01*
X105373255Y-49233960D01*
X105368910Y-49163097D01*
X105408427Y-49096616D01*
X105410517Y-49094774D01*
X105479780Y-49033710D01*
X105510168Y-49006920D01*
X105510171Y-49006917D01*
X105513965Y-49003572D01*
X105519524Y-48996805D01*
X105604377Y-48893502D01*
X105672334Y-48810770D01*
X105797840Y-48595128D01*
X105815880Y-48548134D01*
X105885443Y-48366915D01*
X105887255Y-48362195D01*
X105894406Y-48327969D01*
X105937243Y-48122915D01*
X105938278Y-48117961D01*
X105938680Y-48109125D01*
X105944895Y-47972234D01*
X105949596Y-47868712D01*
X105947084Y-47846996D01*
X105921501Y-47625890D01*
X105920919Y-47620860D01*
X105852983Y-47380781D01*
X105778129Y-47220254D01*
X105749675Y-47159234D01*
X105749673Y-47159230D01*
X105747538Y-47154652D01*
X105739367Y-47142628D01*
X105644196Y-47002589D01*
X105607294Y-46948290D01*
X105435862Y-46767006D01*
X105415221Y-46751225D01*
X105373255Y-46693960D01*
X105368910Y-46623097D01*
X105408427Y-46556616D01*
X105410517Y-46554774D01*
X105438864Y-46529782D01*
X105510168Y-46466920D01*
X105510171Y-46466917D01*
X105513965Y-46463572D01*
X105672334Y-46270770D01*
X105797840Y-46055128D01*
X105887255Y-45822195D01*
X105889385Y-45812002D01*
X105937243Y-45582915D01*
X105938278Y-45577961D01*
X105949596Y-45328712D01*
X105920919Y-45080860D01*
X105852983Y-44840781D01*
X105747538Y-44614652D01*
X105607294Y-44408290D01*
X105435862Y-44227006D01*
X105237651Y-44075462D01*
X105017761Y-43957557D01*
X104781848Y-43876326D01*
X104653901Y-43854226D01*
X104539893Y-43834533D01*
X104539887Y-43834532D01*
X104535983Y-43833858D01*
X104532022Y-43833678D01*
X104532021Y-43833678D01*
X104507497Y-43832564D01*
X104507478Y-43832564D01*
X104506078Y-43832500D01*
X103032309Y-43832500D01*
X103029801Y-43832702D01*
X103029796Y-43832702D01*
X102851339Y-43847060D01*
X102851334Y-43847061D01*
X102846298Y-43847466D01*
X102841390Y-43848671D01*
X102841387Y-43848672D01*
X102611392Y-43905165D01*
X102603994Y-43906982D01*
X102599342Y-43908957D01*
X102599338Y-43908958D01*
X102378978Y-44002495D01*
X102374323Y-44004471D01*
X102163192Y-44137427D01*
X102159398Y-44140772D01*
X101979832Y-44299080D01*
X101979829Y-44299083D01*
X101976035Y-44302428D01*
X101817666Y-44495230D01*
X101692160Y-44710872D01*
X101602745Y-44943805D01*
X101601712Y-44948751D01*
X101601710Y-44948757D01*
X101575131Y-45075986D01*
X101551722Y-45188039D01*
X101540404Y-45437288D01*
X101569081Y-45685140D01*
X101637017Y-45925219D01*
X101742462Y-46151348D01*
X101882706Y-46357710D01*
X102054138Y-46538994D01*
X102074779Y-46554775D01*
X102116745Y-46612040D01*
X102121090Y-46682903D01*
X102081573Y-46749384D01*
X102065071Y-46763932D01*
X101979832Y-46839080D01*
X101979829Y-46839083D01*
X101976035Y-46842428D01*
X101972826Y-46846334D01*
X101972817Y-46846344D01*
X101906996Y-46926476D01*
X101848302Y-46966419D01*
X101809632Y-46972500D01*
X99212432Y-46972500D01*
X99208914Y-46972451D01*
X99133410Y-46970342D01*
X99133408Y-46970342D01*
X99127028Y-46970164D01*
X99120742Y-46971272D01*
X99114375Y-46971740D01*
X99114356Y-46971485D01*
X99102755Y-46972500D01*
X98705386Y-46972500D01*
X98698792Y-46972327D01*
X98636710Y-46969073D01*
X98636706Y-46969073D01*
X98630329Y-46968739D01*
X98614830Y-46971083D01*
X98595989Y-46972500D01*
X97944506Y-46972500D01*
X97934842Y-46972129D01*
X97921246Y-46971083D01*
X97886017Y-46968372D01*
X97886014Y-46968372D01*
X97879658Y-46967883D01*
X97865315Y-46969695D01*
X97850979Y-46971506D01*
X97835187Y-46972500D01*
X95262431Y-46972500D01*
X95258913Y-46972451D01*
X95183409Y-46970342D01*
X95183407Y-46970342D01*
X95177027Y-46970164D01*
X95170742Y-46971272D01*
X95170732Y-46971273D01*
X95120818Y-46980075D01*
X95111678Y-46981344D01*
X95072350Y-46985339D01*
X95061239Y-46986467D01*
X95061238Y-46986467D01*
X95054890Y-46987112D01*
X95039242Y-46992016D01*
X95029186Y-46995167D01*
X95013387Y-46999019D01*
X95009144Y-46999767D01*
X94986863Y-47003696D01*
X94933793Y-47024708D01*
X94925111Y-47027782D01*
X94870627Y-47044856D01*
X94865055Y-47047945D01*
X94865045Y-47047949D01*
X94847058Y-47057920D01*
X94832357Y-47064869D01*
X94807324Y-47074780D01*
X94801979Y-47078278D01*
X94759569Y-47106030D01*
X94751670Y-47110795D01*
X94701739Y-47138472D01*
X94696890Y-47142628D01*
X94681286Y-47156002D01*
X94668283Y-47165765D01*
X94645746Y-47180513D01*
X94641032Y-47184758D01*
X94604247Y-47221543D01*
X94597150Y-47228116D01*
X94555125Y-47264136D01*
X94537400Y-47286986D01*
X94526942Y-47298848D01*
X93868811Y-47956979D01*
X93866290Y-47959431D01*
X93806765Y-48015721D01*
X93774026Y-48062478D01*
X93768467Y-48069829D01*
X93732385Y-48114070D01*
X93729427Y-48119728D01*
X93719905Y-48137942D01*
X93711462Y-48151829D01*
X93696009Y-48173898D01*
X93673331Y-48226305D01*
X93669377Y-48234593D01*
X93642923Y-48285194D01*
X93641163Y-48291332D01*
X93635498Y-48311087D01*
X93630015Y-48326400D01*
X93621857Y-48345251D01*
X93621855Y-48345256D01*
X93619320Y-48351115D01*
X93607645Y-48407000D01*
X93605439Y-48415916D01*
X93589697Y-48470813D01*
X93587709Y-48496657D01*
X93587630Y-48497678D01*
X93585339Y-48513772D01*
X93579832Y-48540133D01*
X93579500Y-48546468D01*
X93579500Y-48598494D01*
X93579129Y-48608158D01*
X93574883Y-48663342D01*
X93575683Y-48669674D01*
X93578506Y-48692021D01*
X93579500Y-48707813D01*
X93579500Y-55373659D01*
X93559498Y-55441780D01*
X93505842Y-55488273D01*
X93449924Y-55499142D01*
X93449924Y-55499500D01*
X92390076Y-55499500D01*
X92387289Y-55499749D01*
X92387283Y-55499749D01*
X92308096Y-55506817D01*
X92275813Y-55509698D01*
X92260500Y-55514089D01*
X92096324Y-55561165D01*
X92096322Y-55561166D01*
X92090194Y-55562923D01*
X91919070Y-55652385D01*
X91914125Y-55656418D01*
X91914122Y-55656420D01*
X91834763Y-55721143D01*
X91769332Y-55748697D01*
X91755128Y-55749500D01*
X91711876Y-55749500D01*
X91643755Y-55729498D01*
X91597262Y-55675842D01*
X91587158Y-55605568D01*
X91597038Y-55571652D01*
X91599193Y-55566878D01*
X91603127Y-55560383D01*
X91653829Y-55398594D01*
X91660500Y-55325993D01*
X91660499Y-54574008D01*
X91660236Y-54571136D01*
X91654440Y-54508060D01*
X91653829Y-54501406D01*
X91629786Y-54424685D01*
X91605399Y-54346866D01*
X91605398Y-54346864D01*
X91603127Y-54339617D01*
X91515297Y-54194592D01*
X91395408Y-54074703D01*
X91250383Y-53986873D01*
X91243136Y-53984602D01*
X91243134Y-53984601D01*
X91177894Y-53964156D01*
X91088594Y-53936171D01*
X91015993Y-53929500D01*
X91013095Y-53929500D01*
X89957261Y-53929501D01*
X88904008Y-53929501D01*
X88901150Y-53929764D01*
X88901141Y-53929764D01*
X88865757Y-53933015D01*
X88831406Y-53936171D01*
X88825028Y-53938170D01*
X88825027Y-53938170D01*
X88676866Y-53984601D01*
X88676864Y-53984602D01*
X88669617Y-53986873D01*
X88524592Y-54074703D01*
X88404703Y-54194592D01*
X88316873Y-54339617D01*
X88314602Y-54346864D01*
X88314601Y-54346866D01*
X88302985Y-54383932D01*
X88266171Y-54501406D01*
X88259500Y-54574007D01*
X88259500Y-54576883D01*
X88259390Y-54579278D01*
X88236285Y-54646410D01*
X88180554Y-54690393D01*
X88133523Y-54699500D01*
X88093707Y-54699500D01*
X88025586Y-54679498D01*
X87982046Y-54631876D01*
X87915574Y-54504728D01*
X87915569Y-54504720D01*
X87912615Y-54499070D01*
X87849936Y-54422217D01*
X87794600Y-54354369D01*
X87790571Y-54349429D01*
X87747082Y-54313960D01*
X87645873Y-54231416D01*
X87645870Y-54231414D01*
X87640930Y-54227385D01*
X87625563Y-54219351D01*
X87503068Y-54155312D01*
X87469806Y-54137923D01*
X87463678Y-54136166D01*
X87463676Y-54136165D01*
X87344523Y-54101999D01*
X87284187Y-54084698D01*
X87232434Y-54080079D01*
X87172717Y-54074749D01*
X87172711Y-54074749D01*
X87169924Y-54074500D01*
X86435076Y-54074500D01*
X86432289Y-54074749D01*
X86432283Y-54074749D01*
X86372566Y-54080079D01*
X86320813Y-54084698D01*
X86260477Y-54101999D01*
X86141324Y-54136165D01*
X86141322Y-54136166D01*
X86135194Y-54137923D01*
X86101932Y-54155312D01*
X85979438Y-54219351D01*
X85964070Y-54227385D01*
X85959130Y-54231414D01*
X85959127Y-54231416D01*
X85857918Y-54313960D01*
X85814429Y-54349429D01*
X85810400Y-54354369D01*
X85755065Y-54422217D01*
X85692385Y-54499070D01*
X85689432Y-54504718D01*
X85689431Y-54504720D01*
X85669193Y-54543431D01*
X85602923Y-54670194D01*
X85601166Y-54676322D01*
X85601165Y-54676324D01*
X85597131Y-54690393D01*
X85549698Y-54855813D01*
X85549165Y-54861786D01*
X85542413Y-54937442D01*
X85539500Y-54970076D01*
X85539500Y-55275182D01*
X85519498Y-55343303D01*
X85465842Y-55389796D01*
X85395568Y-55399900D01*
X85330988Y-55370406D01*
X85295542Y-55311980D01*
X85293347Y-55312698D01*
X85241618Y-55154434D01*
X85219245Y-55085982D01*
X85148210Y-54949524D01*
X85134473Y-54902545D01*
X85130835Y-54861786D01*
X85130302Y-54855813D01*
X85082869Y-54690393D01*
X85078835Y-54676324D01*
X85078834Y-54676322D01*
X85077077Y-54670194D01*
X85014338Y-54550186D01*
X85000000Y-54491810D01*
X85000000Y-53198190D01*
X85014338Y-53139814D01*
X85049451Y-53072649D01*
X85077077Y-53019806D01*
X85130302Y-52834187D01*
X85135370Y-52777405D01*
X85140251Y-52722717D01*
X85140251Y-52722711D01*
X85140500Y-52719924D01*
X85539500Y-52719924D01*
X85539749Y-52722711D01*
X85539749Y-52722717D01*
X85544630Y-52777405D01*
X85549698Y-52834187D01*
X85602923Y-53019806D01*
X85692385Y-53190930D01*
X85696414Y-53195870D01*
X85696416Y-53195873D01*
X85801447Y-53324653D01*
X85814429Y-53340571D01*
X85819369Y-53344600D01*
X85944820Y-53446915D01*
X85964070Y-53462615D01*
X85969718Y-53465568D01*
X85969720Y-53465569D01*
X86042533Y-53503635D01*
X86135194Y-53552077D01*
X86141322Y-53553834D01*
X86141324Y-53553835D01*
X86179826Y-53564875D01*
X86320813Y-53605302D01*
X86353096Y-53608183D01*
X86432283Y-53615251D01*
X86432289Y-53615251D01*
X86435076Y-53615500D01*
X87169924Y-53615500D01*
X87172711Y-53615251D01*
X87172717Y-53615251D01*
X87251904Y-53608183D01*
X87284187Y-53605302D01*
X87425174Y-53564875D01*
X87463676Y-53553835D01*
X87463678Y-53553834D01*
X87469806Y-53552077D01*
X87562467Y-53503635D01*
X87635280Y-53465569D01*
X87635282Y-53465568D01*
X87640930Y-53462615D01*
X87660181Y-53446915D01*
X87785631Y-53344600D01*
X87790571Y-53340571D01*
X87803553Y-53324653D01*
X87908584Y-53195873D01*
X87908586Y-53195870D01*
X87912615Y-53190930D01*
X87915569Y-53185280D01*
X87915574Y-53185272D01*
X87982046Y-53058124D01*
X88031332Y-53007022D01*
X88093707Y-52990500D01*
X88227778Y-52990500D01*
X88295899Y-53010502D01*
X88335554Y-53051229D01*
X88404703Y-53165408D01*
X88524592Y-53285297D01*
X88669617Y-53373127D01*
X88676864Y-53375398D01*
X88676866Y-53375399D01*
X88738188Y-53394616D01*
X88831406Y-53423829D01*
X88904007Y-53430500D01*
X88906905Y-53430500D01*
X89962740Y-53430499D01*
X91015992Y-53430499D01*
X91018850Y-53430236D01*
X91018859Y-53430236D01*
X91054243Y-53426985D01*
X91088594Y-53423829D01*
X91094979Y-53421828D01*
X91243134Y-53375399D01*
X91243136Y-53375398D01*
X91250383Y-53373127D01*
X91395408Y-53285297D01*
X91515297Y-53165408D01*
X91603127Y-53020383D01*
X91653829Y-52858594D01*
X91660500Y-52785993D01*
X91660499Y-52034008D01*
X91659636Y-52024606D01*
X91654440Y-51968060D01*
X91653829Y-51961406D01*
X91625006Y-51869432D01*
X91605399Y-51806866D01*
X91605398Y-51806864D01*
X91603127Y-51799617D01*
X91515297Y-51654592D01*
X91395408Y-51534703D01*
X91250383Y-51446873D01*
X91243136Y-51444602D01*
X91243134Y-51444601D01*
X91177894Y-51424156D01*
X91088594Y-51396171D01*
X91015993Y-51389500D01*
X90337325Y-51389500D01*
X90269204Y-51369498D01*
X90245777Y-51350073D01*
X90218666Y-51321404D01*
X90218665Y-51321403D01*
X90214279Y-51316765D01*
X90167514Y-51284020D01*
X90160171Y-51278467D01*
X90115930Y-51242385D01*
X90092053Y-51229902D01*
X90078171Y-51221462D01*
X90056102Y-51206009D01*
X90003695Y-51183331D01*
X89995407Y-51179377D01*
X89944806Y-51152923D01*
X89918913Y-51145498D01*
X89903600Y-51140015D01*
X89884749Y-51131857D01*
X89884744Y-51131855D01*
X89878885Y-51129320D01*
X89823000Y-51117645D01*
X89814084Y-51115439D01*
X89759187Y-51099697D01*
X89732318Y-51097629D01*
X89716228Y-51095339D01*
X89700116Y-51091973D01*
X89694612Y-51090823D01*
X89694609Y-51090823D01*
X89689867Y-51089832D01*
X89683532Y-51089500D01*
X89631506Y-51089500D01*
X89621842Y-51089129D01*
X89608930Y-51088136D01*
X89573017Y-51085372D01*
X89573014Y-51085372D01*
X89566658Y-51084883D01*
X89544607Y-51087669D01*
X89537979Y-51088506D01*
X89522187Y-51089500D01*
X88093707Y-51089500D01*
X88025586Y-51069498D01*
X87982046Y-51021876D01*
X87915574Y-50894728D01*
X87915569Y-50894720D01*
X87912615Y-50889070D01*
X87904664Y-50879320D01*
X87794600Y-50744369D01*
X87790571Y-50739429D01*
X87758779Y-50713500D01*
X87645873Y-50621416D01*
X87645870Y-50621414D01*
X87640930Y-50617385D01*
X87469806Y-50527923D01*
X87463678Y-50526166D01*
X87463676Y-50526165D01*
X87367321Y-50498536D01*
X87284187Y-50474698D01*
X87251904Y-50471817D01*
X87172717Y-50464749D01*
X87172711Y-50464749D01*
X87169924Y-50464500D01*
X86435076Y-50464500D01*
X86432289Y-50464749D01*
X86432283Y-50464749D01*
X86353096Y-50471817D01*
X86320813Y-50474698D01*
X86237679Y-50498536D01*
X86141324Y-50526165D01*
X86141322Y-50526166D01*
X86135194Y-50527923D01*
X85964070Y-50617385D01*
X85959130Y-50621414D01*
X85959127Y-50621416D01*
X85846221Y-50713500D01*
X85814429Y-50739429D01*
X85810400Y-50744369D01*
X85700337Y-50879320D01*
X85692385Y-50889070D01*
X85689432Y-50894718D01*
X85689431Y-50894720D01*
X85666057Y-50939430D01*
X85602923Y-51060194D01*
X85601166Y-51066322D01*
X85601165Y-51066324D01*
X85582791Y-51130403D01*
X85549698Y-51245813D01*
X85549165Y-51251786D01*
X85540331Y-51350770D01*
X85539500Y-51360076D01*
X85539500Y-52719924D01*
X85140500Y-52719924D01*
X85140500Y-51360076D01*
X85139670Y-51350770D01*
X85130835Y-51251786D01*
X85130302Y-51245813D01*
X85097209Y-51130403D01*
X85078835Y-51066324D01*
X85078834Y-51066322D01*
X85077077Y-51060194D01*
X85014338Y-50940186D01*
X85000000Y-50881810D01*
X85000000Y-47199689D01*
X85020002Y-47131568D01*
X85073658Y-47085075D01*
X85143932Y-47074971D01*
X85208512Y-47104465D01*
X85233201Y-47133479D01*
X85285230Y-47217721D01*
X85525802Y-47531241D01*
X85527984Y-47533557D01*
X85527993Y-47533567D01*
X85706587Y-47723085D01*
X85796826Y-47818844D01*
X85799231Y-47820928D01*
X85799237Y-47820933D01*
X86024107Y-48015721D01*
X86095526Y-48077586D01*
X86418845Y-48304818D01*
X86591158Y-48401516D01*
X86712841Y-48469801D01*
X86763472Y-48498214D01*
X86766387Y-48499481D01*
X86766390Y-48499483D01*
X86799269Y-48513779D01*
X87125878Y-48655793D01*
X87502353Y-48775941D01*
X87712256Y-48820175D01*
X87885924Y-48856773D01*
X87885929Y-48856774D01*
X87889043Y-48857430D01*
X88281988Y-48899423D01*
X88285176Y-48899440D01*
X88285181Y-48899440D01*
X88464213Y-48900378D01*
X88677166Y-48901493D01*
X88849634Y-48884886D01*
X89067364Y-48863921D01*
X89067369Y-48863920D01*
X89070529Y-48863616D01*
X89073648Y-48862993D01*
X89073653Y-48862992D01*
X89315448Y-48814676D01*
X89458051Y-48786181D01*
X89766312Y-48691348D01*
X89832722Y-48670918D01*
X89832725Y-48670917D01*
X89835764Y-48669982D01*
X89838692Y-48668745D01*
X89838698Y-48668743D01*
X90005000Y-48598494D01*
X90199801Y-48516207D01*
X90202604Y-48514673D01*
X90202609Y-48514670D01*
X90351943Y-48432912D01*
X90546434Y-48326431D01*
X90872114Y-48102597D01*
X90901606Y-48077586D01*
X91171078Y-47849057D01*
X91171080Y-47849055D01*
X91173508Y-47846996D01*
X91175713Y-47844704D01*
X91175719Y-47844699D01*
X91391123Y-47620860D01*
X91447528Y-47562247D01*
X91691370Y-47251264D01*
X91707991Y-47224973D01*
X91868493Y-46971083D01*
X91902537Y-46917231D01*
X91903957Y-46914382D01*
X91903962Y-46914374D01*
X92077447Y-46566416D01*
X92078867Y-46563568D01*
X92218554Y-46193897D01*
X92228933Y-46154892D01*
X92319347Y-45815087D01*
X92320168Y-45812002D01*
X92382670Y-45421793D01*
X92405418Y-45027265D01*
X92405513Y-45000000D01*
X92404823Y-44986367D01*
X92385681Y-44608496D01*
X92385680Y-44608491D01*
X92385520Y-44605323D01*
X92354806Y-44404606D01*
X92326228Y-44217848D01*
X92326226Y-44217839D01*
X92325744Y-44214688D01*
X92259864Y-43959949D01*
X92227595Y-43835172D01*
X92227592Y-43835164D01*
X92226798Y-43832092D01*
X92221989Y-43819090D01*
X92178816Y-43702380D01*
X92089695Y-43461455D01*
X91915839Y-43106570D01*
X91707009Y-42771071D01*
X91465344Y-42458393D01*
X91193318Y-42171737D01*
X90902419Y-41921524D01*
X90863817Y-41861939D01*
X90863558Y-41790943D01*
X90901723Y-41731077D01*
X90966196Y-41701349D01*
X90984583Y-41700000D01*
X132874000Y-41700000D01*
X132942121Y-41720002D01*
G37*
%TD.AperFunction*%
%TA.AperFunction,Conductor*%
G36*
X90018409Y-72750502D02*
G01*
X90032800Y-72761275D01*
X90047865Y-72774329D01*
X90055548Y-72776000D01*
X90146621Y-72776000D01*
X90211893Y-72794224D01*
X90259617Y-72823127D01*
X90266864Y-72825398D01*
X90266866Y-72825399D01*
X90304501Y-72837193D01*
X90421406Y-72873829D01*
X90494007Y-72880500D01*
X90500868Y-72880500D01*
X91428001Y-72880499D01*
X91496121Y-72900501D01*
X91542614Y-72954157D01*
X91554000Y-73006499D01*
X91554000Y-73919884D01*
X91558475Y-73935123D01*
X91559865Y-73936328D01*
X91567548Y-73937999D01*
X91573500Y-73937999D01*
X91641621Y-73958001D01*
X91688114Y-74011657D01*
X91699500Y-74063999D01*
X91699501Y-74703927D01*
X91699501Y-75335992D01*
X91699764Y-75338850D01*
X91699764Y-75338859D01*
X91703015Y-75374243D01*
X91706171Y-75408594D01*
X91708170Y-75414972D01*
X91708170Y-75414973D01*
X91753889Y-75560860D01*
X91756873Y-75570383D01*
X91844703Y-75715408D01*
X91964592Y-75835297D01*
X92109617Y-75923127D01*
X92116864Y-75925398D01*
X92116866Y-75925399D01*
X92175000Y-75943617D01*
X92271406Y-75973829D01*
X92344007Y-75980500D01*
X92346905Y-75980500D01*
X92801183Y-75980499D01*
X93255992Y-75980499D01*
X93258850Y-75980236D01*
X93258859Y-75980236D01*
X93294243Y-75976985D01*
X93328594Y-75973829D01*
X93387321Y-75955425D01*
X93462679Y-75955425D01*
X93521406Y-75973829D01*
X93594007Y-75980500D01*
X93596905Y-75980500D01*
X94051183Y-75980499D01*
X94505992Y-75980499D01*
X94508850Y-75980236D01*
X94508859Y-75980236D01*
X94544243Y-75976985D01*
X94578594Y-75973829D01*
X94637321Y-75955425D01*
X94712679Y-75955425D01*
X94771406Y-75973829D01*
X94844007Y-75980500D01*
X94846905Y-75980500D01*
X95301183Y-75980499D01*
X95755992Y-75980499D01*
X95758850Y-75980236D01*
X95758859Y-75980236D01*
X95794243Y-75976985D01*
X95828594Y-75973829D01*
X95887321Y-75955425D01*
X95962679Y-75955425D01*
X96021406Y-75973829D01*
X96094007Y-75980500D01*
X96096905Y-75980500D01*
X96551183Y-75980499D01*
X97005992Y-75980499D01*
X97008850Y-75980236D01*
X97008859Y-75980236D01*
X97044243Y-75976985D01*
X97078594Y-75973829D01*
X97137321Y-75955425D01*
X97212679Y-75955425D01*
X97271406Y-75973829D01*
X97344007Y-75980500D01*
X97346905Y-75980500D01*
X97801183Y-75980499D01*
X98255992Y-75980499D01*
X98258850Y-75980236D01*
X98258859Y-75980236D01*
X98294243Y-75976985D01*
X98328594Y-75973829D01*
X98425000Y-75943617D01*
X98483134Y-75925399D01*
X98483136Y-75925398D01*
X98490383Y-75923127D01*
X98635408Y-75835297D01*
X98755297Y-75715408D01*
X98843127Y-75570383D01*
X98846112Y-75560860D01*
X98891828Y-75414978D01*
X98893829Y-75408594D01*
X98900500Y-75335993D01*
X98900499Y-74063999D01*
X98920501Y-73995879D01*
X98974157Y-73949386D01*
X99026499Y-73938000D01*
X99027885Y-73938000D01*
X99043124Y-73933525D01*
X99044329Y-73932135D01*
X99046000Y-73924452D01*
X99046000Y-73006500D01*
X99066002Y-72938379D01*
X99119658Y-72891886D01*
X99172000Y-72880500D01*
X99332785Y-72880499D01*
X99428001Y-72880499D01*
X99496120Y-72900501D01*
X99542613Y-72954156D01*
X99554000Y-73006499D01*
X99554000Y-73919884D01*
X99558475Y-73935123D01*
X99559865Y-73936328D01*
X99567548Y-73937999D01*
X99703500Y-73937999D01*
X99771621Y-73958001D01*
X99818114Y-74011657D01*
X99829500Y-74063999D01*
X99829500Y-76309317D01*
X99809498Y-76377438D01*
X99755842Y-76423931D01*
X99738229Y-76430436D01*
X99697326Y-76442164D01*
X99697320Y-76442166D01*
X99691194Y-76443923D01*
X99520070Y-76533385D01*
X99515130Y-76537414D01*
X99515127Y-76537416D01*
X99431409Y-76605695D01*
X99370429Y-76655429D01*
X99366400Y-76660369D01*
X99311182Y-76728073D01*
X99252627Y-76768221D01*
X99181662Y-76770338D01*
X99130514Y-76741043D01*
X99129917Y-76741799D01*
X99124861Y-76737806D01*
X99124524Y-76737613D01*
X99124173Y-76737263D01*
X99112760Y-76728249D01*
X98974757Y-76643184D01*
X98961576Y-76637037D01*
X98807290Y-76585862D01*
X98793914Y-76582995D01*
X98699562Y-76573328D01*
X98693145Y-76573000D01*
X98668115Y-76573000D01*
X98652876Y-76577475D01*
X98651671Y-76578865D01*
X98650000Y-76586548D01*
X98650000Y-79020884D01*
X98654475Y-79036123D01*
X98655865Y-79037328D01*
X98663548Y-79038999D01*
X98693095Y-79038999D01*
X98699614Y-79038662D01*
X98795206Y-79028743D01*
X98808600Y-79025851D01*
X98962784Y-78974412D01*
X98975962Y-78968239D01*
X99113807Y-78882937D01*
X99130945Y-78869354D01*
X99131911Y-78870573D01*
X99186748Y-78840574D01*
X99257568Y-78845583D01*
X99311274Y-78884040D01*
X99317145Y-78891239D01*
X99344697Y-78956672D01*
X99345500Y-78970872D01*
X99345500Y-79158100D01*
X99325498Y-79226221D01*
X99308595Y-79247195D01*
X98943195Y-79612595D01*
X98880883Y-79646621D01*
X98854100Y-79649500D01*
X87515900Y-79649500D01*
X87447779Y-79629498D01*
X87426805Y-79612595D01*
X87057405Y-79243195D01*
X87023379Y-79180883D01*
X87020500Y-79154100D01*
X87020500Y-78328095D01*
X97388001Y-78328095D01*
X97388338Y-78334614D01*
X97398257Y-78430206D01*
X97401149Y-78443600D01*
X97452588Y-78597784D01*
X97458761Y-78610962D01*
X97544063Y-78748807D01*
X97553099Y-78760208D01*
X97667829Y-78874739D01*
X97679240Y-78883751D01*
X97817243Y-78968816D01*
X97830424Y-78974963D01*
X97984710Y-79026138D01*
X97998086Y-79029005D01*
X98092438Y-79038672D01*
X98098854Y-79039000D01*
X98123885Y-79039000D01*
X98139124Y-79034525D01*
X98140329Y-79033135D01*
X98142000Y-79025452D01*
X98142000Y-78078115D01*
X98137525Y-78062876D01*
X98136135Y-78061671D01*
X98128452Y-78060000D01*
X97406116Y-78060000D01*
X97390877Y-78064475D01*
X97389672Y-78065865D01*
X97388001Y-78073548D01*
X97388001Y-78328095D01*
X87020500Y-78328095D01*
X87020500Y-77533885D01*
X97388000Y-77533885D01*
X97392475Y-77549124D01*
X97393865Y-77550329D01*
X97401548Y-77552000D01*
X98123885Y-77552000D01*
X98139124Y-77547525D01*
X98140329Y-77546135D01*
X98142000Y-77538452D01*
X98142000Y-76591116D01*
X98137525Y-76575877D01*
X98136135Y-76574672D01*
X98128452Y-76573001D01*
X98098905Y-76573001D01*
X98092386Y-76573338D01*
X97996794Y-76583257D01*
X97983400Y-76586149D01*
X97829216Y-76637588D01*
X97816038Y-76643761D01*
X97678193Y-76729063D01*
X97666792Y-76738099D01*
X97552261Y-76852829D01*
X97543249Y-76864240D01*
X97458184Y-77002243D01*
X97452037Y-77015424D01*
X97400862Y-77169710D01*
X97397995Y-77183086D01*
X97388328Y-77277438D01*
X97388000Y-77283855D01*
X97388000Y-77533885D01*
X87020500Y-77533885D01*
X87020500Y-74455049D01*
X87040502Y-74386928D01*
X87094158Y-74340435D01*
X87164432Y-74330331D01*
X87229012Y-74359825D01*
X87248187Y-74382339D01*
X87248520Y-74382075D01*
X87262099Y-74399208D01*
X87376829Y-74513739D01*
X87388240Y-74522751D01*
X87526243Y-74607816D01*
X87539424Y-74613963D01*
X87693710Y-74665138D01*
X87707086Y-74668005D01*
X87801438Y-74677672D01*
X87807854Y-74678000D01*
X88057885Y-74678000D01*
X88073124Y-74673525D01*
X88074329Y-74672135D01*
X88076000Y-74664452D01*
X88076000Y-74659884D01*
X88584000Y-74659884D01*
X88588475Y-74675123D01*
X88589865Y-74676328D01*
X88597548Y-74677999D01*
X88852095Y-74677999D01*
X88858614Y-74677662D01*
X88954206Y-74667743D01*
X88967600Y-74664851D01*
X89121784Y-74613412D01*
X89134962Y-74607239D01*
X89272807Y-74521937D01*
X89284208Y-74512901D01*
X89398739Y-74398171D01*
X89407751Y-74386760D01*
X89492816Y-74248757D01*
X89498963Y-74235576D01*
X89550138Y-74081290D01*
X89553005Y-74067914D01*
X89562672Y-73973562D01*
X89563000Y-73967146D01*
X89563000Y-73942115D01*
X89558525Y-73926876D01*
X89557135Y-73925671D01*
X89549452Y-73924000D01*
X88602115Y-73924000D01*
X88586876Y-73928475D01*
X88585671Y-73929865D01*
X88584000Y-73937548D01*
X88584000Y-74659884D01*
X88076000Y-74659884D01*
X88076000Y-73542000D01*
X88095770Y-73474669D01*
X90042001Y-73474669D01*
X90042371Y-73481490D01*
X90047895Y-73532352D01*
X90051521Y-73547604D01*
X90096676Y-73668054D01*
X90105214Y-73683649D01*
X90181715Y-73785724D01*
X90194276Y-73798285D01*
X90296351Y-73874786D01*
X90311946Y-73883324D01*
X90432394Y-73928478D01*
X90447649Y-73932105D01*
X90498514Y-73937631D01*
X90505328Y-73938000D01*
X91027885Y-73938000D01*
X91043124Y-73933525D01*
X91044329Y-73932135D01*
X91046000Y-73924452D01*
X91046000Y-73302115D01*
X91041525Y-73286876D01*
X91040135Y-73285671D01*
X91032452Y-73284000D01*
X90060116Y-73284000D01*
X90044877Y-73288475D01*
X90043672Y-73289865D01*
X90042001Y-73297548D01*
X90042001Y-73474669D01*
X88095770Y-73474669D01*
X88096002Y-73473879D01*
X88149658Y-73427386D01*
X88202000Y-73416000D01*
X89544884Y-73416000D01*
X89560123Y-73411525D01*
X89561328Y-73410135D01*
X89562999Y-73402452D01*
X89562999Y-73372905D01*
X89562662Y-73366386D01*
X89552743Y-73270794D01*
X89549851Y-73257400D01*
X89498412Y-73103216D01*
X89492239Y-73090038D01*
X89406937Y-72952193D01*
X89393354Y-72935055D01*
X89395897Y-72933039D01*
X89368733Y-72883494D01*
X89373677Y-72812669D01*
X89416127Y-72755761D01*
X89482604Y-72730837D01*
X89491808Y-72730500D01*
X89950288Y-72730500D01*
X90018409Y-72750502D01*
G37*
%TD.AperFunction*%
%TA.AperFunction,Conductor*%
G36*
X98258902Y-56075301D02*
G01*
X98299861Y-56102649D01*
X98312562Y-56115350D01*
X98319706Y-56123118D01*
X98348613Y-56157326D01*
X98348617Y-56157330D01*
X98353020Y-56162540D01*
X98358444Y-56166687D01*
X98358445Y-56166688D01*
X98416929Y-56211402D01*
X98419345Y-56213295D01*
X98421624Y-56215128D01*
X98476753Y-56259454D01*
X98476756Y-56259456D01*
X98482073Y-56263731D01*
X98488190Y-56266768D01*
X98490802Y-56268438D01*
X98491196Y-56268714D01*
X98491320Y-56268791D01*
X98491742Y-56269023D01*
X98494395Y-56270630D01*
X98499820Y-56274777D01*
X98572730Y-56308775D01*
X98575505Y-56310110D01*
X98641480Y-56342861D01*
X98641484Y-56342863D01*
X98647593Y-56345895D01*
X98654218Y-56347547D01*
X98657121Y-56348615D01*
X98657573Y-56348803D01*
X98657708Y-56348851D01*
X98658167Y-56348986D01*
X98661108Y-56349987D01*
X98667297Y-56352873D01*
X98673960Y-56354362D01*
X98673959Y-56354362D01*
X98745831Y-56370427D01*
X98748828Y-56371136D01*
X98820272Y-56388949D01*
X98826894Y-56390600D01*
X98833714Y-56390790D01*
X98836792Y-56391212D01*
X98837709Y-56391377D01*
X98842585Y-56392054D01*
X98847637Y-56393183D01*
X98853307Y-56393500D01*
X98928965Y-56393500D01*
X98932484Y-56393549D01*
X99011612Y-56395759D01*
X99018318Y-56394480D01*
X99025115Y-56393933D01*
X99025158Y-56394462D01*
X99035364Y-56393500D01*
X101731580Y-56393500D01*
X101799701Y-56413502D01*
X101835792Y-56448678D01*
X101882706Y-56517710D01*
X101910020Y-56546594D01*
X102045376Y-56689728D01*
X102054138Y-56698994D01*
X102074779Y-56714775D01*
X102116745Y-56772040D01*
X102121090Y-56842903D01*
X102081573Y-56909384D01*
X102074918Y-56915251D01*
X101979832Y-56999080D01*
X101979829Y-56999083D01*
X101976035Y-57002428D01*
X101817666Y-57195230D01*
X101692160Y-57410872D01*
X101690347Y-57415595D01*
X101690346Y-57415597D01*
X101672179Y-57462923D01*
X101602745Y-57643805D01*
X101601712Y-57648751D01*
X101601710Y-57648757D01*
X101580375Y-57750885D01*
X101551722Y-57888039D01*
X101540404Y-58137288D01*
X101540985Y-58142308D01*
X101540985Y-58142312D01*
X101566414Y-58362089D01*
X101569081Y-58385140D01*
X101637017Y-58625219D01*
X101742462Y-58851348D01*
X101882706Y-59057710D01*
X101963573Y-59143224D01*
X102037355Y-59221246D01*
X102054138Y-59238994D01*
X102074779Y-59254775D01*
X102116745Y-59312040D01*
X102121090Y-59382903D01*
X102081573Y-59449384D01*
X102078691Y-59451925D01*
X101979832Y-59539080D01*
X101979829Y-59539083D01*
X101976035Y-59542428D01*
X101972825Y-59546336D01*
X101972824Y-59546337D01*
X101957790Y-59564640D01*
X101817666Y-59735230D01*
X101692160Y-59950872D01*
X101690347Y-59955595D01*
X101690346Y-59955597D01*
X101676093Y-59992728D01*
X101602745Y-60183805D01*
X101601712Y-60188751D01*
X101601710Y-60188757D01*
X101562572Y-60376104D01*
X101551722Y-60428039D01*
X101551493Y-60433088D01*
X101551492Y-60433094D01*
X101548177Y-60506098D01*
X101540404Y-60677288D01*
X101540985Y-60682308D01*
X101540985Y-60682312D01*
X101551748Y-60775337D01*
X101569081Y-60925140D01*
X101637017Y-61165219D01*
X101639154Y-61169801D01*
X101721261Y-61345881D01*
X101742462Y-61391348D01*
X101882706Y-61597710D01*
X102054138Y-61778994D01*
X102074779Y-61794775D01*
X102116745Y-61852040D01*
X102121090Y-61922903D01*
X102081573Y-61989384D01*
X102067341Y-62001931D01*
X101979832Y-62079080D01*
X101979829Y-62079083D01*
X101976035Y-62082428D01*
X101881435Y-62197597D01*
X101824857Y-62266476D01*
X101766162Y-62306419D01*
X101727492Y-62312500D01*
X100198062Y-62312500D01*
X100187521Y-62312058D01*
X100136098Y-62307740D01*
X100129338Y-62308642D01*
X100129334Y-62308642D01*
X100056341Y-62318381D01*
X100053287Y-62318751D01*
X99980072Y-62326705D01*
X99980069Y-62326706D01*
X99973291Y-62327442D01*
X99966831Y-62329616D01*
X99963783Y-62330286D01*
X99963322Y-62330367D01*
X99963171Y-62330403D01*
X99962712Y-62330536D01*
X99959693Y-62331278D01*
X99952931Y-62332180D01*
X99946521Y-62334513D01*
X99946517Y-62334514D01*
X99877329Y-62359697D01*
X99874423Y-62360715D01*
X99804623Y-62384205D01*
X99804621Y-62384206D01*
X99798152Y-62386383D01*
X99792298Y-62389900D01*
X99789486Y-62391200D01*
X99789043Y-62391382D01*
X99788884Y-62391458D01*
X99788466Y-62391686D01*
X99785697Y-62393049D01*
X99779285Y-62395382D01*
X99773527Y-62399036D01*
X99773521Y-62399039D01*
X99711356Y-62438490D01*
X99708737Y-62440108D01*
X99645607Y-62478041D01*
X99645605Y-62478042D01*
X99639756Y-62481557D01*
X99634797Y-62486246D01*
X99632318Y-62488128D01*
X99631541Y-62488668D01*
X99627631Y-62491625D01*
X99623262Y-62494398D01*
X99619028Y-62498183D01*
X99565523Y-62551688D01*
X99563001Y-62554141D01*
X99535407Y-62580236D01*
X99505493Y-62608524D01*
X99501659Y-62614166D01*
X99497233Y-62619366D01*
X99496830Y-62619023D01*
X99490296Y-62626915D01*
X98817644Y-63299568D01*
X98809876Y-63306711D01*
X98770460Y-63340020D01*
X98766313Y-63345444D01*
X98766312Y-63345445D01*
X98721598Y-63403929D01*
X98719705Y-63406345D01*
X98669269Y-63469073D01*
X98666232Y-63475190D01*
X98664562Y-63477802D01*
X98664286Y-63478196D01*
X98664209Y-63478320D01*
X98663977Y-63478742D01*
X98662370Y-63481395D01*
X98658223Y-63486820D01*
X98626453Y-63554952D01*
X98624225Y-63559730D01*
X98622890Y-63562505D01*
X98590139Y-63628480D01*
X98590137Y-63628484D01*
X98587105Y-63634593D01*
X98585453Y-63641218D01*
X98584385Y-63644121D01*
X98584197Y-63644573D01*
X98584149Y-63644708D01*
X98584014Y-63645167D01*
X98583013Y-63648108D01*
X98580127Y-63654297D01*
X98578638Y-63660959D01*
X98562573Y-63732831D01*
X98561864Y-63735828D01*
X98559994Y-63743329D01*
X98542400Y-63813894D01*
X98542210Y-63820714D01*
X98541788Y-63823792D01*
X98541623Y-63824709D01*
X98540946Y-63829585D01*
X98539817Y-63834637D01*
X98539500Y-63840307D01*
X98539500Y-63915964D01*
X98539451Y-63919482D01*
X98537241Y-63998611D01*
X98538520Y-64005317D01*
X98539067Y-64012114D01*
X98538538Y-64012157D01*
X98539500Y-64022363D01*
X98539500Y-64980737D01*
X98519498Y-65048858D01*
X98465842Y-65095351D01*
X98395568Y-65105455D01*
X98375821Y-65100971D01*
X98357887Y-65095351D01*
X98328594Y-65086171D01*
X98255993Y-65079500D01*
X98242163Y-65079500D01*
X97578901Y-65079501D01*
X97510781Y-65059499D01*
X97464288Y-65005843D01*
X97454184Y-64935570D01*
X97459588Y-64913003D01*
X97462821Y-64903477D01*
X97464678Y-64898007D01*
X97493700Y-64697842D01*
X97495215Y-64640000D01*
X97476708Y-64438591D01*
X97475008Y-64432561D01*
X97435197Y-64291404D01*
X97421807Y-64243926D01*
X97332351Y-64062527D01*
X97326489Y-64054676D01*
X97214788Y-63905091D01*
X97214787Y-63905090D01*
X97211335Y-63900467D01*
X97170375Y-63862604D01*
X97067053Y-63767094D01*
X97067051Y-63767092D01*
X97062812Y-63763174D01*
X97019471Y-63735828D01*
X96896637Y-63658325D01*
X96891757Y-63655246D01*
X96799809Y-63618562D01*
X96743951Y-63574742D01*
X96720500Y-63501533D01*
X96720499Y-62941891D01*
X96720499Y-62939008D01*
X96719568Y-62928867D01*
X96714440Y-62873060D01*
X96713829Y-62866406D01*
X96679526Y-62756946D01*
X96665399Y-62711866D01*
X96665398Y-62711864D01*
X96663127Y-62704617D01*
X96575297Y-62559592D01*
X96455408Y-62439703D01*
X96439256Y-62429921D01*
X96414014Y-62414633D01*
X96398996Y-62398207D01*
X96396486Y-62401104D01*
X96367135Y-62375671D01*
X96360417Y-62374210D01*
X96321927Y-62358864D01*
X96316882Y-62355809D01*
X96316883Y-62355809D01*
X96310383Y-62351873D01*
X96303136Y-62349602D01*
X96303134Y-62349601D01*
X96230072Y-62326705D01*
X96148594Y-62301171D01*
X96075993Y-62294500D01*
X96073095Y-62294500D01*
X95794271Y-62294501D01*
X95514008Y-62294501D01*
X95511150Y-62294764D01*
X95511141Y-62294764D01*
X95463195Y-62299169D01*
X95441406Y-62301171D01*
X95432682Y-62303905D01*
X95431356Y-62303905D01*
X95428470Y-62304483D01*
X95428354Y-62303905D01*
X95361648Y-62303905D01*
X95361532Y-62304484D01*
X95358641Y-62303905D01*
X95357318Y-62303905D01*
X95348594Y-62301171D01*
X95275993Y-62294500D01*
X95273095Y-62294500D01*
X94994271Y-62294501D01*
X94714008Y-62294501D01*
X94711150Y-62294764D01*
X94711141Y-62294764D01*
X94675757Y-62298015D01*
X94641406Y-62301171D01*
X94635028Y-62303170D01*
X94635027Y-62303170D01*
X94486866Y-62349601D01*
X94486864Y-62349602D01*
X94479617Y-62351873D01*
X94473120Y-62355807D01*
X94466196Y-62358934D01*
X94465711Y-62357860D01*
X94407901Y-62374000D01*
X93635116Y-62374000D01*
X93619877Y-62378475D01*
X93618672Y-62379865D01*
X93617001Y-62387548D01*
X93617001Y-62576904D01*
X93596999Y-62645025D01*
X93591828Y-62652469D01*
X93525211Y-62741356D01*
X93516676Y-62756946D01*
X93471522Y-62877394D01*
X93467895Y-62892649D01*
X93462369Y-62943514D01*
X93462000Y-62950328D01*
X93462000Y-63126885D01*
X93466475Y-63142124D01*
X93467865Y-63143329D01*
X93475548Y-63145000D01*
X93943500Y-63145000D01*
X94011621Y-63165002D01*
X94058114Y-63218658D01*
X94069500Y-63270999D01*
X94069501Y-63468999D01*
X94049499Y-63537120D01*
X93995844Y-63583613D01*
X93943501Y-63595000D01*
X93480116Y-63595000D01*
X93464877Y-63599475D01*
X93463672Y-63600865D01*
X93462001Y-63608548D01*
X93462001Y-63789669D01*
X93462371Y-63796490D01*
X93467895Y-63847352D01*
X93471521Y-63862604D01*
X93516676Y-63983054D01*
X93525214Y-63998649D01*
X93601715Y-64100724D01*
X93614276Y-64113285D01*
X93716351Y-64189786D01*
X93731946Y-64198324D01*
X93852395Y-64243479D01*
X93864489Y-64246354D01*
X93926135Y-64281570D01*
X93958957Y-64344525D01*
X93955677Y-64406301D01*
X93938937Y-64460213D01*
X93915164Y-64661069D01*
X93928392Y-64862894D01*
X93929814Y-64868494D01*
X93929815Y-64868499D01*
X93943526Y-64922487D01*
X93940907Y-64993435D01*
X93900347Y-65051704D01*
X93834722Y-65078795D01*
X93821403Y-65079501D01*
X93594008Y-65079501D01*
X93591150Y-65079764D01*
X93591141Y-65079764D01*
X93555757Y-65083015D01*
X93521406Y-65086171D01*
X93515028Y-65088170D01*
X93515027Y-65088170D01*
X93462679Y-65104575D01*
X93387321Y-65104575D01*
X93328594Y-65086171D01*
X93255993Y-65079500D01*
X93253095Y-65079500D01*
X92798817Y-65079501D01*
X92344008Y-65079501D01*
X92341150Y-65079764D01*
X92341141Y-65079764D01*
X92305757Y-65083015D01*
X92271406Y-65086171D01*
X92194178Y-65110373D01*
X92123195Y-65111658D01*
X92062784Y-65074361D01*
X92032127Y-65010324D01*
X92030500Y-64990139D01*
X92030500Y-61387790D01*
X92050502Y-61319669D01*
X92104158Y-61273176D01*
X92174432Y-61263072D01*
X92239012Y-61292566D01*
X92270926Y-61335038D01*
X92292856Y-61382607D01*
X92301989Y-61395530D01*
X92400827Y-61535383D01*
X92409588Y-61547780D01*
X92554466Y-61688913D01*
X92722637Y-61801282D01*
X92727940Y-61803560D01*
X92727943Y-61803562D01*
X92879261Y-61868573D01*
X92908470Y-61881122D01*
X93105740Y-61925760D01*
X93111509Y-61925987D01*
X93111512Y-61925987D01*
X93187683Y-61928979D01*
X93307842Y-61933700D01*
X93397138Y-61920753D01*
X93502286Y-61905508D01*
X93502291Y-61905507D01*
X93508007Y-61904678D01*
X93513479Y-61902820D01*
X93513481Y-61902820D01*
X93581100Y-61879866D01*
X93652035Y-61876910D01*
X93673252Y-61884272D01*
X93679617Y-61888127D01*
X93841406Y-61938829D01*
X93914007Y-61945500D01*
X93916905Y-61945500D01*
X94195729Y-61945499D01*
X94475992Y-61945499D01*
X94478850Y-61945236D01*
X94478859Y-61945236D01*
X94514243Y-61941985D01*
X94548594Y-61938829D01*
X94557644Y-61935993D01*
X94703134Y-61890399D01*
X94703136Y-61890398D01*
X94710383Y-61888127D01*
X94855408Y-61800297D01*
X94905905Y-61749800D01*
X94968217Y-61715774D01*
X95039032Y-61720839D01*
X95084095Y-61749800D01*
X95134592Y-61800297D01*
X95279617Y-61888127D01*
X95286864Y-61890398D01*
X95286866Y-61890399D01*
X95296567Y-61893439D01*
X95441406Y-61938829D01*
X95514007Y-61945500D01*
X95516905Y-61945500D01*
X95795729Y-61945499D01*
X96075992Y-61945499D01*
X96078850Y-61945236D01*
X96078859Y-61945236D01*
X96114243Y-61941985D01*
X96148594Y-61938829D01*
X96157644Y-61935993D01*
X96303134Y-61890399D01*
X96303136Y-61890398D01*
X96310383Y-61888127D01*
X96316879Y-61884193D01*
X96316881Y-61884192D01*
X96325391Y-61879038D01*
X96355163Y-61865918D01*
X96370123Y-61861525D01*
X96374599Y-61856360D01*
X96404549Y-61831098D01*
X96455408Y-61800297D01*
X96575297Y-61680408D01*
X96663127Y-61535383D01*
X96670841Y-61510770D01*
X96685844Y-61462894D01*
X96713829Y-61373594D01*
X96720500Y-61300993D01*
X96720499Y-60894305D01*
X96740501Y-60826186D01*
X96794156Y-60779692D01*
X96805997Y-60774993D01*
X96934067Y-60731519D01*
X96934069Y-60731518D01*
X96939531Y-60729664D01*
X97116001Y-60630837D01*
X97271505Y-60501505D01*
X97372978Y-60379498D01*
X97397146Y-60350439D01*
X97400837Y-60346001D01*
X97499664Y-60169531D01*
X97532174Y-60073762D01*
X97562820Y-59983481D01*
X97562820Y-59983479D01*
X97564678Y-59978007D01*
X97565508Y-59972285D01*
X97582712Y-59853630D01*
X97612282Y-59789084D01*
X97672677Y-59750591D01*
X97691122Y-59745302D01*
X97719806Y-59737077D01*
X97825812Y-59681658D01*
X97885280Y-59650569D01*
X97885282Y-59650568D01*
X97890930Y-59647615D01*
X97927766Y-59617573D01*
X98035631Y-59529600D01*
X98040571Y-59525571D01*
X98077272Y-59480571D01*
X98158584Y-59380873D01*
X98158586Y-59380870D01*
X98162615Y-59375930D01*
X98252077Y-59204806D01*
X98263650Y-59164448D01*
X98294256Y-59057710D01*
X98305302Y-59019187D01*
X98315500Y-58904924D01*
X98315500Y-58295076D01*
X98313973Y-58277961D01*
X98305835Y-58186786D01*
X98305302Y-58180813D01*
X98261688Y-58028712D01*
X98253835Y-58001324D01*
X98253834Y-58001322D01*
X98252077Y-57995194D01*
X98196057Y-57888039D01*
X98165569Y-57829720D01*
X98165568Y-57829718D01*
X98162615Y-57824070D01*
X98147772Y-57805870D01*
X98044600Y-57679369D01*
X98040571Y-57674429D01*
X97967927Y-57615182D01*
X97927779Y-57556627D01*
X97925662Y-57485662D01*
X97954957Y-57434514D01*
X97954201Y-57433917D01*
X97958194Y-57428861D01*
X97958387Y-57428524D01*
X97958737Y-57428173D01*
X97967751Y-57416760D01*
X98052816Y-57278757D01*
X98058963Y-57265576D01*
X98110138Y-57111290D01*
X98113005Y-57097914D01*
X98122672Y-57003562D01*
X98123000Y-56997146D01*
X98123000Y-56972115D01*
X98118525Y-56956876D01*
X98117135Y-56955671D01*
X98109452Y-56954000D01*
X96762000Y-56954000D01*
X96693879Y-56933998D01*
X96647386Y-56880342D01*
X96636000Y-56828000D01*
X96636000Y-56572000D01*
X96656002Y-56503879D01*
X96709658Y-56457386D01*
X96762000Y-56446000D01*
X98104884Y-56446000D01*
X98120123Y-56441525D01*
X98121328Y-56440135D01*
X98122999Y-56432452D01*
X98122999Y-56402905D01*
X98122662Y-56396386D01*
X98112743Y-56300794D01*
X98109850Y-56287397D01*
X98091242Y-56231619D01*
X98088658Y-56160670D01*
X98124842Y-56099586D01*
X98188307Y-56067762D01*
X98258902Y-56075301D01*
G37*
%TD.AperFunction*%
%TD*%
M02*
