%TF.GenerationSoftware,KiCad,Pcbnew,(6.0.0)*%
%TF.CreationDate,2022-03-17T14:10:33-06:00*%
%TF.ProjectId,main-board,6d61696e-2d62-46f6-9172-642e6b696361,rev?*%
%TF.SameCoordinates,Original*%
%TF.FileFunction,Legend,Bot*%
%TF.FilePolarity,Positive*%
%FSLAX46Y46*%
G04 Gerber Fmt 4.6, Leading zero omitted, Abs format (unit mm)*
G04 Created by KiCad (PCBNEW (6.0.0)) date 2022-03-17 14:10:33*
%MOMM*%
%LPD*%
G01*
G04 APERTURE LIST*
%ADD10C,0.150000*%
%ADD11C,0.120000*%
%ADD12C,1.270000*%
G04 APERTURE END LIST*
D10*
%TO.C,PS1*%
X104034285Y-78602380D02*
X104034285Y-77602380D01*
X103653333Y-77602380D01*
X103558095Y-77650000D01*
X103510476Y-77697619D01*
X103462857Y-77792857D01*
X103462857Y-77935714D01*
X103510476Y-78030952D01*
X103558095Y-78078571D01*
X103653333Y-78126190D01*
X104034285Y-78126190D01*
X103081904Y-78554761D02*
X102939047Y-78602380D01*
X102700952Y-78602380D01*
X102605714Y-78554761D01*
X102558095Y-78507142D01*
X102510476Y-78411904D01*
X102510476Y-78316666D01*
X102558095Y-78221428D01*
X102605714Y-78173809D01*
X102700952Y-78126190D01*
X102891428Y-78078571D01*
X102986666Y-78030952D01*
X103034285Y-77983333D01*
X103081904Y-77888095D01*
X103081904Y-77792857D01*
X103034285Y-77697619D01*
X102986666Y-77650000D01*
X102891428Y-77602380D01*
X102653333Y-77602380D01*
X102510476Y-77650000D01*
X101558095Y-78602380D02*
X102129523Y-78602380D01*
X101843809Y-78602380D02*
X101843809Y-77602380D01*
X101939047Y-77745238D01*
X102034285Y-77840476D01*
X102129523Y-77888095D01*
D11*
X76800000Y-77470000D02*
X129440000Y-77470000D01*
X81320000Y-77800000D02*
X79320000Y-77800000D01*
X129440000Y-77470000D02*
X129440000Y-50030000D01*
X76800000Y-77470000D02*
X76800000Y-50030000D01*
X76800000Y-50030000D02*
X129440000Y-50030000D01*
D12*
%TO.C,REF\u002A\u002A*%
X101092000Y-69850000D02*
X118872000Y-69850000D01*
X118872000Y-69850000D02*
X109982000Y-58420000D01*
X109982000Y-58420000D02*
X101092000Y-69850000D01*
%TD*%
M02*
