%TF.GenerationSoftware,KiCad,Pcbnew,(6.0.0)*%
%TF.CreationDate,2022-03-17T14:10:33-06:00*%
%TF.ProjectId,main-board,6d61696e-2d62-46f6-9172-642e6b696361,rev?*%
%TF.SameCoordinates,Original*%
%TF.FileFunction,Soldermask,Top*%
%TF.FilePolarity,Negative*%
%FSLAX46Y46*%
G04 Gerber Fmt 4.6, Leading zero omitted, Abs format (unit mm)*
G04 Created by KiCad (PCBNEW (6.0.0)) date 2022-03-17 14:10:33*
%MOMM*%
%LPD*%
G01*
G04 APERTURE LIST*
G04 Aperture macros list*
%AMRoundRect*
0 Rectangle with rounded corners*
0 $1 Rounding radius*
0 $2 $3 $4 $5 $6 $7 $8 $9 X,Y pos of 4 corners*
0 Add a 4 corners polygon primitive as box body*
4,1,4,$2,$3,$4,$5,$6,$7,$8,$9,$2,$3,0*
0 Add four circle primitives for the rounded corners*
1,1,$1+$1,$2,$3*
1,1,$1+$1,$4,$5*
1,1,$1+$1,$6,$7*
1,1,$1+$1,$8,$9*
0 Add four rect primitives between the rounded corners*
20,1,$1+$1,$2,$3,$4,$5,0*
20,1,$1+$1,$4,$5,$6,$7,0*
20,1,$1+$1,$6,$7,$8,$9,0*
20,1,$1+$1,$8,$9,$2,$3,0*%
G04 Aperture macros list end*
%ADD10RoundRect,0.250000X0.250000X0.475000X-0.250000X0.475000X-0.250000X-0.475000X0.250000X-0.475000X0*%
%ADD11C,0.800000*%
%ADD12C,6.400000*%
%ADD13R,2.000000X1.905000*%
%ADD14O,2.000000X1.905000*%
%ADD15R,3.000000X3.000000*%
%ADD16C,3.000000*%
%ADD17RoundRect,0.250000X-0.312500X-0.625000X0.312500X-0.625000X0.312500X0.625000X-0.312500X0.625000X0*%
%ADD18R,1.200000X0.900000*%
%ADD19R,1.980000X1.980000*%
%ADD20C,1.980000*%
%ADD21C,1.935000*%
%ADD22C,2.300000*%
%ADD23RoundRect,0.250000X-0.475000X0.250000X-0.475000X-0.250000X0.475000X-0.250000X0.475000X0.250000X0*%
%ADD24RoundRect,0.250000X0.450000X-0.262500X0.450000X0.262500X-0.450000X0.262500X-0.450000X-0.262500X0*%
%ADD25R,2.000000X0.640000*%
%ADD26R,0.800000X1.500000*%
%ADD27R,1.500000X0.800000*%
%ADD28R,4.800000X4.800000*%
%ADD29RoundRect,0.150000X0.150000X-0.587500X0.150000X0.587500X-0.150000X0.587500X-0.150000X-0.587500X0*%
%ADD30RoundRect,0.250000X-0.450000X0.262500X-0.450000X-0.262500X0.450000X-0.262500X0.450000X0.262500X0*%
%ADD31R,0.450000X0.750000*%
%ADD32R,1.740000X1.350000*%
%ADD33R,2.000000X1.780000*%
%ADD34RoundRect,0.250000X-0.325000X-0.650000X0.325000X-0.650000X0.325000X0.650000X-0.325000X0.650000X0*%
%ADD35O,3.000000X1.700000*%
%ADD36RoundRect,0.250000X0.262500X0.450000X-0.262500X0.450000X-0.262500X-0.450000X0.262500X-0.450000X0*%
%ADD37RoundRect,0.250000X0.475000X-0.250000X0.475000X0.250000X-0.475000X0.250000X-0.475000X-0.250000X0*%
G04 APERTURE END LIST*
D10*
%TO.C,C4*%
X100296000Y-77806000D03*
X98396000Y-77806000D03*
%TD*%
D11*
%TO.C,REF\u002A\u002A*%
X81697056Y-80302944D03*
X78302944Y-80302944D03*
D12*
X80000000Y-82000000D03*
D11*
X81697056Y-83697056D03*
X82400000Y-82000000D03*
X78302944Y-83697056D03*
X80000000Y-79600000D03*
X77600000Y-82000000D03*
X80000000Y-84400000D03*
%TD*%
D13*
%TO.C,Q2*%
X147680000Y-78360000D03*
D14*
X147680000Y-80900000D03*
X147680000Y-83440000D03*
%TD*%
D15*
%TO.C,J2*%
X156360000Y-57730000D03*
D16*
X156360000Y-52650000D03*
%TD*%
D17*
%TO.C,R1*%
X83877500Y-52040000D03*
X86802500Y-52040000D03*
%TD*%
D18*
%TO.C,D1*%
X129620000Y-61430000D03*
X129620000Y-64730000D03*
%TD*%
D19*
%TO.C,K1*%
X135392500Y-51790000D03*
D20*
X135392500Y-63790000D03*
D21*
X133392500Y-57790000D03*
D20*
X147592500Y-51790000D03*
X147592500Y-63790000D03*
%TD*%
D11*
%TO.C,REF\u002A\u002A*%
X88500000Y-42600000D03*
D12*
X88500000Y-45000000D03*
D11*
X90197056Y-43302944D03*
X88500000Y-47400000D03*
X86802944Y-43302944D03*
X86100000Y-45000000D03*
X90900000Y-45000000D03*
X90197056Y-46697056D03*
X86802944Y-46697056D03*
%TD*%
D17*
%TO.C,R7*%
X141687500Y-80950000D03*
X144612500Y-80950000D03*
%TD*%
D11*
%TO.C,REF\u002A\u002A*%
X141302944Y-68302944D03*
X145400000Y-70000000D03*
X143000000Y-67600000D03*
X140600000Y-70000000D03*
X141302944Y-71697056D03*
X144697056Y-68302944D03*
D12*
X143000000Y-70000000D03*
D11*
X143000000Y-72400000D03*
X144697056Y-71697056D03*
%TD*%
D22*
%TO.C,F1*%
X71600000Y-67550000D03*
X71600000Y-62950000D03*
X71600000Y-83450000D03*
X71600000Y-78850000D03*
%TD*%
D15*
%TO.C,J3*%
X156250000Y-77710000D03*
D16*
X156250000Y-82790000D03*
%TD*%
D15*
%TO.C,J1*%
X72150000Y-44160000D03*
D16*
X72150000Y-49240000D03*
%TD*%
D23*
%TO.C,C3*%
X92920000Y-56700000D03*
X92920000Y-58600000D03*
%TD*%
D17*
%TO.C,R2*%
X83877500Y-55650000D03*
X86802500Y-55650000D03*
%TD*%
D24*
%TO.C,R3*%
X98570000Y-54102000D03*
X98570000Y-52277000D03*
%TD*%
D25*
%TO.C,U1*%
X89960000Y-52410000D03*
X89960000Y-54950000D03*
X96260000Y-54950000D03*
X96260000Y-52410000D03*
%TD*%
D26*
%TO.C,U4*%
X92800000Y-74530000D03*
X94050000Y-74530000D03*
X95300000Y-74530000D03*
X96550000Y-74530000D03*
X97800000Y-74530000D03*
D27*
X99300000Y-73030000D03*
X99300000Y-71780000D03*
X99300000Y-70530000D03*
X99300000Y-69280000D03*
X99300000Y-68030000D03*
D26*
X97800000Y-66530000D03*
X96550000Y-66530000D03*
X95300000Y-66530000D03*
X94050000Y-66530000D03*
X92800000Y-66530000D03*
D27*
X91300000Y-68030000D03*
X91300000Y-69280000D03*
X91300000Y-70530000D03*
X91300000Y-71780000D03*
X91300000Y-73030000D03*
D28*
X95300000Y-70530000D03*
%TD*%
D23*
%TO.C,C2*%
X88330000Y-71770000D03*
X88330000Y-73670000D03*
%TD*%
D29*
%TO.C,Q1*%
X128680000Y-68477500D03*
X130580000Y-68477500D03*
X129630000Y-66602500D03*
%TD*%
D30*
%TO.C,R5*%
X124500000Y-79037500D03*
X124500000Y-80862500D03*
%TD*%
D31*
%TO.C,U5*%
X95795000Y-60870000D03*
X94995000Y-60870000D03*
X94195000Y-60870000D03*
X94195000Y-63370000D03*
X94995000Y-63370000D03*
X95795000Y-63370000D03*
D32*
X94995000Y-62120000D03*
%TD*%
D33*
%TO.C,U3*%
X127120000Y-80990000D03*
X127120000Y-83530000D03*
X134740000Y-83530000D03*
X134740000Y-80990000D03*
%TD*%
D24*
%TO.C,R8*%
X94910000Y-58542500D03*
X94910000Y-56717500D03*
%TD*%
D17*
%TO.C,R6*%
X137077500Y-80950000D03*
X140002500Y-80950000D03*
%TD*%
D34*
%TO.C,C1*%
X141725000Y-77440000D03*
X144675000Y-77440000D03*
%TD*%
D35*
%TO.C,U2*%
X103745000Y-45383000D03*
X103745000Y-47923000D03*
X103745000Y-50463000D03*
X103745000Y-53003000D03*
X103745000Y-55543000D03*
X103745000Y-58083000D03*
X103745000Y-60623000D03*
X103745000Y-63163000D03*
X103745000Y-65703000D03*
X103745000Y-68243000D03*
X103745000Y-70783000D03*
X103745000Y-73323000D03*
X103745000Y-75863000D03*
X103745000Y-78403000D03*
X103745000Y-80943000D03*
X120255000Y-80943000D03*
X120255000Y-78403000D03*
X120255000Y-75863000D03*
X120255000Y-73323000D03*
X120255000Y-70783000D03*
X120255000Y-68243000D03*
X120255000Y-65703000D03*
X120255000Y-63163000D03*
X120255000Y-60623000D03*
X120255000Y-58083000D03*
X120255000Y-55543000D03*
X120255000Y-53003000D03*
X120255000Y-50463000D03*
X120255000Y-47923000D03*
X120255000Y-45383000D03*
%TD*%
D11*
%TO.C,REF\u002A\u002A*%
X141302944Y-43302944D03*
X143000000Y-47400000D03*
X141302944Y-46697056D03*
X144697056Y-43302944D03*
X143000000Y-42600000D03*
D12*
X143000000Y-45000000D03*
D11*
X145400000Y-45000000D03*
X144697056Y-46697056D03*
X140600000Y-45000000D03*
%TD*%
D36*
%TO.C,R4*%
X130452500Y-70630000D03*
X128627500Y-70630000D03*
%TD*%
D37*
%TO.C,C5*%
X96890000Y-58600000D03*
X96890000Y-56700000D03*
%TD*%
D15*
%TO.C,PS1*%
X80320000Y-74150000D03*
D16*
X80320000Y-53350000D03*
X125320000Y-53350000D03*
X125320000Y-61350000D03*
%TD*%
M02*
